<svg xmlns="http://www.w3.org/2000/svg" xmlns:xlink="http://www.w3.org/1999/xlink" version="1.1" id="Layer_2" x="0px" y="0px" width="100px" height="100px" viewBox="5.0 -10.0 100.0 135.0" enable-background="new 0 0 100 100" xml:space="preserve">
<path d="M5.842,19.803c0.566,1.698,2.398,1.526,3.139,1.613c0.741,0.087,1.613-0.807,1.613-0.807s0.453-3.117,0.226-4.076  s-1.098-4.316-0.924-4.97c0.174-0.654,1.482-4.185,1.482-4.185s-2.834,3.139-3.182,4.185c-0.349,1.046-0.959,3.313-1.308,4.534  C6.539,17.318,5.362,18.365,5.842,19.803z"/>
<path d="M14.11,4.196c0.241,0.185,1.424-0.552,1.918-0.465c0.494,0.087,1.046,0.227,1.046,0.227S16.9,1.087,15.593,1.057  S13.733,3.906,14.11,4.196z"/>
<path d="M30.444,62.09c0,0,2.848,0.174,4.301,1.744s2.383,4.766,2.441,6.51c0.058,1.744-0.233,6.626,0,8.312  s1.453,4.883,1.686,5.638c0.233,0.756-1.221,7.324-1.221,7.324s-0.291-5.057-0.639-7.324c-0.349-2.267-1.951-5.173-2.342-6.975  c-0.39-1.802-0.158-3.313-0.565-5.115c-0.407-1.802-2.267-3.662-2.616-5.522S30.444,62.09,30.444,62.09z"/>
<path d="M70.842,68.368c0,0,2.616,1.628,3.371,3.081c0.756,1.453,0,6.394,0,6.394s-4.301,9.416-5.057,10.928  c-0.756,1.511-3.604,7.556-3.604,7.556h4.301c0,0,0.116-1.163,1.104-1.569c0.988-0.407,0-2.267,0.93-2.441s2.125-0.639,2.661-0.872  s-0.394-3.197,0.478-4.941c0.872-1.744,2.034-6.801,3.371-7.615c1.337-0.814,2.209-1.918,2.209-1.918s-0.814-3.894-0.233-5.58  c0.581-1.686,1.744-2.616,1.744-2.616l-3.546-6.568c0,0-1.86,3.546-2.616,4.069C75.201,66.798,70.842,68.368,70.842,68.368z"/>
<path d="M93.511,79.354c0.436-2.441,1.046-4.708,0.61-6.365c-0.436-1.657-3.313-8.835-2.79-11.262  c0.523-2.427,0.61-12.977,0.61-15.505s-2.877-6.278-2.877-6.278s2.093-2.528,2.703-4.359c0.61-1.831-0.698-1.133-0.698-1.133  s0.262-2.267-1.657-4.011c-1.918-1.744-6.19-3.226-6.19-3.226s4.011,3.081,4.447,6.365c0.067,0.506-1.133,1.112-2.267,1.569  c-2.357,0.952-12.468-1.221-17.525-1.133c-5.057,0.087-14.561,1.221-15.781,0.785c-1.221-0.436-5.057-2.703-6.278-3.836  c-1.221-1.133-7.934-1.918-7.934-1.918l-5.057-5.885c0,0-0.741,0.218-2.354,0c-1.613-0.218-4.447-2.18-4.97-3.836  c-0.523-1.657-0.131-4.534-0.305-5.842s-2.746-5.144-2.746-5.144s2.746,3.052,3.27,4.621s-0.392,5.493,0.349,6.147  c0.741,0.654,3.139,3.531,4.534,3.531s5.231-1.657,3.27-5.929c-1.962-4.272-5.493-6.278-6.016-7.716s-2.616-2.485-2.616-2.485  s2.18-3.793,3.575-3.924s6.583,1.221,6.583,1.221s-3.924-3.444-6.626-3.575s-7.28,4.665-7.28,4.665s-5.319-0.523-6.801-0.174  s-1.7,2.485-2.267,3.095c-0.567,0.61-1.831,2.746-1.569,3.836s0.61,3.139,0.567,4.708c-0.044,1.569-0.436,6.83-0.218,7.949  c0.147,0.753,0.965,1.208,1.519,1.538c0.359-0.07,0.687-0.145,0.857-0.201c0.458-0.153,2.354-0.654,2.768-0.828  c0.414-0.174,1.657-1.264,1.657-1.264s-1.024,1.569-1.417,1.766s-1.155,0.458-1.809,0.654c-0.394,0.118-0.898,0.268-1.313,0.412  c0.572,0.439,1.538,1.109,2.098,1.296c0.698,0.233,3.429-1.046,3.429-1.046s2.093,5.348,2.906,7.905  c0.814,2.558,3.139,6.103,3.72,7.905c0.581,1.802-0.116,6.103,0.407,7.673c0.523,1.569,1.86,6.917,2.616,8.37  c0.756,1.453,3.546,3.197,4.999,3.546c1.453,0.349,3.604,2.848,3.662,4.011c0.058,1.163,1.017,5.464,1.017,7.556  s-0.174,4.447,0,6.19c0.174,1.744,1.831,3.836,1.308,6.626c-0.523,2.79-3.488,12.73-3.488,12.73h5.057c0,0,1.482-2.093,2.354-2.616  c0.872-0.523-0.436-2.093,0-3.313c0.436-1.221,0.785-2.093,0.698-3.139c-0.087-1.046-1.046-4.359-0.785-6.714  c0.262-2.354,1.657-4.447,1.831-5.929c0.174-1.482-1.744-5.58-1.482-7.237c0.262-1.657,1.569-5.231,2.877-5.929  c1.308-0.698,2.703,1.657,5.493,2.005c2.79,0.349,11.858,2.005,16.304,1.482c4.447-0.523,7.411-2.79,8.021-3.139  c0.61-0.349,2.267-4.97,2.267-4.97s3.139,8.37,4.708,10.027c1.569,1.657,4.185,4.272,4.621,5.842  c0.436,1.569,1.395,10.986,0.785,12.904c-0.61,1.918-3.026,7.905-3.026,7.905h4.203c0,0,0.566-4.156,1.613-5.028  c1.046-0.872,1.308-1.918,1.831-2.616S93.075,81.795,93.511,79.354z M22.103,13.09c-0.581,0.349-2.296,0-2.296,0  s-0.087-1.715,0.639-1.976s1.744-0.203,1.889,0.262C22.481,11.84,22.684,12.741,22.103,13.09z"/>
<path d="M21.757,11.881c0.204-0.02,0.385,0.129,0.405,0.333c0.02,0.204-0.129,0.385-0.333,0.405l-1.045,0.102  c-0.204,0.02-0.385-0.129-0.405-0.333c-0.02-0.204,0.129-0.385,0.333-0.405L21.757,11.881z"/>
<text x="0.0" y="117.5" font-size="5.0" font-weight="bold" font-family="Helvetica Neue, Helvetica, Arial-Unicode, Arial, Sans-serif" fill="#000000">Created by Anand Prahlad</text><text x="0.0" y="122.5" font-size="5.0" font-weight="bold" font-family="Helvetica Neue, Helvetica, Arial-Unicode, Arial, Sans-serif" fill="#000000">from the Noun Project</text></svg>