<svg xmlns="http://www.w3.org/2000/svg" xmlns:xlink="http://www.w3.org/1999/xlink" version="1.1" id="Your_Icon" x="0px" y="0px" width="100px" height="100px" viewBox="5.0 -10.0 100.0 135.0" enable-background="new 0 0 100 100" xml:space="preserve">
<g>
	<path fill="#000000" d="M97.113,76.28c-0.11-0.193-0.196-0.347-0.078-0.567c0.338-0.636,0.139-1.085-0.162-1.769   c-0.104-0.235-0.223-0.503-0.335-0.816l-0.046-0.13c-0.284-0.796-0.284-0.796-0.738-1.511c-0.142-0.222-0.334-0.525-0.593-0.942   c-0.548-0.885-0.945-1.925-1.331-2.93c-0.393-1.025-0.763-1.994-1.245-2.651c-0.58-0.789-0.88-1.648-1.1-2.275   c-0.14-0.399-0.241-0.687-0.362-0.817c-0.286-0.306-0.606-0.346-0.855-0.346c-0.055,0-0.107,0.002-0.157,0.004   c-0.043,0.002-0.084,0.004-0.123,0.004c-0.138,0-0.201-0.022-0.231-0.082c-0.169-0.332-0.583-1.417-1.154-2.919   c-1.908-5.019-5.463-14.358-7.611-15.891c-1.046-0.744-3.085-2.907-3.259-4.387c-0.164-1.402,5.645-10.324,7.4-11.363   c0.834-0.495,1.493-0.886,3.763-0.886c0.804,0,1.774,0.049,2.965,0.15c0.181,0.016,0.357,0.023,0.526,0.023   c1.095,0,1.733-0.313,1.88-0.622c0.076-0.162,0.079-0.303,0.007-0.417c-0.239-0.38-1.276-0.385-2.19-0.389   c-0.48-0.002-0.935-0.004-1.196-0.061c-1.263-0.275-2.433-0.415-3.476-0.415c-1.15,0-2.142,0.172-2.944,0.511   c-3.574,1.508-8.273,7.819-10.28,10.516c-0.51,0.685-0.879,1.181-0.97,1.246c-0.053,0.037-0.15,0.058-0.286,0.058   c-0.229,0-0.538-0.05-0.896-0.108c-0.445-0.071-0.948-0.152-1.408-0.152c-0.343,0-0.618,0.045-0.84,0.137   c-0.007,0.004-0.02,0.006-0.043,0.006c-0.199,0-0.751-0.234-1.584-0.591c-2.32-0.989-7.149-3.048-14.135-4.162   c-3.213-0.513-6.051-2.479-7.929-3.78c-1.011-0.699-1.741-1.205-2.197-1.283c-1.151-0.196-2.502-1.083-3.587-1.795   c-0.604-0.396-1.125-0.738-1.469-0.863c-0.244-0.089-0.572-0.264-0.989-0.484c-1.214-0.646-3.049-1.619-5.573-2.019   c-2.221-0.351-3.509-0.48-4.752-0.48c-0.484,0-0.97,0.02-1.576,0.063c-0.365,0.026-0.792,0.045-1.243,0.064   c-1.484,0.063-3.167,0.135-3.905,0.527c-0.052,0.027-0.122,0.043-0.209,0.043c-0.848,0-3.042-1.338-3.532-2.039   c-0.335-0.48-0.816-0.767-1.287-0.767c-0.339,0-0.643,0.155-0.857,0.438c-0.465,0.614-0.493,1.766-0.08,3.242   c-0.209,0.209-0.385,0.407-0.541,0.582c-0.34,0.381-0.587,0.657-0.885,0.743c-0.246,0.07-0.488,0.106-0.719,0.106   c-0.885,0-1.51-0.521-1.966-0.902c-0.099-0.082-0.193-0.161-0.281-0.227c-0.037-0.028-0.072-0.041-0.106-0.041   c-0.029,0-0.071,0.011-0.106,0.06c-0.12,0.167-0.087,0.67,0.074,1.146c0.126,0.375,0.328,0.764,0.506,1.106   c0.188,0.361,0.35,0.672,0.383,0.88c0.071,0.443-0.444,1.028-0.942,1.594C9.85,28.11,9.43,28.588,9.3,29.013   c-0.121,0.397-0.032,0.854,0.055,1.296c0.069,0.352,0.134,0.685,0.081,0.945c-0.088,0.432-0.387,1.157-0.703,1.926   c-0.541,1.313-1.152,2.801-0.925,3.334c0.365,0.857,0.87,0.966,1.141,1.024c0.084,0.019,0.156,0.033,0.173,0.062   c0.007,0.011,0.007,0.03,0,0.056c-0.073,0.268,0.098,0.766,0.397,1.157c0.229,0.301,0.737,0.805,1.552,0.805   c0.163,0,0.297,0.185,0.467,0.417c0.323,0.443,0.768,1.053,1.824,1.025c1.065-0.026,1.716-0.754,2.24-1.337   c0.333-0.372,0.622-0.693,0.914-0.693c0.258,0,0.521,0.03,0.775,0.061c0.248,0.027,0.503,0.058,0.747,0.058   c0.284,0,0.514-0.038,0.724-0.122c0.317-0.124,0.422-0.402,0.523-0.672c0.075-0.2,0.147-0.391,0.301-0.505   c0.269,0.612,0.329,1.553-0.014,1.969c-0.255,0.309-1.78,0.524-2.895,0.682c-0.236,0.033-0.458,0.064-0.651,0.094   c-0.922,0.143-3.857,1.202-4.419,1.444c-0.163,0.068-0.466,0.159-0.819,0.263c-0.977,0.288-2.316,0.685-2.636,1.196   c-0.111,0.177-0.343,0.263-0.708,0.263c-0.329,0-0.716-0.067-1.092-0.133c-0.347-0.06-0.674-0.117-0.931-0.117   c-0.101,0-0.184,0.009-0.254,0.026c-0.388,0.098-0.493,0.281-0.569,0.417c-0.063,0.111-0.105,0.186-0.277,0.186   c-0.485,0-0.793,0.262-0.92,0.507c-0.169,0.325-0.153,0.587-0.136,0.866c0.012,0.204,0.025,0.416-0.038,0.669   c-0.035,0.142-0.104,0.327-0.185,0.542c-0.256,0.68-0.606,1.611-0.086,1.91c0.355,0.205,0.623,0.48,0.859,0.724   c0.377,0.389,0.7,0.722,1.239,0.668c0.089-0.009,0.177-0.014,0.261-0.014c0.524,0,0.847,0.169,1.133,0.318   c0.203,0.104,0.378,0.196,0.58,0.196c0.074,0,0.147-0.012,0.222-0.037c0.355-0.118,0.616-0.254,0.825-0.362   c0.252-0.131,0.435-0.226,0.642-0.226c0.131,0,0.267,0.037,0.427,0.119c0.209,0.107,0.396,0.308,0.594,0.521   c0.323,0.344,0.689,0.735,1.276,0.896c0.141,0.037,0.285,0.057,0.44,0.057c0.348,0,0.693-0.097,1.026-0.189   c0.322-0.089,0.655-0.183,0.98-0.183c0.111,0,0.214,0.011,0.316,0.033c0.129,0.026,0.244,0.039,0.349,0.039   c0.279,0,0.448-0.094,0.626-0.192c0.217-0.12,0.441-0.246,0.907-0.246c0.102,0,0.211,0.006,0.328,0.019   c0.224,0.026,0.755-0.457,1.317-0.971c0.511-0.466,1.039-0.949,1.279-0.988c0.012-0.002,0.028-0.004,0.048-0.004   c0.351,0,1.762,0.257,3.397,0.553c2.288,0.414,4.895,0.886,5.579,0.837c0.703-0.049,1.628-1.134,2.444-2.09   c0.594-0.696,1.156-1.355,1.493-1.442c0.344-0.088,2.073-0.229,3.473-0.229c0.823,0,1.395,0.05,1.651,0.143   c0.36,0.13,1.877,0.794,3.797,1.635c3.872,1.696,9.174,4.018,10.281,4.288c0.975,0.238,2.191,0.353,3.718,0.353   c1.402,0,2.877-0.095,4.302-0.187c1.323-0.085,2.572-0.165,3.677-0.165c1.113,0,1.947,0.086,2.548,0.263   c3.928,1.157,7.049,5.891,9.329,9.346c0.532,0.809,1.036,1.571,1.479,2.179c0.515,0.705,1.166,1.311,1.795,1.898   c0.809,0.753,1.646,1.533,2.221,2.54c1.208,2.113,2.574,4.759,2.411,6.462c-0.024,0.264-0.052,0.522-0.077,0.773   c-0.156,1.509-0.28,2.699,0.141,3.046c0.114,0.095,0.229,0.124,0.339,0.151c0.175,0.044,0.341,0.084,0.506,0.404   c0.058,0.109,0.105,0.229,0.15,0.344c0.121,0.303,0.234,0.588,0.502,0.655c0.061,0.014,0.116,0.027,0.173,0.04   c0.263,0.059,0.511,0.114,1.002,0.396c0.092,0.052,0.188,0.078,0.287,0.078c0.451,0,0.882-0.546,1.228-0.983   c0.065-0.082,0.128-0.161,0.186-0.231c0.238-0.286,0.225-0.602,0.212-0.857c-0.011-0.224-0.019-0.401,0.125-0.508   c0.167-0.127,0.228-0.4,0.25-0.608c0.042-0.408-0.033-0.868-0.171-1.025c-0.396-0.452-0.619-1.014-0.783-1.423   c-0.078-0.197-0.146-0.367-0.214-0.48c-0.579-0.951-0.75-2.475-0.877-3.586c-0.088-0.777-0.139-1.185-0.267-1.271   c-0.375-0.255-0.969-2.403-1.359-3.825c-0.283-1.023-0.435-1.56-0.517-1.633c-0.116-0.102-0.263-0.2-0.43-0.315   c-0.33-0.226-0.727-0.498-1.078-0.92c-0.005-0.011-0.013-0.021-0.021-0.028c-0.005-0.007-0.012-0.011-0.017-0.016   c-0.279-0.348-0.524-0.793-0.682-1.392l-0.111-0.432c-0.367-1.399-0.822-3.137-0.948-4.342c0.969,0.553,6.314,7.104,6.904,7.983   c0.19,0.284,0.446,0.475,0.77,0.715c0.761,0.566,1.909,1.421,3.262,4.479c0.487,1.099,0.797,2.607,1.07,3.938   c0.308,1.492,0.573,2.78,1.009,3.215c0.394,0.393,0.681,0.438,0.91,0.475c0.146,0.024,0.26,0.043,0.365,0.145   c0.583,0.56,0.875,0.828,1.157,0.828c0.11,0,0.218-0.045,0.328-0.137c0.154-0.129,0.338-0.228,0.531-0.33   c0.423-0.227,0.901-0.483,1.144-1.15C97.421,76.824,97.25,76.522,97.113,76.28z M95.423,78.338   c-0.054,0.023-0.111,0.036-0.175,0.036c-0.362,0-0.771-0.401-1.012-0.746c-0.144-0.205-0.361-0.296-0.591-0.394   c-0.228-0.097-0.462-0.197-0.636-0.415c-0.146-0.182-0.398-1.332-0.718-2.786c-0.28-1.276-0.604-2.749-0.921-3.86   c0.1-0.068,0.2-0.19,0.288-0.351c0.202-0.367,0.29-0.494,0.778-1.196l0.023-0.033c0.375-0.541,0.388-0.543,0.597-0.576   c0.07-0.011,0.165-0.024,0.297-0.062c0.017-0.003,0.032-0.009,0.047-0.014c0.046,0.104,0.093,0.213,0.141,0.322   c0.558,1.289,1.189,2.749,2.119,4.065c0.272,0.386,1.331,2.49,0.73,3.353c-0.099,0.143,0.039,0.47,0.171,0.786   c0.162,0.384,0.328,0.781,0.157,1.001C96.427,77.846,95.989,78.089,95.423,78.338z M83.294,56.181   c0.319-0.327,0.594-0.611,0.744-1.162c0.344-1.273,0.389-2.468,0.143-3.759c-0.201-1.052-1.51-3.348-1.676-3.348l-0.027,0.002   l-0.014,0.018c-0.017,0.025-0.014,0.059,0.014,0.136c0.601,1.744,0.69,4.012,0.198,5.056c-0.266,0.564-0.442,1.528-0.584,2.302   c-0.114,0.614-0.21,1.145-0.317,1.313c-0.091,0.145-0.324,0.257-0.551,0.362c-0.174,0.084-0.343,0.165-0.446,0.261   c-0.198-0.205-0.393-0.401-0.576-0.586c0.435-0.102,0.895-0.482,1.091-1.313c0.229-0.976,0.362-1.847,0.362-3.413   c0-0.224,0.002-0.429,0.004-0.619c0.013-1.111,0.019-1.723-0.425-3.037c-0.21-0.62-0.32-1.135-0.415-1.589   c-0.141-0.654-0.251-1.172-0.594-1.632c-0.107-0.144-0.21-0.304-0.318-0.475c-0.225-0.354-0.457-0.721-0.753-0.939   c-0.1-0.073-0.16-0.074-0.188-0.027c-0.05,0.081,0.053,0.31,0.3,0.791c0.051,0.099,0.095,0.185,0.12,0.24   c0.454,0.997,0.939,2.518,0.939,3.796c0,0.447,0.014,0.88,0.027,1.298c0.025,0.792,0.049,1.54-0.027,2.233   c-0.054,0.48-0.159,0.834-0.252,1.144c-0.113,0.379-0.212,0.707-0.192,1.161c0.01,0.258,0.061,0.516,0.11,0.766   c0.109,0.55,0.195,0.983-0.196,1.125c-0.022,0.009-0.043,0.018-0.063,0.026c-0.438-0.4-1.71-1.277-3.218-2.24   c0.025-0.196,0.032-0.431,0.023-0.698c-0.026-0.778,0.073-1.335,0.172-1.874c0.114-0.627,0.223-1.218,0.092-2.055   c-0.099-0.633-0.167-0.856-0.223-1.037c-0.076-0.249-0.126-0.413-0.195-1.547c-0.091-1.505-1.232-3.544-2.148-5.182   c-0.28-0.501-0.545-0.975-0.748-1.375c-0.823-1.635-0.909-1.635-0.961-1.635c-0.019,0-0.035,0.01-0.047,0.025   c-0.093,0.138,0.458,1.638,1.653,4.742c0.208,0.54,0.404,1.049,0.549,1.433c0.572,1.521,0.628,3.059,0.678,4.415   c0.009,0.283,0.02,0.553,0.033,0.812c0.049,0.873,0.185,1.695,0.295,2.355c0.078,0.472,0.146,0.884,0.164,1.201   c-0.81-0.51-1.659-1.025-2.464-1.493c0.057-0.139,0.101-0.302,0.129-0.498c0.181-1.233,0.052-3.872-0.237-4.868   c-0.159-0.548-0.333-0.997-0.518-1.472c-0.159-0.404-0.321-0.824-0.484-1.333c-0.081-0.255-0.141-0.46-0.193-0.642   c-0.17-0.6-0.255-0.9-0.808-1.664c-0.325-0.449-0.621-0.779-0.885-1.073c-0.325-0.362-0.606-0.676-0.868-1.12   c-0.244-0.412-0.597-0.862-0.936-1.298c-0.335-0.429-0.681-0.871-0.91-1.263c-0.203-0.347-0.39-0.653-0.581-0.911   c0.009,0.003,0.017,0.007,0.024,0.01c1.298,0.484,2.154,0.805,2.542,0.805c0.053,0,0.096-0.006,0.13-0.019   c0.112-0.039,0.254-0.058,0.433-0.058c0.333,0,0.743,0.066,1.179,0.137c0.347,0.056,0.702,0.114,1.033,0.14   c0.095,0.113,0.289,0.269,0.591,0.504c0.428,0.337,1.015,0.796,1.415,1.29c1.4,1.73,1.932,3.219,2.249,4.108   c0.12,0.336,0.207,0.581,0.302,0.729c0.432,0.674,0.692,1.153,0.817,1.383c0.102,0.188,0.102,0.188,0.134,0.188h0.023l0.012-0.018   c0.019-0.023,0.019-0.023-0.05-0.243c-0.069-0.219-0.197-0.628-0.358-1.242c-0.336-1.273-0.677-1.829-1.036-2.418   c-0.217-0.354-0.44-0.718-0.665-1.258c-0.479-1.145-1.808-2.557-2.596-3.064c0.191-0.048,0.338-0.128,0.439-0.242   c0.036-0.039,0.113-0.147,0.228-0.31c0.206,0.048,0.621,0.066,1.333,0.089c0.881,0.028,1.977,0.063,2.231,0.25   c0.015,0.011,0.031,0.02,0.046,0.028c-0.321,0.73-0.492,1.336-0.434,1.716c0.132,0.86,1.027,1.86,2.16,3.126   c0.665,0.741,1.417,1.58,2.121,2.519c1.724,2.294,3.309,5.543,5.681,11.839c-0.025,0.004-0.045,0.015-0.056,0.029   c-0.005,0.008-0.009,0.018-0.009,0.025c-0.043,0.028-0.214,0.089-0.38,0.147c-0.433,0.152-1.086,0.384-1.463,0.686   c-0.32,0.256-0.709,0.871-1.12,1.522c-0.316,0.501-0.643,1.016-0.96,1.409c-0.368-0.4-0.761-0.823-1.154-1.244   C82.343,57.157,82.868,56.618,83.294,56.181z M83.601,67.904c-0.006-0.002-0.011-0.004-0.017-0.004c-0.029,0-0.104,0-0.484,0.461   c-0.119,0.145-0.217,0.252-0.305,0.347c-0.215,0.233-0.344,0.375-0.493,0.772c-0.032,0.087-0.114,0.129-0.251,0.129   c-0.233,0-0.573-0.126-0.846-0.227c-0.205-0.077-0.369-0.138-0.46-0.138c-0.007,0-0.014,0.001-0.019,0.002   c-0.584-1.03-1.132-1.82-1.369-2.055c-0.188-0.188-0.368-0.371-0.543-0.552c0.002,0.001,0.004,0.002,0.005,0.003   c0.373,0.22,0.79,0.356,1.088,0.356c0.28,0,0.442-0.123,0.442-0.338c0-0.901,0.175-1.258,0.698-1.872   c0.171-0.2,0.28-0.313,0.351-0.39c0.014-0.012,0.024-0.023,0.034-0.035c0.412,0.69,0.866,1.288,1.351,1.538   C82.901,65.966,83.138,66.594,83.601,67.904z M86.831,77.81c-0.004,0.182-0.068,0.335-0.18,0.431   c-0.26,0.225-0.223,0.463-0.186,0.713c0.037,0.241,0.075,0.491-0.13,0.745c-0.126,0.154-0.219,0.29-0.3,0.409   c-0.201,0.292-0.334,0.487-0.714,0.616c-0.05,0.017-0.1,0.026-0.149,0.026c-0.211,0-0.369-0.161-0.521-0.314   c-0.147-0.149-0.288-0.292-0.469-0.292c-0.029,0-0.059,0.004-0.089,0.012c-0.024,0.006-0.048,0.009-0.07,0.009   c-0.211,0-0.303-0.248-0.409-0.534c-0.141-0.386-0.317-0.864-0.835-0.937c-0.382-0.056-0.321-0.556-0.222-1.385   c0.09-0.736,0.211-1.745,0.103-2.963c-0.114-1.264-0.754-2.842-1.451-4.202c0.008,0,0.016,0,0.024,0   c0.149,0,0.34-0.012,0.542-0.024c0.162-0.011,0.33-0.021,0.483-0.025c0.319-0.011,0.37-0.158,0.428-0.332   c0.049-0.143,0.109-0.322,0.344-0.505c0.289-0.228,0.3-0.265,0.293-0.373c-0.005-0.07-0.011-0.176,0.146-0.476   c0.112-0.214,0.157-0.327,0.172-0.394c0.01,0.028,0.019,0.055,0.029,0.081c0.344,0.979,0.701,1.99,0.88,2.278   c0.05,0.078,0.095,0.393,0.185,1.037c0.211,1.517,0.604,4.341,1.496,5.208C86.624,77.001,86.843,77.435,86.831,77.81z    M80.424,63.741c-0.251,0.46-0.381,0.625-0.665,0.987c-0.053,0.066-0.111,0.141-0.176,0.224c-0.219,0.281-0.863,0.372-1.335,0.439   c-0.231,0.032-0.393,0.057-0.493,0.091c-1.017-1.169-1.815-2.267-2.618-3.427c0.189-0.096,0.45-0.19,0.804-0.206   c0.104-0.005,0.208-0.008,0.31-0.008c0.546,0,0.996,0.067,1.358,0.123c0.258,0.037,0.482,0.071,0.674,0.071   c0.407,0,1.081-0.437,1.413-0.856c0.066,0.098,0.133,0.195,0.198,0.297c0.199,0.308,0.421,0.752,0.678,1.266   c0.097,0.191,0.195,0.39,0.299,0.592C80.696,63.413,80.527,63.55,80.424,63.741z M67.24,49.801c0.004-0.01,0.006-0.019,0.012-0.028   c0.146-0.295,0.524-0.461,0.926-0.635c0.609-0.267,1.298-0.566,1.343-1.403c0.047-0.908-0.149-1.14-0.421-1.46   c-0.141-0.164-0.297-0.349-0.457-0.668c-0.249-0.498-0.2-0.64-0.132-0.838c0.061-0.175,0.136-0.394,0.053-0.896   c-0.174-1.067-0.479-1.885-0.944-2.935c-0.306-0.687-1.609-2.732-2.193-3.198c-0.217-0.174-0.261-0.188-0.291-0.188   c-0.021,0-0.037,0.011-0.047,0.026c-0.024,0.048,0.015,0.114,0.253,0.46c0.11,0.161,0.247,0.362,0.387,0.582   c0.469,0.744,0.511,0.864,0.844,1.807l0.024,0.07c0.224,0.634,0.233,0.791,0.257,1.171c0.012,0.214,0.03,0.509,0.096,1.001   c0.034,0.272,0.062,0.466,0.081,0.614c0.063,0.474,0.063,0.474,0.11,1.075c0.011,0.145,0.025,0.321,0.043,0.548   c0.113,1.412,0.113,1.412-0.622,3.093l-0.081,0.187c-0.301,0.689-0.434,1.153-0.465,1.49c-0.212-0.012-0.425-0.018-0.635-0.018   c-0.153,0-0.305,0.002-0.453,0.01c-0.096,0.004-0.19,0.01-0.285,0.016c-0.005-0.255-0.006-0.496,0.268-0.754   c0.596-0.562,0.946-1.954,0.887-2.852c-0.035-0.521-0.28-0.536-0.459-0.546c-0.069-0.004-0.13-0.007-0.155-0.04   c-0.025-0.031-0.03-0.097-0.015-0.191c0.105-0.644-0.356-3.866-1.442-5.373c-0.548-0.761-1.112-1.394-1.71-2.063   c-0.558-0.624-1.135-1.271-1.733-2.064c-0.066-0.088-0.116-0.127-0.162-0.127c-0.025,0-0.047,0.011-0.063,0.031   c-0.033,0.042-0.121,0.151,0.188,1.512c0.151,0.664,0.409,1.117,0.656,1.557c0.154,0.275,0.315,0.56,0.45,0.894   c0.369,0.913,0.901,2.291,1.296,3.418c0.376,1.075,0.329,1.91,0.288,2.648c-0.03,0.527-0.058,1.026,0.07,1.54   c0.412,1.645,0.147,2.241-0.135,2.607c-0.501,0.076-1.008,0.163-1.527,0.253c-0.554,0.095-1.131,0.194-1.742,0.286   c0.049-0.067,0.097-0.135,0.143-0.2c0.504-0.716,0.565-0.949,0.701-1.462c0.03-0.112,0.063-0.236,0.104-0.384   c0.188-0.656,0.222-1.607,0.246-2.303c0.007-0.18,0.013-0.339,0.021-0.466c0.002-0.046-0.007-0.08-0.026-0.102   c-0.017-0.017-0.035-0.024-0.06-0.024c-0.229,0-0.973,1.01-1.215,1.527c-0.334,0.71-1.178,2.419-1.806,2.961   c-0.333,0.285-0.564,0.536-0.703,0.755c-0.563,0.045-1.16,0.076-1.793,0.09c0.243-0.204,0.471-0.459,0.675-0.791   c0.389-0.631,0.985-1.358,1.509-2.002c0.416-0.508,0.775-0.947,0.908-1.194c0.125-0.231,0.272-0.351,0.416-0.467   c0.189-0.153,0.369-0.299,0.472-0.678c0.179-0.654,0.534-2.54,0.354-3.321c-0.099-0.428-0.291-0.609-0.476-0.783   c-0.157-0.149-0.306-0.29-0.41-0.576c-0.092-0.252-0.092-0.357-0.092-0.459c0-0.163,0-0.304-0.323-0.909   c-0.202-0.38-0.418-0.808-0.626-1.224c-0.343-0.681-0.696-1.384-1.024-1.939c-0.232-0.392-0.351-0.687-0.475-0.998   c-0.162-0.406-0.333-0.827-0.765-1.513c-0.319-0.506-0.492-0.953-0.631-1.312c-0.044-0.111-0.084-0.214-0.124-0.308   c0.195,0.04,0.39,0.081,0.58,0.122c-0.001,0.005-0.002,0.011-0.002,0.018c-0.001,0.089,0.107,0.147,0.302,0.252   c0.189,0.103,0.45,0.244,0.73,0.479c0.7,0.586,0.848,0.824,1.208,1.487c0.305,0.564,1.377,2.214,2.117,2.526   c0.042,0.02,0.078,0.027,0.106,0.027c0.052,0,0.072-0.028,0.081-0.045c0.078-0.159-0.403-0.803-1.203-1.844   c-0.356-0.464-0.693-0.901-0.849-1.15c-0.097-0.157-0.183-0.301-0.262-0.433c-0.225-0.371-0.402-0.666-0.642-0.963   c3.792,0.894,6.721,1.882,8.867,2.662c0.349,0.372,0.556,0.732,0.771,1.107c0.225,0.389,0.455,0.79,0.862,1.253   c0.868,0.99,1.603,2.33,1.825,3.337c0.156,0.696,0.593,1.277,1.016,1.84c0.23,0.303,0.447,0.591,0.61,0.887   c0.224,0.4,0.352,0.816,0.476,1.219c0.129,0.423,0.251,0.823,0.471,1.105c0.263,0.337,0.329,0.548,0.441,0.9   c0.061,0.189,0.135,0.425,0.261,0.74c0.07,0.177,0.14,0.336,0.208,0.491c0.266,0.611,0.458,1.055,0.32,1.632   c-0.072,0.298-0.05,0.586-0.029,0.864c0.024,0.311,0.049,0.628-0.052,0.978c-0.495-0.28-0.963-0.538-1.384-0.755   C70.442,50.562,68.895,50.044,67.24,49.801z M51.759,50.302c0.386-0.157,0.784-0.319,1.18-0.419   c1.146-0.288,1.072-1.061,1.013-1.683c-0.022-0.231-0.043-0.416-0.06-0.566c-0.079-0.68-0.079-0.68,0.282-1.322   c0.037-0.067,0.079-0.142,0.124-0.225c0.337-0.604,0.13-1.782-0.109-2.189c-0.055-0.093-0.107-0.138-0.164-0.138   c-0.114,0-0.147,0.19-0.158,0.252c-0.142,0.819-0.826,1.748-1.402,2.266c-0.362,0.326-0.633,0.914-0.871,1.434   c-0.157,0.344-0.307,0.668-0.462,0.88c-0.272,0.366-0.592,0.437-1.087,0.437c-0.08,0-0.162-0.002-0.249-0.004   c-0.094-0.001-0.191-0.003-0.293-0.003c-0.232,0-0.542,0.009-0.9,0.072c-0.306,0.055-0.537,0.119-0.701,0.192   c-1.615-0.838-3.067-2.032-4.047-3.612c-0.324-0.521-0.62-1.139-0.894-1.816c0,0,0,0,0,0l0,0c0.242,0,0.538-0.185,0.96-0.598   c0.433-0.424,0.856-0.733,1.231-1.006c0.605-0.44,1.083-0.789,1.269-1.383c0.237-0.762,0.869-2.782,0.642-3.885   c-0.129-0.624,0.032-1.783,0.174-2.805c0.092-0.667,0.18-1.295,0.18-1.713c0-0.766,0.026-1.641,0.047-2.343   c0.008-0.248,0.014-0.468,0.019-0.649c0.661,0.418,1.374,0.841,2.108,1.225c0.006,0.035,0.031,0.078,0.08,0.133   c1.226,1.38,1.426,1.82,1.426,3.147v0.386c-0.003,1.305-0.006,2.928,0.212,3.525c0.177,0.487,0.229,1.277,0.031,1.565   c-0.045,0.064-0.099,0.098-0.162,0.098c-0.461,0.009-0.932,0.133-0.932,0.993c0,0.157,0.003,0.305,0.007,0.444   c0.014,0.636,0.025,1.094-0.291,1.712c-0.377,0.736-0.587,1.792-0.656,2.14l-0.009,0.044c-0.009,0.046-0.035,0.144-0.068,0.27   c-0.173,0.65-0.53,2.005-0.288,2.359c0.038,0.055,0.088,0.086,0.15,0.094c0.007,0,0.014,0,0.021,0c0.603,0,2.538-2.875,2.832-3.574   c0.155-0.369,0.087-0.767,0.027-1.116c-0.078-0.449-0.144-0.837,0.229-1.086c0.919-0.612,0.624-2.861,0.512-3.536   c-0.093-0.56-0.232-1.172-0.366-1.764c-0.205-0.904-0.398-1.759-0.398-2.292c0-0.116,0.002-0.224,0.004-0.326   c0.013-0.67,0.021-1.112-0.614-2.023c-0.16-0.23-0.346-0.434-0.536-0.608c0.795,0.348,1.595,0.623,2.363,0.771   c-0.011,0.015-0.017,0.025-0.018,0.028l-0.009,0.018l0.007,0.018c0.133,0.331,0.493,1.021,0.95,1.895   c1.03,1.969,2.44,4.665,2.48,5.642c0.057,1.354,0.169,2.389,0.354,3.254c0.044,0.207,0.1,0.373,0.148,0.521   c0.149,0.449,0.247,0.746-0.145,1.574c-0.521,1.101-0.763,1.698-1.181,2.832c-0.148,0.399-0.213,0.694-0.267,0.931   c-0.1,0.445-0.16,0.712-0.609,1.204c-0.242,0.267-0.638,0.57-1.01,0.844c-0.019,0-0.035,0-0.054-0.001   c-0.81-0.016-1.675-0.121-2.552-0.314C51.43,50.435,51.595,50.367,51.759,50.302z M40.076,33.85l0.041,0.16   c0.346,1.339,1.251,10.456,0.25,11.294c-0.46,0.386-2.097,0.572-5.003,0.572c-1.386,0-2.906-0.042-4.384-0.102   c-0.019-0.12-0.075-0.202-0.133-0.287c-0.136-0.199-0.291-0.424,0.017-1.276c0.103-0.284-0.033-1.873-0.221-2.141   c-0.024-0.033-0.052-0.052-0.081-0.052c-0.068,0-0.141,0.07-0.209,0.581c-0.233,1.748-0.509,2.116-0.7,2.116   c-0.131,0-0.357-0.175-0.688-1.006c-0.334-0.843-0.288-1.612-0.249-2.232c0.031-0.51,0.055-0.912-0.136-1.187   c-0.232-0.33-0.322-0.398-0.388-0.398c-0.023,0-0.045,0.011-0.061,0.028c-0.066,0.078-0.034,0.311,0.044,0.829   c0.103,0.674,0.242,1.596,0.116,2.379c-0.181,1.117,0.324,1.523,0.693,1.819c0.27,0.217,0.448,0.359,0.261,0.688   c-0.011,0.021-0.021,0.04-0.03,0.062c-0.856-0.041-1.67-0.083-2.402-0.121c-1.641-0.085-2.859-0.146-3.09-0.114   c-0.301,0.041-0.359,0.187-0.44,0.388c-0.153,0.381-0.363,0.903-2.414,0.935c-0.552,0.009-2.043,1.045-2.68,1.487   c-0.088,0.061-0.161,0.111-0.217,0.149c-0.139,0.094-0.365,0.318-0.625,0.58c-0.545,0.544-1.166,1.163-1.505,1.127   c-0.036-0.004-0.074-0.006-0.111-0.006c-0.277,0-0.552,0.104-0.844,0.212c-0.343,0.127-0.697,0.259-1.117,0.259   c-0.236,0-0.466-0.042-0.702-0.128c-0.083-0.031-0.162-0.046-0.242-0.046c-0.175,0-0.33,0.075-0.494,0.153   c-0.198,0.096-0.423,0.204-0.726,0.204l0,0c-0.049,0-0.1-0.002-0.15-0.008c-0.709-0.08-0.993-0.414-1.422-0.923   c-0.043-0.051-0.087-0.104-0.134-0.157c-0.279-0.326-0.486-0.336-0.685-0.348c-0.157-0.008-0.317-0.017-0.493-0.173   c-0.304-0.271-0.458-0.542-0.47-0.823c-0.015-0.327,0.158-0.671,0.544-1.081c0.322-0.343,0.349-0.6,0.374-0.849   c0.028-0.271,0.054-0.529,0.435-0.852c0.308-0.26,0.688-0.346,1.128-0.443c0.424-0.096,0.903-0.202,1.423-0.494   c0.884-0.494,1.756-1.332,2.393-1.945c0.126-0.12,0.245-0.234,0.355-0.338c0.329-0.309,1.542-0.803,2.828-1.325   c1.407-0.572,2.863-1.164,3.279-1.558c0.506-0.48,3.108-1.437,5.405-2.28c0.947-0.348,1.857-0.683,2.515-0.946   c0.009,0.008,0.022,0.013,0.041,0.013c0,0,0,0,0,0c0.026,0,0.099-0.002,0.515-0.247c0.051-0.023,0.1-0.046,0.143-0.066   c0.115-0.057,0.199-0.113,0.251-0.173c1.034-0.612,1.683-0.753,2.311-0.889c0.499-0.106,0.97-0.208,1.586-0.544   c1.294-0.706,2.802-2.014,3.053-3.219c0.043-0.207,0.075-0.307,0.079-0.317l0.008-0.023l-0.025-0.036l-0.054,0.003l-0.01,0.028   c-0.038,0.109-0.943,2.55-5.18,3.718c-0.508,0.14-1.214,0.533-1.783,0.911c-0.136-0.185-0.419-0.399-0.752-0.651   c-0.098-0.073-0.199-0.15-0.302-0.23c0.29-0.434,0.605-1.036,0.775-1.373c0.708-1.407,1.957-2.695,2.868-3.636   c0.485-0.501,0.868-0.896,1.051-1.182c0.089-0.14,0.097-0.188,0.079-0.22c-0.01-0.02-0.029-0.03-0.052-0.03   c-0.198,0-1.545,1.333-2.629,2.53c-0.686,0.758-2.258,2.556-2.597,3.495c-0.256-0.227-0.504-0.479-0.716-0.763   c0.223-0.92,0.636-1.921,1.759-2.987c0.293-0.278,0.479-0.674,0.735-1.221c0.231-0.495,0.52-1.111,0.999-1.876   c0.745-1.19,0.729-1.22,0.704-1.265l-0.02-0.025h-0.025c-0.038,0-0.081,0.036-0.232,0.18c-0.136,0.127-0.362,0.342-0.456,0.342   c-0.011,0-0.015-0.004-0.017-0.008c-0.012-0.016-0.035-0.077,0.024-0.307c0.322-1.249,0.732-1.872,1.063-2.374   c0.12-0.183,0.234-0.355,0.325-0.534c0.072-0.142,0.066-0.188,0.049-0.216c-0.012-0.02-0.033-0.03-0.057-0.03   c-0.208,0-1.227,1.179-1.463,2.318l-0.004,0.021c-0.293,1.41-0.382,1.836-0.732,2.698c-0.3,0.737-0.858,1.591-1.659,2.538   c-0.048,0.058-0.099,0.116-0.152,0.178c-0.402,0.471-0.935,1.09-1.26,1.822c-0.073-0.189-0.128-0.39-0.157-0.601   c-0.054-0.392-0.098-0.776-0.139-1.151c0.083-0.209,0.182-0.399,0.283-0.594c0.245-0.472,0.498-0.957,0.593-1.786   c0.136-1.18-0.004-1.845-0.152-2.55c-0.046-0.219-0.094-0.445-0.136-0.694c-0.187-1.128-0.739-1.401-1.242-1.569   c-0.45-0.149-2.404-0.446-2.563-0.446c-0.046,0-0.052,0.031-0.053,0.041c-0.005,0.045,0.021,0.049,0.186,0.083   c0.524,0.104,2.111,0.521,2.587,0.938c0.451,0.395,0.641,1.565,0.406,2.505c-0.04,0.156-0.072,0.31-0.105,0.47   c-0.052,0.245-0.107,0.504-0.193,0.81c-0.091-0.297-0.205-0.474-0.358-0.474c-0.045,0-0.095,0.015-0.148,0.044   c-1.285,0.701-1.433,1.556-1.986,4.736c-0.044,0.251-0.09,0.516-0.139,0.798c-0.589,3.35-3.168,3.933-4.554,4.246   c-0.226,0.05-0.421,0.096-0.574,0.143c-0.179,0.057-0.369,0.114-0.563,0.172c-0.874,0.265-1.866,0.563-2.25,0.887   c-0.161,0.136-0.332,0.349-0.513,0.574c-0.487,0.608-1.093,1.365-2.061,1.405c-0.843,0.034-1.283-0.576-1.6-1.02   c-0.151-0.212-0.283-0.395-0.394-0.395c-0.833,0-1.447-0.373-1.686-1.024c-0.023-0.063-0.022-0.112,0.003-0.149   c0.025-0.036,0.071-0.054,0.138-0.054c0.061,0,0.131,0.014,0.199,0.026c0.056,0.011,0.107,0.02,0.142,0.02c0.005,0,0.008,0,0.011,0   c-0.003-0.008-0.01-0.021-0.024-0.041c-0.223-0.312-0.329-1.3,0.019-2.082c0.16-0.361,0.124-0.464,0.108-0.488   c-0.006-0.01-0.018-0.021-0.047-0.021c-0.051,0-0.258,0.042-0.783,0.582c-0.436,0.449-0.766,0.678-0.98,0.678   c-0.107,0-0.185-0.056-0.224-0.162c-0.155-0.425,0.376-1.56,0.939-2.762c0.44-0.94,0.895-1.912,0.913-2.376   c0.021-0.533-0.065-0.872-0.143-1.17c-0.07-0.274-0.13-0.51-0.089-0.824c0.054-0.418,0.436-0.902,0.84-1.414   c0.5-0.634,1.016-1.289,0.991-1.895c-0.008-0.198-0.289-0.624-0.537-1.001c-0.303-0.461-0.458-0.707-0.403-0.811   c0.009-0.017,0.032-0.044,0.084-0.044c0.027,0,0.06,0.006,0.101,0.021l0.01,0.004l0.008,0.008c0.336,0.377,1.261,0.908,2.263,0.908   c0.091,0,0.183-0.005,0.272-0.014c0.356-0.034,0.894-0.086,0.922-0.208c0.03-0.126-0.448-0.425-0.604-0.523l-0.041-0.025   l0.029-0.037c0.132-0.172,0.357-0.396,0.596-0.635c0.412-0.412,0.924-0.925,0.881-1.124c-0.022-0.102-0.045-0.205-0.069-0.312   c-0.265-1.174-0.563-2.506,0.57-2.775c0.03-0.008,0.061-0.011,0.093-0.011c0.945,0,2.921,3.179,3.408,4.873   c0.103,0.358,0.769,0.572,1.352,0.572c0.417,0,0.755-0.103,0.927-0.282c0.094-0.099,0.138-0.219,0.131-0.357   c-0.054-1.185-0.926-1.783-1.298-2.039c-0.142-0.098-0.19-0.131-0.174-0.181c0.015-0.045,0.069-0.045,0.099-0.045   c0.082,0,0.244,0.021,0.546,0.061c2.395-0.349,4.479-0.52,6.37-0.52c4.446,0,7.916,0.91,11.974,3.138   c0.026,0.015,0.053,0.029,0.079,0.044c0.014,0.037,0.029,0.074,0.047,0.115c0.833,1.883,0.789,2.713,0.477,4.29   c-0.317,1.602-0.739,2.384-1.316,3.127c-0.441,0.569-0.436,0.912-0.429,1.276c0.007,0.392,0.015,0.837-0.546,1.683   c-1.699,2.563-2.575,2.614-3.502,2.669c-0.113,0.006-1.107,0.07-1.105,0.255c0.001,0.055,0.003,0.155,1.107,0.185   c0.06,0.002,0.119,0.002,0.177,0.002l0,0c2.146,0,2.898-1.044,3.625-2.054l0.063-0.088c0.196-0.271,0.379-0.496,0.557-0.714   c0.501-0.616,0.897-1.102,1.036-2.032c0.067-0.453,0.05-0.748,0.036-1.006c-0.025-0.445-0.044-0.767,0.401-1.603   c0.701-1.319,0.869-1.934,0.748-2.735c-0.1-0.66-0.443-2.275-0.747-3.006c0.143,0.084,0.292,0.174,0.442,0.266   c0.792,0.475,1.725,1.033,2.598,1.443c0.011,0.033,0.026,0.068,0.048,0.109c0.789,1.366,0.744,2.646,0.579,3.825   c-0.056,0.399-0.093,0.783-0.13,1.155c-0.081,0.831-0.151,1.549-0.391,1.853c-0.093,0.117-0.127,0.202-0.104,0.251   c0.011,0.022,0.034,0.037,0.061,0.037c0.152,0,0.54-0.467,0.77-1.395c0.378-1.528,0.495-2.999,0.347-4.372   c-0.053-0.484-0.216-0.864-0.406-1.137c0.069,0.025,0.137,0.049,0.204,0.07c0.235,0.076,0.77,0.44,1.509,0.946   c0.348,0.236,0.74,0.505,1.165,0.785c0.001,0.031,0.004,0.063,0.014,0.099c0.461,1.815,0.48,2.927,0.085,4.951   c-0.206,1.056-0.264,1.813-0.316,2.481c-0.051,0.657-0.095,1.225-0.272,1.871c-0.351,1.285-1.023,2.731-1.407,3.226   c-0.515,0.662-1.041,0.983-1.609,0.983c-0.192,0-0.355-0.035-0.487-0.064c-0.056-0.012-0.103-0.021-0.146-0.027   c-0.815-2.513-1.373-5.447-1.757-7.472c-0.249-1.309-0.445-2.343-0.571-2.49c-0.205-0.236-0.289-0.272-0.32-0.272   c-0.008,0-0.012,0.002-0.017,0.009C39.677,32.31,39.88,33.092,40.076,33.85z M71.227,56.299c0.085-0.178,0.344-0.272,0.746-0.272   c1.067,0,3.461,0.742,5.717,2.825c-0.004,0-0.009,0.001-0.014,0.001c-0.234,0.021-0.438,0.038-0.574,0.041H77.07   c-0.591,0-1.862-0.352-2.387-0.661c-0.508-0.299-2.078-0.831-2.976-0.975c-0.11-0.141-0.221-0.281-0.334-0.426   C71.166,56.57,71.179,56.398,71.227,56.299z M79.157,60.806c-0.122,0.087-0.857,0.353-1.521,0.353   c-0.083,0-0.161-0.005-0.237-0.012c-0.097-0.012-0.226-0.018-0.391-0.018c-0.222,0-0.478,0.01-0.749,0.02   c-0.291,0.011-0.592,0.021-0.867,0.021c-0.188,0-0.743,0-0.945-0.115c-0.426-0.623-0.86-1.254-1.337-1.92   c0.067-0.085,0.15-0.164,0.252-0.216c0.034-0.017,0.081-0.026,0.142-0.026c0.308,0,0.888,0.225,1.504,0.46   c0.729,0.281,1.557,0.599,2.086,0.599l0,0c0.084,0,0.158-0.008,0.224-0.022c0.58-0.137,0.855-0.208,1.107-0.341   c0.315,0.34,0.625,0.708,0.923,1.108C79.259,60.74,79.187,60.787,79.157,60.806z M92.749,25.386   c0.012,0.029,0.024,0.057,0.034,0.083c0.06,0.144,0.1,0.238,0.054,0.307c-0.032,0.049-0.099,0.07-0.223,0.07   c-0.098,0-0.239-0.013-0.459-0.042c-0.185-0.024-0.617-0.076-1.198-0.121c0.004-0.011,0.009-0.02,0.014-0.03   c0.091-0.235,0.095-0.423,0.01-0.572c-0.026-0.047-0.063-0.09-0.107-0.129c0.109,0.015,0.2,0.024,0.269,0.029   c0.178,0.012,0.335,0.02,0.477,0.025C92.324,25.041,92.617,25.055,92.749,25.386z M88.907,25.363   c0.072-0.212,0.065-0.501-0.152-0.71c0.359,0.039,0.704,0.086,1.017,0.131c0.015,0.033,0.042,0.071,0.077,0.118   c0.109,0.151,0.275,0.381,0.217,0.676c-0.003,0.017-0.004,0.032-0.004,0.05c-0.332-0.016-0.688-0.024-1.06-0.024   c-0.077,0-0.153,0.001-0.229,0.002C88.829,25.539,88.875,25.456,88.907,25.363z M87.44,24.617c0.098,0.454,0.353,0.815,0.619,1.009   c-0.399,0.02-0.767,0.052-1.103,0.098c0.048-0.089,0.069-0.204,0.053-0.354c-0.048-0.422-0.317-0.683-0.766-0.751   c0.295-0.036,0.618-0.057,0.974-0.057c0.072,0,0.147,0,0.221,0.002C87.438,24.582,87.438,24.599,87.44,24.617z M84.946,24.98   c0.01,0.02,0.03,0.038,0.074,0.051c0.703,0.197,0.791,0.581,0.844,0.811c0.008,0.035,0.017,0.068,0.026,0.099   c-0.092,0.027-0.182,0.056-0.266,0.086c-0.186,0.066-0.458,0.268-0.794,0.577c0.001-0.005,0.002-0.009,0.004-0.013   c0.063-0.244,0.047-0.442-0.052-0.606c-0.167-0.274-0.54-0.392-0.848-0.464c-0.006-0.002-0.013-0.002-0.019-0.003   C84.271,25.306,84.613,25.126,84.946,24.98z M80.382,28.412c0.015,0.012,0.033,0.021,0.058,0.03c0.078,0.026,0.162,0.04,0.251,0.04   l0,0c0.314,0,0.598-0.165,0.666-0.207c0.43,0.078,1.099,0.489,1.265,0.7c0.012,0.014,0.024,0.023,0.039,0.033   c-0.371,0.458-0.756,0.952-1.147,1.474c-0.206-1.019-0.66-1.126-1.659-1.126h-0.119c-0.108,0.001-0.21,0.02-0.303,0.048   C79.754,29.056,80.07,28.724,80.382,28.412z M78.678,30.246c0.064-0.074,0.128-0.146,0.193-0.22c0.005,0,0.008-0.001,0.011-0.001   c0.697,0,1.904,0.653,2.045,0.783c0.037,0.033,0.123,0.108,0.221,0.168c-0.165,0.224-0.329,0.451-0.495,0.684   c-0.029,0.043-0.061,0.086-0.091,0.129c0.014-0.198-0.089-0.377-0.529-0.586c-0.345-0.163-0.808-0.258-1.27-0.258   c-0.303,0-0.57,0.041-0.779,0.113C78.21,30.789,78.44,30.518,78.678,30.246z M76.973,32.306c0.047-0.005,0.113-0.037,0.238-0.098   c0.276-0.135,0.74-0.361,1.277-0.361c0.313,0,0.61,0.078,0.886,0.231c0.226,0.127,0.394,0.257,0.528,0.363   c0.052,0.039,0.096,0.073,0.137,0.103c-0.342,0.505-0.68,1.02-0.995,1.527c-0.131-0.143-0.307-0.279-0.482-0.378   c-0.155-0.088-0.442-0.137-0.79-0.137c-0.816,0-1.968,0.272-2.529,1.043c0,0-0.001,0.001-0.002,0.002   C75.731,33.925,76.316,33.137,76.973,32.306z M74.643,35.438c0.069,0.027,0.151,0.045,0.255,0.045c0.33,0,0.785-0.148,1.09-0.295   c0.287-0.138,0.729-0.22,1.179-0.22c0.308,0,0.759,0.038,1.165,0.221c0.013,0.006,0.025,0.011,0.038,0.017   c-0.135,0.236-0.262,0.469-0.38,0.694c-0.022-0.005-0.047-0.008-0.074-0.005c-0.072,0.007-0.182,0.011-0.339,0.011   c-0.153,0-0.335-0.004-0.538-0.007c-0.248-0.004-0.528-0.01-0.817-0.01c-0.639,0-1.479,0.023-2.028,0.189   C74.322,35.894,74.474,35.678,74.643,35.438z M82.882,26.214c0.849,0.048,1.392,0.851,1.397,0.859l0.014,0.013   c0.003,0.002,0.015,0.008,0.032,0.014c-0.38,0.395-0.813,0.881-1.276,1.436c-0.002-0.009-0.004-0.016-0.006-0.023   c-0.264-0.805-0.743-1.337-1.17-1.296c-0.085,0.008-0.223,0.06-0.38,0.139C81.971,26.927,82.434,26.546,82.882,26.214z    M86.742,56.659L86.742,56.659L86.742,56.659L86.742,56.659z M84.213,60.447c0.094-0.118,0.199-0.253,0.323-0.401l0.057-0.067   c0.537-0.641,0.537-0.641,0.771-1.275l0.041-0.113c0.237-0.638,0.288-0.695,0.682-1.15c0.075-0.087,0.162-0.188,0.265-0.31   l0.155-0.184c0.157-0.188,0.205-0.244,0.228-0.244l0,0h0.008c0.058,0,0.148-0.02,0.395-0.172c0.042-0.025,0.078-0.051,0.111-0.076   c0.315,0.843,0.645,1.737,0.988,2.69c-0.022,0.045-0.034,0.096-0.04,0.121c-0.045,0.196-0.048,0.325-0.05,0.437   c-0.006,0.256-0.008,0.409-0.582,1.111c-0.903,1.108-1.672,1.274-2.049,1.274c-0.109,0-0.214-0.014-0.313-0.04   c-0.042-0.012-0.08-0.015-0.113-0.015c-0.077-0.093-0.155-0.185-0.234-0.272l-0.066-0.073c-0.211-0.233-0.5-0.552-0.837-0.922   C84.024,60.687,84.108,60.581,84.213,60.447z M85.854,63.037l0.117-0.016c0.434-0.06,1.09-0.149,1.649-0.47   c0.632-0.36,1.122-1.099,1.19-1.795c0.001-0.004,0.001-0.008,0.001-0.011c0.123,0.345,0.247,0.695,0.375,1.054   c0.061,0.173,0.125,0.264,0.188,0.31c-0.104,0.159-0.175,0.472-0.029,0.844c0.312,0.803,0.266,1.305-0.199,2.151   c-0.116,0.214-0.483,0.208-0.821,0.203c-0.054-0.001-0.107-0.002-0.158-0.002c-0.099,0-0.227,0-0.338,0.025   c-0.157-0.142-0.299-0.266-0.421-0.369c-0.481-0.409-0.93-1.041-1.404-1.709c-0.051-0.071-0.103-0.145-0.153-0.216   C85.852,63.037,85.853,63.037,85.854,63.037z M88.602,65.891c0.202-0.033,0.412-0.067,0.585-0.067l0,0   c0.601,0,0.807-0.563,0.945-1.473c0.111-0.736,0.031-1.43-0.246-2.119c-0.023-0.059-0.05-0.106-0.076-0.143   c0.125-0.039,0.267-0.084,0.423-0.084c0.079,0,0.152,0.011,0.228,0.033c0.371,0.109,0.498,0.534,0.689,1.179   c0.211,0.711,0.501,1.684,1.28,2.8c0.236,0.341,0.466,0.793,0.704,1.321c-0.013-0.028-0.039-0.046-0.072-0.046   c-0.13,0-0.438,0.268-0.896,0.678c-0.183,0.163-0.356,0.316-0.45,0.384c-0.181,0.126-0.478,0.489-0.641,0.897   c-0.086-0.226-0.168-0.412-0.247-0.546c-0.541-0.906-1.533-1.975-2.377-2.79C88.501,65.906,88.552,65.898,88.602,65.891z"/>
	<path fill="#000000" d="M18.693,31.698c-0.095-0.188-0.353-0.318-0.579-0.432c-0.159-0.079-0.323-0.162-0.348-0.234   c-0.117-0.342-0.149-0.734-0.18-1.113c-0.048-0.577-0.092-1.122-0.417-1.483c-0.211-0.235-0.454-0.42-0.688-0.598   c-0.348-0.264-0.648-0.492-0.716-0.799c-0.064-0.289-0.02-0.37,0.031-0.465c0.041-0.077,0.087-0.164,0.087-0.351   c0-0.263-0.333-0.566-0.476-0.684c-0.22-0.182-0.516-0.365-0.66-0.365c-0.015,0-0.028,0.002-0.04,0.007   c-0.112,0.036-0.084,0.16-0.053,0.304c0.042,0.189,0.099,0.447-0.032,0.741c-0.07,0.158-0.085,0.275-0.096,0.36   c-0.025,0.193-0.032,0.246-0.758,0.419c-0.15,0.037-0.305,0.055-0.46,0.055c-0.503,0-0.941-0.198-0.994-0.451   c-0.04-0.181,0.131-0.367,0.479-0.523c0.181-0.082,0.18-0.188,0.171-0.231c-0.019-0.087-0.113-0.149-0.229-0.149   c-0.075,0-0.265,0.029-0.41,0.296c-0.066,0.124-0.085,0.243-0.101,0.349c-0.029,0.184-0.043,0.286-0.277,0.303   c-0.265,0.019-0.475,0.131-0.478,0.256c-0.002,0.066,0.049,0.151,0.299,0.183c0.048,0.006,0.099,0.009,0.148,0.009   c0.124,0,0.228-0.019,0.311-0.032c0.056-0.011,0.103-0.02,0.139-0.02c0.044,0,0.086,0,0.086,0.145c0,0.108-0.068,0.331-0.134,0.545   c-0.129,0.421-0.201,0.684-0.125,0.786c0.051,0.069,0.149,0.057,0.306-0.061c0.622-0.464,0.923-0.531,1.143-0.581   c0.132-0.029,0.236-0.054,0.358-0.147c0.073-0.057,0.127-0.051,0.162,0.026c0.053,0.12,0.035,0.398-0.132,0.604   c-0.257-0.148-0.629-0.123-1.065,0.068c-0.253,0.11-0.648,0.41-0.466,1.177c0.049,0.206-0.206,0.497-0.476,0.805   c-0.292,0.333-0.594,0.677-0.586,0.995c0.005,0.189,0.116,0.216,0.181,0.217l0,0c0.409-0.001,1.454-1.078,1.781-1.488   c0.052-0.064,0.092-0.113,0.122-0.149c0.079-0.095,0.091-0.109,0.076-0.141l-0.016-0.026h-0.027c-0.013,0-0.025,0.004-0.046,0.011   c-0.035,0.011-0.095,0.029-0.167,0.029c-0.085,0-0.168-0.025-0.245-0.08c-0.177-0.123-0.173-0.159-0.173-0.161   c0.006-0.02,0.104-0.045,0.161-0.059c0.152-0.04,0.36-0.093,0.437-0.268c0.035-0.079,0.058-0.153,0.08-0.218   c0.068-0.214,0.107-0.334,0.459-0.377c0.107,0.385-0.172,0.78-0.43,1.048l-0.07,0.072h0.101c0.404,0,0.703,0.317,0.81,0.613   c0.059,0.16,0.053,0.299-0.013,0.354c-0.127,0.105-0.229,0.266-0.336,0.434c-0.159,0.249-0.323,0.506-0.576,0.589   c-0.098,0.019-0.172,0.025-0.209,0.028c-0.059,0-0.094,0.001-0.094,0.045l0.005,0.043h0.043c0.008,0,0.025-0.001,0.049-0.003h0.026   c0.07,0,0.137-0.01,0.201-0.029c0.333-0.063,0.943-0.248,1.3-0.792c0.292-0.444,0.357-1.039,0.19-1.764   c-0.117-0.513-0.097-0.677-0.058-0.725c0.008-0.01,0.017-0.014,0.031-0.014c0.092,0,0.283,0.174,0.452,0.328   c0.245,0.223,0.501,0.449,0.665,0.401c0.03-0.009,0.061-0.014,0.092-0.014c0.315,0,0.631,0.424,0.805,0.843   c0.167,0.402,0.191,0.76,0.063,0.89c-0.126,0.126-0.503,0.237-0.902,0.355c-0.688,0.203-1.467,0.434-1.428,0.869   c0.044,0.48,0.177,0.725,0.394,0.725c0.092,0,0.197-0.048,0.311-0.142c0.069-0.059,0.164-0.15,0.274-0.257   c0.369-0.358,0.926-0.898,1.283-0.898c0.083,0,0.147,0.03,0.199,0.09c0.748,0.879,0.605,1.112,0.441,1.383   c-0.076,0.124-0.162,0.265-0.172,0.474c-0.016,0.345,0.016,0.555,0.098,0.641c0.028,0.029,0.063,0.045,0.101,0.045   c0.247,0,0.597-0.695,0.711-1.265c0.075-0.374,0.168-0.608,0.238-0.779C18.747,32.057,18.802,31.918,18.693,31.698z"/>
	<path fill="#000000" d="M19.457,28.142c-0.025-0.128-0.055-0.272-0.098-0.455c-0.128-0.545-0.576-0.849-0.971-1.118   c-0.35-0.238-0.652-0.444-0.678-0.761c-0.017-0.206-0.058-0.443-0.232-0.443c-0.086,0-0.178,0.061-0.276,0.125   c-0.122,0.08-0.251,0.16-0.337,0.108c-0.254-0.154-0.466-0.347-0.688-0.551c-0.343-0.313-0.698-0.635-1.217-0.809   c-0.115-0.039-0.181-0.056-0.218-0.056c-0.044,0-0.059,0.023-0.064,0.038c-0.021,0.057,0.041,0.11,0.368,0.382   c0.949,0.788,3.47,2.883,4.207,6.241c0.258,1.177,0.179,1.387,0.047,1.734c-0.116,0.306-0.275,0.727-0.261,2.013   c0.004,0.365,0.136,0.443,0.245,0.443c0.31,0,0.855-0.659,1.426-1.719c0.826-1.533,0.628-1.927-0.342-3.344   C19.6,28.851,19.57,28.701,19.457,28.142z"/>
	<path fill="#000000" d="M23.026,29.066c-0.347-0.214-0.599-0.219-0.842-0.223c-0.304-0.006-0.567-0.011-0.98-0.423   c-0.239-0.239-0.554-0.646-0.887-1.077c-0.48-0.621-0.976-1.263-1.328-1.509c-0.107-0.076-0.147-0.086-0.172-0.086   s-0.045,0.013-0.055,0.033c-0.047,0.099,0.233,0.473,1.225,1.706c0.453,0.564,0.922,1.147,1.209,1.554   c0.136,0.19,0.378,0.214,0.658,0.24c0.473,0.044,1.062,0.1,1.493,0.968c0.035,0.071,0.076,0.107,0.122,0.107   c0.029,0,0.082-0.017,0.111-0.122C23.648,29.989,23.557,29.393,23.026,29.066z"/>
</g>
<text x="0.0" y="117.5" font-size="5.0" font-weight="bold" font-family="Helvetica Neue, Helvetica, Arial-Unicode, Arial, Sans-serif" fill="#000000">Created by Christy Presler</text><text x="0.0" y="122.5" font-size="5.0" font-weight="bold" font-family="Helvetica Neue, Helvetica, Arial-Unicode, Arial, Sans-serif" fill="#000000">from the Noun Project</text></svg>