<svg xmlns="http://www.w3.org/2000/svg" xmlns:xlink="http://www.w3.org/1999/xlink" version="1.1" id="Layer_3" x="0px" y="0px" viewBox="4.5 -9.0 90.0 121.5" enable-background="new 0 0 90 90" xml:space="preserve" height="100px" width="100px">
<path d="M1,65.7c0,0,9.6-5.5,15.4-19.1c0,0,11.8,9,27,7.9c0,0,2.2,0.2-1.4-10.3l3.3,2.6c0,0,2.1-4.1,5.1-2.7l0.1-3.8  c0,0,4.4,5.8,6.4,5.9c0,0,9.4-10,8.1-27.5c0,0,13,3,24-7.7c0,0-10.6,10.6-7.1,19.9c0,0-13.2,3.8-8.8,20.8c0,0-17.7,6.5-12,18.8  c0,0-13.7-10.8-22.8,2c0,0-8.5-12.8-20.8-2.8C17.5,69.7,13,62.6,1,65.7z"/>
<text x="0.0" y="105.75" font-size="4.5" font-weight="bold" font-family="Helvetica Neue, Helvetica, Arial-Unicode, Arial, Sans-serif" fill="#000000">Created by Ryan Mochal</text><text x="0.0" y="110.25" font-size="4.5" font-weight="bold" font-family="Helvetica Neue, Helvetica, Arial-Unicode, Arial, Sans-serif" fill="#000000">from the Noun Project</text></svg>