<svg xmlns="http://www.w3.org/2000/svg" xmlns:xlink="http://www.w3.org/1999/xlink" version="1.1" id="Livello_1" x="0px" y="0px" width="100px" height="100px" viewBox="5.0 -10.0 100.0 135.0" enable-background="new 0 0 100 100" xml:space="preserve">
<path fill="#000000" d="M80.049,70.646c-0.747-0.616-1.772-2.329-2.726-4.516c-1.463-3.279-2.939-7.597-4.517-11.329  c-0.786-1.866-1.601-3.592-2.507-5.004c-0.908-1.406-1.868-2.563-3.264-3.152c-1.08-0.437-2.195-0.614-3.265-0.614  c-2.931,0.031-5.586,1.236-7.213,2.156c-0.156-1.084-0.383-2.122-0.664-3.086c2.666-1.189,7.528-3.754,10.912-8.018  c2.385-3.029,4.362-7.187,6.307-10.707c0.964-1.764,1.911-3.355,2.825-4.523c0.9-1.185,1.78-1.865,2.374-2.024  c0.744-0.225,1.166-1.005,0.937-1.755c-0.224-0.731-0.999-1.158-1.744-0.932c-1.541,0.473-2.699,1.605-3.787,2.985  c-1.606,2.085-3.056,4.861-4.553,7.658c-1.481,2.789-2.998,5.584-4.563,7.562c-2.051,2.62-4.964,4.629-7.355,5.942  c-0.894,0.489-1.71,0.893-2.382,1.192c-0.479-0.957-1.044-1.781-1.667-2.429c3.379-1.727,5.792-6.071,5.792-11.19  c0-2.223-1.025-4.309-2.382-6.094c0.323-0.094,0.664-0.203,1.016-0.359c0.756-0.339,1.559-0.864,2.189-1.704  c0.64-0.833,1.033-1.976,1.033-3.289c-0.023-2.566-1.325-5.788-4.728-10.416c-0.457-0.62-1.346-0.749-1.965-0.298  c-0.62,0.466-0.755,1.346-0.289,1.965c3.252,4.38,4.196,7.227,4.173,8.752c-0.01,0.788-0.203,1.248-0.466,1.604  c-0.388,0.529-1.089,0.876-1.763,1.051c-0.325,0.089-0.63,0.132-0.849,0.153c-0.106,0.013-0.192,0.02-0.244,0.023  c-0.053,0.003-0.053,0.003-0.053,0.003c-0.094,0.005-0.2,0.013-0.291,0.03c-2.2-2.101-4.374-3.398-4.374-3.398  s-2.163,1.298-4.371,3.399c-0.086-0.019-0.185-0.031-0.291-0.038c0,0-0.014,0.013-0.114,0.004c-0.342-0.02-1.305-0.147-2.022-0.567  c-0.706-0.458-1.204-0.906-1.236-2.265c-0.017-1.527,0.919-4.372,4.18-8.751c0.456-0.624,0.328-1.501-0.3-1.966  c-0.621-0.455-1.496-0.325-1.957,0.298c-3.412,4.628-4.709,7.85-4.728,10.416c-0.01,1.316,0.394,2.456,1.023,3.29  c0.942,1.239,2.21,1.778,3.21,2.057c-1.356,1.791-2.374,3.873-2.374,6.104c0,5,2.307,9.281,5.565,11.078  c-0.634,0.633-1.213,1.459-1.711,2.423c-2.515-1.175-6.746-3.532-9.47-7.021c-2.099-2.646-4.076-6.717-6.05-10.332  c-0.997-1.803-1.996-3.49-3.077-4.892c-1.077-1.376-2.241-2.516-3.784-2.979c-0.745-0.236-1.525,0.185-1.741,0.934  c-0.225,0.745,0.202,1.521,0.944,1.752c0.589,0.149,1.463,0.842,2.372,2.022c1.369,1.754,2.809,4.452,4.287,7.25  c1.499,2.801,3.051,5.703,4.839,7.98c3.267,4.11,7.91,6.653,10.631,7.888c-0.289,0.955-0.518,1.971-0.677,3.057  c-1.652-0.901-4.154-1.966-6.925-1.997c-1.066,0-2.173,0.178-3.259,0.613c-1.84,0.794-2.987,2.547-4.144,4.662  c-1.689,3.197-3.181,7.458-4.67,11.259c-1.442,3.782-3.032,7.147-4.188,8.08c-0.586,0.511-0.648,1.39-0.141,1.979  c0.278,0.322,0.664,0.484,1.06,0.484c0.322,0,0.655-0.112,0.924-0.341c1.394-1.246,2.398-3.172,3.443-5.49  c1.537-3.47,3.008-7.788,4.527-11.378c0.753-1.795,1.533-3.405,2.285-4.593c0.756-1.199,1.516-1.911,1.955-2.06  c0.701-0.284,1.439-0.414,2.21-0.412c1.716,0,3.559,0.649,4.941,1.336c0.692,0.339,1.27,0.683,1.674,0.935  c0.018,0.012,0.034,0.015,0.051,0.034c-0.007,0.152-0.007,0.301-0.007,0.454c0,1.494,0.135,2.919,0.377,4.251  c-0.7,0.298-1.947,0.87-3.331,1.707c-2.086,1.281-4.524,3.14-5.808,5.822c-0.503,1.084-0.701,2.211-0.701,3.303  c0.006,2.026,0.626,3.934,1.19,5.7c0.557,1.771,1.059,3.414,1.051,4.727c0.003,0.299-0.025,0.586-0.069,0.859  c-0.115,0.709-0.771,2.066-1.727,3.497c-1.432,2.162-3.475,4.616-5.161,6.5c-1.682,1.895-2.989,3.214-2.989,3.214  c-0.544,0.554-0.536,1.438,0.019,1.988c0.273,0.266,0.636,0.406,0.981,0.406c0.372,0,0.729-0.141,0.997-0.421  c0.021-0.014,2.402-2.427,4.909-5.424c1.263-1.498,2.541-3.134,3.593-4.722c1.035-1.599,1.853-3.078,2.14-4.553  c0.086-0.447,0.122-0.899,0.122-1.346c-0.018-1.957-0.638-3.803-1.192-5.572c-0.56-1.763-1.057-3.437-1.049-4.854  c-0.008-0.763,0.13-1.444,0.439-2.113c0.817-1.821,2.843-3.488,4.71-4.61c0.929-0.558,1.796-0.998,2.436-1.284  c0.056-0.028,0.091-0.041,0.131-0.062c0.729,2.202,1.801,3.955,3.059,5.021c-3.485,1.645-5.992,6.073-5.992,11.29  c0,6.611,4.021,11.977,8.98,11.974c4.97,0,8.997-5.362,8.991-11.977c0.003-5.321-2.605-9.824-6.205-11.387  c1.236-1.101,2.272-2.857,2.98-5.043c0.763,0.327,2.146,0.978,3.559,1.92c1.647,1.078,3.276,2.56,4.009,4.158  c0.312,0.665,0.432,1.351,0.432,2.113c0.014,1.418-0.481,3.092-1.049,4.854c-0.55,1.77-1.174,3.622-1.179,5.572  c-0.003,0.446,0.027,0.898,0.109,1.351c0.277,1.469,1.104,2.949,2.147,4.546c3.12,4.724,8.465,10.113,8.491,10.147  c0.27,0.28,0.638,0.421,0.997,0.421c0.359-0.001,0.72-0.144,0.991-0.404c0.552-0.552,0.552-1.437,0.008-1.988  c0,0-0.578-0.583-1.463-1.535c-1.333-1.433-3.346-3.689-5.081-5.95c-1.744-2.232-3.163-4.624-3.335-5.736  c-0.041-0.268-0.067-0.552-0.067-0.851c-0.008-1.315,0.489-2.955,1.055-4.721c0.557-1.771,1.184-3.674,1.189-5.706  c0-1.085-0.192-2.219-0.701-3.296c-1.271-2.69-3.725-4.548-5.8-5.825c-1.613-0.982-3.043-1.592-3.63-1.834  c0.224-1.301,0.353-2.688,0.353-4.127c0-0.087-0.012-0.168-0.009-0.244c0.84-0.592,4.062-2.549,6.983-2.516  c0.771,0.011,1.507,0.12,2.207,0.412c0.606,0.184,1.718,1.438,2.718,3.373c1.547,2.897,3.04,7.117,4.529,10.969  c1.554,3.869,2.928,7.332,4.972,9.18c0.269,0.229,0.589,0.341,0.919,0.341c0.391,0,0.786-0.162,1.06-0.484  C80.686,72.04,80.624,71.149,80.049,70.646z"/>
<text x="0.0" y="117.5" font-size="5.0" font-weight="bold" font-family="Helvetica Neue, Helvetica, Arial-Unicode, Arial, Sans-serif" fill="#000000">Created by Ben Fausone</text><text x="0.0" y="122.5" font-size="5.0" font-weight="bold" font-family="Helvetica Neue, Helvetica, Arial-Unicode, Arial, Sans-serif" fill="#000000">from the Noun Project</text></svg>