<svg xmlns="http://www.w3.org/2000/svg" xmlns:xlink="http://www.w3.org/1999/xlink" version="1.1" id="Layer_1" x="0px" y="0px" width="100px" height="100px" viewBox="5.0 -10.0 100.0 135.0" enable-background="new 0 0 100 100" xml:space="preserve">
<g>
	<path d="M95.605,81.306c2.184,0.724,4.237,2.557,3.522,2.782c-0.613,0.193-5.826-0.065-9.821-0.317   c0,0.025-4.481-0.328-5.296-0.413c-5.779-0.526-14.749-1.486-18.817-2.686c-6.262-1.848-11.141-3.88-12.522-8.932   c-1.384-5.056-4.146-7.006-4.972-4.88c-0.826,2.125-2.218-0.548-1.382,5.156c0.834,5.705,5.156,7.469-0.641,9.026   c-5.796,1.558-13.986,3.765-17.668,4.32c-3.682,0.559-5.167-0.01-4.424-0.464c0.742-0.452-2.208,0-1.011-0.917   c1.197-0.919,2.496-2.115,3.321-2.115c0.825,0,11.686-2.206,13.894-2.579c2.208-0.371,2.022-7.086,1.197-10.582   c-0.338-1.435-1.313-2.792-2.688-4.071c-0.11,0.577-0.181,1.459-0.197,2.831c-0.067,5.764,3.926,8.182-2.043,8.813   s-14.403,1.53-18.127,1.505c-3.724-0.026-5.103-0.82-4.297-1.15c0.804-0.333-2.181-0.347-0.855-1.066   c1.326-0.719,2.797-1.698,3.612-1.567c0.814,0.129,11.888-0.352,14.125-0.374c2.238-0.021,3.105-6.685,2.838-10.266   c-0.034-0.455-0.13-0.913-0.28-1.371l-0.118-1.107c-0.769-0.438-1.562-0.867-2.366-1.283c-4.971-2.579-7.002-3.414-7.002-3.414   s-3.583,4.14-4.201,4.931c-0.617,0.792-0.26,2.189-0.26,2.189l0.753,0.609c0,0,0.182-0.088,0.559-0.346   c0.377-0.264-0.087,0.434,0.463,0.115c0.55-0.319,0.501,0.347,0.203,0.819c-0.298,0.473-1.167,0.811-1.833,0.521   c-0.667-0.292-1.9-0.82-2.249-1.873c-0.347-1.051,0.647-1.688,0.647-1.688l3.175-6.128l-1.226-0.404c0,0-1.747,2.682-3.3,3.908   c-1.552,1.225-2.094,2.509-2.007,2.828c0.087,0.318-0.029,1.369-0.115,1.697c-0.088,0.327-0.088,1.139,0.145,1.746   c0.231,0.608,0.174,1.342-0.116,1.139c-0.291-0.202-0.386-0.465-0.386-0.465s-0.318-0.238,0.029,0.437   c0.348,0.674-0.058,0.521-0.058,0.521s-0.232,0-0.377-0.173c-0.145-0.176-0.174-0.32-0.318-0.378   c-0.145-0.059-0.762-0.291-0.733-1.197c0.029-0.907,0.029-3.009,0.029-3.009s1.697-3.001,3.068-5.135   c1.369-2.131,1.254-3.879,1.254-3.879s-1.052-1.755-2.48-3.937c-1.429-2.182-1.958-5.548-2.72-6.774   c-0.762-1.225-0.811-2.451-0.551-3.531c0.261-1.081,0.203-1.255-1.689-1.226c-0.827,0.013-1.295,0.12-1.627,0.247L5.94,38.583   c-0.44,0.163-0.682,0.359-1.209,0.429c-0.936,0.124-0.951,0.441-1.689,0.482c-1.343,0.073,0.11-1.551,0.11-1.551   s-1.248,0.306-1.72-0.012c-0.472-0.319-0.405-0.828-0.405-0.828s-0.849-0.319,0.311-1.881c0.622-0.837,3.931-2.733,3.931-2.733   c0.614-0.432,1.105-0.819,1.199-1.298c0.201-1.031-0.128-1.643,1.141-1.807c1.27-0.165,1.142-0.795,2.229-1.252   c0.22-0.093,0.478-0.182,0.766-0.25c-0.901-0.546-2.431-1.905-2.368-4.824c0.088-4.129,0.088-4.216,0.088-4.216   s1.108-0.557,2.437,2.581c1.132,2.677,0.715,5.556,0.568,6.344c0.295-0.024,0.611-0.023,0.945,0.015   c0.446-1.138,1.769-3.571,4.689-4.285c3.765-0.92,4.348-1.197,4.348-1.197s0.119,0.991-1.517,2.976   c-1.563,1.899-3.66,3.249-5.194,3.363c0.172,0.108,0.345,0.229,0.518,0.361c2.21,1.69,2.902,2.046,3.762,4.476   c0.86,2.43,1.178,4.065,1.178,4.065l3.553,1.361c0,0,6.769-3.554,10.047-3.919c0,0,9.256-1.708,16.342,3.996   c7.086,5.704,10.445,8.1,10.499,13.254c0.098,9.042-2.576,9.562,0.733,14.721c3.312,5.156,6.354,8.643,17.216,10.768   C78.447,77.722,94.383,80.9,95.605,81.306L95.605,81.306z"/>
</g>
<text x="0.0" y="117.5" font-size="5.0" font-weight="bold" font-family="Helvetica Neue, Helvetica, Arial-Unicode, Arial, Sans-serif" fill="#000000">Created by Simon Child</text><text x="0.0" y="122.5" font-size="5.0" font-weight="bold" font-family="Helvetica Neue, Helvetica, Arial-Unicode, Arial, Sans-serif" fill="#000000">from the Noun Project</text></svg>