<svg xmlns="http://www.w3.org/2000/svg" xmlns:xlink="http://www.w3.org/1999/xlink" version="1.1" x="0px" y="0px" width="100px" height="100px" viewBox="5.0 -10.0 100.0 135.0" enable-background="new 0 0 100 100" xml:space="preserve">
<g id="Layer_1" display="none">
	
		</g>
<g id="Layer_2">
	<g>
		<path d="M97.062,33.188l1.884-0.632c0,0-1.743-0.883-2.446-2.024c-0.543-0.881-4.104-5.369-2.438-6.094    c1.438-0.625,3.003-6.439,3.562-7.562c1.198-2.406-6.438,2.75-7.875,3.25c-0.719,0.25-3.094,0.018-5.188,0.125    c-2.094,0.108-3.904,0.555-4.5,0.188c-1.736-1.072-7.901-3.588-8.312-3.875c-0.391-0.272,0.532,6.735,2.938,8.25    c0.067,0.042,0.103,0.101,0.146,0.155c-0.464,0.901-7.025,4.93-8.709,7.47c-1.594,2.406-23.875,0.125-28.25,1.062    c-4.156,0.891-11.5,2.438-15.625,9.188S15,57.125,15.562,63.75S8.232,78.149,1,79.5c-5.188,0.969,12.277,0.588,14.125,0    c1.031-0.328-0.375,1.75-1.188,2s12.812-2.562,12.438-15.812s0.938-19.625,1.812-19.938s1.25,12.125,0.938,12.438    s-1.562,5.188-1.562,5.188s5.125,13.438,6.062,13.75s6.25,1,7.062-0.156c0.506-0.72,1.037-2.689-3.624-3.406    c-2.845-0.438-2.431-11.427-2.689-12c-0.281-0.625,4.125-4.188,4.875-3.812s-2.4,5.595-2.292,6.083    c0.542,2.459,6.917,12.479,8.417,13.042s5.22,0.438,5.656,0.219c0.188-0.094,2.194-1.664-3.094-4.031c-4.469-2-4-10.438-3.688-11    s8.094-6.531,8.562-8.068c0.129-0.423,10.688-1.244,11.375-0.307s-0.688,7.688-0.125,8.688s2.932,9.489,3.354,10.291    c0.521,0.99,0.396,4.99,2.959,6.084c3.127,1.335,7.944,0.324,2-4.375c-2.583-2.042-1.432-14.124-1.25-15.75    c0.064-0.574,1.292-2.354,1.55-2.728c-2.542,3.53,2.416,12.42,2.929,14.747c0.405,1.84,0.951,7.031,3.021,7.293    c9.406,1.188,2.521-3.859,2.219-4.188c-0.564-0.613-4.074-11.709-2.906-16.812c0.153-0.668,5.311-6.935,5.754-9.692    c0.51,0.242,0.689,3.72,0.561,3.876c-0.147,0.181,2.962-4.799,3.312-6.635c0.187-0.979,1.078,1.33,1.062,1.689    s1.922-7.718,1.03-9.705c-0.053-0.117-0.133-0.22-0.23-0.312c0.905-0.286,2.341-0.617,2.511-0.659    c0.25-0.062,2.312,0.312,2.312,0.312v-0.938l1.812,0.25l-0.312-0.938l2.125,0.188L97.062,33.188z M23.708,73.629    c-2.938,4.304-7.99,7.002-7.74,6.428c0.374-0.858,1.562-2.15-0.438-1.51c-1.162,0.372-12.542,1.06-10.656,0.58    c1.562-0.397,7.278-4.318,8.978-7.274c1.704-2.963,2.561-4.319,2.563-6.521c0.001-1.879-0.626-4.775,1.708-0.562    c2.415,4.358,1.334,0.984,2.043-1.099s1.165,2.493,2.332,4.077s0.334-0.66,0.709-3.452s0.334-0.833,1.042,0.542    s0.667,1.601,1.167-0.733S26.281,69.859,23.708,73.629z M36.25,73.729c1.021,0.476,2.841,0.319,3.629,1.21    c2.708,3.062-5.008,2.377-5.962,1.396s-6.112-13.809-5.708-13.084c0.234,0.42,1.979,2.435,1.896,2.06s0.146-1.458,0.146-1    s1.375,1.562,1.208,1.208s-0.006-1.628,0.062-1.271c0.07,0.365,0.354,0.533,0.521,0.812c0.107,0.179,0.208-0.854,0.188-0.521    s0.688,1.312,0.812,1.083s1.163-1.703,0.938-1.187C33.563,65.396,34.331,72.833,36.25,73.729z M47.375,73.541    c1.833,0.666,3.875,2.209,3.542,2.834s-4.375,0.208-5.5-0.167s-7.292-11.25-7.708-12c0,0,2.375,2.458,2.208,2.125    s0.25-1.583,0.292-0.958s1.417,1.833,1.125,1.25s-0.44-1.706,0.083-1.167C41.866,65.921,42,67,42.083,66.875    s0.25-1.167,0.25-0.959s0.833,1.917,0.583,1.209s0.875-2.917,0.625-1.75C43.03,67.763,45.542,72.875,47.375,73.541z M71.875,74.67    c0.453,0.275,3.048,2.067,2.792,3.205c-0.375,1.666-4.042,0.5-4.667,0c-1.065-0.853-1.754-4.323-1.833-4.791    c-0.077-0.458-3.464-10.895-3.667-11.375c-0.087-0.205,1.107,1.775,1.165,1.502c0.054-0.254,0.542-0.938,0.625-0.688    c0.131,0.395,0.684,1.703,0.688,1.292c0.005-0.475,0.327-1.113,0.458-1.375c0.188-0.375,0.441,2.088,1.189,2.247    c0,0-0.314-1.477-0.043-1.247c0.362,0.307,1.008,0.528,1.011,1.229c0.001,0.215,0.587-1.415,0.676-1.675    c0-0.003,0.001-0.012,0.002-0.014c0.014-0.036,0.011-0.026-0.002,0.014c-0.102,0.344-0.104,5.138-0.061,5.903    C70.361,71.653,71.291,74.315,71.875,74.67z M96.531,18.516c-0.493,1.696-2.038,5.012-2.415,5.08    c-0.229,0.042-0.694-0.533-0.694-1.033S97.025,16.817,96.531,18.516z M92.714,29.688c0.173,1.065-1.438,3.25-4.812,2    S92.339,27.375,92.714,29.688z M77.188,29.688c0.375-2.312,8.188,0.75,4.812,2S77.015,30.752,77.188,29.688z M72.501,18.958    c0-0.667,2.983,4.303,3.233,4.636s-0.537,1.042-0.537,1.042C73.362,23.241,72.501,19.625,72.501,18.958z M78.75,69.375    c0.169,0.694,0.959,4.126,2.031,5.031c1.649,1.393,2.514,2.325,1.929,2.824c-0.448,0.383-3.366,0.551-4.429-0.043    s-2.219-6.281-2.219-6.688s-2.469-6.969-2.938-7.938c0,0,1.266,1.578,1.109,1.281s0.125-0.984,0.016-0.578    s1.906,3.141,1.531,2.172c-0.552-1.425-0.216-1.895-0.125-2.281c0.121-0.518,0.557,1.238,0.5,1.375    c-0.115,0.278,0.383-0.844,0.438-1.031c0.088-0.3,0.406,1.812,0.438,1.188s0.625-1.594,0.562-1.094S78.71,69.211,78.75,69.375z     M88.562,45.016c0-0.323-0.891-2.359-1.02-1.473c-0.241,1.66-2.833,6.25-2.708,6.083s-0.288-4.25-0.875-3.333    c-3.453,5.395-11.125,6.75-10.167,6.333c0.693-0.301,2.038-4.086,2.676-6.563c0.244-0.948,0.338-1.659,0.375-1.976    c0.108-0.926,0.105-6.344,0.123-8.134L78,35.812c0,0,2.436,0.939,2.562,1.125c0.12,0.176,1.562,5.188,3.938,5    s4.188-5.188,4.188-5.438c0-0.058,0.164-0.14,0.414-0.231C89.979,38.017,88.562,45.338,88.562,45.016z M95.672,34.812L93.979,34.5    l-0.008,0.952l-2.094-0.365c0,0-3.19,0.694-3.378,1.1c-0.12,0.261-0.908,2.446-2.002,3.983c0.008-0.111-0.004-0.213-0.061-0.295    c-1.562-2.266-3.596-0.71-4.062,0c-0.032,0.049-0.036,0.111-0.041,0.171c-0.767-1.259-1.23-2.826-1.396-3.109    c-0.312-0.531-2.244-1.231-2.719-1.435c-0.406-0.174-2.5,0.279-2.5,0.279l0.047-0.875l-2.553-0.304l0.475-1.103l-2.031-0.329    c0,0,0.01-1.049,0.172-1.108c1.297-0.469,6.75,0.843,8.547,2.25c1.95,1.526,3.193,3.312,4.065,3.188    c0.464-0.066,3.085-3.09,6.185-4.25c2.732-1.023,5.998-0.221,6.203-0.016c0.375,0.375,0.609,0.828,0.609,0.828l-2.062-0.271    L95.672,34.812z"/>
		<path fill="#000000" d="M70.271,62.981c-0.001,0.002-0.002,0.011-0.002,0.014C70.281,62.955,70.284,62.945,70.271,62.981z"/>
		<ellipse cx="80.313" cy="30.838" rx="1.062" ry="0.786"/>
		<ellipse cx="89.688" cy="30.838" rx="1.062" ry="0.786"/>
	</g>
</g>
<text x="0.0" y="117.5" font-size="5.0" font-weight="bold" font-family="Helvetica Neue, Helvetica, Arial-Unicode, Arial, Sans-serif" fill="#000000">Created by Anniliese Ahrens</text><text x="0.0" y="122.5" font-size="5.0" font-weight="bold" font-family="Helvetica Neue, Helvetica, Arial-Unicode, Arial, Sans-serif" fill="#000000">from the Noun Project</text></svg>