<svg xmlns="http://www.w3.org/2000/svg" xmlns:xlink="http://www.w3.org/1999/xlink" version="1.0" id="Layer_1" x="0px" y="0px" width="100px" height="100px" viewBox="5.0 -10.0 100.0 135.0" enable-background="new 0 0 100 100" xml:space="preserve">
<g>
	<path d="M94.637,10.643c-0.215-0.39-0.305-1.084-0.887-1.765c-0.469-0.734-1.225-1.58-2.374-2.187   c-1.125-0.697-2.686-0.866-4.321-0.71c-1.659,0.188-3.394,0.971-4.928,2.286c-1.512,1.289-2.836,3.456-2.643,6.005   c0.062,1.237,0.63,2.688,1.183,3.541c0.591,1.202,1.736,2.249,2.912,2.886c1.147,0.653,2.408,1.141,3.206,1.649   c0.205,0.104,0.495,0.359,0.741,0.534c0.14,0.082,0.355,0.364,0.531,0.532c0.405,0.357,0.679,0.832,0.981,1.276   c0.183,0.223,0.206,0.448,0.323,0.664c0.092,0.242,0.221,0.354,0.297,0.737l0.258,0.987l0.04,0.697   c0.072,1.074-0.132,2.188-0.634,3.169c-0.188,0.518-0.565,0.942-0.866,1.396c-0.387,0.394-0.767,0.823-1.117,1.024   c-0.082,0.183-1.357,0.794-1.51,0.833c-0.526,0.122-1.02,0.334-1.569,0.317c-0.528,0.105-1.071-0.036-1.602-0.062   c-0.515-0.177-1.054-0.262-1.507-0.572c-0.5-0.205-0.883-0.588-1.299-0.896c-0.141-0.17-0.219-0.325-0.346-0.454   c-0.068-0.095-0.104-0.06-0.212-0.252l-0.304-0.516l-0.307-0.519l-0.151-0.259c0.329,0.506,0.077,0.103,0.143,0.199l-0.027-0.064   l-0.054-0.13l-0.417-1.041c-0.297-0.731-0.553-1.468-0.915-2.299c-0.626-1.58-1.62-3.61-3.387-5.373   c-0.779-0.889-2.075-1.713-3.393-2.411l-1.203-0.551l-0.575-0.26l-0.074-0.033c0.073,0.015-0.85-0.235-0.514-0.142l-0.221-0.054   l-0.442-0.101c-2.337-0.626-4.991-0.594-7.449,0.094c-4.995,1.336-9.087,5.16-10.99,10.125c-0.952,2.479-1.356,5.312-0.923,8.099   c0.182,1.38,0.91,3.598,1.13,4.031l0.243,0.612l0.06,0.156c-0.044-0.076,0.449,0.886,0.277,0.539l0.071,0.12l0.298,0.483   c0.403,0.644,0.824,1.282,1.272,1.897c2.017,2.367,4.536,3.894,6.427,4.773c0.812,0.384,1.732,0.806,2.252,1.085   c0.855,0.417,0.566,0.321,0.979,0.455l0.96,0.797c0.045,0.06,0.096,0.124,0.15,0.178c0.136,0.101,0.226,0.248,0.318,0.394   c0.109,0.128,0.216,0.266,0.275,0.435c0.329,0.617,0.547,1.337,0.582,2.058c-0.016,0.06-0.002,0.086,0.052,0.143   c0.063-0.06-0.044,0.307-0.076,0.48l-0.139,0.645l-0.014,0.066l-0.089,0.231c-0.054,0.175-0.085,0.374-0.197,0.501   c-0.265,0.649-0.739,1.13-1.34,1.552c-1.183,0.9-3.139,1.108-4.606,0.615c-0.724-0.173-1.435-0.765-1.805-1.071   c-0.064-0.082-0.115-0.016-0.27-0.176l-0.638-1.081l-0.158-0.27l-0.04-0.07c-0.057-0.105,0.35,0.717,0.159,0.331l-0.084-0.163   l-0.328-0.646c-0.228-0.436-0.407-0.841-0.691-1.304c-0.954-1.743-2.328-3.741-4.398-5.438c-0.558-0.411-1.097-0.828-1.7-1.175   c-0.644-0.317-1.302-0.61-1.96-0.874c-0.633-0.275-1.544-0.403-2.321-0.537c-0.403-0.059-0.807-0.107-1.204-0.142   c-0.38-0.03-0.451,0.009-0.69,0.01l-1.193,0.059l-0.148,0.009c0.096-0.01-1.04,0.066-0.618,0.047l-0.118,0.022l-0.469,0.095   l-0.93,0.214c-0.626,0.123-1.205,0.368-1.779,0.612c-0.578,0.241-1.148,0.486-1.656,0.835c-2.13,1.237-3.811,3.049-4.928,5.122   c-0.558,0.835-1.124,2.595-1.343,3.562l-0.17,1.105l-0.021,0.137c0.009-0.067-0.12,0.824-0.065,0.495l-0.001,0.106l-0.003,0.415   l0.006,0.832c-0.063,2.156,0.752,4.691,2.054,6.551c1.331,1.952,2.985,3.025,4.467,3.972c1.515,0.877,3.157,1.498,3.769,1.833   c1.074,0.407,1.845,1.638,1.924,2.849c0.089,0.393-0.021,0.361,0.093,0.579c0.049,0.005-0.003,0.15-0.061,0.298l-0.148,0.413   l-0.146,0.408l-0.071,0.198c-0.122,0.199-0.222,0.413-0.364,0.601c-0.23,0.184-0.364,0.477-0.625,0.632   c-0.908,0.767-2.295,1.03-3.258,0.893c-0.205-0.077-0.284,0.059-0.652-0.101c-0.396-0.202-0.786-0.405-1.165-0.602   c0.324,0.239-0.103-0.047-0.22-0.207c-0.2-0.221-0.407-0.456-0.626-0.749c-0.866-1.126-1.697-2.412-2.82-3.496   c-0.534-0.54-1.242-1.06-2.036-1.428c-0.417-0.165-0.888-0.286-1.31-0.354c-0.447-0.014-0.895-0.016-1.271,0.052   c-0.732,0.178-1.329,0.427-1.76,0.75c-0.22,0.146-0.447,0.297-0.591,0.42c-0.096,0.091-0.179,0.178-0.256,0.252   c-0.304,0.304-0.462,0.457-0.462,0.457c-0.115,0.097-0.181,0.224-0.267,0.342c-1.956-0.798-4.368-0.34-6.051,1.354   c-1.251,1.255-1.804,2.911-1.688,4.474c-1.713,1.814-2.39,4.045-1.703,5.408l-4.164,4.18l-0.207,0.077l-3.176,1.204   c-0.229,0.084-0.373,0.326-0.331,0.57c0.05,0.289,0.316,0.48,0.601,0.432l2.094-0.347L6.65,94.361   c-0.041,0.239,0.095,0.487,0.331,0.575c0.271,0.1,0.573-0.036,0.674-0.307l1.192-3.176l0.08-0.209l4.163-4.186   c1.367,0.681,3.587-0.003,5.396-1.722c1.566,0.11,3.222-0.454,4.467-1.705c1.713-1.72,2.143-4.183,1.283-6.146   c0.027-0.021,0.059-0.028,0.083-0.049c-0.104,0.065,1.089-0.857,1.236-0.668c0.031,0.018,0.025,0.066,0.04,0.046   c0.019,0.041,0.025,0.057,0.071,0.085c0.102,0.117,0.301,0.264,0.558,0.63c0.518,0.68,1.106,1.775,1.948,3.227   c0.205,0.355,0.468,0.757,0.767,1.179c0.391,0.479,0.535,0.809,1.545,1.554c0.355,0.24,0.715,0.485,1.088,0.737   c0.417,0.264,1.252,0.58,1.918,0.823c2.625,0.792,5.566,0.579,8.295-0.989c0.691-0.359,1.275-0.932,1.911-1.438   c0.583-0.564,1.071-1.258,1.585-1.931l0.574-1.128l0.196-0.39c0.064-0.119,0.133-0.244,0.213-0.531   c0.276-0.94,0.618-2.125,0.57-2.952l0.012-1.373c-0.048-0.45-0.136-0.906-0.216-1.363c-0.12-0.93-0.535-1.792-0.891-2.681   c-0.893-1.682-2.165-3.347-3.97-4.412l-0.666-0.416l-0.168-0.104l-0.084-0.048c0.151,0.07,0.012,0.003,0.028,0.007l-0.22-0.12   l-0.88-0.493c-0.61-0.337-0.896-0.586-1.36-0.876c-0.761-0.619-1.444-1.236-1.641-1.735c-0.204-0.531-0.362-0.886-0.233-1.689   l0.022-0.281l0.001-0.029l0.245-1.009c0.043-0.253,0.088-0.186,0.124-0.222c0.033-0.019,0.06-0.043,0.079-0.066   c0.027-0.027,0.01-0.037,0.052-0.092l0.165-0.201c0.377-0.557,0.935-1.038,1.557-1.273c0.136-0.102,0.304-0.12,0.458-0.159   c0.154-0.044,0.3-0.113,0.463-0.094l0.176-0.017l1.062,0.02c0.159,0.013,0.495-0.01,0.506,0.034   c-0.007,0.043-0.019,0.078-0.028,0.1c-0.007,0.074-0.083-0.042,0.005,0.057c0.072,0.072,0.145,0.12,0.238,0.146   c0.083,0.07,0.16,0.2,0.259,0.265c0.384,0.428,0.949,1.159,1.483,2.373c0.137,0.25,0.268,0.617,0.406,0.929l0.203,0.483l0.053,0.12   l0.262,0.539l0.14,0.282l0.559,1.12c0.314,0.53,0.812,1.24,1.252,1.831c0.472,0.663,0.931,1.106,1.402,1.562   c0.478,0.456,0.936,0.944,1.489,1.302c0.536,0.386,1.078,0.782,1.64,1.124c0.581,0.305,1.171,0.601,1.771,0.879   c4.848,2.02,10.497,1.848,15.279-0.905c2.371-1.348,4.534-3.359,5.932-5.802c0.405-0.588,0.677-1.218,0.954-1.854l0.409-0.959   l0.1-0.239l0.048-0.119c-0.006,0.035,0.122-0.41,0.166-0.56l0.081-0.287l0.177-0.638c0.062-0.254,0.107-0.309,0.188-0.81   c0.143-0.814,0.253-1.667,0.313-2.482c0.134-2.807-0.433-5.62-1.645-8.175c-0.276-0.653-0.635-1.266-1.024-1.862   c-0.374-0.606-0.771-1.197-1.254-1.736l-0.706-0.81l-0.182-0.2l-0.09-0.101c0.06,0.048-0.865-0.788-0.503-0.458L70.578,41.9   l-1.021-0.848c-1.084-0.792-2.858-1.868-3.62-2.162c-1.063-0.508-1.763-0.792-2.56-1.139c-1.316-0.588-1.842-0.95-2.193-1.203   c-0.054-0.106-0.137-0.187-0.238-0.267l-0.081-0.056l-0.023-0.013c-0.173-0.341,0.14,0.3,0.188,0.396l-0.073-0.145l-0.306-0.584   l-0.303-0.586l-0.072-0.141l0.009-0.02l0.003-0.036c0.009-0.074-0.062-0.009-0.096-0.18c-0.241-0.666-0.219-1.422-0.075-2.224   c0.159-0.799,0.535-1.626,1.078-2.336c0.552-0.704,1.264-1.233,2.023-1.617c0.771-0.349,1.611-0.64,2.573-0.58l0.183-0.009   l0.091-0.004c0.39,0.102-0.48-0.148-0.359-0.116l0.076,0.016l0.62,0.124l1.176,0.242c0.144,0.117,0.376-0.011,0.785,0.28   c0.756,0.391,1.58,1.185,2.454,2.477c0.438,0.585,0.895,1.307,1.371,1.986l0.746,1.07l0.353,0.532l0.196,0.228l0.396,0.452   c0.344,0.481,1.539,1.567,2.411,2.2c0.913,0.539,1.807,1.087,2.8,1.368c1.935,0.672,3.999,0.84,5.926,0.425   c0.985-0.13,1.881-0.546,2.764-0.918l0.165-0.072c-0.009,0.005,0.391-0.205,0.249-0.131l0.058-0.041l0.234-0.155l0.468-0.306   c0.16-0.111,0.299-0.191,0.478-0.325l0.592-0.506c1.599-1.37,2.463-2.856,3.062-4.552c0.604-1.651,0.732-3.428,0.447-5.076   c-0.101-0.462-0.091-0.717-0.289-1.333l-0.361-0.954c-0.266-0.636-0.768-1.548-1.22-2.152c-0.501-0.61-0.978-1.217-1.596-1.677   c-0.321-0.246-0.518-0.483-0.937-0.725c-0.295-0.167-0.504-0.324-0.871-0.497c-1.415-0.735-2.531-1.021-3.521-1.497   c-0.973-0.449-1.689-1.013-2.186-1.836c-0.74-1.023-0.982-1.722-1.139-2.609c-0.291-1.791,0.529-3.539,1.717-4.732   c1.201-1.192,2.699-1.957,4.109-2.187c2.878-0.544,5.034,0.905,5.827,2.207c0.536,0.574,0.635,1.224,0.845,1.57   c0.166,0.373,0.253,0.566,0.253,0.566l0.031,0.073c0.083,0.185,0.299,0.273,0.487,0.197c0.194-0.077,0.287-0.299,0.21-0.492   C94.893,11.271,94.805,11.057,94.637,10.643z"/>
	<path d="M75.476,59.669l-0.008,0.027C75.5,59.59,75.493,59.607,75.476,59.669z"/>
</g>
<text x="0.0" y="117.5" font-size="5.0" font-weight="bold" font-family="Helvetica Neue, Helvetica, Arial-Unicode, Arial, Sans-serif" fill="#000000">Created by Ola M&#246;ller</text><text x="0.0" y="122.5" font-size="5.0" font-weight="bold" font-family="Helvetica Neue, Helvetica, Arial-Unicode, Arial, Sans-serif" fill="#000000">from the Noun Project</text></svg>