<svg xmlns="http://www.w3.org/2000/svg" xmlns:xlink="http://www.w3.org/1999/xlink" version="1.1" id="Calque_2" x="0px" y="0px" width="100px" height="100px" viewBox="5.0 -10.0 100.0 135.0" enable-background="new 0 0 100 100" xml:space="preserve">
<g>
	<path d="M91.646,58.014c-2.728,0-5.288,1.369-6.84,3.59h-11.04c-1.584,0-2.909-1.121-3.234-2.609   c0.586,0.121,1.188,0.223,1.814,0.289c0.013,0,0.024,0,0.037,0.002c0.002,0,0.004,0.002,0.007,0.002l7.068,0.424   c0.099,0.006,0.224,0.01,0.366,0.01c0.644,0,1.649-0.1,2.246-0.66c0.19-0.182,0.318-0.398,0.387-0.633   c0.216,0.018,0.429,0.049,0.646,0.049c1.468,0,2.894-0.396,4.16-1.115c0.089,0.008,0.174,0.025,0.265,0.025   c1.703,0,3.089-1.385,3.089-3.086c0-0.633-0.205-1.244-0.564-1.762c-0.23-1.229-1.412-7.375-2.679-11.234   c-1.505-4.582-5.13-8.053-9.658-9.578l-0.499-2.02c-0.379-1.533-1.475-3.488-2.756-4.09c-1.299-0.609-2.875-0.27-3.594,0.775   L70.726,26.6c-0.36-0.434-0.753-0.789-1.166-0.982c-1.315-0.615-3.249,0.275-4.492,2.084l-0.777,1.131   c-0.897,1.307-1.776,3.35-1.712,4.66c-3.225,1.965-5.484,4.807-6.447,8.025c-3.178-1.488-6.634-2.381-10.15-2.621   c2.719-3.93,4.201-8.631,4.201-13.439c0-13.014-10.589-23.604-23.604-23.604c-14.56,0-23.604,9.045-23.604,23.604   c0,0.553,0.447,1,1,1s1-0.447,1-1c0-0.039,0.003-0.076,0.003-0.115c0.002-0.029,0.017-0.055,0.017-0.084   c0-4.551,3.703-8.254,8.254-8.254s8.254,3.703,8.254,8.254c0,0.035,0.017,0.064,0.021,0.1c-0.004,0.035-0.021,0.064-0.021,0.1   c0,5.955-4.018,9.59-8.67,13.797C6.817,44.695,0,50.863,0,63.65c0,19.666,13.267,34.496,30.86,34.496h34.514c0.553,0,1-0.447,1-1   v-1.738c0-1.928-1.568-3.496-3.495-3.496h-1.732c3.727-2.488,6.238-7.053,6.238-12.275c0-1.053-0.108-2.094-0.309-3.111   c0.165,0.004,0.325,0.018,0.491,0.018c6.955,0,12.756-3.371,14.015-7.816l3.389,2.551c1.614,2.154,4.093,3.441,6.676,3.441   c4.606,0,8.354-3.746,8.354-8.352C100,61.76,96.253,58.014,91.646,58.014z M72.517,27.525c0.127-0.186,0.642-0.311,1.095-0.098   s1.327,1.393,1.665,2.758l0.24,0.973c-0.947-0.176-1.919-0.277-2.913-0.283l-0.236-0.955c-0.114-0.461-0.29-0.955-0.505-1.441   L72.517,27.525z M64.374,95.408v0.738h-6.17v-0.738c0-0.537-0.132-1.041-0.35-1.496h5.024   C63.703,93.912,64.374,94.584,64.374,95.408z M86.001,69.549l-4.556-3.43c-0.032-0.025-0.069-0.029-0.104-0.051   c-0.06-0.035-0.119-0.066-0.186-0.088c-0.065-0.021-0.13-0.031-0.197-0.039c-0.04-0.006-0.074-0.023-0.115-0.023   c-0.024,0-0.045,0.012-0.068,0.014c-0.068,0.004-0.132,0.021-0.198,0.039c-0.062,0.018-0.121,0.033-0.177,0.063   c-0.055,0.025-0.101,0.063-0.149,0.1c-0.057,0.043-0.109,0.084-0.155,0.139c-0.016,0.018-0.037,0.025-0.051,0.045   c-0.024,0.031-0.03,0.07-0.05,0.104c-0.035,0.059-0.066,0.117-0.088,0.186c-0.022,0.064-0.032,0.129-0.04,0.197   c-0.005,0.039-0.023,0.074-0.023,0.115c0,4.203-5.507,7.625-12.276,7.625s-12.276-3.422-12.276-7.625c0-0.553-0.447-1-1-1   s-1,0.447-1,1c0,4.715,5.059,8.641,11.706,9.461c0.252,1.057,0.388,2.148,0.388,3.258c0,6.77-4.79,12.275-10.677,12.275h-4.199   c3.718-2.49,6.215-7.061,6.215-12.275c0-7.873-5.688-14.277-12.678-14.277c-0.553,0-1,0.447-1,1s0.447,1,1,1   c5.888,0,10.678,5.508,10.678,12.277s-4.79,12.275-10.678,12.275h-0.072c-0.553,0-1,0.447-1,1s0.447,1,1,1h0.049h10.686   c0.825,0,1.496,0.672,1.496,1.496v0.738H30.86C14.407,96.146,2,82.176,2,63.65c0-11.9,6.468-17.75,12.174-22.912   c4.797-4.34,9.328-8.439,9.328-15.281c0-0.035-0.017-0.064-0.021-0.1c0.004-0.035,0.021-0.064,0.021-0.1   c0-5.654-4.6-10.254-10.254-10.254c-2.87,0-5.464,1.188-7.327,3.094C8.819,7.742,17.94,3.854,26.578,3.854   c11.912,0,21.604,9.691,21.604,21.604c0,4.861-1.663,9.598-4.671,13.396c-12.935,0.635-23.287,12.732-23.287,27.52   c0,7.336,2.518,14.238,7.09,19.436c0.198,0.225,0.474,0.34,0.751,0.34c0.235,0,0.471-0.082,0.66-0.25   c0.415-0.365,0.455-0.996,0.091-1.41c-4.251-4.832-6.592-11.266-6.592-18.115c0-13.992,9.891-25.395,22.102-25.551   c3.949,0.043,7.861,0.984,11.384,2.715c-0.063,0.51-0.103,1.023-0.103,1.543c0,0.553,0.447,1,1,1s1-0.447,1-1   c0-3.629,1.911-7.025,5.177-9.336l0.14,1.449c0.05,0.518,0.484,0.904,0.994,0.904c0.032,0,0.064-0.002,0.097-0.006   c0.55-0.053,0.952-0.541,0.899-1.09l-0.186-1.934c-0.001-0.002,0-0.004,0-0.006l-0.11-1.139c0,0,0-0.002,0-0.004l-0.049-0.5   c-0.05-0.523,0.459-2.129,1.37-3.455l0.777-1.131c0.792-1.152,1.792-1.49,1.993-1.406c0.442,0.207,1.353,1.498,1.717,2.973   l1.022,4.133c-0.013,1.92-1.465,2.52-1.997,2.52c-0.553,0-1,0.447-1,1s0.447,1,1,1c1.677,0,3.999-1.578,3.999-4.543   c0-0.033-0.016-0.061-0.019-0.094c-0.001-0.078,0.009-0.156-0.011-0.236l-0.318-1.285c1.081,0.043,2.131,0.205,3.139,0.477   c0.182,0.168,0.416,0.275,0.672,0.275c0.058,0,0.115-0.012,0.174-0.021c3.938,1.328,7.085,4.336,8.388,8.303   c1.34,4.082,2.641,11.125,2.653,11.195c0.005,0.029,0.021,0.051,0.029,0.078c0.01,0.035,0.024,0.068,0.038,0.102   c0.035,0.09,0.079,0.17,0.136,0.244c0.011,0.014,0.014,0.031,0.024,0.043c0.12,0.141,0.263,0.377,0.263,0.711   c0,0.6-0.488,1.086-1.089,1.086c-0.6,0-1.088-0.486-1.088-1.086c0-0.553-0.447-1-1-1s-1,0.447-1,1c0,0.695,0.239,1.33,0.629,1.848   c-1.849,0.576-3.944,0.324-5.565-0.771c-0.459-0.307-1.079-0.188-1.389,0.27c-0.309,0.459-0.188,1.08,0.27,1.389   c0.393,0.266,0.807,0.486,1.232,0.68c-0.015-0.002-0.024,0-0.039,0l-7.044-0.422c-4.173-0.441-8.657-2.627-8.657-6.396   c0-0.553-0.447-1-1-1s-1,0.447-1,1c0,3.32,2.576,6.127,6.588,7.529c0.075,2.867,2.417,5.178,5.301,5.178h14.178   c0.824,0,1.495,0.672,1.495,1.496v1.738c0,1.496-1.217,2.711-2.712,2.711H86.001z M91.646,72.719c-1.354,0-2.677-0.471-3.773-1.311   c2.046-0.512,3.566-2.367,3.566-4.57V65.1c0-1.928-1.568-3.496-3.495-3.496h-0.477c1.146-1.002,2.625-1.59,4.179-1.59   c3.503,0,6.354,2.85,6.354,6.354C98,69.869,95.149,72.719,91.646,72.719z"/>
	<path d="M76.263,48.576h2.496c0.553,0,1-0.447,1-1V45.08c0-1.928-1.568-3.496-3.496-3.496s-3.496,1.568-3.496,3.496   S74.335,48.576,76.263,48.576z M76.263,43.584c0.825,0,1.496,0.67,1.496,1.496c0,0.824-0.671,1.496-1.496,1.496   s-1.496-0.672-1.496-1.496C74.767,44.254,75.438,43.584,76.263,43.584z"/>
</g>
<text x="0.0" y="117.5" font-size="5.0" font-weight="bold" font-family="Helvetica Neue, Helvetica, Arial-Unicode, Arial, Sans-serif" fill="#000000">Created by Jake Dunham</text><text x="0.0" y="122.5" font-size="5.0" font-weight="bold" font-family="Helvetica Neue, Helvetica, Arial-Unicode, Arial, Sans-serif" fill="#000000">from the Noun Project</text></svg>