<svg xmlns="http://www.w3.org/2000/svg" xmlns:xlink="http://www.w3.org/1999/xlink" version="1.1" id="Your_Icon" x="0px" y="0px" width="100px" height="100px" viewBox="5.0 -10.0 100.0 135.0" enable-background="new 0 0 100 100" xml:space="preserve">
<polygon points="18.507,45.753 19.965,39.318 20.417,35.021 21.624,33.061 22.716,24.994 18.507,23.185 19.814,22.996   19.249,21.752 22.981,17.869 27.429,16.7 22.491,20.885 27.165,17.907 31.802,16.474 28.598,19.15 27.731,20.885 31.614,18.773   39.518,23.636 44.042,30.673 49.168,35.9 52.889,44.144 48.253,40.827 41.025,38.715 40.221,48.566 34.391,52.989 29.565,58.318   27.957,58.318 21.624,51.282 21.121,52.386 18.507,49.909 "/>
<polygon points="41.83,40.022 48.253,41.731 52.889,45.275 59.396,47.059 74.25,43.541 83.9,49.271 87.67,57.262 96.566,64.425   98,70.457 94.531,75.961 84.73,76.715 75.402,74.655 64.852,77.066 75.402,74.428 84.779,76.589 93.25,75.056 95.762,71.186   94.707,65.758 87.369,60.63 85.107,61.585 85.107,63.245 89.932,65.758 89.781,68.874 78.07,69.527 67.113,74.655 64.047,74.001   66.309,71.186 63.367,73.648 61.08,71.538 62.387,69.478 64.801,67.567 62.205,69.194 60.729,71.035 60.125,69.125 65.504,65.456   68.018,67.014 76.813,67.817 84.102,64.502 76.563,66.662 68.268,65.908 65.102,63.849 52.385,67.768 41.83,65.707 35.698,68.221   27.906,67.817 18.507,68.472 11.722,74.503 9.51,74.302 8.807,73.195 12.677,68.925 8.48,73.021 6.771,72.552 6.192,71.085   9.762,67.265 5.992,70.684 5.59,69.226 12.425,64.148 30.118,58.922 35.145,53.393 41.327,49.12 "/>
<path d="M17.603,23.636l-3.317,3.117l0.503,1.708l-6.333,8.243l1.81,4.021l3.519-0.603l-1.81,3.015l2.413,3.921l3.217-2.312  l1.307-5.027l0.502-5.026l1.307-2.111l0.905-6.735L17.603,23.636z M9.955,38.338l-0.73-1.525l1.692-0.756L9.955,38.338z   M16.12,30.196l0.528-1.433l1.131,0.604L16.12,30.196z"/>
<polygon points="65.391,76.925 64.146,76.498 59.471,77.816 58.568,81.513 55.703,84 63.016,82.944 "/>
<polygon points="26.675,58.318 18.507,60.882 16.346,56.66 17.251,54.171 21.92,52.757 "/>
<text x="0.0" y="117.5" font-size="5.0" font-weight="bold" font-family="Helvetica Neue, Helvetica, Arial-Unicode, Arial, Sans-serif" fill="#000000">Created by Yi Chen</text><text x="0.0" y="122.5" font-size="5.0" font-weight="bold" font-family="Helvetica Neue, Helvetica, Arial-Unicode, Arial, Sans-serif" fill="#000000">from the Noun Project</text></svg>