<svg xmlns="http://www.w3.org/2000/svg" xmlns:xlink="http://www.w3.org/1999/xlink" version="1.1" x="0px" y="0px" width="100px" height="100px" viewBox="5.0 -10.0 100.0 135.0" enable-background="new 0 0 100 100" xml:space="preserve">
<g id="Captions">
</g>
<g id="Your_Icon">
	<path d="M25.383,12.93c0,0-3.827,0.459-7.244,8.266h0.663h0.204c0,0-2.398,1.99-1.735,15.918c0,0,2.194,0.663,2.704,4.95   c0,0-0.357,3.928,2.092,4.234c0,0,0.714,0.307,0.562,1.531c-0.153,1.225,2.143,0.918,5.714,7.705   c3.571,6.784,5.459,6.836,5.459,6.836l0.459-1.174l-0.306-0.612l0.306-0.969l-1.939-1.938l1.939,0.306c0,0,0.306-1.275,1.071-1.328   c0.765-0.049-1.888-1.428-2.5-1.12c-0.612,0.306-0.102-0.204,0.306-0.869c0.409-0.662-3.469-1.377-3.418-3.11   c0,0-1.938,0.865-1.582-0.868c0,0-1.173,0-1.173-1.685c0,0-2.041,0.613-1.275-1.122c0,0-1.684-0.307-0.817-1.632   c0,0-0.969-0.357-0.561-1.48c0,0-1.633-0.612-0.408-1.582c0,0-2.092-0.562,0.051-1.48c0,0-1.837-0.408-0.612-1.327   c0,0-3.062-0.766-0.307-2.296c2.755-1.531-0.918-1.479-0.664-2.398c0.256-0.918,1.021,0.153,0.613-1.021   c-0.409-1.174-1.48-0.204,0.204-2.041c0,0-1.479-1.072,0.408-1.633c0,0-1.071-1.836,0.153-2.04c0,0-0.273-0.977,0.206-1.255   c0.068-0.04,0.152-0.065,0.254-0.072c0,0-0.205-1.174,0.816-1.531c0,0-0.936-4.09,2.761-3.748c0.064,0.007,0.131,0.014,0.198,0.022   c3.928,0.511-5.255-0.713,4.949-3.877c0,0,4.694-3.929,12.144-3.418c7.449,0.51,6.277,0.357,7.449,0.306   c1.174-0.051,1.174-0.612,2.193,0.918c0,0,1.939-0.817,5.357,2.295c3.418,3.113,7.246,7.297,7.041,9.337   c-0.205,2.042-2.039-1.888-3.01-2.755s-2.959-2.143-3.725-1.837s-2.246-1.122-3.879-2.959c-1.631-1.836-1.172-0.561-1.172-0.561   l-0.613,0.103c0,0,0.816,0.917,0.562,1.071c-0.256,0.152-1.174,1.224-0.154,1.581c1.021,0.357,6.328,1.938,8.266,4.898   c0,0,1.582,1.633,2.654,1.734c1.061,0.101-0.08,1.452-6.688-2.135c-0.066-0.036-0.135-0.073-0.201-0.11   c0,0-4.184-0.357-6.121-1.939c0,0-2.809-1.021-3.829-0.612c0,0-6.122,2.143-13.367,0.918c0,0-2.602-0.152-2.959,0.51   c0,0-0.51,0.102-0.357,1.173c0.153,1.072-1.99,5.103-2.296,5.511c-0.306,0.408-1.938,3.571-1.938,3.571s1.888,0.714,0.153,2.347   c0,0,2.857,0.868,0.714,1.939c0,0,2.246,0.663,0.562,2.398c0,0,0.766,0.102,1.684,1.326c0.918,1.225-0.766,1.123-0.357,1.479   c0.409,0.357,1.327-0.153,0.867,1.276c0,0,1.786-0.204,1.378,0.97c0,0,3.138,0.127,3.342,5.076l0.434,0.103   c0,0-0.051-1.581,1.148-1.581l-0.944-1.686l1.964,0.385c0,0,0.332-1.328,1.582-0.842c1.25,0.483-0.613-3.037-0.613-3.037   l1.786,0.586l-0.255-0.867l0.816,0.562c0,0,0.026-0.893,0.868-1.046s-0.434-2.27-0.332-2.246c0.102,0.026,1.275,0.944,1.275,0.944   l0.357-0.714l1.403,0.918c0,0,1.149,0.127,1.149,0.025s-3.011-2.167-2.909-3.009c0.103-0.843,2.653,1.53,2.653,1.53   s-0.204-3.316-1.097-4.159c-0.893-0.841,1.199,0.817,1.505,2.449c0.306,1.633,0.51,0.664,0.51,0.664s0.485-5.664,1.071-5.613   c0.587,0.052-1.008,5.562,0.556,5.714c1.563,0.153,0.567-5.127,0.567-5.127s0.025-1.477,1.488,4.072   c0.014,0.054,0.029,0.107,0.043,0.162c0,0,1.785-3.01,1.199-4.413c-0.588-1.404,1.912,1.121-0.918,5.178l0.586-0.229l0.127,0.664   c0,0,1.889-0.817,1.861-1.914c-0.023-1.097,0.818,0.638-1.299,3.189l0.789,0.077l0.027,0.638c0,0,1.045-0.153,1.172-1.403   c0.129-1.25,0.562,1.684,0.129,2.806c-0.434,1.123,0.586,0.281,0.586,0.281l0.051,0.791c0,0,0.484,0.307,0.74,0.944   s1.709-1.761,1.76-1.863s1.162-3.028-0.48,3.159c-0.01,0.034-0.02,0.071-0.029,0.107c0,0,0.639,0.05,0.816,0.892   c0.18,0.843,0.383-0.433,0.383-0.433s0.459-1.378,0.203,1.25c-0.254,2.628,1.48-0.765,1.404-1.48   c-0.076-0.715,0.459,1.658-0.256,3.598c0,0,1.965,0.867,1.812-3.571c0,0-0.205-1.429,0.943,1.096c0,0,0.943-1.99,0.229-2.32   c-0.715-0.332,0.818-0.127,0.818-0.127s0.842-0.536,0.484-1.148c-0.357-0.612,0.33-0.485,0.33-0.485s-1.377-1.275,0.943-1.76   c0,0-0.713-2.807,0.742-1.582c0,0,0.447-1.557,0.312-2.22c-0.135-0.663,0.58,0.204,0.58,0.204s-0.512-2.168,1.045-4.234   c0,0-0.305-0.459,0.205-3.674c0.51-3.214-0.281-3.265-0.281-3.265s-0.307-1.123,1.146-3.444c0,0-0.254-0.306-0.15-2.246   c0,0-1.021-0.332-1.148-1.632c-0.129-1.302-2.17-0.102-8.445-8.406c-6.275-8.304-15.383-6.008-17.411-7.768   c-2.027-1.76-1.798-1.454-1.798-1.454s0.421-0.612,3.444,0.383c0,0,5.356-0.842,9.183,0.919c0,0,2.984,0.163,1.225-1.488   l-0.611-0.58c0,0-1.736,0.282-2.066,0.103c0,0-0.307-0.485-1.861-0.842c0,0-1.201-0.867-4.899-0.764c0,0-0.408,0.637-0.893,0.408   c0,0-0.689-0.408-0.714-0.051c0,0-0.255,0.612-0.97,0.28c-0.714-0.331-0.102,0-0.102,0s-1.428,0.944-1.811,0.715   c0,0,3.086-5.025,16.122-2.016c0,0,0.338-0.601,0.871,0.602c0.016,0.036,0.033,0.073,0.049,0.113   c0.561,1.353-0.305-1.683,3.266,1.122c0,0,2.422,2.13,3.686,2.36c1.264,0.229,7.5,6.964,8.305,10.446c0,0,1.225,1.875,2.83,2.258   c0,0,1.264,1.377,1.111,1.645c0,0,0.332,1.378,0.012,2.029c0,0,0.291,1.071,0.139,1.531c-0.15,0.459,0.045,0.152,0.045,0.152   s0.76,0.65,0.799,1.607c0,0-0.039,0.842-0.918,1.148c0,0,2.182,2.526-0.535,2.488c0,0,2.18,2.181-0.461,1.76   c0,0,1.99,1.569-0.113,1.837c0,0,0.918,1.455-0.652,2.066c0,0-0.152,1.148-2.027,2.372l0.344,0.269c0,0,0.307,1.148-0.113,1.836   c0,0,1.225-0.497,0.766,1.301c0,0,0.115-0.077-1.188,0.957c0,0-0.346,0.562-0.498,0.919c-0.152,0.356,1.021,0.127-0.406,1.454   s2.703-0.459-0.334,2.168c0,0,0.818,1.352-0.865,1.531c-1.686,0.178,1.633,0.281-0.053,1.66c0,0,1.201,0.713-1.377,1.301   c-2.576,0.586,2.652-0.256-0.637,1.02c0,0-0.076,1.531-1.43,1.377c0,0-2.297,2.475-3.471,2.653l-0.561,0.486l0.639,0.15   l-0.562,0.844l1.787-0.053l-1.072,1.658l0.436,0.641l-0.535,0.687l0.789,0.538l0.281,0.253c0,0,5.357-6.786,6.658-7.755   c1.271-0.948,4.598-5.049,3.881-5.821c-0.016-0.017-0.035-0.033-0.055-0.046c-0.918-0.637,1.658-1.301,1.99-1.939   c0.332-0.638,1.25-1.071,1.352-5.612c0,0,0.609-1.977,2.092-2.015c0.035-0.001,0.068-0.001,0.104,0   c1.555,0.051,1.121-8.164,1.504-9.184c0.383-1.021,3.674-9.899-7.883-18.419c0,0,8.828-0.255,10.434,15.051   c0,0,0.613,9.95-1.605,12.628c0,0,0.152,3.597-0.486,4.21c-0.639,0.612-3.188,4.362-3.289,6.811c0,0-3.803,3.545-4.107,5.152   c-0.307,1.607-5.154,3.343-9.797,10.257c0,0-1.838,3.391-2.553,3.546c0,0,9.518-7.552,12.961-7.578   c3.443-0.023,5.025-2.729,5.025-2.729s4.617-0.944,5.025-2.96c0.408-2.017,3.215-3.773,3.547-3.494   c0.33,0.279,0.383-3.572,1.633-5.996c1.248-2.424,1.506-12.168-2.322-15.664c-3.826-3.495,8.521,3.01,4.082,17.321   c0,0-1.072,4.517-1.914,4.479c0,0,0.115,2.561-0.305,3.328c-0.422,0.766-3.023,4.095-4.668,4.018   c-1.646-0.077-3.33,2.296-3.369,2.793c0,0-9.834,3.214-12.396,5.474c-2.564,2.257-9.338,5.318-9.338,5.318   s15.766-5.318,17.41-3.214c1.645,2.104,2.869,2.522,3.291,2.832c0.422,0.306,3.1,0.306,4.17,2.945   c1.072,2.641,7.885,4.744,7.807,6.812c-0.074,2.063,1.033,6.198,0.844,8.609c-0.191,2.41-2.641,3.711-3.291,3.366   c0,0,2.373-2.563,1.988-3.366c-0.383-0.806-1.721-6.01-1.148-7.119c0.574-1.109-2.486-0.535-5.088-4.744   c0,0-1.607-1.607-2.756-2.334c0,0-1.564-0.447-4.877-3.731c-0.045-0.045-0.09-0.089-0.137-0.133c0,0-2.832,0.076-4.131-0.689   c0,0-2.641-0.421-7.08,1.455c-4.439,1.874-10.643,3.749-12.381,1.338c0,0-0.896,0.612-1.855,0.574   c-0.955-0.038,1.225,3.061,5.396,2.066c4.172-0.995,6.658-3.1,13.969-2.104c0,0,6.045,3.712,4.094,6.312   c0,0,0.803,1.034,1.377,4.439c0.574,3.406,1.188,3.254,1.34,3.328c0.152,0.078-0.422,0.653-0.422,0.653s0.344,3.94-0.803,6.083   c-1.148,2.143-1.033,1.875-3.254,2.832c-2.219,0.956,2.066-2.984,2.066-2.984s0.154-5.242,0.537-5.28   c0.381-0.039-1.475-0.107-0.842-3.905c0,0-1.148-1.951-1.072-4.63c0,0-0.842,2.413-2.947-3.902c0,0-5.547-1.492-8.723-0.114   c-3.178,1.377-11.711,3.825-12.016-1.11l-1.303-1.032c0,0-0.996,1.622-4.146,0.74c-0.058-0.018-0.117-0.033-0.177-0.053   c0,0-2.755,3.598-7.002,2.105s-11.25-2.87-12.475-2.22s-3.138,0.574-3.138,0.574s-0.536,2.525-1.875,3.175   c-1.339,0.65-0.575,7.732-1.454,7.844c-0.88,0.117-0.115,4.709,0,4.747s-0.536,0.574-0.536,0.574s0.344,2.717,1.722,3.367   s-2.793-0.153-2.488-3.062c0,0-1.683-2.464-0.382-2.908c0,0-1.626-0.573-0.077-1.568c0,0-1.722,1.339,0.458-4.744   c2.181-6.086,0.421-5.512,0.995-5.972c0.574-0.458,0.536-3.29,2.909-3.329c2.372-0.039,0.076-0.19,0.076-0.19   s0.077-1.492,1.225-1.265c1.148,0.231,6.544-0.151,10.408,1.647c3.865,1.798,9.108,0.842,8.917,0.344   c-0.191-0.497-2.219-1.186-2.564-1.456c-0.344-0.265-2.181,1.456-12.016-1.644c0,0-8.817-2.279-11.021-1.262   c-0.026,0.01-0.052,0.024-0.077,0.038c-2.066,1.107-5.051,3.405-5.434,4.897s-1.914,0.535-1.914,0.535s-2.87,4.592-5.509,6.734   c0,0-0.495,4.417-0.841,5.665c-0.027,0.097-0.053,0.174-0.077,0.23c-0.345,0.765,1.262,3.137,1.186,3.979   C6.238,93.94,4.4,91.453,4.478,89.845c0.077-1.605-1.765-2.524-0.002-6.696c1.763-4.171,0.576-2.143,6.048-7.959   c0,0,0.345-2.104,3.521-3.328c3.176-1.225,5.281-4.171,5.281-4.171s0.88-0.384,2.181,0.151c1.301,0.538,5.473-0.612,11.901,3.178   c0,0,10.638,3.099,2.105-0.918c0,0-5.97-1.303-6.506-2.26c0,0-7.577-3.367-8.763-4.707c-1.187-1.339-5.127-2.18-5.51-1.759   c-0.383,0.42-2.526-3.903-6.391-5.513c0,0-1.875-2.025-1.071-3.212c0.803-1.188-1.072-2.374-1.455-3.178   c-0.382-0.803,0.421-3.75-0.765-6.619c0,0-0.306-1.492,0.421-1.837c0.727-0.344,0.077-7.653,2.832-8.955   c0,0,1.684-3.252,2.716-3.482c1.034-0.229-1.3,1.377-1.951,3.635l-0.191,0.69c0,0-2.563,2.716-1.837,7.577l0.421,0.612   c0,0-1.301,8.265,0.804,9.951c2.104,1.681,4.4,3.673,4.63,5.433l1.76,0.574c0,0-0.036-0.622,2.83,1.466   c0.063,0.045,0.127,0.093,0.193,0.141c3.042,2.244,1.852-1.334,9.466,5.125c0.046,0.039,0.093,0.077,0.139,0.117   c7.768,6.622,5.587,3.367,5.587,3.367l-0.345-1.377c0,0-11.786-16.799-13.47-16.837c-1.684-0.039-0.612-2.717-0.689-2.832   c-0.076-0.115-4.132-4.324-3.1-7.73c1.034-3.406-1.951-16.188,0.383-17.335C17.985,20.009,19.848,12.93,25.383,12.93z"/>
</g>
<text x="0.0" y="117.5" font-size="5.0" font-weight="bold" font-family="Helvetica Neue, Helvetica, Arial-Unicode, Arial, Sans-serif" fill="#000000">Created by Mallory Hawes</text><text x="0.0" y="122.5" font-size="5.0" font-weight="bold" font-family="Helvetica Neue, Helvetica, Arial-Unicode, Arial, Sans-serif" fill="#000000">from the Noun Project</text></svg>