<svg xmlns="http://www.w3.org/2000/svg" xmlns:xlink="http://www.w3.org/1999/xlink" version="1.1" id="Layer_1" x="0px" y="0px" width="100px" height="100px" viewBox="5.0 -10.0 100.0 135.0" enable-background="new 0 0 100 100" xml:space="preserve">
<path d="M98.925,10.77c-0.151-0.453-0.16-0.916-0.7-1.094c-0.539-0.312-0.96-0.612-1.548-0.869c-0.662-0.289-1.31-0.683-1.929-1.053  c-0.73-0.437-1.298-1.041-2.147-1.241c-0.61-0.143-1.309,0-1.885,0.223c-0.22,0.085-0.891,0.481-0.997,0.799  c-0.317-0.177-1.469,0.03-1.915,0.104c-1.107,0.187-2.52,0.607-3.418,1.29c-0.485,0.37-2.381,0.633-2.761,0.762  c-1.067,0.36-1.838,0.707-2.806,1.229c0.006-0.421,0.295-0.834-0.085-1.174c-0.409-0.367-1.086-0.294-1.086-0.949  c0.262,0.004,0.29-0.152,0.567-0.238c0.422-0.129,0.943-0.079,1.324-0.308c-0.002,0.042-0.005,0.083-0.007,0.125  c0.019-0.035,0.035-0.069,0.053-0.105c0.158,0.278,0.396,0.311,0.396,0.667c-0.059,0.18-0.043,0.361,0.055,0.522  c0.29-0.56,0.401-1.292-0.101-1.774c-0.449-0.431-1.313,0.128-1.789,0.282c-0.344-0.466,0.831-1.213,1.075-1.283  c0.061,0.242,0.242,0.542,0.234,0.821c0.376-0.428,0.398-1.998-0.504-1.745c-0.865,0.242-1.452,1.033-2.25,1.425  c0.137-0.286,1.004-2.055,0.222-1.996c-0.463,0-1.299,0.335-1.286,0.958c0.28-0.199,0.52-0.243,0.653-0.297  c-0.047,0.607-0.299,0.912-0.787,1.208c-0.365-2.341-2.301,0.014-1.351,0.645c-0.066-0.245-0.019-0.438,0.212-0.569  c-0.009,0.036-0.001,0.041,0.021,0.016C74.4,7.616,74.552,7.945,74.2,8.296c-0.136,0.129-0.404,0.125-0.536,0.22  c-0.731,1.097-2.426,1.523-2.514,3.069c-0.038,0.693,0.156,1.221,0.375,1.86c0.124,0.364,0.518,0.77,0.538,1.128  c0.01,0.178-0.764,0.678-0.938,0.827c-0.567,0.567-1.239,1.031-1.887,1.511c-1.837,1.359-3.432,2.854-4.807,4.611  c-0.534,0.683-1.14,1.385-1.648,2.101c-0.396,0.559-1.03,1.255-1.347,1.843c-1.458,2.702-2.508,4.704-2.875,7.044  c-0.2,1.271-0.113,2.349,0.143,3.592c0.104,0.645,0.276,1.252,0.169,1.909c-0.317,0.165-1.184-0.13-1.509-0.162  c-1.073-0.105-2.144,0.039-3.218,0.13c-1.162,0.1-2.855-0.199-2.968,1.38c-0.052,0.731-0.227,1.485,0.072,2.168  c0.259,0.454,0.536,0.885,0.84,1.308c0.366,0.512,0.544,1.011,0.886,1.529c0.145,0.22,0.543,0.606,0.724,0.795  c-0.664-0.028-1.537-0.346-2.056-0.761c-0.544-0.438-0.885-1.178-1.494-1.532c-0.233-0.095-0.408-0.129-0.514-0.105  c-0.084,0.02-0.309,0.077-0.302,0.172c0.003,0.027-0.229,0.159-0.317,0.459c0.212-0.177,0.445-0.282,0.498-0.231  c0.075,0.073,0.159,0.155,0.222,0.247c0.486,0.583,0.919,1.191,1.499,1.685c-1.518-0.161-2.894-0.828-4.4-1.042  c-1.588-0.227-3.547,0.087-5.055,0.543c-0.109,0.004-0.451,0.08-0.383,0.258c0.109,0.278,0.481-0.046,0.644-0.046  c0.999-0.099,2.027-0.152,3.026-0.082c0.755,0.052,1.7,0.091,2.397,0.398c0.607,0.166,1.519,0.293,2.062,0.637  c-1.706,0.491-3.489,1.807-4.683,3.14c-0.569,0.636-1.353,1.446-1.889,2.11c-0.164,0.202-0.106,0.424-0.23,0.602  c-0.41,0.585-1.129,1.398-0.479,2.052c-0.032-0.268-0.016-0.412,0.091-0.639c0.033-0.071,0.243-0.283,0.283-0.354  c0.379-0.673,0.899-1.222,1.396-1.768c0.606-0.52,1.168-1.073,1.75-1.626c0.772-0.733,1.79-1.689,2.722-2.191  c0.707-0.381,1.323-0.442,2.174-0.442c0.309,0,0.584,0.072,0.887,0.112c0.188,0.024,0.426,0.21,0.442,0.215  c0.561,0.166,1.232,0.099,1.81,0.17c0.905,0.114,1.4,0.464,2.303,0.083c-0.825,1.96-2.558,8.095-2.933,9.229  c-0.361,1.096-3.195,8.695-3.549,9.756c-0.317,0.954-2.179,4.445-2.761,5.195c-0.487,0.628-2.343,3.289-2.818,4  c-1.225,2.082-2.688,4.058-4.458,5.741c-1.75,1.667-3.705,3.127-5.672,4.531c-1.121,0.801-2.165,1.373-3.457,1.866  c-1.078,0.412-5.097,1.981-5.844,2.191c-1.585,0.446-3.188,0.755-4.776,1.171c-1.212,0.316-6.278,1.272-7.441,1.408  c-2.673,0.312-5.36,0.432-8.036,0.732C3.792,93.11,3.202,93.11,2.65,93.268c-0.458,0.115-1.045,0.069-1.473,0.28  c-0.443,0.218,0.053,0.888,0.347,0.997c0.532,0.2,1.761,0.175,2.442,0.147c0.813-0.031,1.624,0.073,2.436,0.109  c0.929,0.043,1.844-0.104,2.771-0.119c1.737-0.024,6.321-0.51,6.897-0.568c0.786-0.079,4.126-0.5,4.842-0.593  c1.236-0.159,6.003-1.41,7.043-1.734c0.683-0.214,6.01-2.069,7.042-2.536c1.295-0.586,2.617-1.213,3.833-1.951  c1.205-0.731,5.913-4.125,6.9-5.252c0.491-0.561,3.98-4.618,4.9-5.64c0.082-0.092,3.61-5.311,4.209-6.526  c0.523-1.064,1.188-2.022,1.772-3.049c0.607-1.214,3.682-8.062,4.484-10.374c0.427-1.23,0.918-2.358,1.43-3.545  c0.529-1.228,1.104-2.227,1.832-3.337c1.075-1.637,1.182-4.279,3.688-4.124c0.994,0.062,1.858,0.216,2.861,0.014  c-1.21,0.778-2.193,2.382-2.379,3.807c-0.069,0.768,0.198,1.738,0.312,2.502c0.076,0.512,0.395,1.031,0.827,1.281  c-0.17,0.426,3.04,0.303,3.367,0.303c0.843,0,1.736,0.349,2.529,0.599c0.896,0.3,1.356,0.94,1.994,1.578  c0.437,0.438,1.249,0.903,1.545,1.436c0.299,0.594,0.747,1.175,1.27,1.591c0.277,0.223,0.069,0.603,0.069,0.895  c0,0.42,0.236,0.733,0.09,1.178c-0.164,0.499-0.525,0.977-0.814,1.408c1.953,0.505,2.386-2.598,1.957-3.877  c-0.256-0.648-0.475-1.145-0.974-1.635c-0.312-0.307-0.929-0.679-0.929-1.132c0-0.654-0.121-1.074-0.713-1.511  c-0.597-0.44-1.485-0.805-2.212-0.951c-0.697-0.141-0.723-1.508-1.55-1.693c-0.835-0.188-2.249,0.047-2.943-0.534  c0.517-0.946,1.628-1.729,2.333-2.542c0.841-0.968,1.483-2.171,1.977-3.35c0.097-0.322-0.057-1.471-0.081-1.837  c-0.046-0.739-0.99-1.146-1.589-1.381c-1.618-0.635-3.353-0.994-4.979-1.576c0.249-0.521,0.834-1.011,1.188-1.459  c0.65-0.822,1.268-1.687,1.808-2.586c0.821-1.369,1.933-2.952,2.25-4.541c0.176-0.874,0.719-1.907,1.114-2.635  c0.328-0.606,1.053-1.244,1.477-1.91c0.418-0.648,1.134-1.113,1.514-1.763c0.166,0.727,1.052,1.647,1.469,2.291  c0.213,0.575,1.072,1.275,1.52,1.672c0.909,0.807,1.53,0.908,2.689,1.184c0.867,0.163,1.692,0.063,2.534-0.178  c0.809-0.229,1.049-0.783,1.57-1.311c0.506-0.512,1.733,0.494,1.652,1.126c0.462-0.716-0.289-1.736-0.955-2.071  c-0.462-0.185-0.949-0.04-1.155,0.408c-0.094,0.037-0.357,0.16-0.353-0.013c0.182-0.399,0.576-0.749,0.827-1.149  c0.124-0.2,0.267-0.427,0.423-0.607c0.256-0.293,0.672-0.205,0.629-0.69c0.24-0.099,0.617,0.459,0.694,0.635  c-0.074-0.667-0.579-1.59-1.425-1.3c-0.771,0.263-1.066,1.678-1.69,2.237c0.065-0.266,0.057-1.591,0.572-1.315  c0.048-0.415-0.104-0.672-0.279-1.023c-0.446-0.895-0.926,1.161-0.966,1.304c-0.127,0.878,0.013,1.613-1.146,1.616  c-0.105-0.545-0.211-0.656,0.396-0.359c-0.09-0.19-0.295-0.633-0.503-0.705c-0.259-0.089-0.783-0.186-0.811,0.192  c-0.293-0.258-0.547-0.514-0.85-0.758c-0.488-0.398-0.533-1.032-0.885-1.532c-0.597-0.851-1.101-1.986-0.835-3.067  c0.078-0.478,0.535-1.016,0.869-1.35c0.222-0.222,1.27-0.219,1.631-0.33c1.152-0.351,2.299-1.11,3.367-1.687  c0.872-0.472,1.758-0.745,2.673-1.095c0.993-0.381,1.925-0.978,2.932-1.38c1.085-0.434,2.229-1.159,3.153-1.881  c0.543-0.425,1.143-1.004,1.382-1.666C98.718,11.893,99.181,11.275,98.925,10.77z M78.8,10.939  c-0.061,0.024-0.122,0.048-0.184,0.072c-0.018,0.007-0.015,0.006-0.001,0c-0.412,0.16-0.832,0.331-1.201,0.567  c-0.529,0.337-1.089,0.623-1.692,0.833c-0.156-0.278-0.355-0.807-0.138-0.956c0.641-0.437,1.183-0.93,1.373-1.716  c0.577-0.026,0.835,0.227,1.354,0.385C78.4,10.176,78.862,10.916,78.8,10.939z M85.167,18.297  C85.104,18.323,85.148,18.304,85.167,18.297c-0.168,0.07-0.245,0.098-0.34-0.08c0.249-0.249,0.731-0.13,0.758-0.64  c0.015-0.271-0.22-0.886-0.707-1.289c-0.329-0.271-0.908-0.393-1.087-0.451c0.234-0.537,1.729,0.172,1.53,0.716  c0.164-0.03,0.678,0.771,0.672,0.793C86.616,18.032,85.668,18.088,85.167,18.297z M90.497,12.341  c0.318-0.07,0.884,0.248,0.637,0.212c-0.248-0.036-1.061,0.212-1.061,0.212S90.179,12.412,90.497,12.341z M89.662,7.64  C89.649,7.662,89.575,7.675,89.662,7.64L89.662,7.64z M89.825,13c0.014,0,0.027,0,0.033,0c-0.082,0-0.086,0.047-0.154-0.049  c0.575-0.067,0.876,0.564,1.51,0.564c0.68,0,1.229-0.594,0.349-0.904c0.13-0.018,0.252,0.015,0.367,0.076  c0.227,0.125,0.411,0.27,0.674,0.326C92.138,14.334,90.422,14,89.825,13z"/>
<path fill="#000000" d="M49.997,50C49.997,50,49.997,50,49.997,50C50.007,50,50.003,50,49.997,50z"/>
<polygon fill="#000000" points="50,50 50.002,50 49.998,50 "/>
<path fill="#000000" d="M49.985,49.973C50.059,50.119,49.975,49.941,49.985,49.973L49.985,49.973z"/>
<text x="0.0" y="117.5" font-size="5.0" font-weight="bold" font-family="Helvetica Neue, Helvetica, Arial-Unicode, Arial, Sans-serif" fill="#000000">by B. Agust&#237;n Amen&#225;bar Larra&#237;n</text><text x="0.0" y="122.5" font-size="5.0" font-weight="bold" font-family="Helvetica Neue, Helvetica, Arial-Unicode, Arial, Sans-serif" fill="#000000">from the Noun Project</text></svg>