<svg xmlns="http://www.w3.org/2000/svg" xmlns:xlink="http://www.w3.org/1999/xlink" version="1.1" id="Layer_1" x="0px" y="0px" width="13.366px" height="10.793px" viewBox="0.6683 -1.0793 13.366 14.57055" enable-background="new 0 0 13.366 10.793" xml:space="preserve">
<path d="M12.793,10.181l-0.807-0.794c-0.964-0.794-0.847-1.927-0.859-2.044c-0.013-0.116-0.013-0.585,0.026-0.741  S11.14,6.276,11.14,6.276c0.287-1.172,1.211-0.847,1.211-0.847c0.377,0.039,0.391-0.325,0.391-0.325  c0.26-0.13,0.195-0.403,0.195-0.403L12.48,4.219c-0.182-0.481-0.702-0.599-0.702-0.599c0.077-0.481-0.17-0.781-0.17-0.781  c-0.039,0.143-0.585,0.719-0.625,0.729c-0.638,0.156-0.43,0.261-0.833,0.547s-1.263,0.638-1.64,0.43  C8.133,4.336,4.996,4.063,3.643,4.063c-0.401,0-0.714,0.083-0.956,0.199C2.465,4.092,2.179,3.725,1.968,3.226  C1.657,2.491,1.613,1.753,1.852,1.252c0.128-0.27,0.274-0.423,0.435-0.455c0.239-0.047,0.535,0.161,0.62,0.238  c0.16,0.147,0.409,0.137,0.557-0.023c0.148-0.16,0.139-0.41-0.021-0.558C3.38,0.396,2.812-0.108,2.139,0.021  C1.717,0.102,1.38,0.402,1.138,0.913C0.799,1.625,0.836,2.58,1.24,3.534c0.182,0.43,0.472,0.914,0.827,1.24  C1.974,4.904,1.937,5,1.937,5C1.82,5.273,1.495,5.885,1.612,6.445c0.117,0.56-0.234,0.82-0.299,0.885  C1.247,7.396,0.57,7.799,0.57,7.799l-0.56,1.979c-0.091,0.378,0.417,0.599,0.417,0.599c0.182-0.025,0.195-0.624,0.195-0.624  L1.065,8.71l1.666-0.611c0,0,0,0.703-0.026,0.833S2.614,9.283,2.614,9.283c0.065,0.455,1.185,1.51,1.185,1.51h0.846V10.52  c-0.065-0.3-0.495-0.156-0.495-0.156l-0.625-0.95c0.664-0.521,0.937-1.393,0.937-1.393c0.312,0.26,1.809-0.222,1.809-0.222  L7.17,7.89L6.91,9.985c-0.078,0.508,0.039,0.69,0.039,0.69h0.403c0.287,0,0.482,0.039,0.482-0.261c0-0.299-0.403-0.247-0.403-0.247  l0.988-1.952c0.938-0.573,1.536,0.26,1.536,0.26l0.053,0.3c0.364,0.533,2.369,1.9,2.369,1.9h0.989v-0.3  C13.196,10.063,12.793,10.181,12.793,10.181z"/>
<text x="0.0" y="12.681775" font-size="0.53965" font-weight="bold" font-family="Helvetica Neue, Helvetica, Arial-Unicode, Arial, Sans-serif" fill="#000000">Created by Marco Hernandez</text><text x="0.0" y="13.221425" font-size="0.53965" font-weight="bold" font-family="Helvetica Neue, Helvetica, Arial-Unicode, Arial, Sans-serif" fill="#000000">from the Noun Project</text></svg>