<svg xmlns="http://www.w3.org/2000/svg" xmlns:xlink="http://www.w3.org/1999/xlink" version="1.1" x="0px" y="0px" width="100px" height="100px" viewBox="5.0 -10.0 100.0 135.0" enable-background="new 0 0 100 100" xml:space="preserve">
<g id="Captions" display="none">
	<rect x="-192" display="inline" width="185" height="99"/>
	<rect y="-36" display="inline" width="100" height="30"/>
	<text transform="matrix(1 0 0 1 66 -19.5)" display="inline" fill="#000000" font-family="'Helvetica'" font-size="2.4">http://thenounproject.com</text>
	<text transform="matrix(1 0 0 1 7.166 -24.5)" display="inline"><tspan x="0" y="0" fill="#000000" font-family="'Helvetica-Bold'" font-size="6.1578">The Noun Project</tspan><tspan x="1.12" y="4.8" fill="#000000" font-family="'Helvetica-Bold'" font-size="4">Icon Template</tspan></text>
	
		<text transform="matrix(1 0 0 1 -178.5 10.5)" display="inline" fill="#000000" font-family="'Helvetica-Bold'" font-size="6.1578">Reminders</text>
	<line display="inline" fill="#000000" stroke="#FFFFFF" stroke-miterlimit="10" x1="8" y1="-14.5" x2="18" y2="-14.5"/>
	<line display="inline" fill="#000000" stroke="#FFFFFF" stroke-miterlimit="10" x1="-179" y1="16.5" x2="-162" y2="16.5"/>
	<g display="inline">
		<g>
			<g>
				<rect x="-170.802" y="31.318" fill="#000000" width="8.721" height="8.642"/>
				<path fill="#000000" d="M-164.455,42.312h4.747v-4.703h-4.747V42.312z M-159.266,42.749h-5.63V37.17h5.63V42.749      L-159.266,42.749z M-166.221,44.062h8.279v-8.203h-8.279V44.062L-166.221,44.062z M-157.5,44.5h-9.163v-9.079h9.163V44.5      L-157.5,44.5z"/>
				<polygon fill="#000000" points="-166.149,44.133 -166.292,43.991 -158.013,35.787 -157.871,35.929     "/>
			</g>
		</g>
	</g>
	<rect x="-179" y="58" display="inline" fill="none" width="35" height="32.5"/>
	<text transform="matrix(1 0 0 1 -179 60.1572)" display="inline"><tspan x="0" y="0" fill="#000000" font-family="'Helvetica-Bold'" font-size="3">Strokes</tspan><tspan x="0" y="5" fill="#000000" font-family="'Helvetica'" font-size="2.4">Try to keep strokes at 4px</tspan><tspan x="0" y="10" fill="#000000" font-family="'Helvetica'" font-size="2.4">Minimum stroke weight is 2px</tspan><tspan x="0" y="14.5" fill="#000000" font-family="'Helvetica'" font-size="2.4">For thicker strokes use even </tspan><tspan x="0" y="17.5" fill="#000000" font-family="'Helvetica'" font-size="2.4">numbers: 6px, 8px etc.</tspan><tspan x="0" y="22" fill="#000000" font-family="'Helvetica-Bold'" font-size="2.4">Remember to expand strokes </tspan><tspan x="0" y="25" fill="#000000" font-family="'Helvetica-Bold'" font-size="2.4">before saving as an SVG </tspan></text>
	<rect x="-136.5" y="58" display="inline" fill="none" width="35" height="32.5"/>
	<text transform="matrix(1 0 0 1 -136.5 60.1572)" display="inline"><tspan x="0" y="0" fill="#000000" font-family="'Helvetica-Bold'" font-size="3">Size</tspan><tspan x="0" y="5" fill="#000000" font-family="'Helvetica'" font-size="2.4">Cannot be wider or taller than </tspan><tspan x="0" y="8.5" fill="#000000" font-family="'Helvetica'" font-size="2.4">100px (artboard size)</tspan><tspan x="0" y="13.5" fill="#000000" font-family="'Helvetica'" font-size="2.4">Scale your icon to fill as much of </tspan><tspan x="0" y="16.5" fill="#000000" font-family="'Helvetica'" font-size="2.4">the artboard as possible</tspan></text>
	<rect x="-94" y="58" display="inline" fill="none" width="35" height="32.5"/>
	<text transform="matrix(1 0 0 1 -94 60.1572)" display="inline"><tspan x="0" y="0" fill="#000000" font-family="'Helvetica-Bold'" font-size="3">Ungroup</tspan><tspan x="0" y="5" fill="#000000" font-family="'Helvetica'" font-size="2.4">If your design has more than one </tspan><tspan x="0" y="8" fill="#000000" font-family="'Helvetica'" font-size="2.4">shape, make sure to ungroup</tspan></text>
	<rect x="-50" y="58" display="inline" fill="none" width="35" height="32.5"/>
	<text transform="matrix(1 0 0 1 -50 60.1572)" display="inline"><tspan x="0" y="0" fill="#000000" font-family="'Helvetica-Bold'" font-size="3">Save as</tspan><tspan x="0" y="5" fill="#000000" font-family="'Helvetica'" font-size="2.4">Save as .SVG and make sure </tspan><tspan x="0" y="8" fill="#000000" font-family="'Helvetica'" font-size="2.4">&#8220;Use Artboards&#8221; is checked</tspan></text>
	
		<text transform="matrix(1.0074 0 0 1 -125.542 30.5933)" display="inline" fill="#000000" font-family="'Helvetica'" font-size="2.5731">100px</text>
	
		<text transform="matrix(1.0074 0 0 1 -41 39)" display="inline" fill="#000000" font-family="'Helvetica-Bold'" font-size="5.1462">.SVG</text>
	<rect x="-126.514" y="34.815" display="inline" fill="#000000" width="10.261" height="10.185"/>
	<rect x="-126.477" y="31.766" display="inline" fill="#000000" width="0.522" height="2.337"/>
	<rect x="-116.812" y="31.766" display="inline" fill="#000000" width="0.523" height="2.337"/>
	<rect x="-127" y="32.337" display="inline" fill="#000000" width="11.233" height="0.572"/>
	<g display="inline">
		<rect x="-83.805" y="33.844" fill="#000000" width="10.305" height="10.156"/>
		<rect x="-76.809" y="28.707" fill="#000000" width="3.308" height="3.261"/>
	</g>
	<rect x="-178.5" y="22.5" display="inline" fill="#000000" stroke="#FFFFFF" stroke-miterlimit="10" width="30" height="30"/>
	<rect x="-136.5" y="22.5" display="inline" fill="#000000" stroke="#FFFFFF" stroke-miterlimit="10" width="30" height="30"/>
	<rect x="-93.5" y="22.5" display="inline" fill="#000000" stroke="#FFFFFF" stroke-miterlimit="10" width="30" height="30"/>
	<rect x="-49.5" y="22.5" display="inline" fill="#000000" stroke="#FFFFFF" stroke-miterlimit="10" width="30" height="30"/>
</g>
<g id="Your_Icon">
	<path fill="#000000" d="M13.656,13.127c-1.058-0.856-2.153-1.729-2.229-2.186c-0.082-0.492-0.34,1.191-0.251,2.446   C11.815,12.952,12.807,12.946,13.656,13.127z"/>
	<path fill="#000000" d="M37.187,74.364c0.926,0.305,1.878,0.078,2.835-0.005c0.013-0.329,0.033-0.649,0.062-0.957   c0.02-0.206,0.039-0.423,0.057-0.644C39.111,73.021,37.763,73.332,37.187,74.364z"/>
	<path fill="#000000" d="M36.151,70.636c0.08,0.535,0.153,1.041,0.219,1.504c1.223,0.038,2.554-0.294,3.816-0.522   c0.024-0.364,0.044-0.744,0.061-1.134c-1.008,0.199-2.154,0.459-3.013,0.334c0.622-0.853,2.244-1.205,3.062-1.775   c0.007-0.266,0.013-0.529,0.017-0.793C38.975,69.272,37.196,69.468,36.151,70.636z"/>
	<path fill="#000000" d="M37.171,77.841c0.021,0.243,0.04,0.484,0.051,0.72c1.296,0.433,2.375,1.456,3.603,2.015   c-0.061-0.342-0.128-0.72-0.197-1.121c-0.72-0.24-1.497-0.527-1.921-1.021c0.53-0.127,1.231-0.028,1.787,0.216   c-0.037-0.231-0.074-0.47-0.109-0.71C39.354,77.773,38.049,77.805,37.171,77.841z"/>
	<path fill="#000000" d="M36.995,77.245c0.941-0.457,2.135-0.665,3.153-0.51c-0.042-0.626-0.072-1.255-0.085-1.87   c-1.012,0.192-2.268,1.024-3.169,1.328C36.929,76.543,36.963,76.895,36.995,77.245z"/>
	<path fill="#000000" d="M35.01,43.652c-1.128,1.531-4.108,3.459-3.715,5.548c2.482-2.358,5.543-5.06,6.803-8.378   c0.901,0.492,1.405,4.509,2.152,5.742c1.172,1.933,2.515,3.689,3.286,5.754c0.936-1.613-2.064-4.937-2.64-6.604   c-0.818-2.367-1.9-5.072-1.869-7.586c0.026-2.134,1.913-6.333,1.305-8.589c-0.473-0.043-0.92-0.078-1.356-0.121   C38.79,34.538,38.139,39.405,35.01,43.652z"/>
	<path fill="#000000" d="M33.627,51.309c0.99-0.725,1.702-1.912,2.703-2.661c2.635-1.973,2.573,1.728,5.409,1.33   c-0.354-1.007-1.248-1.419-1.973-2.138c-0.534-0.528-0.962-0.906-1.283-1.601c-0.189-0.408-0.015-1.501-0.349-1.753   c-0.955-0.723-1.407,1.323-1.921,2.162c-1.383,2.257-3.563,2.944-5.127,4.986c-0.141-0.495-0.215-1.144-0.202-1.722   c-0.009,0.003-0.296-0.022-0.302-0.026c-0.367,0.642-0.42,1.549-0.568,2.363c0.226,0.33,0.455,0.652,0.68,0.959   c0.049-0.047,0.097-0.094,0.147-0.141C31.701,52.269,32.704,51.984,33.627,51.309z"/>
	<path fill="#000000" d="M40.393,54.228c-1.557-1.634-4.624-0.678-5.719-2.037c-0.968,0.665-2.439,1.168-3.133,2.151   c0.218,0.292,0.415,0.557,0.577,0.789c0.017,0.024,0.035,0.056,0.053,0.082C34.152,53.516,38.479,53.452,40.393,54.228z"/>
	<path fill="#000000" d="M50.244,31.919c0.133-0.434,0.108-0.865,0.079-1.314c-0.566,0.024-1.13,0.034-1.69,0.027   C48.956,31.298,49.441,31.866,50.244,31.919z"/>
	<path fill="#000000" d="M36.151,69.062c1.091-0.796,2.575-1.151,4.128-1.629c0.014-0.476,0.026-0.939,0.037-1.388   c-1.225,0.227-2.995-0.093-4.364,0.571C35.988,67,36.117,68.675,36.151,69.062z"/>
	<path fill="#000000" d="M39.622,58.975c-0.992,0.307-2.411,1.191-3.443,0.569c0.749-1.38,2.375-1.334,3.619-1.866   c-1.844-0.849-4.01,1.147-5.905,1.686c0.124,0.387,0.243,0.781,0.356,1.175C36.422,60.283,39.78,60.784,39.622,58.975z"/>
	<path fill="#000000" d="M79.693,79.684c-0.048,0.184-0.096,0.357-0.144,0.523c1.097,0.044,2.179,1.399,3.325,1.589   c0.041-0.178,0.082-0.359,0.123-0.545c-0.321-0.033-0.637-0.099-0.927-0.21c0.2-0.438,0.62-0.618,1.114-0.635   c0.073-0.329,0.146-0.661,0.22-0.994c-0.523,0.079-1.028,0.398-1.646,0.464C81.077,79.949,80.327,79.787,79.693,79.684z"/>
	<path fill="#000000" d="M80.305,76.935c1.016-0.457,2.478-0.001,3.733-0.467c0.064-0.314,0.124-0.603,0.174-0.85   c0.009-0.043,0.019-0.089,0.027-0.135c-1.195,0.529-2.746-0.193-3.751,0.461C80.43,76.272,80.367,76.604,80.305,76.935z"/>
	<path fill="#000000" d="M80.112,77.882c-0.049,0.233-0.099,0.463-0.149,0.687c0.997,0.56,2.4,0.548,3.566,0.276   c0.06-0.273,0.118-0.544,0.175-0.808C82.576,77.746,81.317,77.713,80.112,77.882z"/>
	<path fill="#000000" d="M78.808,82.246c-0.597,1.552-1.066,2.818-1.959,3.827c-1.088,1.229-1.718,1.703-1.063,2.546   c0.656,0.843,3.141,1.044,3.918,0.385c0.777-0.661,2.145-2.919,2.534-4.467c0.092-0.365,0.227-0.936,0.384-1.618   C81.33,82.731,79.968,81.923,78.808,82.246z"/>
	<path fill="#000000" d="M37.169,80.205c-0.032,0.236-0.078,0.462-0.136,0.677c1.404,0.381,2.469,1.66,3.894,2.067   c0.112-0.23,0.176-0.446,0.168-0.637c-0.009-0.207-0.066-0.574-0.149-1.052C39.634,81.196,38.403,80.417,37.169,80.205z"/>
	<path fill="#000000" d="M34.718,85.479c-0.962,1.305-1.193,2.536-0.093,2.757s2.996,0.376,3.306-0.191   c0.309-0.567-0.733-1.508,0.175-2.157c0.624-0.446,1.822-1.467,2.496-2.405c-1.554,0.077-2.119-2.048-3.569-1.686   C36.667,82.486,35.192,84.837,34.718,85.479z"/>
	<path fill="#000000" d="M81.11,71.681c-0.018,0.217-0.048,0.499-0.09,0.831c1.167-0.11,2.523,0.38,3.713,0.782   c0.021-0.087,0.041-0.175,0.062-0.265c-1.208-0.648-2.28-1.46-3.668-1.677C81.125,71.463,81.119,71.571,81.11,71.681z"/>
	<path fill="#000000" d="M80.904,73.375c-0.057,0.392-0.12,0.817-0.192,1.264c1.036-0.171,2.647,0.027,3.728-0.072   c0.046-0.198,0.094-0.408,0.144-0.628C83.442,73.68,81.779,73.124,80.904,73.375z"/>
	<path fill="#000000" d="M83.673,55.074c0.101-0.663,0.267-1.384,0.519-2.177c-1.428,0.568-2.571,1.185-4.398,1.173   c-1.731-0.011-3.877,0.03-5.077,1.426c0.12,0.199,0.239,0.406,0.355,0.626c0.026,0.049,0.054,0.101,0.08,0.151   C76.831,54.709,80.958,55.431,83.673,55.074z"/>
	<path fill="#000000" d="M83.865,58.92c-0.191-0.671-0.318-1.438-0.315-2.336c-1.416,0.128-2.856,0.538-4.231,0.54   c-1.271,0.002-2.44-0.143-3.593,0.264c0.143,0.28,0.289,0.571,0.437,0.868C78.614,57.957,81.332,58.944,83.865,58.92z"/>
	<path fill="#000000" d="M77.772,52.652c2.462,0.166,4.515,0.096,6.659-0.497c0.472-1.437,0.819-2.46,1.12-3.381   c-1.218,0.385-2.471,1.112-3.604,1.476c-1.655,0.532-3.027,0.186-4.63,0.278c-1.512,0.088-3.527,1.624-3.886,3.272   c0.202,0.209,0.403,0.44,0.602,0.697C74.6,53.067,76.089,52.539,77.772,52.652z"/>
	<path fill="#000000" d="M81.009,69.897c0.026,0.156,0.051,0.312,0.069,0.468c1.139,0.309,2.787,1.117,3.923,1.793   c0.076-0.324,0.153-0.654,0.231-0.987c-0.541-0.362-1.113-0.704-1.703-0.869C82.646,70.054,81.836,70.106,81.009,69.897z"/>
	<path fill="#000000" d="M84.932,61.462c-0.124-0.256-0.246-0.509-0.364-0.752c-0.094-0.199-0.19-0.406-0.284-0.624   c-0.903,0.334-1.946,0.642-3.021,0.618c-1.378-0.029-2.841-0.52-4.201-0.613c0.127,0.265,0.254,0.529,0.38,0.793   c0.791,0.008,1.635,0.137,2.218,0.411c-0.483,0.316-1.171,0.37-1.832,0.405c0.145,0.306,0.285,0.607,0.423,0.903   C80.297,62.031,83.231,62.904,84.932,61.462z"/>
	<path fill="#000000" d="M80.503,67.953c0.068,0.207,0.134,0.415,0.195,0.626c0.469,0.08,0.915,0.22,1.292,0.476   c-0.346,0.138-0.71,0.232-1.087,0.315c0.017,0.072,0.031,0.145,0.047,0.217c1.468-0.328,3.201-0.168,4.512,0.597   c0.049-0.213,0.098-0.426,0.146-0.634C84.086,68.675,82.198,67.757,80.503,67.953z"/>
	<path fill="#000000" d="M86.076,64.197c-0.154-0.504-0.366-1.034-0.602-1.565c-0.811,0.233-1.669,1.139-2.503,1.486   c-1.232,0.515-2.516,0.46-3.827,0.445c0.141,0.315,0.271,0.608,0.386,0.875C81.801,65.654,84.522,65.917,86.076,64.197z"/>
	<path fill="#000000" d="M85.778,68.788c0.063-0.287,0.123-0.564,0.179-0.83c-0.409-0.111-0.808-0.256-1.16-0.452   c0.352-0.229,0.91-0.297,1.312-0.295c0.078-0.398,0.139-0.746,0.178-1.025c-0.795,0.097-1.897,0.694-2.755,0.808   c-1.138,0.15-2.332-0.128-3.482-0.302c0.088,0.229,0.175,0.464,0.261,0.702C82.043,67.157,84.145,67.91,85.778,68.788z"/>
	<path fill="#000000" d="M45.09,46.331c-0.978-2.996-2.303-6.06-2.844-9.131c-0.431-2.45,0.677-5.01,0.165-7.4   c-0.445-0.075-0.859-0.132-1.252-0.177c0.632,2.439-0.656,4.852-0.784,7.297c-0.146,2.818,1.328,5.801,2.484,8.306   c1.709,3.701,2.388,6.825,1.56,10.527c0.285,0.082,0.607,0.168,0.975,0.258C46.385,52.933,46.109,49.452,45.09,46.331z"/>
	<path fill="#000000" d="M41.25,51.876c-1.373-1.328-3.453-0.753-3.704-2.808c-0.042-0.021-0.087-0.029-0.134-0.025   c-0.714,0.686-2.18,1.493-2.28,2.373c1.524-0.908,3.027-0.104,4.463,0.723c1.598,0.922,1.97,1.719,2.382,3.089   c0.158-0.143,0.295-0.16,0.554-0.089C42.36,53.942,42.099,52.695,41.25,51.876z"/>
	<path fill="#000000" d="M49.387,47.272c-0.706-3.285-1.444-6.496-3.03-9.474c-1.399-2.627-1.339-4.984-2.054-7.612   c-0.138-0.029-0.276-0.058-0.413-0.09c-0.167-0.039-0.329-0.075-0.488-0.109c0.396,1.848-0.71,4.082-0.237,5.969   c0.645,2.575,1.997,5.024,2.911,7.525c0.988,2.705,3.94,10.38,1.366,13.015c0.573,0.131,1.183,0.262,1.82,0.39   C50.698,54.347,49.919,49.75,49.387,47.272z"/>
	<path fill="#000000" d="M34.876,63.046c0.048,0.231,0.573,1.724,0.624,1.984c1.638,0.024,3.225,0.728,4.838,0.259   c0-0.515-0.001-0.988-0.002-1.402C38.545,63.786,36.602,62.747,34.876,63.046z"/>
	<path fill="#000000" d="M33.501,56.04c-0.177,2.146,5.09-0.155,7.454,0.752c0.087-0.238,0.189-0.455,0.304-0.642   C39.255,53.901,36.05,56.534,33.501,56.04z"/>
	<path fill="#000000" d="M34.524,61.546c0.079,0.304,0.154,0.605,0.221,0.897c1.52-0.507,3.837,0.558,5.59,0.521   c0-0.218,0.002-0.395,0.005-0.519c0.003-0.143,0.005-0.324,0.008-0.537C38.677,62.494,36.077,60.942,34.524,61.546z"/>
	<path fill="#000000" d="M62.863,50.047c-0.68-5.967,1.329-11.143,6.267-14.74c4.082-2.973,10.703-5.158,15.732-4.138   c-1.051-0.921-2.335-1.705-3.822-2.288c-4.585-1.054-10.255,1.608-13.605,3.981c-2.754,1.951-5.008,3.357-6.4,6.537   c-1.218,2.781-1.335,5.466-0.945,8.413c0.308,2.315,1.273,6.765,0.584,9.475c0.167-0.039,0.331-0.081,0.496-0.126   c0.291-0.079,0.573-0.165,0.848-0.255C63.308,54.991,63.107,52.189,62.863,50.047z"/>
	<path fill="#000000" d="M58.497,52.604c-0.276-2.208-0.504-4.446-0.689-6.701c-0.45-5.467,1.361-8.967,5.557-12.529   c1.933-1.64,3.803-3.291,6.14-4.29c1.817-0.777,4.193-1.009,6.049-1.403c-1.921-0.217-3.742-0.284-5.653-0.176   c-0.812,0.403-1.574,0.87-2.219,1.299c-1.399,0.934-2.654,1.498-4.189,2.24c-2.137,1.035-4.693,2.542-5.708,4.789   c-0.345,0.765-0.111,3.207-0.952,3.476c-1.259,0.402-1.339-1.902-1.238-2.604c0.698-4.876,7.524-4.735,9.259-8.559   c-0.63,0.118-1.275,0.25-1.95,0.4c-0.315,0.071-0.636,0.142-0.958,0.214c-0.539,2.043-4.103,2.496-5.583,3.353   c-2.036,1.178-2.204,3.638-1.882,5.948c0.742,5.315,0.711,10.748,1.856,16.024c0.26,1.193,0.591,2.521,0.414,3.623   c0.208-0.001,0.414-0.006,0.621-0.013c0.475-0.513,1.166-0.944,1.395-1.665C59.05,55.132,58.612,53.527,58.497,52.604z"/>
	<path fill="#000000" d="M54.374,56.549c0.248-5.595-2.009-11.237-1.272-16.752c0.323-2.406-1.297-5.75,0.556-7.576   c1.522-1.501,5.149-1.343,6.457-3.056c-2.562,0.551-5.287,1.07-7.998,1.318c-0.464,1.287-1.511,2.361-1.352,4.117   c0.102,1.119,1.702,4.375,1.147,5.294c-0.856,1.421-1.66-1.771-1.831-2.423c-0.373-1.43-0.622-2.971-1.223-4.342   c-0.399-0.91-1.256-1.702-1.719-2.558c-0.572-0.04-1.138-0.099-1.696-0.182c1.149,4.661,4.806,9.082,5.434,13.962   c0.322,2.505,0.399,4.746,1.051,7.288c0.427,1.665,0.674,3.914,0.265,5.747c0.675,0.094,1.362,0.171,2.056,0.227   C54.318,57.266,54.359,56.91,54.374,56.549z"/>
	<path fill="#000000" d="M6.326,34.861c-1.165-0.24-1.13-0.671-2.193-1.354c-1.063-0.682-0.229-2.845-0.42-2.926   c-0.191-0.082-0.859,0.852-1.32,1.669c-0.461,0.818,0.379,1.808,0.114,2.648c-0.236,0.747-0.242,1.185-1.084,1.589   C1.499,36.753,1.597,37,1.792,37.204c0.546,0.57,2.131,0.502,3.433,0.673c1.302,0.171,1.698-0.652,2.732-1.226   c0.061-0.034,0.13-0.068,0.206-0.104C7.907,35.684,7.19,35.038,6.326,34.861z"/>
	<path fill="#000000" d="M1.987,33.194c-0.247-0.622-1.027,0.043-1.738,0.966c0.13,0.326,0.324,0.627,0.537,0.855   c0.042,0.045,0.081,0.092,0.117,0.139c0.182-0.124,0.392-0.227,0.618-0.267C2.254,34.758,2.314,34.021,1.987,33.194z"/>
	<path fill="#000000" d="M10.516,30.948c-1.419-0.733-4.53-0.305-5.949,0.357c1.276,1.042,4.06-0.296,5.606,0.789   c1.042,0.731,1.039,2.09,1.181,3.317c0.159-0.054,0.316-0.109,0.471-0.165C12.1,33.744,12.272,31.854,10.516,30.948z"/>
	<path fill="#000000" d="M9.041,32.989c-1.176-0.488-3.102-0.261-4.354-0.472c-0.023,0.02-0.047,0.04-0.07,0.06   c1.423,2.14,5.076-0.225,5.199,3.35c0.227-0.076,0.461-0.154,0.7-0.234C10.436,34.576,10.27,33.499,9.041,32.989z"/>
	<path fill="#000000" d="M13.051,25.822c-0.956,0.4-1.952-0.001-2.856,0.286c-0.664,0.21-1.608,1.229-2.294,1.581   c1.894,0.188,4.549-0.413,5.646,1.111c1.103,1.533,0.408,3.58,0.65,5.327c0.308-0.208,0.623-0.441,0.936-0.676   c0.009-1.107-0.132-2.249-0.328-3.283C14.52,28.664,12.977,27.119,13.051,25.822z"/>
	<path fill="#000000" d="M10.13,28.576c-2.067-0.195-4.347-0.355-5.418,2.014c1.03-1.19,5-1.21,6.407-0.461   c1.706,0.908,1.095,3.153,1.365,4.871c0.382-0.15,0.734-0.302,1.029-0.457c0.016-1.141,0.074-3.064-0.228-4.154   C12.795,28.622,12.011,28.753,10.13,28.576z"/>
	<path fill="#000000" d="M13.323,24.002c-0.671,1.234,1.355,3.229,2.051,4.961c0.503,1.253-0.043,2.845,0.249,4.119   c0.258-0.191,0.51-0.371,0.75-0.526c0.126-2.926,0.13-4.706-1.439-7.717C14.938,24.823,13.994,22.766,13.323,24.002z"/>
	<path fill="#000000" d="M17.704,27.304c-0.287-1.229-0.476-2.403-0.677-3.697c-0.166-1.067-0.114-2.184-0.773-3.106   c-0.177,2.52-0.587,3.747,0.393,6.035c0.775,1.809,0.986,3.552,0.761,5.202c0.023,0.009,0.436,0.378,0.458,0.389   c0.134,0.071,0.284,0.227,0.444,0.444C18.504,30.869,18.005,28.596,17.704,27.304z"/>
	<path fill="#000000" d="M13.39,19.936c-0.083,0.398-0.949,1.627-0.622,2.038c0.541,0.676,0.997-1.337,1.061-1.645   c0.208-1,0.351-2.371-0.269-3.274c-0.177,0.1-0.35,0.202-0.518,0.305C13.5,18.042,13.563,19.116,13.39,19.936z"/>
	<path fill="#000000" d="M11.604,21.787c0.006,0.008,0.013,0.016,0.02,0.023c0.733-0.124,0.956-1.443,1.066-2.042   c0.14-0.76,0.02-1.389-0.275-2.004c-0.126,0.086-0.246,0.176-0.368,0.265C12.563,19.136,11.703,20.752,11.604,21.787z"/>
	<path fill="#000000" d="M9.181,21.413c-0.074,0.817-0.39,1.817-0.992,2.726c-0.603,0.909-2.259,3.166-2.259,3.166   s3.118-3.062,3.469-3.954C9.75,22.46,9.241,20.748,9.181,21.413z"/>
	<path fill="#000000" d="M8.889,25.001C8.293,25.642,6.07,27.85,6.07,27.85s3.029-1.962,3.157-2.384   C9.355,25.043,9.274,24.588,8.889,25.001z"/>
	<path fill="#000000" d="M9.521,24.624c-0.862,0.495,0.909-2.221,1.858-2.158c0.949,0.064,1.004,0.374,1.713,0.555   c0.709,0.18-0.032,0.251-0.293,0.655c-0.352,0.542-0.194,1.118-0.997,1.281C11,25.121,9.823,24.451,9.521,24.624z"/>
	<path fill="#000000" d="M21.373,10.828c-0.933-1.097-1.697,0.3-2.979,1.908c0.732-0.517,1.631-0.928,2.228-0.561   c0.852,0.521,0.965,1.954,0.764,3.088c0.007-0.007,0.016-0.016,0.023-0.022C22.344,14.264,22.334,11.959,21.373,10.828z"/>
	<path fill="#000000" d="M97.107,66.402c-2.662-2.316-3.301-6.929-4.323-10.012c-1.023-3.083-1.312-5.973-1.312-5.973   s0.573-0.021,1.229,2.32c0.604-1.213-1.335-5.585-2.077-9.035c-0.74-3.45-0.952-6.983-2.559-9.462c0,0-0.783-0.685-1.286-0.837   c-4.067-2.691-9.469,0.216-13.326,2.138c-4.656,2.319-7.504,7.135-8.356,12.135c-0.531,3.126,0.071,5.587-1.02,8.416   c0.23-0.108,0.454-0.22,0.67-0.332c0.78-1.527,1.763-2.961,2.243-4.841c1.33-5.196,3.007-8.028,7.751-10.801   c2.288-1.337,4.774-2.133,7.104-3.385c1.002-0.537,1.995-1.492,3.155-1.587c0.87-0.071,1.788,0.392,2.667,0.706   c0.1,0.261,0.162,0.521,0.162,0.768c0,0.186-0.089,0.639-0.146,1.259c-1.317,0.309-2.646,0.86-3.917,1.312   c-2.806,0.999-5.539,1.681-8.17,3.155c-2.334,1.306-4.719,3.194-5.994,5.566c-0.871,1.62-2.653,4.234-2.26,6.237   c0.663-0.479,1.208-0.919,1.653-1.254c0.292-1.396,1.133-3.58,2.446-3.106c1.039,0.373,1.264,1.96,1.206,3.3   c0.082,0.063,0.165,0.134,0.248,0.204c0.042-0.744,0.228-1.527,0.471-2.115c0.862-2.083,3.725-2.011,5.939-2.461   c1.574-0.32,3.146-0.553,4.651-1.167c0.9-0.367,1.654-1.049,2.428-1.513c0.132-0.477,0.271-0.998,0.427-1.596   c0.042-0.163,0.084-0.324,0.126-0.484c-2.494,0.559-4.668,2.02-7.109,2.827c-1.464,0.483-2.978,0.683-4.442,1.154   c-0.771,0.249-2.438,1.575-2.557,0.12c-0.169-2.049,4.861-2.919,6.206-3.325c3.276-0.989,6.086-2,8.737-4.052   c0.01-0.05,0.018-0.101,0.027-0.151c0.116,0.583,0.303,1.193,0.6,1.809c1.112,2.304,0.566,6.949,0.003,10.417   c-0.562,3.466-1.119,5.134-0.053,8.067c0.291-2.506,0.152-3.242,1.343,1.027s2.459,4.641,6.245,6.013   c3.787,1.371,4.101,3.743,4.101,3.743S99.771,68.718,97.107,66.402z"/>
	<path fill="#000000" d="M18.206,12.854l-0.32-0.005l-0.759-0.786l-0.074,0.915l-1.521-0.716l0.677,0.977l-1.38-1.033l0.371,1.412   l-1.367-0.835l0.687,2.228l-2.027-0.165l0.509,0.772l-1.019-0.569c0,0,0.931,1.093,1.893,2.111l0.696,0.391   c0.105,0.88,0.009,1.806-0.245,2.593c-0.303,0.94-0.791,1.752-0.818,2.765c0.478-0.097,0.99-1.155,1.287-1.558   c0.407-0.554,0.638-0.982,0.551-1.661c-0.08-0.625-0.17-1.283-0.349-1.901l0.772,0.433C15.837,17.412,17.53,14.013,18.206,12.854z"/>
	<path fill="#000000" d="M37.672,29.246l0.448-0.21l-0.916-0.074c0,0,0.368-1.286,0.722-1.586c0.353-0.301-1.099-0.254-1.099-0.254   l1.253-1.658l-1.56,0.572c0,0,0.876-1.061,1.088-1.241c0.212-0.179-1.42,0.472-1.42,0.472l0.787-1.587l-0.98-0.08l0.448-0.655   l-1.148,0.368l0.427-1.199l-1.597,1.03l0.886-1.191l-1.604,1.114l1.195-1.749l-2.132,1.141l1.378-2.389l-1.441,0.737l0.444-1.412   l-1.948,1.29l0.983-1.565l-0.887,0.389l0.063-0.785l-1.583,0.859l1.06-1.296l-1.632,1.25l1.219-1.744l-1.789,1.105l0.995-1.633   l-1.323,0.159l0.048-0.589l-1.093,0.504l0.063-0.784c0,0-1.283,1.211-1.496,1.406c-0.213,0.194,1.064-2.166,1.064-2.166   l-0.741,0.006l-0.31-0.75l-1.118,0.962l-0.474-0.499l0.096-1.176l-1.349,1.207l1.026-1.694l-1.528,1.586l0.338-1.419   c0,0-2.541,3.541-3.567,5.312c-0.471,0.745-0.831,1.611-0.761,2.926c0.082,1.542-0.036,3.105,0.154,4.632   c0.071,0.57,0.763,1.749,0.95,2.278c0.633-0.865,0.944-2.658,1.246-3.673c0.351-1.176,0.721-2.236,1.181-3.379   c0.265-0.661,0.991-1.461,1.508-2.324c0.52-0.774,1.204-1.061,1.771-1.182c-0.581,1.102-1.747,2.457-2.229,3.506   c0,0-1.766,7.429-3.804,10.97c0.154,0.289,0.491,1.502,0.654,1.817c2.498-3.812,2.771-8.336,4.515-12.391   c0.525-1.167,1.255-2.517,2.531-2.688c-0.256,1.298-1.187,2.318-1.7,3.574l0.013,0.009c-1.828,3.324-2.495,7.531-3.972,10.955   c-0.25,0.579-0.518,1.135-0.809,1.672c0.148,0.281,1.266,2.134,1.48,2.396c0.049,0.062,0.101,0.128,0.152,0.191   c0.152-0.415,0.309-0.829,0.459-1.238c1.514-4.12,5.088-8.653,6.082-12.972c0.537-0.829,1.316-1.562,2.133-1.635   c0.02,0.023,0.039,0.048,0.06,0.071c-0.188,0.68-1.62,3.588-1.694,3.692c0,0-1.506,3.195-2.099,4.726   c-0.698,1.801-2.967,4.374-2.883,6.292c0.132,3.029,2.512-2.208,3.145-3.333c1.258-2.236,2.34-4.465,3.056-6.823   c0.082-0.271,0.181-0.608,0.29-0.946c0.454-0.919,1.44-1.69,2.335-1.73c0.023,0.041,0.043,0.083,0.061,0.126   c-0.408,0.57-0.84,1.089-1.211,1.717c-0.001,0-0.002-0.001-0.003-0.002c-0.014,0.026-0.028,0.051-0.042,0.078   c-0.055,0.096-0.108,0.194-0.16,0.296c-0.007,0.013-0.014-0.036-0.021-0.023c-0.003,0.007-0.007-0.042-0.01-0.042h0   c-2.164,4.241-2.378,9.195-5.759,12.598c-0.652,0.657-1.261,1.227-1.693,1.897c0.401,0.562,0.8,1.135,1.176,1.644   c1.064-1.266,2.115-2.296,3.184-3.554c2.781-3.273,3.274-7.849,4.559-11.764c0.244-0.688,0.697-1.299,1.265-1.681   c-0.073,0.768-0.558,1.24-0.793,2.021l0.001,0.002c-0.851,2.289-0.847,4.795-1.25,7.235c-0.46,2.785-1.703,4.909-3.559,6.998   c-0.629,0.709-1.523,1.459-2.239,2.229c0.051,0.057,0.103,0.116,0.15,0.167c0.352,0.372,0.614,0.806,0.833,1.279   c0.766-0.646,1.545-1.337,2.189-2.021c2.329-2.473,4.221-5.568,5.251-8.788c0.532-1.664,0.855-3.756,1.802-5.319l0.944-0.445   c-1.099,2.694-1.207,6.035-2.276,8.699c-1.234,3.074-3.391,5.67-5.438,8.183c-0.495,0.607-1.119,1.426-1.584,2.222   c0.084,0.254,0.174,0.512,0.272,0.771c0.883-1.521,2.34-3.05,3.443-4.271c2.251-2.491,4.372-5.35,5.047-8.667   c0.482-2.374,0.891-4.645,1.435-6.965C38.097,29.316,37.886,29.283,37.672,29.246z M22.823,18.351   c-0.638,1.08-2.119,2.414-2.459,3.501c-0.275,0.88-0.187,1.547-0.46,2.431c-0.19,0.616,0.03,1.814-0.459,2.252   c-0.131-0.346-0.238-1.884-0.197-2.252c0.158-1.413,0.207-1.475,0.478-2.879c0.24-1.246,1.315-2.642,2.12-3.637   c0.479-0.515,1.013-0.974,1.725-1.554C23.561,16.826,23.25,17.576,22.823,18.351z M23.413,31.186   c0.172-1.646,1.016-2.954,1.687-4.476c0.564-1.279,0.743-2.731,1.267-4c0.453-0.819,1.036-1.471,1.973-1.417   c-0.015,0.705-0.93,1.697-1.213,3.067C26.278,26.937,25.18,30.11,23.413,31.186z M32.916,35.67c0.17-1.958,0.688-5.101,1.66-7.042   c0.328-0.578,0.793-0.993,1.308-1.464c0.021,0.647-0.541,1.235-0.573,2.083l0,0C34.704,31.792,34.486,34.928,32.916,35.67z"/>
</g>
<text x="0.0" y="117.5" font-size="5.0" font-weight="bold" font-family="Helvetica Neue, Helvetica, Arial-Unicode, Arial, Sans-serif" fill="#000000">Created by Isabel Mart&#237;nez Isabel</text><text x="0.0" y="122.5" font-size="5.0" font-weight="bold" font-family="Helvetica Neue, Helvetica, Arial-Unicode, Arial, Sans-serif" fill="#000000">from the Noun Project</text></svg>