<svg xmlns="http://www.w3.org/2000/svg" xmlns:xlink="http://www.w3.org/1999/xlink" version="1.1" id="Calque_2" x="0px" y="0px" width="100px" height="100px" viewBox="5.0 -10.0 100.0 135.0" enable-background="new 0 0 100 100" xml:space="preserve">
<g>
	<g>
		<path d="M78.629,4.575c-1.53,0-2.774,1.245-2.774,2.775s1.244,2.774,2.774,2.774s2.774-1.244,2.774-2.774    S80.159,4.575,78.629,4.575z M78.629,8.125c-0.427,0-0.774-0.348-0.774-0.774c0-0.428,0.348-0.775,0.774-0.775    s0.774,0.348,0.774,0.775C79.403,7.777,79.056,8.125,78.629,8.125z M96.671,4.574l-0.199-0.36l-0.644-1.991    c-0.535-1.643-2.468-2.584-4.313-2.094l-2.469,0.654c-1.253,0.332-3.4,0.616-4.69,0.621l-4.185,0.014    c-1.537,0.006-3.824,0.541-5.207,1.22L71.882,4.15c-0.976-0.889-2.22-1.391-3.549-1.391c-1.264,0-2.446,0.461-3.401,1.269    c-1.848-0.623-3.969-0.219-5.439,1.251c-2.063,2.064-2.063,5.425,0.029,7.519l2.216,2.045c-1.24,2.898-2.991,5.517-5.244,7.769    c-3.387,3.388-7.641,5.706-12.304,6.706c-0.067,0.015-0.132,0.036-0.193,0.063c-6.508,1.433-12.445,4.689-17.182,9.427    c-6.61,6.61-10.25,15.398-10.25,24.745c0,3.156,0.424,6.294,1.26,9.327c0,0.001,0.001,0.001,0.001,0.002l2.147,8.589    c0.492,1.969,0.164,3.951-0.924,5.584c-1.141,1.712-2.965,2.835-5.136,3.162l-9.036,1.362c-0.015,0.002-0.026,0.012-0.041,0.015    c-1.617,0.29-2.841,1.707-2.819,3.401c0.023,1.862,1.572,3.378,3.464,3.378l31.048-0.401c0.647-0.008,1.315-0.017,1.996-0.065    c1.311-0.09,2.563-0.299,3.75-0.607c2.872,0.786,5.859,1.216,8.91,1.249c0.004,0,0.007,0,0.011,0h6.059    c0.384,0.845,1.231,1.442,2.221,1.452h0.191c2.034,0,3.778-0.287,5.34-0.882c0.433-0.169,0.822-0.363,1.191-0.57h9.687    c0.553,0,1-0.447,1-1.001v-1.785c0-1.965-1.598-3.563-3.562-3.563h-3.85c-0.128-0.819-0.398-1.626-0.833-2.354    c-0.564-0.95-1.356-1.789-2.354-2.495c-1.255-0.882-2.765-1.487-4.423-1.808l6.154-16.691c0.813-2.202,3.482-4.063,5.83-4.063    h9.129l3.252,3.252l-0.218,0.535c-0.208,0.512,0.039,1.095,0.551,1.303c0.123,0.05,0.25,0.073,0.376,0.073    c0.395,0,0.769-0.235,0.927-0.624l1.278-3.147c0-0.001,0-0.002,0.001-0.003l0.465-1.146c0.12-0.295,0.092-0.63-0.076-0.901    l-4.163-6.738l-1.315-2.487c-0.587-1.108-1.216-4.216-1.216-7.074V35.751c0-2.771,2.215-5.31,4.559-7.997    c2.801-3.21,5.952-6.836,6.188-11.754c2.722-1.588,4.401-4.449,4.401-7.636C97.984,6.925,97.256,5.622,96.671,4.574z     M69.457,94.198h3.867c0.861,0,1.562,0.701,1.562,1.563v0.785h-6.397C68.989,95.839,69.311,95.028,69.457,94.198z M69.838,5.154    l-1.999,0.981l-0.856-0.856c-0.048-0.048-0.104-0.08-0.154-0.126C67.766,4.688,68.901,4.689,69.838,5.154z M57.256,96.547h-6.05    c-1.857-0.02-3.689-0.202-5.484-0.521c1.077-0.521,2.064-1.1,2.925-1.64l0.469-0.295c0.675-0.426,1.33-0.823,1.984-1.198    l-0.023,0.154c-0.004,0.026,0.006,0.05,0.004,0.076c-0.003,0.025-0.016,0.049-0.016,0.075c0,0.043,0.02,0.08,0.024,0.121    c0.009,0.067,0.018,0.132,0.039,0.195c0.021,0.062,0.049,0.115,0.081,0.171s0.063,0.107,0.105,0.156s0.089,0.089,0.14,0.129    c0.05,0.039,0.099,0.075,0.155,0.104c0.06,0.031,0.123,0.051,0.188,0.069c0.04,0.012,0.073,0.035,0.115,0.042    c0.051,0.008,0.102,0.012,0.15,0.012c0.001,0,0.001,0,0.001,0H63.63c-0.151,0.088-0.309,0.176-0.493,0.253    c-0.993,0.408-2.2,0.618-3.691,0.643C58.472,95.111,57.637,95.707,57.256,96.547z M53.229,92.198l0.056-0.363    c1.367-0.546,2.87-0.903,4.511-1.045l-0.52,1.408H53.229z M59.408,92.198l0.548-1.486c0.083,0.002,0.165,0.003,0.227,0.005    c1.209,0.083,2.291,0.422,3.125,0.977c0.236,0.158,0.427,0.329,0.593,0.505H59.408z M62.231,87.679    c0.023,0.007,0.047,0.014,0.07,0.02c0.316,0.088,0.627,0.184,0.926,0.298c0.116,0.044,0.225,0.096,0.337,0.144    c0.215,0.092,0.432,0.179,0.635,0.285c0.328,0.169,0.643,0.354,0.936,0.56l0.001,0.001c0.001,0,0.001,0.001,0.002,0.001    c0.762,0.539,1.363,1.172,1.784,1.88c0.124,0.208,0.229,0.426,0.318,0.648c0.002,0.005,0.003,0.01,0.005,0.014    c0.248,0.624,0.359,1.288,0.311,1.928c-0.016,0.251-0.063,0.499-0.132,0.742h0.002c-0.047,0.167-0.106,0.331-0.176,0.492    c-0.034,0.078-0.075,0.152-0.114,0.229c-0.057,0.11-0.117,0.218-0.184,0.323c-0.043,0.065-0.084,0.131-0.13,0.194    c-0.111,0.153-0.231,0.301-0.366,0.438c-0.006,0.007-0.011,0.015-0.018,0.021c-0.001,0.001-0.003,0.002-0.004,0.004    c-0.001,0.001-0.002,0.002-0.003,0.003c-0.002,0.002-0.006,0.004-0.008,0.006c-0.228,0.231-0.487,0.438-0.771,0.63    c-0.004,0.002-0.006,0.006-0.01,0.008h-0.001c-0.396,0.268-0.844,0.504-1.364,0.707C62.964,97.754,61.454,98,59.667,98h-0.191    c-0.238-0.002-0.44-0.205-0.441-0.451s0.2-0.451,0.447-0.455c1.421-0.023,2.636-0.209,3.704-0.547    c0.122-0.038,0.237-0.083,0.357-0.124c0.117-0.042,0.241-0.075,0.354-0.122c0.741-0.311,1.327-0.696,1.751-1.15    c0.131-0.139,0.245-0.29,0.343-0.449c0.001-0.002,0.002-0.005,0.003-0.007c0.097-0.158,0.178-0.325,0.241-0.495    c0.1-0.264,0.165-0.537,0.175-0.81c0.02-0.392-0.052-0.799-0.189-1.191h-0.001c-0.084-0.242-0.188-0.48-0.328-0.702    c-0.347-0.55-0.84-1.041-1.473-1.466c-0.264-0.176-0.547-0.331-0.841-0.474c-0.265-0.127-0.542-0.237-0.83-0.336    c-0.02-0.007-0.037-0.016-0.057-0.022c-0.627-0.21-1.304-0.354-2.019-0.43l0.001-0.003c-0.118-0.013-0.232-0.036-0.353-0.045    c-0.256-0.008-0.524-0.013-0.793-0.013c-0.336,0-0.654,0.033-0.982,0.048c-0.793,0.034-1.561,0.113-2.307,0.227    c-0.115,0.019-0.233,0.033-0.349,0.054c-0.342,0.059-0.678,0.126-1.008,0.202c-1.177,0.276-2.294,0.646-3.324,1.144    c-0.058,0.027-0.111,0.063-0.169,0.09c-1.124,0.544-2.171,1.192-3.271,1.885c-0.023,0.015-0.045,0.027-0.068,0.042l-0.174,0.109    l-0.294,0.186c-0.308,0.193-0.632,0.393-0.969,0.592c-1.012,0.597-2.151,1.195-3.378,1.634c-0.135,0.049-0.277,0.088-0.415,0.134    c-0.177,0.057-0.352,0.118-0.531,0.171c0,0,0,0-0.001,0c-1.219,0.358-2.522,0.592-3.9,0.686c-0.058,0.004-0.112,0.005-0.169,0.008    c0,0.001,0.001,0.001,0.001,0.001c-0.013,0.001-0.025,0-0.039,0.001c-0.574,0.035-1.134,0.046-1.677,0.052h-0.038    c-0.006,0.001-0.011,0.001-0.016,0.001l-30.983,0.4H5.466H5.455c-0.778,0-1.429-0.629-1.439-1.402    c-0.002-0.159,0.028-0.311,0.075-0.454c0.006-0.02,0.01-0.04,0.018-0.06c0.049-0.132,0.119-0.252,0.204-0.362    c0.018-0.023,0.035-0.045,0.054-0.067c0.087-0.101,0.187-0.19,0.299-0.264c0.025-0.017,0.052-0.029,0.079-0.045    c0.119-0.066,0.245-0.122,0.381-0.152c0.004-0.001,0.008-0.004,0.012-0.005c0.012-0.002,0.025-0.001,0.037-0.003l0.051-0.008    c0.055-0.008,0.11-0.019,0.167-0.02h0.023c0,0,0.001,0,0.002,0c0,0,1.989,0.025,4.974,0.064l23.734,0.305    c1.936,0.024,3.164,0.04,3.219,0.04c0.313,0,0.621-0.006,0.928-0.021c0.102-0.004,0.199-0.017,0.3-0.022    c0.723-0.043,1.422-0.125,2.093-0.248c0.059-0.011,0.114-0.025,0.172-0.036c0.274-0.054,0.547-0.11,0.811-0.178    c0.328-0.084,0.649-0.177,0.962-0.281c1.638-0.523,3.097-1.388,4.649-2.307c0.492-0.291,0.996-0.584,1.507-0.87    c0.086-0.049,0.169-0.1,0.256-0.148c0.065-0.036,0.137-0.065,0.202-0.102c0.539-0.292,1.086-0.577,1.653-0.827    c0.961-0.429,1.971-0.763,3.012-1.019V87.88c0.003-0.001,0.007-0.001,0.01-0.002c0.534-0.131,1.074-0.246,1.625-0.33    c0.016-0.003,0.03-0.008,0.046-0.01c0.051-0.007,0.099-0.009,0.149-0.016c1.112-0.155,2.175-0.236,3.229-0.236    c0.491,0,0.986,0.017,1.475,0.051C61.049,87.396,61.649,87.522,62.231,87.679z M92.169,14.518    c-0.003,0.001-0.006,0.001-0.009,0.002l-3.247,1.617c-0.494,0.247-0.695,0.847-0.449,1.342c0.175,0.351,0.529,0.554,0.896,0.554    c0.149,0,0.302-0.033,0.445-0.104l1.658-0.826c-0.613,3.646-3.129,6.534-5.575,9.338c-2.598,2.979-5.052,5.791-5.052,9.312v12.077    c0,2.958,0.636,6.477,1.448,8.01l1.33,2.515c0.007,0.013,0.018,0.021,0.024,0.034c0.005,0.007,0.004,0.016,0.009,0.023    l3.915,6.337l-0.52,1.28l-2.946-2.946c-0.092-0.093-0.203-0.166-0.326-0.217c-0.122-0.051-0.252-0.077-0.382-0.077h-9.543    c-1.38,0-2.783,0.455-4.033,1.191l1.464-3.971c0.014-0.036,0.008-0.073,0.017-0.109l0.184-0.104l0.982,0.821    c0.181,0.15,0.407,0.232,0.642,0.232h4.958l2.503,1.551c0.158,0.098,0.341,0.149,0.526,0.149h1.814    c0.371,0,0.712-0.205,0.885-0.534c0.173-0.328,0.149-0.726-0.06-1.031l-4.48-6.535c-0.187-0.272-0.495-0.435-0.825-0.435h-3.609    L73.714,53.4l2.279-6.181c0.19-0.518-0.074-1.093-0.593-1.284s-1.093,0.074-1.284,0.593l-2.171,5.887l-5.376-2.995    c-0.479-0.265-1.09-0.096-1.36,0.388c-0.269,0.482-0.095,1.091,0.388,1.36l8.472,4.72c0.148,0.082,0.316,0.126,0.486,0.126h3.342    l2.838,4.139l-1.863-1.154c-0.158-0.098-0.341-0.149-0.526-0.149h-4.88l-1.235-1.032c-0.319-0.266-0.77-0.306-1.134-0.104    l-1.989,1.124l-7.882-0.345c-0.55-0.026-1.019,0.403-1.043,0.955s0.403,1.019,0.955,1.043l7.706,0.337L66.4,67.455    c-0.028,0.076-0.026,0.153-0.035,0.23c-0.073,0.158-0.164,0.311-0.225,0.474l-6.324,17.151c-1.477-0.055-2.961,0.021-4.538,0.249    c-0.358,0.054-0.712,0.124-1.064,0.196l0.965-6.311c1.32-8.638-4.634-16.739-13.271-18.059c-4.213-0.644-8.414,0.401-11.835,2.939    c-0.444,0.329-0.537,0.955-0.208,1.398c0.33,0.443,0.957,0.537,1.399,0.207c2.99-2.218,6.664-3.132,10.342-2.568    c7.548,1.153,12.749,8.232,11.597,15.779l-1.095,7.164c-0.695,0.221-1.377,0.469-2.034,0.763c-1.386,0.609-2.63,1.345-3.841,2.062    c-1.444,0.855-2.81,1.664-4.249,2.122c-1.142,0.385-2.42,0.609-3.804,0.668c-0.543,0.024-1.049,0.021-1.703,0.009l-1.807-0.023    c-2.319-1.386-4.484-3.065-6.441-5.022c-0.391-0.391-1.023-0.391-1.414,0s-0.391,1.023,0,1.414    c1.306,1.307,2.703,2.491,4.169,3.562L16.244,91.67c1.84-0.685,3.389-1.887,4.468-3.506c1.405-2.107,1.831-4.657,1.201-7.178    l-2.154-8.614c-0.001-0.005-0.005-0.009-0.007-0.014c0-0.004,0-0.007,0-0.01c-0.788-2.86-1.188-5.819-1.188-8.796    c0-8.813,3.432-17.099,9.664-23.331c4.512-4.512,10.177-7.599,16.384-8.929c0.068-0.015,0.134-0.036,0.195-0.063    c4.962-1.104,9.488-3.592,13.1-7.204c2.265-2.264,4.074-4.863,5.396-7.738l0.205,0.189c0.191,0.177,0.435,0.265,0.678,0.265    c0.27,0,0.538-0.108,0.735-0.322c0.374-0.405,0.349-1.038-0.058-1.413l-3.956-3.65c-1.285-1.285-1.285-3.377-0.001-4.662    c1.286-1.287,3.378-1.285,4.662,0l2.378,2.378c0.286,0.286,0.443,0.667,0.443,1.071s-0.157,0.783-0.443,1.069    c-0.391,0.39-0.391,1.023,0,1.414c0.195,0.195,0.451,0.293,0.707,0.293s0.512-0.098,0.707-0.293    c0.663-0.663,1.029-1.545,1.029-2.483s-0.365-1.82-1.029-2.485l-0.027-0.028l6.512-3.196c1.112-0.545,3.097-1.01,4.333-1.014    l4.185-0.014c1.454-0.005,3.785-0.313,5.195-0.688l2.47-0.655c0.815-0.221,1.688,0.139,1.897,0.779L94.6,4.924    c0.01,0.03,0.032,0.051,0.044,0.079c0.013,0.029,0.013,0.062,0.028,0.091l0.253,0.456c0.521,0.933,1.06,1.896,1.06,2.814    C95.984,10.991,94.522,13.348,92.169,14.518z"/>
	</g>
</g>
<text x="0.0" y="117.5" font-size="5.0" font-weight="bold" font-family="Helvetica Neue, Helvetica, Arial-Unicode, Arial, Sans-serif" fill="#000000">Created by Jake Dunham</text><text x="0.0" y="122.5" font-size="5.0" font-weight="bold" font-family="Helvetica Neue, Helvetica, Arial-Unicode, Arial, Sans-serif" fill="#000000">from the Noun Project</text></svg>