<svg xmlns="http://www.w3.org/2000/svg" xmlns:xlink="http://www.w3.org/1999/xlink" version="1.1" id="Layer_1" x="0px" y="0px" width="100px" height="100px" viewBox="5.0 -10.0 100.0 135.0" enable-background="new 0 0 100 100" xml:space="preserve">
<g id="Captions">
</g>
<g>
	<defs>
		<rect id="SVGID_1_" x="19.772" y="4" width="61.646" height="93"/>
	</defs>
	<clipPath id="SVGID_2_">
		<use xlink:href="#SVGID_1_" overflow="visible"/>
	</clipPath>
	<path clip-path="url(#SVGID_2_)" fill="#000000" d="M34.067,40.994c-1.021-0.433-0.993-3.24-1.688-4.103   c-0.645-0.797-2.471-1.853-3.377-2.331c-1.087-0.574-3.415-2.144-4.584-1.77c-1.88,0.603-3.776,4.705-4.342,6.595   c-0.324,1.078-0.478,3.484,0,4.503c0.799,1.706,4.28,3.697,5.791,4.824c1.393,1.04,4.34,2.895,5.787,3.861   c1.811,1.204,5.213,4.032,7.238,4.825c3.243,1.266,11.831-0.733,13.752,2.169c0.412,0.622-0.406,2.222-0.724,2.896   c-0.898,1.9-4.189,4.819-5.005,6.754c-1.069,2.534-1.269,8.151-1.75,10.857c-0.591,3.326-3.536,10.03-2.573,13.268   c0.263,0.887,1.723,2.293,2.573,2.653c1.722,0.73,7.108,1.835,7.479,0c0.309-1.522-4.946-1.067-5.729-2.41   c-2.539-4.356,0.747-15.246,2.352-20.025c0.467-1.393,1.552-5.431,2.974-5.066c1.347,0.347-0.568,4.368,0.162,5.549   c1.622,2.616,8.303,4.077,10.855,5.791c2.276,1.525,7.504,4.42,8.445,6.995c0.229,0.633-0.89,2.115-0.481,2.654   c0.363,0.483,1.841,0.445,2.412,0.241c0.4-0.145,0.78-1.207,1.205-1.207c0.854,0,1.612,2.118,2.413,2.412   c0.737,0.273,2.891,0.508,3.137-0.24c0.661-2.034-5.293-3.79-6.515-5.549c-0.401-0.578-0.496-2.123-0.964-2.653   c-1.93-2.184-7.92-3.743-10.375-5.307c-1.74-1.107-5.734-3.157-6.515-5.065c-0.735-1.806,0.182-5.976,1.046-7.724   c0.759-1.526,3.192-4.323,4.823-4.824c1.215-0.37,3.721,1.022,4.989,0.967c1.314-0.059,3.831-0.983,5.065-1.448   c1.312-0.496,3.633-1.733,4.487-2.846c1.229-1.607,1.514-5.57,2.023-7.528c0.472-1.789,2.06-5.18,2.416-6.997   c0.427-2.193,0.673-6.698,0.481-8.926c-0.168-1.974-1.166-5.835-1.769-7.721c-0.56-1.74-2.187-5.037-2.815-6.754   c-0.48-1.306-1.52-3.924-1.688-5.306c-0.108-0.899-0.235-2.848,0.239-3.619c0.442-0.711,2.087-1.47,2.896-1.689   c0.756-0.206,3.137,0,3.137,0c0.065-0.677-2.938-1.368-3.859-1.93c-0.64-0.391-1.666-1.726-2.413-1.77   c-1.017-0.059-2.994,1.151-3.537,2.01c-0.555,0.868-0.395,3.075-0.321,4.103c0.094,1.415,0.755,4.2,1.203,5.546   c0.504,1.512,2.092,4.301,2.655,5.792c0.665,1.765,1.829,5.379,2.172,7.237c0.152,0.833,0.438,2.552,0.241,3.376   c-0.246,1.026-1.128,3.468-2.174,3.62c-0.97,0.14-2.072-2.113-2.895-2.654c-0.606-0.401-1.949-1.018-2.651-1.206   c-0.587-0.156-1.831-0.412-2.414-0.24c-0.369,0.107-0.821,0.93-1.205,0.963c-0.888,0.08-2.272-1.903-3.138-1.688   c-0.424,0.106-0.539,1.352-0.965,1.447c-0.685,0.155-1.716-1.342-2.411-1.447c-0.491-0.073-1.49,0.254-1.93,0.484   c-0.494,0.253-1.158,1.282-1.69,1.446c-1.509,0.462-4.75-1.143-6.273-0.724c-0.858,0.237-1.974,1.932-2.833,2.173   c-0.542,0.151-1.745-0.52-2.233-0.243c-0.632,0.363-0.706,2.124-1.206,2.654c-0.89,0.941-3.407,1.87-4.584,2.413   C37.714,39.607,35.265,41.499,34.067,40.994"/>
</g>
<text x="0.0" y="117.5" font-size="5.0" font-weight="bold" font-family="Helvetica Neue, Helvetica, Arial-Unicode, Arial, Sans-serif" fill="#000000">Created by Miranda Dempster</text><text x="0.0" y="122.5" font-size="5.0" font-weight="bold" font-family="Helvetica Neue, Helvetica, Arial-Unicode, Arial, Sans-serif" fill="#000000">from the Noun Project</text></svg>