<svg xmlns="http://www.w3.org/2000/svg" xmlns:xlink="http://www.w3.org/1999/xlink" version="1.1" id="Your_Icon" x="0px" y="0px" width="100px" height="100px" viewBox="5.0 -10.0 100.0 135.0" enable-background="new 0 0 100 100" xml:space="preserve">
<g>
	<path fill="#000000" d="M84.261,44.556c-0.161,0.218-0.099,0.39-0.025,0.591c0.057,0.157,0.116,0.319,0.039,0.487   c-0.099,0.212-0.338,0.146-0.512,0.097c-0.15-0.042-0.32-0.089-0.434-0.026c-0.075,0.043-0.133,0.136-0.172,0.28   c-0.107,0.388,0.064,0.563,0.217,0.717c0.1,0.102,0.224,0.228,0.154,0.391c-0.063,0.146-0.227,0.158-0.386,0.17   c-0.148,0.012-0.316,0.025-0.399,0.13c-0.07,0.089-0.089,0.244-0.055,0.462c0.048,0.322,0.273,0.39,0.612,0.456   c0.22,0.042,0.467,0.091,0.511,0.326c0.019,0.097-0.014,0.161-0.044,0.197c-0.084,0.104-0.237,0.106-0.414,0.108   c-0.173,0.003-0.369,0.006-0.462,0.103c-0.048,0.051-0.07,0.13-0.067,0.242c0.007,0.239,0.055,0.398,0.143,0.474   c0.099,0.084,0.253,0.064,0.402,0.047c0.157-0.021,0.375-0.047,0.438,0.152c0.037,0.116-0.006,0.254-0.055,0.413   c-0.06,0.194-0.127,0.413-0.034,0.553c0.074,0.112,0.255,0.181,0.531,0.208c0.039-0.01,0.077-0.018,0.117-0.018   c0.092,0,0.222,0.031,0.325,0.18c0.096,0.137,0.245,0.186,0.404,0.238c0.168,0.056,0.358,0.118,0.433,0.31   c0.073,0.189,0.157,0.216,0.236,0.216c0.068,0,0.15-0.023,0.229-0.045c0.086-0.024,0.174-0.049,0.26-0.049   c0.153,0,0.24,0.081,0.286,0.149c0.042,0.062,0.076,0.071,0.107,0.071c0.061,0,0.142-0.036,0.222-0.071   c0.102-0.045,0.208-0.092,0.319-0.092c0.168,0,0.295,0.104,0.378,0.307c0.029-0.022,0.071-0.059,0.103-0.084   c0.117-0.101,0.249-0.214,0.404-0.214c0.048,0,0.095,0.012,0.137,0.033c0.146,0.077,0.286-0.064,0.433-0.205   c0.154-0.147,0.311-0.285,0.487-0.243c0.179-0.063,1.071-1.475,0.974-2.53c-0.094-1.009-0.902-1.747-1.287-1.747   c-0.075,0-0.095,0.032-0.103,0.046c-0.143,0.241-0.024,0.444,0.196,0.783c0.283,0.435,0.671,1.028,0.119,1.926   c-0.089,0.144-0.579,0.861-1.56,0.861l-0.055-0.002c-0.706-0.019-1.786-0.874-2.118-1.947c-0.184-0.589-0.274-1.733,1.166-2.781   c0.367-0.267,0.877-0.407,1.475-0.407c1.274,0,2.635,0.621,3.465,1.583c0.73,0.846,1.027,1.902,0.856,3.059   c-0.364,2.479-3.231,5.234-9.796,6.953c0.167,0.104,0.239,0.309,0.297,0.487c0.089,0.274,0.158,0.443,0.383,0.482   c0.021-0.029,0.008-0.217-0.001-0.341c-0.02-0.282-0.041-0.602,0.146-0.77c0.099-0.089,0.236-0.118,0.41-0.088   c0.745,0.131,0.753,0.644,0.758,0.982c0.004,0.249,0.019,0.329,0.104,0.354c0.168,0.048,0.235-0.037,0.364-0.34   c0.078-0.183,0.158-0.372,0.336-0.429c0.105-0.034,0.226-0.01,0.355,0.07c0.599,0.369,0.53,0.948,0.49,1.294   c-0.008,0.069-0.019,0.158-0.016,0.207c0.03-0.012,0.077-0.039,0.11-0.059c0.208-0.121,0.558-0.324,1.009,0.082   c0.253,0.225,0.135,0.576,0.049,0.833c-0.027,0.082-0.067,0.202-0.068,0.256c0.043-0.015,0.119-0.063,0.172-0.098   c0.18-0.115,0.427-0.273,0.688-0.179c0.085,0.031,0.164,0.086,0.236,0.168c0.528-0.268-0.123-0.77,0.321-1.089   c0.334-0.241,0.939,1.043,1.842,0.237c0.755-0.673-0.146-1.115,0.597-1.687c0.313-0.241,0.809,0.547,1.542-0.097   c0.807-0.707-0.782-1.179-0.184-1.867c0.278-0.319,1.042,0.529,1.729-0.211c0.68-0.733-0.48-0.99-0.119-1.664   c0.191-0.355,1.188,0.073,1.426-0.713c0.317-1.051-1.229-0.861-1.052-1.598c0.088-0.37,1.444,0.224,1.646-0.6   c0.195-0.8-1.05-0.727-1.108-1.422c-0.027-0.332,1.002,0.018,1.049-0.718c0.04-0.634-0.905-0.46-1.033-0.892   c-0.104-0.35,0.295-0.863,0.172-1.159c-0.413-0.99-0.688-0.286-0.921-0.563c-0.116-0.137,0.277-0.903-0.196-1.197   c-0.598-0.371-0.726,0.454-1.052,0.307c-0.291-0.132,0.235-0.951-0.535-1.426c-0.291-0.18-0.925,0.405-1.256,0.371   c-0.296-0.03,0.079-0.921-0.551-1.014c-0.869-0.128-0.893,0.73-1.126,0.665c-0.188-0.053,0.35-0.686-0.592-0.794   c-0.906-0.104-1.066,0.777-1.406,0.83c-0.353,0.057-0.354-0.873-1.129-0.771c-0.552,0.072-0.472,1.401-1.177,1.077   c-0.111-0.051-0.242-0.109-0.365-0.261C84.668,44.111,84.494,44.241,84.261,44.556z"/>
	<path fill="#000000" d="M87.959,60.406c-0.14-0.051-0.308,0.058-0.457,0.153c-0.154,0.099-0.299,0.192-0.441,0.118   c-0.211-0.11-0.127-0.361-0.053-0.582c0.087-0.26,0.14-0.451,0.025-0.555c-0.31-0.276-0.509-0.162-0.702-0.05   c-0.123,0.072-0.263,0.153-0.398,0.062c-0.133-0.089-0.112-0.264-0.089-0.466c0.039-0.338,0.089-0.76-0.367-1.041   c-0.061-0.038-0.109-0.054-0.139-0.044c-0.062,0.02-0.124,0.165-0.174,0.282c-0.104,0.243-0.261,0.608-0.679,0.488   c-0.285-0.083-0.289-0.37-0.293-0.602c-0.005-0.341-0.009-0.636-0.54-0.729c-0.09-0.016-0.153-0.007-0.189,0.024   c-0.092,0.082-0.073,0.356-0.059,0.556c0.017,0.244,0.031,0.454-0.09,0.563c-0.039,0.035-0.107,0.074-0.216,0.055   c-0.397-0.068-0.504-0.396-0.589-0.66c-0.093-0.288-0.142-0.385-0.328-0.372c-0.182,0.014-0.238,0.161-0.323,0.42   c-0.078,0.236-0.175,0.531-0.479,0.622c-0.283,0.083-0.486-0.134-0.665-0.326c-0.223-0.239-0.348-0.343-0.527-0.257   c-0.225,0.107-0.238,0.292-0.241,0.583c-0.003,0.238-0.007,0.508-0.222,0.696c-0.065,0.057-0.13,0.059-0.173,0.053   c-0.119-0.018-0.188-0.131-0.266-0.262c-0.071-0.117-0.16-0.264-0.264-0.287c-0.054-0.011-0.12,0.01-0.197,0.061   c-0.39,0.262-0.333,0.574-0.278,0.877c0.038,0.213,0.082,0.455-0.122,0.588c-0.206,0.134-0.363-0.062-0.468-0.19   c-0.096-0.118-0.195-0.241-0.327-0.249c-0.116-0.006-0.276,0.079-0.46,0.258c-0.084,0.081-0.044,0.22,0.032,0.439   c0.079,0.231,0.179,0.52-0.029,0.738c-0.19,0.2-0.4,0.099-0.554,0.024c-0.22-0.105-0.394-0.189-0.68,0.285   c-0.13,0.214-0.037,0.383,0.124,0.641c0.107,0.17,0.218,0.347,0.218,0.552c0,0.271-0.23,0.371-0.434,0.458   c-0.209,0.092-0.424,0.184-0.519,0.444l-0.036,0.134c-0.167,0.628-0.26,1.216,0.437,1.5l0.198,0.081l-0.162,0.141   c-0.207,0.178-0.298,0.431-0.249,0.69c0.049,0.261,0.23,0.483,0.464,0.567l0.115,0.041l-0.033,0.118   c-0.042,0.145,0,0.333,0.102,0.467c0.063,0.085,0.179,0.188,0.362,0.188c0.056,0,0.114-0.011,0.175-0.029l0.111-0.035l0.048,0.107   c0.168,0.375,0.301,0.45,0.459,0.45c0.092,0,0.207-0.026,0.364-0.082l0.13-0.046l0.04,0.132c0.056,0.181,0.266,0.218,0.433,0.218   c0.246,0,0.56-0.089,0.761-0.217l0.067-0.043l0.068,0.039c0.087,0.05,0.186,0.075,0.292,0.075c0.373,0,0.825-0.331,0.903-0.823   l0.019-0.117l0.118,0.007l0,0c0.11,0,0.29-0.166,0.457-0.637c0.247-0.701,0.255-1.44,0.153-1.522   c-0.079,0.003-0.267,0.284-0.403,0.489c-0.324,0.486-0.77,1.153-1.458,1.153c0,0,0,0-0.001,0c-0.463,0-0.949-0.299-1.487-0.911   l-0.02-0.024l-0.009-0.029c-0.324-1.226,0.253-2.448,0.902-3.188l0,0c0.074-0.09,0.147-0.182,0.22-0.274   c0.759-0.954,1.543-1.94,3.297-2.032c0.631-0.035,1.329,0.256,1.854,0.771c0.406,0.4,0.641,0.874,0.633,1.271l0.002,0.011   c0,0.001,0,0.002,0,0.004c-0.001,0,0,0.001,0,0.001h-0.001c0.019,3.907-2.147,7.888-5.405,9.984   c0.711,0.428,3.127,1.725,4.121,2.177c0.392-0.226,0.733-0.731,0.459-1.806c-0.094-0.371,0.889,0.078,1.512-0.53   c0.452-0.441-0.621-0.914-0.237-1.661c0.174-0.338,0.883,0.516,1.485-0.237c0.449-0.562-0.71-0.873-0.297-1.604   c0.164-0.293,1.021,0.237,1.426-0.416c0.48-0.775-0.946-0.979-0.772-1.299c0.437-0.807,1.01-0.065,1.366-0.898   c0.273-0.64-1.06-0.505-0.934-0.864s0.994-0.224,1.112-0.563c0.311-0.888-0.678-0.545-0.625-1.167   c0.029-0.348,0.602-0.243,0.684-0.675c0.122-0.635-0.995-0.335-0.831-1.052c0.12-0.526,0.484-0.29,0.541-1.029   C88.165,60.572,88.064,60.444,87.959,60.406z"/>
	<path fill="#000000" d="M98.529,73.014c-0.357-0.768-4.635,6.839-15.74,1.734c0.069-0.003,0.155-0.013,0.246-0.034   c-1.238-0.592-3.742-1.945-4.099-2.195c-3.378-2.016-7.466-3.082-11.822-3.082c-2.821,0-5.654,0.451-8.192,1.305l-0.062,0.021   l-0.003-0.002c-0.758,0.224-2.236,0.593-3.669,0.95c-1.521,0.38-2.958,0.739-3.493,0.91v-0.001   c-1.163,0.463-2.242,0.757-3.379,1.063c-0.693,0.188-1.406,0.38-2.189,0.623c2.729,0.667,4.706,1.609,5.758,2.786   c0.509-0.12,1.292-0.456,1.437-1.392c0.887,0.647,1.621,0.303,2.55-0.601c0.215,0.14,0.734-0.04,1.024,0.326   c0.189,0.238,0.301,0.782,0.818,0.862c1.275,0.198,1.226-0.759,1.723-0.712c0.45,0.041,0.214,1.57,0.713,1.782   c1.96,0.831,2.069-1.021,2.673-0.724c0.786,0.388-0.354,1.313,1.426,1.733c0.97,0.229,0.892-1.367,1.664-1.129   c0.662,0.203-0.729,1.784,1.069,1.782c0.941-0.001,1.244-1.042,1.723-1.069c0.476-0.027-0.051,1.07,1.366,1.069   c0.988-0.001,0.975-1.168,1.427-1.188c0.438-0.021-0.055,1.189,1.188,1.188c1.166-0.001,0.88-1.417,1.307-1.426   c0.447-0.01,0.203,1.21,1.07,1.01c1.012-0.234,0.979-1.434,1.307-1.426c0.434,0.01,0.489,0.981,1.366,0.713   c1.216-0.372,0.356-1.258,0.943-1.582c0.76,0.894,1.415,0.687,1.946,0.1c-0.965-0.65-2.969-1.645-4.131-2.221   c-0.531-0.264-0.788-0.391-0.872-0.443l-0.147,0.156c-0.388,0.413-2.688,0.749-5.127,0.749c-1.874,0-5.263-0.2-6.907-1.538   l-0.396-0.321l0.501,0.09c0.929,0.169,1.141-0.016,1.724-0.531l0.116-0.103l0.08,0.043c0.177,0.094,0.413,0.144,0.684,0.144   c0.518,0,1.065-0.189,1.274-0.441l0.089-0.106l0.102,0.096c0.587,0.551,1.175,0.607,1.745,0.16l0.119-0.094l0.075,0.132   c0.153,0.266,0.39,0.412,0.666,0.412c0.291,0,0.592-0.157,0.826-0.432l0.155-0.183l0.069,0.229c0.118,0.388,0.477,0.446,0.68,0.446   c0.214,0,0.451-0.064,0.67-0.179l0.115-0.063l0.062,0.116c0.261,0.489,0.721,0.57,1.326,0.273l0.126-0.063l0.054,0.132   c0.266,0.665,0.528,0.729,1.095,0.812l0.219,0.032l0.14-0.194c0.05,0.035,0.423,0.221,0.854,0.435   c1.187,0.588,3.24,1.607,4.216,2.277C92.146,81.38,98.928,73.87,98.529,73.014z"/>
	<path fill="#000000" d="M79.607,63.495c0.104,0,0.221-0.016,0.331-0.031c0.531-0.079,0.669-0.499,0.789-0.87   c0.083-0.253,0.161-0.492,0.384-0.521c0.285-0.035,0.348,0.239,0.397,0.453c0.094,0.398,0.197,0.646,0.735,0.571   c0.757-0.105,0.821-0.631,0.873-1.053c0.032-0.263,0.063-0.511,0.29-0.555l0.122-0.023l0.03,0.12c0.187,0.75,0.507,0.75,0.612,0.75   c0.078,0,0.152-0.017,0.213-0.031c-0.031-0.305-0.233-0.672-0.551-0.984c-0.473-0.465-1.09-0.723-1.656-0.697   c-1.635,0.086-2.382,1.025-3.104,1.935c-0.059,0.073-0.117,0.146-0.176,0.22C79.123,63.437,79.362,63.495,79.607,63.495z"/>
	<path fill="#000000" d="M48.288,77.417c-0.25,0.104-0.669,0.172-1.024,0.022c-0.174-0.072-0.312-0.189-0.404-0.343   c-0.482,0.194-1.104,0.212-1.563-0.256c-0.489,0.28-0.934,0.277-1.385-0.008c-0.369,0.252-0.802,0.357-1.202,0.29   c-0.331-0.056-0.614-0.222-0.828-0.482c-0.233,0.179-0.537,0.271-0.869,0.258c-0.384-0.015-0.751-0.165-1.006-0.407   c-0.262,0.174-0.63,0.26-0.992,0.224c-0.25-0.024-0.458-0.102-0.601-0.221c-0.445,0.33-1.283,0.473-1.855,0.021   c-0.292,0.324-0.822,0.442-1.259,0.442c-0.005,0-0.011,0-0.017,0c-0.288-0.002-0.622-0.058-0.855-0.195   c-0.089,0.349-0.408,0.628-0.661,0.796c0.044,0.354,0.368,0.73,1.015,0.632c-0.119,0.712,0.712,1.841,1.722,1.603   c0.297,0.595,1.901,0.892,2.555,0.298c0.772,0.594,1.961,0.594,3.089-0.476c1.01,0.714,2.258,0.476,2.463-0.557   c0.982,0.26,2.185,0.206,3.014-0.334c0.733-0.003,1.558-0.078,1.969-0.394C49.118,77.834,48.436,77.354,48.288,77.417z"/>
	<path fill="#000000" d="M45.396,74.542l-0.038,0.012l-0.039-0.011c-0.771-0.214-1.492-0.407-2.214-0.56   c-0.949-0.141-1.959-0.256-3.028-0.345c-0.211-0.002-0.423-0.003-0.645,0.005l-0.126,0.004L39.3,73.578   c-1.927-0.135-4.028-0.188-6.278-0.153c-4.381,0.466-8.092,1.725-10.553,2.56c-1.401,0.477-2.414,0.819-2.965,0.819l0,0   c-0.122,0-0.221-0.016-0.303-0.049c-0.089-0.037-0.146-0.114-0.154-0.211c-0.097-1.161,9.274-9.045,16.517-13.537l0.394-0.245   l-0.207,0.415c-1.453,2.906-2.613,8.225-2.542,9.981c2.173-0.026,4.208,0.027,6.083,0.16c-0.066-2.668,2.054-6.22,3.558-7.83   c0.504-0.539,1.25-1.187,1.736-1.071c0.292,0.068,0.652,0.245,1.07,0.523c0.079,0.053,0.104,0.12,0.112,0.166   c0.025,0.152-0.093,0.307-0.243,0.502c-0.358,0.467-0.597,0.86-0.145,1.327c0.32,0.332,0.649,0.493,1.008,0.493   c0.249,0,0.479-0.074,0.682-0.141c0.323-0.105,0.592-0.152,0.76,0.017c0.179,0.18,0.091,0.413,0.006,0.64   c-0.13,0.344-0.276,0.734,0.181,1.229c0.121,0.132,0.288,0.196,0.511,0.196c0.269,0,0.571-0.095,0.814-0.17   c0.349-0.108,0.574-0.154,0.676-0.018c0.093,0.124,0.029,0.293-0.058,0.525c-0.154,0.41-0.387,1.03,0.137,1.626   c0.127,0.145,0.394,0.225,0.752,0.225c0.389,0,0.789-0.094,0.968-0.183l0.273-0.134l-0.089,0.29   c-0.061,0.194-0.032,0.427-0.01,0.612c0.005,0.043,0.008,0.076,0.012,0.112c0.69-0.193,1.877-0.489,3.12-0.801   c1.313-0.328,2.665-0.665,3.46-0.89c-1.856-1.413-5.556-6.08-4.732-7.742c0.284-0.574,1.586-0.855,3.979-0.859   c0.466,0,0.572,0.188,0.662,0.434c0.075,0.204,0.145,0.396,0.712,0.481c0.418,0.063,0.609-0.127,0.829-0.354   c0.19-0.196,0.406-0.418,0.785-0.418c0.111,0,0.228,0.019,0.355,0.058c0.598,0.175,0.618,0.53,0.634,0.815   c0.018,0.308,0.031,0.551,0.697,0.705c0.065,0.015,0.126,0.022,0.181,0.022c0.271,0,0.388-0.174,0.559-0.455   c0.166-0.276,0.354-0.589,0.793-0.589c0.08,0,0.169,0.012,0.261,0.034c0.626,0.151,0.623,0.568,0.62,0.874   c-0.003,0.343-0.005,0.592,0.678,0.658c0.465,0.047,0.598-0.202,0.758-0.526c0.167-0.336,0.375-0.754,1.049-0.754l0.05,0.001   c0.688,0.019,0.71,0.498,0.727,0.85c0.017,0.362,0.027,0.602,0.514,0.602c0.737,0,0.84-0.342,0.949-0.705   c0.088-0.29,0.187-0.62,0.64-0.642c0.645-0.036,0.77,0.387,0.868,0.722c0.104,0.349,0.186,0.625,0.725,0.625   c0.616,0,0.764-0.337,0.919-0.692c0.125-0.286,0.267-0.61,0.677-0.648c0.39-0.034,0.549,0.331,0.685,0.652   c0.119,0.277,0.207,0.459,0.345,0.459c0.088,0,0.254-0.066,0.547-0.365c0.104-0.457,0.443-0.607,0.694-0.716   c0.2-0.087,0.275-0.129,0.275-0.218c0-0.13-0.086-0.267-0.178-0.413c-0.153-0.245-0.346-0.552-0.127-0.915   c0.38-0.626,0.712-0.534,1.02-0.385c0.164,0.078,0.199,0.083,0.25,0.03c0.091-0.096,0.049-0.242-0.03-0.472   c-0.078-0.228-0.177-0.51,0.034-0.714c0.241-0.235,0.458-0.342,0.658-0.332c0.247,0.016,0.402,0.207,0.516,0.348   c0.042,0.05,0.104,0.126,0.131,0.136c0.042-0.035,0.031-0.13-0.004-0.322c-0.057-0.313-0.142-0.785,0.391-1.142   c0.14-0.094,0.274-0.127,0.4-0.099c0.214,0.048,0.34,0.256,0.432,0.407c0.021,0.036,0.05,0.082,0.072,0.114   c0.096-0.112,0.099-0.278,0.101-0.469c0.003-0.209,0.006-0.457,0.165-0.646c-1.659,0.319-3.503,0.582-5.552,0.77l-0.001,0.006   l-0.089,0.002c-0.655,0.06-1.332,0.111-2.03,0.155l-0.914,0.058l0.861-0.313c0.332-0.119,1.583-0.153,1.969-0.16   c0.064-0.219,0.239-0.71,0.513-0.843c0.215-0.104,0.382-0.151,0.524-0.151c0.227,0,0.354,0.121,0.476,0.238   c0.17,0.162,0.367,0.349,0.946,0.324c0.314-0.014,0.522-0.081,0.634-0.206c0.147-0.164,0.128-0.443,0.108-0.739   c-0.029-0.44-0.066-0.987,0.494-1.285c0.107-0.058,0.206-0.086,0.301-0.086c0.314,0,0.46,0.297,0.601,0.584   c0.171,0.347,0.303,0.573,0.576,0.573c0.09,0,0.195-0.024,0.313-0.074c0.445-0.189,0.383-0.516,0.245-1.033   c-0.117-0.438-0.25-0.935,0.238-1.222c0.122-0.072,0.231-0.107,0.334-0.107c0.318,0,0.449,0.321,0.564,0.605   c0.13,0.319,0.229,0.527,0.437,0.527c0.166,0,0.398-0.121,0.691-0.36c0.573-0.471,0.373-0.784,0.16-1.116   c-0.147-0.232-0.332-0.521-0.063-0.79c0.18-0.18,0.334-0.265,0.484-0.265c0.2,0,0.326,0.146,0.438,0.275   c0.108,0.126,0.182,0.202,0.276,0.202c0.079,0,0.224-0.054,0.467-0.309c0.471-0.49,0.182-0.878-0.051-1.188   c-0.129-0.172-0.25-0.334-0.143-0.481c0.001-0.002,0.103-0.136,0.249-0.261c-0.186-0.057-0.322-0.14-0.403-0.26   c-0.163-0.244-0.072-0.54,0.001-0.777c0.027-0.087,0.068-0.219,0.056-0.257c-0.008,0.011-0.097,0.021-0.156,0.028   c-0.177,0.022-0.42,0.052-0.605-0.107c-0.148-0.127-0.225-0.346-0.234-0.666c-0.005-0.183,0.042-0.328,0.141-0.431   c0.169-0.176,0.435-0.18,0.647-0.183c0.062-0.001,0.147-0.002,0.195-0.012c-0.038-0.051-0.168-0.076-0.294-0.101   c-0.296-0.059-0.742-0.145-0.822-0.675c-0.045-0.298-0.01-0.515,0.108-0.664c0.155-0.194,0.403-0.214,0.585-0.228   c0.047-0.005,0.115-0.01,0.152-0.019c-0.019-0.027-0.057-0.065-0.087-0.097c-0.161-0.163-0.432-0.438-0.283-0.972   c0.06-0.216,0.156-0.359,0.296-0.438c0.208-0.118,0.443-0.053,0.633,0c0.072,0.021,0.18,0.052,0.212,0.041   c0.021-0.06-0.007-0.146-0.057-0.282c-0.077-0.214-0.185-0.505,0.062-0.836c0.235-0.319,0.438-0.486,0.618-0.56   c-0.039-0.088-0.077-0.188-0.109-0.313c-0.067-0.262-0.753,0.024-1.04-0.139c-0.309-0.174,0.125-0.705-0.497-1.201   c-0.246-0.196-0.829,0.438-1.058,0.188c-0.425-0.466,0.367-0.773-0.189-1.317c-0.579-0.565-1.146,0.43-1.378,0.317   c-0.276-0.136-0.024-0.92-0.285-1.089c-0.677-0.438-0.55,0.671-1.612,0.42c-0.265-0.063,0.084-1.059-0.468-1.192   c-0.744-0.182-0.644,0.669-1.327,0.606c-0.62-0.058-0.276-0.934-1.012-0.963c-0.982-0.04-0.21,0.991-0.929,1.01   c-0.344,0.009-0.532-0.817-1.143-0.656c-0.63,0.165-0.114,0.724-0.58,1.071c-0.354,0.265-0.968-0.341-1.247-0.06   c-0.606,0.613-0.112,0.756-0.237,1.188c-0.126,0.434-0.601,0.108-0.756,0.842c-0.171,0.81,0.645,0.387,0.696,0.974   c0.032,0.376-0.95,0.314-0.646,1.032c0.207,0.485,0.637,0.014,0.942,0.42c0.162,0.216-0.435,0.666-0.091,0.971   c0.326,0.288,0.695-0.159,0.981,0.039c0.251,0.174,0.136,0.688,0.713,0.772c0.355,0.052,0.302-0.18,0.653-0.238   c0.121-0.019,0.247,0.38,0.651,0.327c0.309-0.041,0.194-0.235,0.359-0.268c2.183-0.421,2.003-2.903,1.516-2.922   c-0.519-0.019-0.705,2.205-2.459,1.734c-1.843-0.495-1.427-3.992,1.334-3.729c2.062,0.197,6.275,2.884,5.805,6.981   c-0.523,4.573-9.3,9.188-22.691,5.544c0.318-0.373,0.88-0.668,1.601-0.912c0.321-0.108,0.278,0.743,1.188,0.649   c0.77-0.079,0.809-0.84,1.022-1.192c0.22-0.361,0.591-0.284,0.85-0.148c0.358,0.188-0.217,1.257,1.083,0.914   c1.122-0.297,0.928-0.83,1.093-1.24c0.33-0.817,0.803-0.603,1.214-0.176c0.184,0.191,0.085,0.973,0.976,0.628   c1.362-0.528,0.507-2.196,0.688-2.232c0.349-0.071,0.588,1.392,1.626,0.985c0.437-0.171,0.381-0.738,0.737-0.886   c0.696-0.292,0.693-1.147,0.854-1.608c0.163-0.469,0.339-0.79,0.067-1.186c-2.553-3.728-3.274-4.332-4.516-4.387   c-7.416-0.331-9.357-4.351-7.87-7.069c2.259-4.129,5.163-0.327,5.428-0.614c0.278-0.301-1.709-3.429-5.136-2.188   c-0.269,0.098-0.25,0.411-0.397,0.709c-0.113,0.227-0.833-0.098-0.943,0.154c-0.086,0.194,0,0.605-0.076,0.818   c-0.078,0.218-0.676,0.034-0.667,0.278c0.013,0.353,0.153,0.77,0.095,1.022c-0.051,0.221-0.799,0.319-0.815,0.551   c-0.039,0.551,0.487,0.685,0.455,0.908c-0.036,0.253-0.729,0.415-0.753,0.67c-0.024,0.252,0.613,0.71,0.602,0.961   c-0.014,0.298-0.348,0.511-0.343,0.805c0.004,0.275,0.493,0.558,0.514,0.825c0.018,0.23-0.409,0.408-0.304,0.605   c0.477,0.888,0.916,0.657,1.004,0.985c0.082,0.302-0.141,0.504,0.304,0.93c0.524,0.501,0.825-0.039,1.062,0.227   c0.279,0.315,0.054,0.945,0.417,1.137c0.525,0.279,0.729-0.454,1.061-0.379c0.296,0.066,0.066,0.952,0.627,1.092   c0.675,0.167,0.831-0.476,1.212-0.434c0.35,0.039,0.289,0.938,0.871,1.237c0.528,0.271,0.735-0.695,0.985-0.606   c0.623,0.222,0.222,0.934,0.854,0.966c0.543,0.029,0.742-0.771,1.027-0.752c0.243,0.015,1.364,0.556,0.603,1.15   c-3.39,2.662-14.22,2.936-13.953,0.679c0.128-1.085,1.674-1.755,1.63-3.986c-0.019-0.961-1.718-2.2-1.718-2.2   c5.788-11.061,2.33-13.598,3.75-16.053c0.594-0.04,0.899-0.521,0.886-1.064c0.539,0.193,0.89,0.018,0.938-0.495   c0.52,0.25,0.914,0.295,1.269-0.145c0.302,0.352,0.651,0.439,0.983,0.11c0.281,0.372,0.5,0.416,0.821,0.168   c0.466,0.379,0.642,0.467,0.879,0.206c0.375,0.305,0.638,0.436,0.996,0.215c0.386,0.309,0.648,0.353,0.915,0.122   c1.201,0.088,2.313-0.178,3.178-1.391c0.37-0.519-1.214,0.4-3.053,0.342c-2.164-0.067-6.806-3.706-9.86,0.19   c-2.797,3.569,0.453,3.32-5.791,13.114c0,0-11.57-27.771-25.612-16.892c-9.457,7.327-5.115,25.639,9.668,26.572   c-7.902,8.258-27.863,3.812-27.603-2.033c0.119-2.662,2.369-2.948,4.174-2.179c2.482,1.06,3.595,3.869,4.268,3.662   c0.64-0.196-0.817-4.086-3.747-5.881c-0.396-0.243-0.791-0.308-1.053-0.463c-0.813-0.48-0.873-0.018-1.644-0.352   C6.686,39.421,6.315,40.019,5.78,39.9c-0.545-0.121-0.88,0.512-1.824,0.744c-0.398,0.098-0.24,0.866-0.778,1.013   c-0.807,0.22-0.716,1.17-0.958,1.431C2.05,43.27,1.651,43.45,1.545,44.183c-0.107,0.74,0.697,0.831,0.592,1.172   c-0.179,0.579-0.734-0.154-0.68,1.266c0.042,1.104,0.87,0.51,0.926,1.032c0.035,0.328-1,0.522-0.459,1.593   c0.384,0.762,0.994,0.07,1.246,0.441c0.187,0.273-0.872,0.676-0.198,1.656c0.592,0.86,1.299-0.089,1.57,0.279   c0.249,0.339-1.023,1.062-0.072,1.944c1.045,0.97,1.76-0.391,2.256-0.12c0.666,0.364-0.78,0.94,0.847,1.938   c0.917,0.563,1.544-1.029,1.884-0.805c0.33,0.218-0.156,1.16,0.776,1.722c0.953,0.573,1.135-0.918,1.603-0.644   c0.564,0.332-0.328,1.151,0.829,1.826c1.156,0.675,1.097-0.888,1.728-0.589c0.644,0.304,0.042,1.016,1.896,1.442   c0.479,0.111,0.804-1.442,1.257-1.315c0.627,0.176-0.13,1.388,1.851,1.931c0.662,0.181,0.795-0.988,1.456-0.936   c0.519,0.04,0.619,0.76,1.889,0.567c1.152-0.175,0.563-0.975,1.381-1.143c0.415-0.084,0.704,0.829,1.815,0.404   c0.883-0.337,0.519-0.965,1.276-1.282c0.563-0.237,0.869,0.604,1.648,0.225c0.88-0.431,0.542-1.706,1.163-1.693   c0.235,0.005,0.526,0.333,0.723,0.356c0.704,0.084,0.985-0.393,1.25-0.703c0.632-0.743,3.57-0.409,3.57-0.409   c-2.226,1.767-10.474,8.265-16.529,14.702c-0.559,0.593-1.946,0.409-1.904,1.96c0.017,0.597-1.557,0.273-1.519,1.148   c0.05,1.136-0.718,0.696-1.038,1.444c-0.154,0.358,0.069,0.787-0.117,1.105c-0.281,0.481-1.05,0.798-1.215,1.273   c-0.323,0.933,0.259,0.896,0.146,1.386c-0.165,0.706-0.945,0.899-0.749,2.124c0.035,0.221,0.49,0.224,0.57,0.43   c0.161,0.417-0.437,0.687,0.344,1.372c0.344,0.302,0.784-0.115,1.082,0.231c0.844,0.984,2.106,0.186,2.614,0.477   c0.826,0.472,2.105,0.191,2.673-0.772c0.603,0.513,2.139,0.811,2.792-0.773c0.772,0.299,2.02,0,2.436-0.949   c0.712,0.296,1.972,0.059,2.495-1.01c0.891,0.296,1.901,0.296,2.317-0.832c0.95,0.297,1.694,0.261,2.228-0.457   c0.354,0.206,0.894,0.268,1.303,0.216c0.254-0.148,0.745-0.507,0.684-0.914l-0.098-0.653l0.34,0.566   c0.098,0.163,0.452,0.279,0.859,0.282c0.532,0.002,0.975-0.169,1.143-0.441l0.087-0.141l0.117,0.118   c0.494,0.493,1.349,0.32,1.698-0.011l0.104-0.1l0.089,0.113c0.09,0.114,0.283,0.196,0.516,0.22   c0.337,0.032,0.689-0.062,0.895-0.238l0.099-0.085l0.086,0.1c0.204,0.237,0.55,0.393,0.902,0.405   c0.313,0.009,0.595-0.088,0.787-0.279l0.113-0.113l0.089,0.132c0.18,0.269,0.437,0.438,0.742,0.488   c0.357,0.06,0.75-0.048,1.078-0.295l0.076-0.058l0.078,0.056c0.42,0.295,0.798,0.295,1.265-0.004l0.098-0.062l0.074,0.088   c0.403,0.481,1.009,0.429,1.441,0.219l0.126-0.061l0.053,0.129c0.061,0.149,0.169,0.258,0.322,0.322   c0.264,0.11,0.604,0.066,0.823-0.023c0.354-0.148,1.177,0.521,1.657,1.043c0.715,0.297,1.193,1.261,0.383,1.813   c-1.208,0.823-3.401-0.57-3.141-0.012c0.942,2.011,6.698,1.556,4.47-2.87c0.008-0.001,0.018-0.003,0.026-0.004   c-1.097-1.146-3.132-2.055-5.923-2.689C45.571,74.485,45.486,74.511,45.396,74.542z M45.567,48.458   c1.179-0.026,2.031,1.507,1.838,2.389c-0.169,0.776-0.958,1.324-1.838,1.333c-0.778,0.008-1.408-0.678-1.536-1.37   C43.759,49.342,44.761,48.477,45.567,48.458z"/>
	<path fill="#000000" d="M80.906,58.146c0.168,0.182,0.278,0.289,0.397,0.253c0.162-0.049,0.224-0.202,0.305-0.452   c0.039-0.118,0.084-0.249,0.155-0.359c-0.385,0.094-0.778,0.185-1.187,0.27C80.705,57.932,80.813,58.047,80.906,58.146z"/>
	<path fill="#000000" d="M45.918,50.822c0.262-0.219-0.613-1.27-1.051-1.182C44.479,49.717,45.655,51.041,45.918,50.822z"/>
	
		<line fill="#000000" stroke="#FFFFFF" stroke-width="0" stroke-linecap="round" stroke-linejoin="round" x1="33.362" y1="77.484" x2="33.362" y2="77.484"/>
	<path fill="#000000" d="M75.755,73.52l-0.14,0.194l-0.219-0.032c-0.566-0.082-0.829-0.146-1.095-0.812l-0.054-0.132l-0.126,0.063   c-0.605,0.297-1.065,0.216-1.326-0.273l-0.062-0.116l-0.115,0.063c-0.219,0.114-0.456,0.179-0.67,0.179   c-0.203,0-0.562-0.059-0.68-0.446L71.2,71.979l-0.155,0.183c-0.234,0.274-0.535,0.432-0.826,0.432   c-0.276,0-0.513-0.146-0.666-0.412l-0.075-0.132l-0.119,0.094c-0.57,0.447-1.158,0.391-1.745-0.16l-0.102-0.096l-0.089,0.106   c-0.209,0.252-0.757,0.441-1.274,0.441c-0.271,0-0.507-0.05-0.684-0.144l-0.08-0.043l-0.116,0.103   c-0.583,0.516-0.795,0.7-1.724,0.531l-0.501-0.09l0.396,0.321c1.645,1.338,5.033,1.538,6.907,1.538   c2.439,0,4.739-0.336,5.127-0.749l0.147-0.156c0.084,0.053,0.341,0.18,0.872,0.443c1.162,0.576,3.166,1.57,4.131,2.221   c0.178,0.12,0.324,0.229,0.419,0.321l0.183-0.188c-0.094-0.091-0.232-0.197-0.4-0.312c-0.976-0.67-3.029-1.689-4.216-2.277   C76.178,73.74,75.805,73.555,75.755,73.52z"/>
</g>
<text x="0.0" y="117.5" font-size="5.0" font-weight="bold" font-family="Helvetica Neue, Helvetica, Arial-Unicode, Arial, Sans-serif" fill="#000000">Created by Christy Presler</text><text x="0.0" y="122.5" font-size="5.0" font-weight="bold" font-family="Helvetica Neue, Helvetica, Arial-Unicode, Arial, Sans-serif" fill="#000000">from the Noun Project</text></svg>