<svg xmlns="http://www.w3.org/2000/svg" xmlns:xlink="http://www.w3.org/1999/xlink" version="1.1" id="Layer_3" x="0px" y="0px" viewBox="5.0 -10.0 100.0 135.0" enable-background="new 0 0 100 100" xml:space="preserve" height="100px" width="100px">
<path d="M61.3,51c0-0.3,0.1-0.7,0.1-1c0-0.3,0-0.7-0.1-1h32.9l-32.7-5.7l9-13.9l-13.8,9.1L51,5.9v32.9c-0.3,0-0.7-0.1-1-0.1  s-0.7,0-1,0.1V5.9l-5.7,32.7l-13.9-9l9.1,13.8L5.9,49h32.9c0,0.3-0.1,0.7-0.1,1c0,0.3,0,0.7,0.1,1H5.9l32.7,5.7l-9,13.9l13.8-9.1  L49,94.1V61.3c0.3,0,0.7,0.1,1,0.1s0.7,0,1-0.1v32.9l5.7-32.7l13.9,9l-9.1-13.8L94.1,51H61.3z M50,56.2c-3.4,0-6.2-2.8-6.2-6.2  c0-3.4,2.8-6.2,6.2-6.2c3.4,0,6.2,2.8,6.2,6.2C56.2,53.4,53.4,56.2,50,56.2z"/>
<circle cx="50" cy="50" r="5.2"/>
<path d="M50,14.7c-19.4,0-35.3,15.8-35.3,35.3c0,19.4,15.8,35.3,35.3,35.3c19.4,0,35.3-15.8,35.3-35.3C85.3,30.6,69.4,14.7,50,14.7z   M84.5,50c0,0.4,0,0.8,0,1.2c-0.1,0-0.2,0-0.3,0c-1.7,1-3.1,2.4-4.8,3.4c0.2-1.5,0.4-3.1,0.4-4.7c0-0.3,0-0.6,0-1  c0.1,0,0.1,0,0.2-0.1c1.3-1.2,2.9-2,4.2-3.1C84.4,47.2,84.5,48.6,84.5,50z M83.7,57c-1.1-0.8-2.4-1.4-3.7-1.8c1.5-1,2.8-2.2,4.3-3.1  C84.3,53.8,84.1,55.4,83.7,57z M81.8,63.2c-1.1-0.8-2.5-1.7-3.3-2.8c1.7-0.7,3.2-2,5-2.3C83.1,59.8,82.5,61.5,81.8,63.2z M79.2,68.3  c-0.8-1.1-1.7-2-2.8-2.7c1.7-0.4,3.3-1,5-1.3C80.7,65.6,80,67,79.2,68.3z M75.3,73.4c-0.7-1.2-1.5-2.4-2.1-3.7  c1.8-0.1,3.5-0.3,5.3-0.3C77.5,70.8,76.4,72.1,75.3,73.4z M66.7,80.1c-0.3-1.3-0.7-2.5-1.1-3.8c1.4,0.6,2.7,1.3,4.2,1.8  C68.8,78.9,67.8,79.5,66.7,80.1z M21,50c0-16,13-29,29-29c16,0,29,13,29,29c0,16-13,29-29,29C34,79,21,66,21,50z M30.3,72.3  c-1.3,0.5-2.5,1.3-3.7,2c0.4-1.6,0.6-3.4,0.7-5.1C28.2,70.3,29.2,71.4,30.3,72.3z M21.8,40.3c-0.4,1.3-0.8,2.6-1.1,3.9  c-1.3-0.4-2.6-0.8-3.7-1.6C18.8,42.1,20.2,41,21.8,40.3z M19,36.5c1.7-0.4,3.4-1,5.2-1.4c-0.8,1.3-1.4,2.7-2,4.2  C21.4,38.1,20.2,37.3,19,36.5z M21,56.8c0.3,1.2,0.6,2.4,1.1,3.6c-1.5,0.2-3,0.3-4.5,0.3C18.3,59,19.9,58,21,56.8z M16.7,54.5  c1.2-0.9,2.4-1.6,3.6-2.6c0.1,1.3,0.2,2.5,0.5,3.7C19.4,55.2,18.1,54.8,16.7,54.5z M24.1,64.7c-1.3,0.3-2.5,0.8-3.8,1.1  c0.9-1.4,1.3-3.1,2.1-4.5C22.9,62.4,23.5,63.6,24.1,64.7z M21.6,31.4c1.8,0,3.6-0.2,5.3-0.3c-0.8,1-1.5,2-2.2,3.1  C23.5,33.5,22.5,32.5,21.6,31.4z M25.7,26.6c1.6,0.4,3.4,0.6,5.1,0.7c-1.1,0.9-2.1,1.9-3.1,3C27.2,29,26.4,27.8,25.7,26.6z   M69.7,27.7c1.3-0.5,2.5-1.3,3.7-2c-0.4,1.6-0.6,3.4-0.7,5.1C71.8,29.7,70.8,28.6,69.7,27.7z M75.2,65.8c1.3,0.7,2.3,1.7,3.1,2.8  c-1.8,0-3.6,0.2-5.3,0.3C73.8,67.9,74.6,66.9,75.2,65.8z M77.8,60.8c0.8,1.1,2.1,1.9,3.2,2.8c-1.7,0.4-3.4,1-5.2,1.4  C76.5,63.6,77.2,62.2,77.8,60.8z M79.2,55.8c1.3,0.4,2.6,0.8,3.7,1.6c-1.7,0.5-3.1,1.6-4.8,2.3C78.6,58.4,78.9,57.1,79.2,55.8z   M79,43.2c-0.3-1.2-0.6-2.4-1.1-3.6c1.5-0.2,3-0.3,4.5-0.3C81.7,41,80.1,42,79,43.2z M83.3,45.5c-1.2,0.9-2.4,1.6-3.6,2.6  c-0.1-1.3-0.2-2.5-0.5-3.7C80.6,44.8,81.9,45.2,83.3,45.5z M75.9,35.3c1.3-0.3,2.5-0.8,3.8-1.1c-0.9,1.4-1.3,3.1-2.1,4.5  C77.1,37.6,76.5,36.4,75.9,35.3z M60.6,82.4C59,81.7,58,80.1,56.8,79c1.2-0.3,2.4-0.6,3.6-1.1C60.6,79.4,60.6,80.9,60.6,82.4z   M64.7,75.9c0.3,1.3,0.8,2.5,1.1,3.8c-1.4-0.9-3.1-1.3-4.5-2.1C62.4,77.1,63.6,76.5,64.7,75.9z M55.6,79.2c-0.4,1.3-0.8,2.7-1.2,4  c-0.9-1.2-1.6-2.4-2.6-3.6C53.2,79.6,54.4,79.5,55.6,79.2z M56.3,79.7c1.2,1.1,2.2,2.5,3.7,3.3c-1.6,0.5-3.3,0.9-4.9,1.1  C55.4,82.6,55.9,81.1,56.3,79.7z M61.2,78.4c1.5,0.8,3.2,1.2,4.5,2.2c-1.4,0.7-2.8,1.3-4.3,1.9C61.4,81.1,61.4,79.8,61.2,78.4z   M67.8,76.5c-0.1-0.1-2.1-1-2.1-0.8c0-0.1-0.1-0.2-0.2-0.3c1-0.6,1.9-1.3,2.8-2c0.5,1.3,1.2,2.6,1.6,4  C69.2,77.1,68.5,76.8,67.8,76.5z M72.3,69.7c0.5,1.3,1.3,2.5,2,3.7c-1.6-0.4-3.4-0.6-5.1-0.7C70.3,71.8,71.4,70.8,72.3,69.7z   M84.1,44.9c-1.5-0.4-3-0.8-4.4-1.3c1.1-1.2,2.5-2.2,3.3-3.7C83.5,41.6,83.8,43.2,84.1,44.9z M82.5,38.6c-1.4,0-2.7,0-4.1,0.2  c0.8-1.5,1.2-3.2,2.2-4.5C81.4,35.6,82,37.1,82.5,38.6z M80.1,33.3c-1.3,0.3-2.5,0.7-3.8,1.1c0.6-1.4,1.3-2.7,1.8-4.2  C78.9,31.2,79.5,32.2,80.1,33.3z M74.2,25.5c1.2,1.2,2.3,2.4,3.3,3.7c-1.4,0.3-2.6,1-4,1.5C73.5,29,73.8,27.1,74.2,25.5z M77.4,30  c-0.2,0.7-0.5,1.5-0.9,2.2c-0.1,0.1-1,2.1-0.8,2.1c-0.1,0-0.2,0.1-0.3,0.2c-0.6-1-1.3-1.9-2-2.8C74.7,31.1,76,30.4,77.4,30z   M73.4,24.7c-1.2,0.7-2.4,1.6-3.7,2.1c-0.1-1.8-0.3-3.5-0.3-5.3C70.8,22.5,72.1,23.6,73.4,24.7z M68.9,27c-1-0.8-2-1.5-3.1-2.2  c0.7-1.3,1.7-2.3,2.8-3.1C68.6,23.4,68.7,25.2,68.9,27z M68.3,20.8c-1.1,0.8-2,1.7-2.7,2.8c-0.4-1.7-1-3.3-1.3-5  C65.6,19.3,67,20,68.3,20.8z M64.9,24.2c-1.3-0.8-2.7-1.4-4.2-2c1.1-0.8,2-2.1,2.8-3.2C63.9,20.8,64.5,22.5,64.9,24.2z M63.2,18.2  c-0.8,1.1-1.7,2.5-2.8,3.3c-0.7-1.7-2-3.2-2.3-5C59.8,16.9,61.5,17.5,63.2,18.2z M59.7,21.8c-1.3-0.4-2.6-0.8-3.9-1.1  c0.4-1.3,0.8-2.6,1.6-3.7C57.9,18.8,59,20.2,59.7,21.8z M57,16.3c-0.8,1.1-1.4,2.4-1.8,3.7c-1-1.5-2.2-2.8-3.1-4.3  C53.8,15.7,55.4,15.9,57,16.3z M50,15.5c0.4,0,0.8,0,1.2,0c0,0.1,0,0.2,0,0.3c1,1.7,2.4,3.1,3.4,4.8c-1.5-0.2-3.1-0.4-4.7-0.4  c-0.3,0-0.6,0-1,0c0-0.1,0-0.1-0.1-0.2c-1.2-1.3-2-2.9-3.1-4.3C47.2,15.6,48.6,15.5,50,15.5z M48.1,20.3c-1.3,0.1-2.5,0.2-3.7,0.5  c0.4-1.3,0.8-2.7,1.2-4C46.4,17.9,47.2,19.2,48.1,20.3z M44.9,15.9c-0.4,1.5-0.8,3-1.3,4.4c-1.2-1.1-2.2-2.5-3.7-3.3  C41.6,16.5,43.2,16.2,44.9,15.9z M43.2,21c-1.2,0.3-2.4,0.6-3.6,1.1c-0.2-1.5-0.3-3-0.3-4.5C41,18.3,42,19.9,43.2,21z M38.6,17.5  c0,1.4,0,2.7,0.2,4.1c-1.5-0.8-3.2-1.2-4.5-2.2C35.6,18.6,37.1,18,38.6,17.5z M38.7,22.4c-1.2,0.5-2.3,1-3.4,1.6  c-0.3-1.3-0.8-2.5-1.1-3.8C35.6,21.2,37.3,21.6,38.7,22.4z M33.3,19.9c0.3,1.3,0.7,2.5,1.1,3.8c-1.4-0.6-2.7-1.3-4.2-1.8  C31.2,21.1,32.2,20.5,33.3,19.9z M32.2,23.5c0.1,0.1,2.1,1,2.1,0.8c0,0.1,0.1,0.2,0.2,0.3c-1,0.6-1.9,1.3-2.8,2  c-0.5-1.3-1.2-2.6-1.6-4C30.8,22.9,31.5,23.2,32.2,23.5z M29.2,22.5c0.3,1.4,1,2.6,1.5,4c-1.7,0-3.6-0.3-5.2-0.7  C26.7,24.6,27.9,23.5,29.2,22.5z M24.7,26.6c0.7,1.2,1.6,2.4,2.1,3.7c-1.8,0.1-3.5,0.3-5.3,0.3C22.5,29.2,23.6,27.9,24.7,26.6z   M20.8,31.7c0.8,1.1,1.7,2,2.8,2.7c-1.7,0.4-3.3,1-5,1.3C19.3,34.4,20,33,20.8,31.7z M18.2,36.8c1.1,0.8,2.5,1.7,3.3,2.8  c-1.7,0.7-3.2,2-5,2.3C16.9,40.2,17.5,38.5,18.2,36.8z M16.3,43c1.1,0.8,2.4,1.4,3.7,1.8c-1.5,1-2.8,2.2-4.3,3.1  C15.7,46.2,15.9,44.6,16.3,43z M15.5,50c0-0.4,0-0.8,0-1.2c0.1,0,0.2,0,0.3,0c1.7-1,3.1-2.4,4.8-3.4c-0.2,1.5-0.4,3.1-0.4,4.7  c0,0.3,0,0.6,0,1c-0.1,0-0.1,0-0.2,0.1c-1.3,1.2-2.9,2-4.3,3.1C15.6,52.8,15.5,51.4,15.5,50z M15.9,55.1c1.5,0.4,3,0.8,4.4,1.3  c-1.1,1.2-2.5,2.2-3.3,3.7C16.5,58.4,16.2,56.8,15.9,55.1z M17.5,61.4c1.4,0,2.7,0,4.1-0.2c-0.8,1.5-1.2,3.2-2.2,4.5  C18.6,64.4,18,62.9,17.5,61.4z M19.9,66.7c1.3-0.3,2.5-0.7,3.8-1.1c-0.6,1.4-1.3,2.7-1.8,4.2C21.1,68.8,20.5,67.8,19.9,66.7z   M25.8,74.5c-1.2-1.2-2.3-2.4-3.3-3.7c1.4-0.3,2.6-1,4-1.5C26.5,71,26.2,72.9,25.8,74.5z M22.6,70c0.2-0.7,0.5-1.5,0.9-2.2  c0.1-0.1,1-2.1,0.8-2.1c0.1,0,0.2-0.1,0.3-0.2c0.6,1,1.3,1.9,2,2.8C25.3,68.9,24,69.6,22.6,70z M26.6,75.3c1.2-0.7,2.4-1.6,3.7-2.1  c0.1,1.8,0.3,3.5,0.3,5.3C29.2,77.5,27.9,76.4,26.6,75.3z M31.1,73c1,0.8,2,1.5,3.1,2.2c-0.7,1.3-1.7,2.3-2.8,3.1  C31.4,76.6,31.3,74.8,31.1,73z M31.7,79.2c1.1-0.8,2-1.7,2.7-2.8c0.4,1.7,1,3.3,1.3,5C34.4,80.7,33,80,31.7,79.2z M35.1,75.8  c1.3,0.8,2.7,1.4,4.2,2c-1.1,0.8-2,2.1-2.8,3.2C36.1,79.2,35.5,77.5,35.1,75.8z M36.8,81.8c0.8-1.1,1.7-2.5,2.8-3.3  c0.7,1.7,2,3.2,2.3,5C40.2,83.1,38.5,82.5,36.8,81.8z M40.3,78.2c1.3,0.4,2.6,0.8,3.9,1.1c-0.4,1.3-0.8,2.6-1.6,3.7  C42.1,81.2,41,79.8,40.3,78.2z M43,83.7c0.8-1.1,1.4-2.4,1.8-3.7c1,1.5,2.2,2.8,3.1,4.3C46.2,84.3,44.6,84.1,43,83.7z M48.8,84.4  c0-0.1,0-0.2,0-0.3c-1-1.7-2.4-3.1-3.4-4.8c1.5,0.2,3.1,0.4,4.7,0.4c0.3,0,0.6,0,1,0c0,0.1,0,0.1,0.1,0.2c1.2,1.3,2,2.9,3.1,4.3  c-1.4,0.2-2.8,0.3-4.2,0.3C49.6,84.5,49.2,84.4,48.8,84.4z M70.8,77.5c-0.3-1.4-1-2.6-1.5-4c1.7,0,3.6,0.3,5.2,0.7  C73.3,75.4,72.1,76.5,70.8,77.5z"/>
<text x="0.0" y="117.5" font-size="5.0" font-weight="bold" font-family="Helvetica Neue, Helvetica, Arial-Unicode, Arial, Sans-serif" fill="#000000">Created by sagit milshtein</text><text x="0.0" y="122.5" font-size="5.0" font-weight="bold" font-family="Helvetica Neue, Helvetica, Arial-Unicode, Arial, Sans-serif" fill="#000000">from the Noun Project</text></svg>