<svg xmlns="http://www.w3.org/2000/svg" xmlns:xlink="http://www.w3.org/1999/xlink" version="1.1" id="Layer_1" x="0px" y="0px" width="50px" height="50px" viewBox="2.5 -5.0 50.0 67.5" enable-background="new 0 0 50 50" xml:space="preserve">
<g id="game">
	<path d="M22.979,19.467v9.25c0,1.98,1.451,3.595,3.229,3.595c1.777,0,3.223-1.614,3.223-3.595v-9.174   c3.514-1.278,6.043-4.615,6.043-8.564c0-5.04-4.102-9.143-9.144-9.143c-5.04,0-9.143,4.103-9.143,9.143   C17.188,14.836,19.597,18.127,22.979,19.467z M26.813,28.722c0,0.591-0.359,0.97-0.602,0.97c-0.28,0-0.604-0.425-0.604-0.97v-8.668   c0.244,0.019,0.479,0.073,0.727,0.073c0.163,0,0.317-0.039,0.48-0.049v8.644H26.813z M26.335,4.461   c3.596,0,6.518,2.923,6.518,6.519s-2.922,6.518-6.518,6.518c-3.595,0-6.518-2.922-6.518-6.518S22.74,4.461,26.335,4.461z"/>
	<path d="M42.933,34.924c-0.065-0.222-0.167-0.431-0.331-0.588C42.6,34.332,42.6,34.332,42.6,34.332l-5.747-5.483   c-0.245-0.233-0.567-0.361-0.906-0.361h-4.752c-0.726,0-1.312,0.587-1.312,1.312c0,0.721,0.586,1.312,1.312,1.312h4.224   l2.991,2.854h-24.4l2.99-2.854h4.042c0.722,0,1.313-0.591,1.313-1.312c0-0.726-0.591-1.312-1.313-1.312h-4.567   c-0.338,0-0.66,0.128-0.906,0.361l-5.746,5.483c-0.002,0.004-0.002,0.008-0.005,0.012c-0.157,0.155-0.256,0.354-0.317,0.57   c-0.023,0.07-0.033,0.133-0.043,0.208c-0.006,0.054-0.034,0.1-0.034,0.156v9.073c0,0.726,0.589,1.312,1.312,1.312h30.952   c0.727,0,1.313-0.587,1.313-1.312v-9.073c0-0.065-0.028-0.115-0.037-0.176C42.957,35.037,42.946,34.984,42.933,34.924z    M12.048,43.034V36.59H40.38v6.444H12.048z"/>
	<path d="M23.689,15.528c0.191,0.103,0.399,0.151,0.603,0.151c0.474,0,0.93-0.259,1.163-0.707c0.337-0.644,0.084-1.435-0.559-1.769   c-0.857-0.445-1.391-1.348-1.391-2.353c0-1.491,1.211-2.703,2.703-2.703c0.341,0,0.632,0.051,0.86,0.15   c0.664,0.29,1.441-0.007,1.73-0.674c0.286-0.663-0.01-1.438-0.675-1.729c-0.566-0.247-1.211-0.373-1.916-0.373   c-2.936,0-5.328,2.391-5.328,5.328C20.883,12.838,21.958,14.63,23.689,15.528z"/>
</g>
<text x="0.0" y="58.75" font-size="2.5" font-weight="bold" font-family="Helvetica Neue, Helvetica, Arial-Unicode, Arial, Sans-serif" fill="#000000">Created by Lubo&#353; Volkov</text><text x="0.0" y="61.25" font-size="2.5" font-weight="bold" font-family="Helvetica Neue, Helvetica, Arial-Unicode, Arial, Sans-serif" fill="#000000">from the Noun Project</text></svg>