<svg xmlns="http://www.w3.org/2000/svg" xmlns:xlink="http://www.w3.org/1999/xlink" version="1.1" id="Layer_1" x="0px" y="0px" width="100px" height="100px" viewBox="5.0 -10.0 100.0 135.0" enable-background="new 0 0 100 100" xml:space="preserve">
<g>
	<path d="M72.06,59.642c-0.417-1.518-1.252-2.723-2.326-3.513V44.256c0-8.945-2.017-10.964-9.912-13.359l0.53-11.444   c0.119-2.594-0.835-5.09-2.688-7.029c-1.952-2.043-4.689-3.215-7.51-3.215s-5.558,1.172-7.51,3.215   c-1.853,1.939-2.807,4.435-2.688,7.029l0.53,11.444c-7.896,2.395-9.912,4.414-9.912,13.359v11.874   c-1.074,0.79-1.909,1.995-2.326,3.513c-0.656,2.386-0.32,4.714,0.921,6.389c0.195,0.262,0.491,0.42,0.83,0.404   c0.326-0.008,0.627-0.175,0.807-0.447l2.091-3.154l0.114,3.124c0.012,0.326,0.182,0.626,0.456,0.803   c0.164,0.106,0.353,0.161,0.543,0.161c0.127,0,0.255-0.024,0.376-0.073c0.075-0.031,1.172-0.492,2.229-1.556v1.323v1v1v17.778   c-2.611,1.298-4.399,3.484-4.504,3.615c-0.241,0.3-0.289,0.711-0.122,1.058c0.166,0.347,0.517,0.568,0.901,0.568h15.11   c0.553,0,1-0.448,1-1v-3.19v-1V68.616h2.307v17.829v1v3.19c0,0.552,0.447,1,1,1h15.11c0.385,0,0.735-0.221,0.901-0.568   c0.167-0.347,0.119-0.758-0.122-1.058c-0.104-0.131-1.893-2.317-4.504-3.615V68.616v-1v-1v-1.323   c1.057,1.063,2.152,1.525,2.229,1.556c0.121,0.049,0.249,0.073,0.376,0.073c0.19,0,0.379-0.054,0.543-0.161   c0.274-0.177,0.444-0.477,0.456-0.803l0.114-3.124l2.091,3.154c0.18,0.271,0.48,0.438,0.807,0.447   c0.332,0.02,0.635-0.143,0.83-0.404C72.38,64.356,72.716,62.028,72.06,59.642z M44.091,13.806c1.576-1.65,3.786-2.597,6.063-2.597   s4.487,0.947,6.063,2.597c1.471,1.54,2.229,3.513,2.136,5.555l-0.601,12.974l-2.233,1.898c-1.227,0.61-3.754,1.283-5.365,1.283   c-1.612,0-4.141-0.673-5.367-1.284l-2.231-1.896l-0.601-12.975C41.861,17.319,42.62,15.346,44.091,13.806z M53.404,36.025v0.006   l-0.5,0.425v-0.311C53.072,36.107,53.237,36.067,53.404,36.025z M52.404,36.255v0.626l-0.5,0.425v-0.963   C52.07,36.315,52.234,36.288,52.404,36.255z M51.404,36.419v1.312l-0.5,0.425v-1.679C51.065,36.462,51.233,36.442,51.404,36.419z    M50.404,36.505v2.075l-0.25,0.213l-0.25-0.212v-2.076c0.082,0.003,0.173,0.011,0.25,0.011S50.322,36.508,50.404,36.505z    M49.404,36.477v1.679l-0.5-0.425v-1.312C49.075,36.442,49.243,36.462,49.404,36.477z M48.404,36.343v0.963l-0.5-0.425v-0.626   C48.074,36.288,48.238,36.315,48.404,36.343z M47.404,36.146v0.311l-0.511-0.434C47.063,36.066,47.232,36.107,47.404,36.146z    M36.434,61.783c-0.289,1.055-0.906,1.819-1.487,2.337l-0.163-4.469c-0.016-0.435-0.31-0.809-0.728-0.926   c-0.09-0.025-0.182-0.038-0.271-0.038c-0.329,0-0.645,0.163-0.833,0.447l-2.843,4.288c-0.262-0.973-0.245-2.108,0.068-3.25   c0.506-1.842,1.769-2.994,3.307-3.048h0.259c0.24,0.011,0.481,0.043,0.72,0.109c0.719,0.197,1.299,0.655,1.68,1.325   C36.647,59.448,36.754,60.623,36.434,61.783z M47.001,89.636H35.313c1.24-1.038,3.06-2.19,5.027-2.19h6.66V89.636z M47.303,41.217   v25.399h-8.688V55.124V41.448c0-0.552-0.447-1-1-1s-1,0.448-1,1v13.676h-4.04V44.256c0-8.158,1.363-9.331,8.865-11.555l7.941,6.749   L47.303,41.217z M64.989,89.636H53.308v-2.19h6.66C61.926,87.445,63.746,88.597,64.989,89.636z M62.693,40.448   c-0.553,0-1,0.448-1,1v13.676v11.492H51.308h-2.307h-0.698V41.68L58.867,32.7c7.502,2.225,8.866,3.397,8.866,11.556v10.868h-4.04   V41.448C63.693,40.896,63.246,40.448,62.693,40.448z M70.2,63.422l-2.843-4.288c-0.24-0.361-0.686-0.529-1.104-0.41   c-0.418,0.118-0.712,0.492-0.728,0.926l-0.163,4.479c-0.58-0.515-1.195-1.28-1.488-2.349c-0.319-1.159-0.213-2.334,0.293-3.224   c0.381-0.669,0.961-1.127,1.68-1.325c0.239-0.065,0.479-0.098,0.72-0.109h0.259c1.538,0.054,2.801,1.207,3.307,3.048   C70.445,61.314,70.462,62.449,70.2,63.422z"/>
	<circle cx="51.646" cy="57.386" r="0.858"/>
	<circle cx="51.646" cy="50.25" r="0.859"/>
	<circle cx="51.646" cy="43.117" r="0.859"/>
	<path d="M46.312,22.436c0.685,0,1.329-0.267,1.814-0.752c0.484-0.485,0.752-1.129,0.753-1.814c0-0.687-0.267-1.331-0.752-1.816   c-0.969-0.971-2.66-0.969-3.631,0c-0.485,0.485-0.753,1.129-0.752,1.814c0,0.685,0.268,1.33,0.754,1.815   C44.982,22.168,45.626,22.436,46.312,22.436z M45.203,18.761c0.297-0.296,0.69-0.459,1.109-0.459c0.418,0,0.812,0.163,1.107,0.46   c0.296,0.295,0.459,0.689,0.459,1.107c-0.001,0.385-0.145,0.746-0.397,1.032c0.188-0.261,0.152-0.624-0.098-0.835   c-0.265-0.221-0.655-0.186-0.876,0.076c-0.218,0.265-0.187,0.653,0.076,0.874c0.255,0.211,0.618,0.183,0.845-0.051   c-0.004,0.003-0.006,0.008-0.01,0.012c-0.296,0.296-0.689,0.459-1.107,0.459s-0.811-0.163-1.106-0.459   c-0.298-0.297-0.461-0.69-0.461-1.108C44.744,19.45,44.907,19.057,45.203,18.761z"/>
	<path d="M53.997,22.435c0.685,0,1.329-0.267,1.813-0.752c0.485-0.485,0.752-1.129,0.753-1.814c0.001-0.686-0.267-1.332-0.753-1.817   c-0.97-0.971-2.659-0.969-3.629,0c-0.485,0.485-0.753,1.13-0.753,1.815c-0.001,0.685,0.267,1.33,0.753,1.815   C52.667,22.167,53.312,22.435,53.997,22.435z M55.104,20.976c-0.011,0.01-0.025,0.013-0.036,0.023   c0.016-0.014,0.034-0.023,0.049-0.039C55.111,20.965,55.108,20.971,55.104,20.976z M52.889,18.759   c0.296-0.296,0.689-0.459,1.108-0.459c0.418,0,0.811,0.163,1.106,0.46c0.297,0.296,0.46,0.69,0.46,1.108   c0,0.387-0.146,0.75-0.401,1.037c0.192-0.263,0.158-0.629-0.094-0.841c-0.264-0.219-0.655-0.186-0.875,0.077   s-0.187,0.652,0.077,0.873c0.184,0.153,0.427,0.177,0.634,0.092c-0.604,0.432-1.479,0.406-2.016-0.131   c-0.297-0.296-0.46-0.689-0.46-1.107C52.429,19.449,52.592,19.056,52.889,18.759z"/>
	<path d="M53.996,23.97c0.219,0,0.441-0.019,0.68-0.058c0.137-0.022,0.229-0.151,0.207-0.287c-0.022-0.135-0.143-0.232-0.287-0.206   c-0.212,0.035-0.408,0.051-0.6,0.051c-0.808,0-1.574-0.264-2.216-0.762c-0.109-0.085-0.268-0.066-0.351,0.044   c-0.085,0.109-0.065,0.266,0.044,0.351C52.204,23.67,53.076,23.97,53.996,23.97z"/>
	<path d="M48.527,22.708c-0.641,0.499-1.407,0.762-2.215,0.762c-0.192,0-0.388-0.017-0.598-0.051   c-0.151-0.021-0.265,0.07-0.288,0.206c-0.022,0.136,0.07,0.265,0.206,0.287c0.238,0.039,0.46,0.058,0.68,0.058   c0.92,0,1.792-0.3,2.521-0.867c0.109-0.084,0.129-0.242,0.044-0.351C48.793,22.642,48.636,22.623,48.527,22.708z"/>
	<path d="M45.147,28.718h0.075v2.914c0,1.09,0.887,1.978,1.977,1.978c0.59,0,1.115-0.265,1.478-0.676   c0.362,0.411,0.888,0.676,1.478,0.676s1.114-0.265,1.477-0.676c0.362,0.411,0.887,0.676,1.478,0.676   c1.091,0,1.978-0.887,1.978-1.978v-2.914h0.075c0.831,0,1.507-0.675,1.507-1.506s-0.676-1.506-1.507-1.506h-0.075v-0.244   c0-0.276-0.224-0.5-0.5-0.5s-0.5,0.224-0.5,0.5v6.17c0,0.539-0.438,0.978-0.978,0.978s-0.978-0.438-0.978-0.978v-6.17   c0-0.276-0.224-0.5-0.5-0.5s-0.5,0.224-0.5,0.5v6.17c0,0.539-0.438,0.978-0.977,0.978c-0.539,0-0.978-0.438-0.978-0.978v-6.17   c0-0.276-0.224-0.5-0.5-0.5s-0.5,0.224-0.5,0.5v6.17c0,0.539-0.438,0.978-0.978,0.978c-0.538,0-0.977-0.438-0.977-0.978v-6.17   c0-0.276-0.224-0.5-0.5-0.5s-0.5,0.224-0.5,0.5v0.244h-0.075c-0.831,0-1.507,0.675-1.507,1.506S44.316,28.718,45.147,28.718z"/>
</g>
<text x="0.0" y="117.5" font-size="5.0" font-weight="bold" font-family="Helvetica Neue, Helvetica, Arial-Unicode, Arial, Sans-serif" fill="#000000">Created by Iain Hector</text><text x="0.0" y="122.5" font-size="5.0" font-weight="bold" font-family="Helvetica Neue, Helvetica, Arial-Unicode, Arial, Sans-serif" fill="#000000">from the Noun Project</text></svg>