<svg xmlns="http://www.w3.org/2000/svg" xmlns:xlink="http://www.w3.org/1999/xlink" version="1.1" id="Calque_1" x="0px" y="0px" width="100px" height="100px" viewBox="5.0 -10.0 100.0 135.0" enable-background="new 0 0 100 100" xml:space="preserve">
<g>
	<path d="M69.933-0.002L0,69.931l30.071,30.071L100,30.073L69.933-0.002z M2.829,69.931L69.933,2.826l27.239,27.247L30.071,97.174   L2.829,69.931z"/>
	<path d="M72.031,6.293L6.295,72.029l23.776,23.777l65.733-65.732L72.031,6.293z M46.16,34.993l2.058,2.058L31.466,53.803   l-2.059-2.058L46.16,34.993z M9.124,72.029l18.869-18.87l3.473,3.472l19.58-19.58l-3.471-3.473L72.031,9.122l20.945,20.952   L30.071,92.979L9.124,72.029z"/>
	<path d="M40.553,65.727l6.993,6.993l19.58-19.58l-6.992-6.994L40.553,65.727z M47.546,69.892l-4.164-4.165l16.752-16.752   l4.164,4.165L47.546,69.892z"/>
	<path d="M55.24,41.249l-3.495-3.498L32.163,57.332l3.497,3.497L55.24,41.249z M51.744,40.58l0.668,0.668L35.66,58.001l-0.669-0.669   L51.744,40.58z"/>
	<path d="M55.939,41.948L36.358,61.529l3.496,3.497l19.58-19.58L55.939,41.948z M39.187,61.529l16.752-16.752l0.668,0.668   L39.854,62.198L39.187,61.529z"/>
	<path d="M38.886,72.311l-4.955-4.957l-3.965,3.964l-3.963-3.964l-4.957,4.956l3.965,3.965l-3.965,3.965l4.956,4.955l3.964-3.965   l3.965,3.964l4.957-4.954l-3.965-3.965L38.886,72.311z M31.38,72.731l2.551-2.55l2.127,2.129l-2.549,2.55   c-0.125,0.125-0.223,0.266-0.308,0.411c-0.161-0.521-0.433-1.005-0.83-1.402c-0.396-0.397-0.88-0.669-1.401-0.83   C31.115,72.954,31.255,72.856,31.38,72.731z M23.874,72.31l2.129-2.128l2.549,2.55c0.125,0.125,0.266,0.223,0.411,0.308   c-0.522,0.161-1.006,0.433-1.403,0.83c-0.396,0.397-0.667,0.88-0.828,1.401c-0.085-0.146-0.183-0.285-0.307-0.41L23.874,72.31z    M28.552,79.815l-2.55,2.551l-2.128-2.127l2.551-2.551c0.124-0.125,0.222-0.265,0.307-0.41c0.161,0.521,0.433,1.005,0.83,1.401   s0.881,0.669,1.402,0.829C28.816,79.595,28.675,79.692,28.552,79.815z M29.966,77.675c-0.358,0-0.717-0.137-0.99-0.41   c-0.548-0.547-0.548-1.434,0-1.981c0.273-0.273,0.632-0.411,0.99-0.411c0.359,0,0.718,0.138,0.991,0.411   c0.547,0.547,0.547,1.435,0,1.981C30.683,77.538,30.325,77.675,29.966,77.675z M36.059,80.238l-2.128,2.128l-2.551-2.551   c-0.123-0.123-0.264-0.221-0.411-0.307c0.522-0.16,1.005-0.433,1.402-0.83c0.397-0.396,0.669-0.88,0.829-1.402   c0.086,0.146,0.184,0.287,0.309,0.412L36.059,80.238z"/>
	<path d="M70.195,36.956c-1.392,0-2.784,0.531-3.846,1.593c-2.124,2.124-2.124,5.569,0,7.693c1.062,1.063,2.454,1.593,3.847,1.593   c1.392,0,2.783-0.53,3.846-1.593c2.125-2.125,2.124-5.569,0-7.693C72.979,37.487,71.587,36.956,70.195,36.956z M72.628,44.828   c-0.65,0.649-1.514,1.007-2.432,1.007c-0.92,0-1.783-0.357-2.433-1.007s-1.007-1.514-1.007-2.433s0.357-1.783,1.007-2.433   s1.513-1.007,2.432-1.007s1.783,0.357,2.433,1.007C73.969,41.304,73.969,43.486,72.628,44.828z"/>
	<path d="M83.135,29.458c-1.063-1.062-2.455-1.592-3.848-1.592s-2.784,0.53-3.847,1.592c-2.124,2.124-2.123,5.569,0,7.692   c1.063,1.063,2.454,1.593,3.846,1.593c1.394,0,2.786-0.53,3.849-1.593C85.258,35.026,85.258,31.582,83.135,29.458z M81.721,35.736   c-0.65,0.649-1.514,1.007-2.435,1.007c-0.918,0-1.781-0.357-2.432-1.007c-0.649-0.649-1.007-1.513-1.007-2.432   s0.357-1.783,1.007-2.433c0.65-0.649,1.514-1.006,2.433-1.006c0.92,0,1.783,0.356,2.434,1.006c0.648,0.649,1.006,1.514,1.006,2.433   C82.727,34.223,82.369,35.087,81.721,35.736z"/>
	<path d="M49.928,61.931l-3.38,3.381c-0.391,0.391-0.391,1.023,0,1.414c0.195,0.195,0.451,0.293,0.707,0.293   s0.512-0.098,0.707-0.293l3.38-3.381c0.391-0.391,0.391-1.023,0-1.414S50.318,61.54,49.928,61.931z"/>
	<path d="M56.338,55.521c-0.391,0.391-0.391,1.023,0,1.414c0.195,0.195,0.451,0.293,0.707,0.293s0.512-0.098,0.707-0.293l3.381-3.38   c0.391-0.391,0.391-1.022,0-1.414c-0.391-0.391-1.023-0.391-1.414,0L56.338,55.521z"/>
</g>
<text x="0.0" y="117.5" font-size="5.0" font-weight="bold" font-family="Helvetica Neue, Helvetica, Arial-Unicode, Arial, Sans-serif" fill="#000000">Created by Jake Dunham</text><text x="0.0" y="122.5" font-size="5.0" font-weight="bold" font-family="Helvetica Neue, Helvetica, Arial-Unicode, Arial, Sans-serif" fill="#000000">from the Noun Project</text></svg>