<svg xmlns:x="http://ns.adobe.com/Extensibility/1.0/" xmlns:i="http://ns.adobe.com/AdobeIllustrator/10.0/" xmlns:graph="http://ns.adobe.com/Graphs/1.0/" xmlns="http://www.w3.org/2000/svg" xmlns:xlink="http://www.w3.org/1999/xlink" xmlns:a="http://ns.adobe.com/AdobeSVGViewerExtensions/3.0/" version="1.1" id="Layer_1" x="0px" y="0px" width="100px" height="100px" viewBox="5.0 -10.0 100.0 135.0" style="enable-background:new 0 0 100 100;" xml:space="preserve">
<g>
	<path d="M41.480957,60.204102c0,4.697266,3.821777,8.518555,8.518555,8.518555s8.519043-3.821289,8.519043-8.518555   s-3.822266-8.518555-8.519043-8.518555S41.480957,55.506836,41.480957,60.204102z M49.999512,54.375977   c1.799316,0,3.263184,1.462891,3.263184,3.262695c0,1.798828-1.463867,3.262695-3.263184,3.262695   c-1.798828,0-3.262695-1.463867-3.262695-3.262695C46.736816,55.838867,48.200684,54.375977,49.999512,54.375977z"/>
	<path d="M79.648438,54.795898c0.068359-0.005859,0.136719,0,0.202148,0.016602l0.888672,0.227539l3.634766-1.21875   c-0.644531-2.807617-1.62793-5.484375-2.897461-7.991211L62.34375,56.387695L79.648438,54.795898z"/>
	<path d="M55.661133,18.849121v8.082031c-0.166992-0.026855-0.333984-0.05127-0.500977-0.075684v24.236328   c0,0.304688-0.229492,0.552734-0.525391,0.586914c2.000977,1.091797,3.572266,2.869141,4.407227,5.011719l1.838867-0.168945   l-3.389648-5.356445c-0.165039-0.26123-0.102539-0.604492,0.143555-0.791016l17.376953-13.165039l-0.005859-0.322754   c-0.508789-0.511719-1.02832-1.012207-1.568359-1.492188L57.768555,3.109375h-2.951172v3.091797L54.176758,7.18457v10.399902   h0.640625L55.661133,18.849121z M65.012695,24.034668c1.280273,0,2.318359,1.038086,2.318359,2.318848   c0,1.280273-1.038086,2.318848-2.318359,2.318848s-2.319336-1.038574-2.319336-2.318848   C62.693359,25.072754,63.732422,24.034668,65.012695,24.034668z M60.733398,15.476074   c1.280273,0,2.318359,1.038574,2.318359,2.318848c0,1.280762-1.038086,2.318848-2.318359,2.318848   s-2.318359-1.038086-2.318359-2.318848C58.415039,16.514648,59.453125,15.476074,60.733398,15.476074z"/>
	<path d="M20.050781,54.8125c0.065918-0.016602,0.133789-0.022461,0.20166-0.016602l20.701172,1.904297   c0.834473-2.147461,2.407715-3.928711,4.410645-5.021484c-0.29541-0.03418-0.525391-0.282227-0.525391-0.586914V26.854004   c-0.29834,0.043945-0.595215,0.089844-0.890625,0.141113v-8.145996l0.843262-1.264648h0.641113V7.18457l-0.641113-0.983398   V3.109375h-2.951172l-15.97998,32.925293C20.875,40.716797,17.250977,46.831055,15.647461,53.72168l3.565918,1.305664   L20.050781,54.8125z M39.100098,15.476074c1.280273,0,2.318359,1.038574,2.318359,2.318848   c0,1.280762-1.038086,2.318848-2.318359,2.318848c-1.280762,0-2.318848-1.038086-2.318848-2.318848   C36.78125,16.514648,37.819336,15.476074,39.100098,15.476074z M34.820801,24.034668   c1.280762,0,2.318848,1.038086,2.318848,2.318848c0,1.280273-1.038086,2.318848-2.318848,2.318848   s-2.318848-1.038574-2.318848-2.318848C32.501953,25.072754,33.540039,24.034668,34.820801,24.034668z"/>
	<path d="M53.972656,19.569824c-1.303711-0.146973-2.629883-0.224609-3.973145-0.224609s-2.668945,0.07666-3.973145,0.223145   v30.929688h7.946289V19.569824z"/>
	<path d="M83.498047,56.950195l-3.842773-0.961914L60.490234,57.75l0,0l-1.079102,0.099609   c0.188477,0.754883,0.294922,1.541992,0.294922,2.354492c0,0.816406-0.102539,1.609375-0.293945,2.368164l20.088867,2.189453   l0.070313-0.023438l0,0l3.926758-1.263672V56.950195z"/>
	<path d="M16.381836,56.950195l3.842285-0.961914L39.38916,57.75l0,0l1.079102,0.099609   c-0.188965,0.754883-0.294434,1.541992-0.294434,2.354492c0,0.816406,0.102539,1.609375,0.293457,2.368164L20.37793,64.761719   l-0.069824-0.023438l0,0l-3.92627-1.263672V56.950195z"/>
	<g>
		<path d="M73.023438,83.799805L55.166016,68.415039c-1.49707,0.945313-3.268555,1.495117-5.166504,1.495117    c-2.009766,0-3.87793-0.616211-5.427734-1.666992L26.514648,83.799805l-0.724121,4.798828    c2.518066,2.183594,11.881348,9.510742,24.135742,9.510742c12.052246,0,21.20459-6.942383,23.867676-9.206055L73.023438,83.799805    z M41.170898,83.211914c-1.618652,0-2.930664-1.311523-2.930664-2.930664c0-1.618164,1.312012-2.929688,2.930664-2.929688    c1.618164,0,2.930664,1.311523,2.930664,2.929688C44.101563,81.900391,42.789063,83.211914,41.170898,83.211914z     M44.112793,76.734375c-1.618652,0-2.930664-1.3125-2.930664-2.930664s1.312012-2.930664,2.930664-2.930664    c1.618164,0,2.930176,1.3125,2.930176,2.930664S45.730957,76.734375,44.112793,76.734375z M49.999512,85.114258    c-1.618652,0-2.930176-1.3125-2.930176-2.930664s1.311523-2.930664,2.930176-2.930664s2.930176,1.3125,2.930176,2.930664    S51.618164,85.114258,49.999512,85.114258z M49.999512,78.101563c-1.618652,0-2.930176-1.3125-2.930176-2.930664    s1.311523-2.930664,2.930176-2.930664s2.930176,1.3125,2.930176,2.930664S51.618164,78.101563,49.999512,78.101563z     M53.024414,73.803711c0-1.618164,1.311523-2.930664,2.929688-2.930664c1.619141,0,2.930664,1.3125,2.930664,2.930664    s-1.311523,2.930664-2.930664,2.930664C54.335938,76.734375,53.024414,75.421875,53.024414,73.803711z M58.46875,83.211914    c-1.619141,0-2.930664-1.311523-2.930664-2.930664c0-1.618164,1.311523-2.929688,2.930664-2.929688    c1.618164,0,2.930664,1.311523,2.930664,2.929688C61.399414,81.900391,60.086914,83.211914,58.46875,83.211914z"/>
		<path d="M73.96582,83.043945c0.107422,0.092773,0.177734,0.22168,0.199219,0.361328l0.530273,3.514648    c5.266602-5.166992,8.921875-11.970703,10.133789-19.589844l-4.369141-1.629883l-0.71582,0.230469    c-0.058594,0.018555-0.120117,0.02832-0.181641,0.02832c-0.021484,0-0.042969-0.000977-0.064453-0.003906l-20.457031-2.228516    c-0.610352,1.560547-1.613281,2.924805-2.885742,3.972656L73.96582,83.043945z"/>
		<path d="M25.373047,83.405273c0.020996-0.139648,0.092285-0.268555,0.199707-0.361328L43.611328,67.50293    c-1.165527-1.022461-2.084961-2.318359-2.657227-3.787109L20.40332,65.955078    c-0.021484,0.00293-0.042969,0.003906-0.064453,0.003906c-0.061523,0-0.123047-0.009766-0.181641-0.02832l-0.708008-0.227539    l-4.279297,1.625c1.181152,7.425781,4.680664,14.079102,9.732422,19.195313L25.373047,83.405273z"/>
	</g>
	<path d="M83.210938,28.264648h-5.62207l-1.545898,6.705566l-0.035156,2.964844l-17.22168,13.056152l2.81543,4.449219   l23.227539-12.852051v-7.618164L83.210938,28.264648z M78.709961,32.623047h-1.643555l0.951172-3.794434h1.166992   L78.709961,32.623047z M79.206055,32.623047l0.475586-3.794434h1.405273l0.475586,3.794434H79.206055z M82.058594,32.623047   l-0.475586-3.794434h1.167969l0.951172,3.794434H82.058594z"/>
</g>
<text x="0.0" y="117.5" font-size="5.0" font-weight="bold" font-family="Helvetica Neue, Helvetica, Arial-Unicode, Arial, Sans-serif" fill="#000000">Created by Steve Morris</text><text x="0.0" y="122.5" font-size="5.0" font-weight="bold" font-family="Helvetica Neue, Helvetica, Arial-Unicode, Arial, Sans-serif" fill="#000000">from the Noun Project</text></svg>