<svg xmlns="http://www.w3.org/2000/svg" xmlns:xlink="http://www.w3.org/1999/xlink" version="1.1" id="Your_Icon" x="0px" y="0px" viewBox="5.0 -10.0 100.0 135.0" enable-background="new 0 0 100 100" xml:space="preserve" height="100px" width="100px">
<g>
	<g>
		<g>
			<g>
			</g>
		</g>
		<g>
		</g>
	</g>
</g>
<path fill="#000000" d="M73.86,29.02c-9.766,0-17.976,6.606-20.419,15.582l-6.027,0.647c-0.881,0.062-1.8,0.156-2.711,0.291  l-1.639,0.176l-7.288-7.483c0,0,12.498,0.008,12.523,0.008c1.487,0,2.692-1.203,2.692-2.687c0-1.443-1.143-2.611-2.573-2.675  c-0.063-0.009-41.31,0.97-41.31,0.97v0.011c-1.167,0.06-2.097,1.008-2.097,2.181c0,1.172,0.93,2.121,2.097,2.181v0.011h19.577  l11.259,8.032c0,0-9.333,1.023-9.36,1.044c-1.29,0.349-2.244,1.514-2.244,2.912c0,1.415,0.976,2.593,2.289,2.926  c0.002,0.002,0.014,0.013,0.014,0.013l9.133,0.98L26.51,62.18H7.109v0.011c-1.167,0.059-2.097,1.008-2.097,2.181  s0.93,2.121,2.097,2.181v0.011c0,0,41.189,0.989,41.222,0.987c1.472-0.017,2.661-1.21,2.661-2.684c0-1.484-1.205-2.687-2.692-2.687  c-0.014,0-0.027,0.004-0.041,0.004c-0.009,0-12.605-0.004-12.605-0.004l7.288-7.483l10.535,1.131  c2.487,8.909,10.664,15.451,20.383,15.451c11.691,0,21.169-9.46,21.169-21.129S85.551,29.02,73.86,29.02z"/>
<text x="0.0" y="117.5" font-size="5.0" font-weight="bold" font-family="Helvetica Neue, Helvetica, Arial-Unicode, Arial, Sans-serif" fill="#000000">Created by Mark Hammar</text><text x="0.0" y="122.5" font-size="5.0" font-weight="bold" font-family="Helvetica Neue, Helvetica, Arial-Unicode, Arial, Sans-serif" fill="#000000">from the Noun Project</text></svg>