<svg xmlns="http://www.w3.org/2000/svg" xmlns:xlink="http://www.w3.org/1999/xlink" version="1.1" id="Calque_1" x="0px" y="0px" width="100px" height="100px" viewBox="5.0 -10.0 100.0 135.0" enable-background="new 0 0 100 100" xml:space="preserve">
<g>
	<path d="M46,9h-2v2v8v2h2h8h2v-2v-8V9h-2H46z M54,19h-8v-8h8V19z"/>
	<path d="M50,18c1.657,0,3-1.343,3-3s-1.343-3-3-3s-3,1.343-3,3S48.343,18,50,18z M50,14c0.552,0,1,0.449,1,1s-0.448,1-1,1   s-1-0.449-1-1S49.448,14,50,14z"/>
	<path d="M50,64c-2.209,0-4,1.79-4,3.999S47.791,72,50,72s4-1.792,4-4.001S52.209,64,50,64z M50,70c-1.103,0-2-0.897-2-2.001   C48,66.896,48.897,66,50,66s2,0.896,2,1.999C52,69.103,51.103,70,50,70z"/>
	<path d="M61.393,17c-1.93,0-3.5,1.57-3.5,3.5s1.57,3.5,3.5,3.5s3.5-1.57,3.5-3.5S63.322,17,61.393,17z M61.393,22   c-0.827,0-1.5-0.673-1.5-1.5s0.673-1.5,1.5-1.5s1.5,0.673,1.5,1.5S62.22,22,61.393,22z"/>
	<path d="M88,86h-4v-1h1.5v-2v-0.051c1.417-0.239,2.5-1.465,2.5-2.95c0-1.333-0.876-2.45-2.079-2.84L88,73v-6h-2V53h2V29H77v2h-2v-2   v-2v-2C75,11.193,63.807,0,50,0C36.192,0,25,11.193,25,25v2v2v2h-2v-2H12v24h2v14h-2v6l2.079,4.159   C12.876,77.549,12,78.666,12,79.999c0,1.485,1.083,2.711,2.5,2.95V83v2H16v1h-4l-2,7.5V97h19v-4l-0.379-1.326   C28.858,91.163,29,90.6,29,90v-9c0-2.206-1.794-4-4-4c-0.731,0-1.409,0.212-2,0.557V77v-8v-2V53v-2v-4h2v28h2.824l0.338,0.788l3,7   L31.682,84H33h9.184C42.072,84.313,42,84.646,42,84.999C42,86.656,43.343,88,45,88c0.003,0,0.007-0.001,0.01-0.001h1.49V89H42   l-2,7.5v3.5h20v-4l-2-7h-4.5v-1.001h1.49C54.993,87.999,54.997,88,55,88c1.656,0,3-1.344,3-3.001c0-0.353-0.072-0.686-0.184-0.999   H67h1.318l0.52-1.212l3-7L72.176,75H75V47h2v4v2v14v2v8v0.557C76.409,77.212,75.731,77,75,77c-2.206,0-4,1.794-4,4v9   c0,0.653,0.173,1.262,0.451,1.808L71,93.5V97h19v-4L88,86z M79,86v-1h3v1v3.999h-3V86z M79,81v-2h3.184   c-0.055,0.153-0.102,0.311-0.131,0.475C82.02,79.645,82,79.819,82,79.999c0,0.183,0.022,0.358,0.054,0.532   c0.009,0.05,0.02,0.099,0.031,0.148c0.032,0.138,0.073,0.271,0.124,0.4c0.026,0.069,0.058,0.136,0.089,0.202   c0.047,0.097,0.097,0.191,0.153,0.282c0.049,0.079,0.101,0.153,0.156,0.228c0.03,0.039,0.063,0.077,0.095,0.114   c0.142,0.172,0.3,0.326,0.477,0.462c0,0,0,0.001,0.001,0.001c0.101,0.078,0.206,0.148,0.317,0.213c0.001,0,0.002,0.001,0.003,0.002   v0.415H82h-3V81z M86,79.999C86,80.551,85.552,81,85,81c-0.134,0-0.26-0.028-0.377-0.076l-0.063-0.036   c-0.04-0.021-0.073-0.05-0.109-0.075c-0.088-0.059-0.162-0.129-0.227-0.207c-0.041-0.053-0.082-0.106-0.112-0.167   c-0.018-0.034-0.031-0.07-0.045-0.106C84.029,80.227,84,80.117,84,79.999c0-0.093,0.022-0.2,0.068-0.33l0.032-0.091   C84.261,79.239,84.601,79,85,79C85.552,79,86,79.448,86,79.999z M72.798,22h-5.257v-3h4.66C72.465,19.976,72.664,20.978,72.798,22z    M53,2.202C56.651,2.68,60.037,4.013,62.944,6H53V2.202z M47,2.202V6h-9.944C39.963,4.013,43.349,2.68,47,2.202z M27.799,19h11.66   v3H27.202C27.336,20.978,27.535,19.976,27.799,19z M27.025,24h14.434v-7H28.438c1.306-3.509,3.444-6.615,6.175-9.078   C34.731,7.972,34.862,8,35,8h14V2.025C49.332,2.011,49.665,2,50,2s0.668,0.011,1,0.025V8h14.476c2.689,2.45,4.795,5.529,6.087,9   h-6.021v7h7.434C72.989,24.332,73,24.665,73,25H27C27,24.665,27.011,24.332,27.025,24z M27,27h46v2H27V27z M21,81v1.999h-3h-1.5   v-0.415c0.001-0.001,0.002-0.002,0.003-0.002c0.111-0.064,0.217-0.135,0.317-0.213c0.001,0,0.001-0.001,0.001-0.001   c0.177-0.136,0.334-0.29,0.477-0.461c0.032-0.038,0.064-0.075,0.095-0.115c0.056-0.074,0.107-0.148,0.156-0.228   c0.057-0.091,0.106-0.186,0.153-0.282c0.031-0.066,0.062-0.132,0.089-0.201c0.051-0.13,0.092-0.264,0.125-0.401   c0.011-0.05,0.021-0.099,0.03-0.148C17.978,80.358,18,80.182,18,79.999c0-0.18-0.02-0.354-0.053-0.524   c-0.029-0.164-0.076-0.321-0.131-0.475H21V81z M14,79.999C14,79.448,14.448,79,15,79c0.399,0,0.739,0.239,0.899,0.578l0.032,0.091   c0.046,0.13,0.068,0.237,0.068,0.33c0,0.118-0.029,0.228-0.067,0.333c-0.014,0.036-0.027,0.072-0.045,0.106   c-0.03,0.061-0.071,0.114-0.113,0.167c-0.063,0.078-0.138,0.148-0.225,0.207c-0.037,0.025-0.07,0.055-0.11,0.075l-0.063,0.036   C15.26,80.972,15.134,81,15,81C14.448,81,14,80.551,14,79.999z M18,85h3v1v3.999h-3V86V85z M27,95H12v-1.238L13.536,88H16v1.999v2   h2h3h0.536c0.031,0.054,0.07,0.104,0.104,0.155c0.031,0.05,0.063,0.098,0.097,0.146c0.131,0.185,0.271,0.361,0.431,0.521   c0.01,0.01,0.021,0.018,0.03,0.027c0.152,0.15,0.32,0.284,0.496,0.409c0.048,0.034,0.096,0.067,0.146,0.099   c0.191,0.124,0.39,0.237,0.601,0.327c0.008,0.003,0.015,0.004,0.021,0.007c0.206,0.087,0.424,0.15,0.646,0.201   c0.058,0.013,0.116,0.025,0.175,0.036C24.516,93.97,24.754,94,25,94s0.483-0.03,0.718-0.072c0.057-0.011,0.113-0.021,0.17-0.035   c0.228-0.052,0.449-0.116,0.66-0.205c0.014-0.006,0.024-0.013,0.037-0.019c0.143-0.062,0.282-0.129,0.415-0.206V95z M25,79   c1.1,0,2,0.9,2,2v5v4c0,1.1-0.9,2-2,2s-2-0.9-2-2v-0.001V86v-1v-0.001V83v-0.001V81C23,79.9,23.9,79,25,79z M21,77h-3.184h-1.58   L14,72.528V69h7V77z M21,67h-5V53h5V67z M21,51h-7V31h7v2v12v2V51z M23,45V33h2v12H23z M30,75h2.893l2.124,7H33L30,75z M55,82v-7   h10.017l-2.124,7H55z M52.184,85.999H51.5h-3h-0.684c0.111-0.314,0.184-0.647,0.184-1S47.928,84.313,47.816,84h4.367   C52.072,84.313,52,84.646,52,84.999S52.072,85.685,52.184,85.999z M53,82h-6v-7h6V82z M45,82h-7.893l-2.124-7H45V82z M46,84.999   c0,0.55-0.445,0.997-0.995,1H45c-0.001,0-0.002,0.001-0.003,0.001C44.447,85.998,44,85.55,44,84.999S44.448,84,45,84   S46,84.448,46,84.999z M56.491,91L58,96.28V98H42v-1.238L43.536,91H46.5v1.999v2h2h3h2v-2V91H56.491z M51.5,89v3.999h-3V89v-1.001   h3V89z M56,84.999c0,0.551-0.447,0.999-0.997,1.001c-0.001,0-0.002-0.001-0.003-0.001h-0.005c-0.55-0.003-0.995-0.45-0.995-1   C54,84.448,54.448,84,55,84S56,84.448,56,84.999z M67,82h-2.017l2.124-7H70L67,82z M73,73h-3H30h-3V47v-2V33v-2h46v2v12v2V73z    M75,45V33h2v12H75z M79,47v-2V33v-2h7v20h-7V47z M79,53h5v14h-5V53z M79,69h7v3.528L83.764,77h-1.58H79V69z M73,81   c0-1.1,0.9-2,2-2s2,0.9,2,2v1.999V83v1.999V85v1v3.999V90c0,1.1-0.9,2-2,2s-2-0.9-2-2v-4V81z M88,95H73v-1.238l0.069-0.26   c0.098,0.055,0.202,0.099,0.305,0.146c0.033,0.015,0.064,0.032,0.099,0.047c0.209,0.087,0.428,0.152,0.653,0.203   c0.051,0.011,0.103,0.021,0.154,0.03C74.515,93.97,74.753,94,75,94c0.246,0,0.484-0.03,0.718-0.072   c0.059-0.011,0.117-0.023,0.175-0.036c0.222-0.051,0.439-0.114,0.646-0.201c0.007-0.003,0.014-0.004,0.021-0.007   c0.211-0.09,0.409-0.203,0.601-0.327c0.05-0.031,0.098-0.064,0.146-0.099c0.176-0.125,0.344-0.259,0.496-0.409   c0.01-0.01,0.021-0.018,0.03-0.027c0.159-0.16,0.3-0.337,0.431-0.521c0.034-0.048,0.065-0.096,0.097-0.146   c0.034-0.052,0.073-0.102,0.104-0.155H79h3h2v-2V88h2.491L88,93.28V95z"/>
	<path d="M38,37h24v-5H38V37z M40,34h20v1H40V34z"/>
	<path d="M58,38H46v0.5L42,38l-4,0.5v4l4,0.5l4-0.5V43h12l2-0.5h2v-4h-2L58,38z M45.752,40.516L42,40.984l-2-0.25v-0.469l2-0.25   l3.752,0.469l0.123,0.016L45.752,40.516z M59.515,40.56L57.754,41H48v-0.766V40h9.754l1.761,0.44l0.239,0.06L59.515,40.56z"/>
	<path d="M54,44.5V44H42l-2,0.5h-2v4h2l2,0.5h12v-0.5l4,0.5l4-0.5v-4L58,44L54,44.5z M52,46.766V47h-9.754l-1.761-0.44l-0.239-0.06   l0.239-0.06L42.246,46H52V46.766z M60,46.734l-2,0.25l-3.752-0.469L54.125,46.5l0.123-0.016L58,46.016l2,0.25V46.734z"/>
	<path d="M46,63h8V50h-8V63z M48,52h4v9h-4V52z"/>
	<path d="M67.65,64l-1.758,2.344v3.313L67.65,72h2.484l1.758-2.344v-3.313L70.135,64H67.65z M69.893,68.989L69.135,70H68.65   l-0.758-1.011v-1.979L68.65,66h0.484l0.758,1.011V68.989z"/>
	<path d="M38,61h-4.214c-0.553,0-1,0.447-1,1s0.447,1,1,1H38c0.553,0,1-0.447,1-1S38.553,61,38,61z"/>
	<path d="M25,88.607c0.553,0,1-0.447,1-1v-4.215c0-0.553-0.447-1-1-1s-1,0.447-1,1v4.215C24,88.16,24.447,88.607,25,88.607z"/>
	<path d="M75,88.607c0.553,0,1-0.447,1-1v-4.215c0-0.553-0.447-1-1-1s-1,0.447-1,1v4.215C74,88.16,74.447,88.607,75,88.607z"/>
	<path d="M38,58h-4.214c-0.553,0-1,0.447-1,1s0.447,1,1,1H38c0.553,0,1-0.447,1-1S38.553,58,38,58z"/>
	<path d="M38,55h-4.214c-0.553,0-1,0.447-1,1s0.447,1,1,1H38c0.553,0,1-0.447,1-1S38.553,55,38,55z"/>
	<path d="M38,52h-4.214c-0.553,0-1,0.447-1,1s0.447,1,1,1H38c0.553,0,1-0.447,1-1S38.553,52,38,52z"/>
</g>
<text x="0.0" y="117.5" font-size="5.0" font-weight="bold" font-family="Helvetica Neue, Helvetica, Arial-Unicode, Arial, Sans-serif" fill="#000000">Created by Jake Dunham</text><text x="0.0" y="122.5" font-size="5.0" font-weight="bold" font-family="Helvetica Neue, Helvetica, Arial-Unicode, Arial, Sans-serif" fill="#000000">from the Noun Project</text></svg>