<?xml version="1.0" encoding="utf-8"?>
<!-- Generator: Adobe Illustrator 15.1.0, SVG Export Plug-In . SVG Version: 6.00 Build 0)  -->
<!DOCTYPE svg PUBLIC "-//W3C//DTD SVG 1.1//EN" "http://www.w3.org/Graphics/SVG/1.1/DTD/svg11.dtd">
<svg version="1.1" id="Layer_1" xmlns="http://www.w3.org/2000/svg" xmlns:xlink="http://www.w3.org/1999/xlink" x="0px" y="0px"
	 width="100px" height="69.992px" viewBox="0 0 100 69.992" enable-background="new 0 0 100 69.992" xml:space="preserve">
<path d="M99.746,0c-0.024-0.004-0.036,0.015-0.059,0.029c-3.74,2.431-13.156,8.812-14.354,9.627
	c-0.501-0.518-1.029-0.998-1.458-1.575c-0.094-0.445-0.216-0.917-0.234-1.371c0.019-0.445,0.089-0.922-0.115-1.342
	c-0.848,0.643-1.576,1.523-2.655,1.78c-0.857,0.352-1.673,0.742-2.539,1.05c-0.146-0.214-0.241-0.515-0.524-0.583
	c-1.987-0.128-3.944,0.458-5.923,0.467c-0.565,0.017-0.939,0.503-1.488,0.554c-0.549,0.009-0.99,0.371-1.488,0.525
	c-1.857,0.437-3.524,1.493-4.987,2.684c-0.686,0.591-1.539,0.866-2.277,1.372c-1.078,1.25-2.525,2.058-3.734,3.18
	c-0.658,0.668-1.591,0.933-2.362,1.43c-0.745,0.394-1.431,0.852-2.159,1.254c-0.754,0.359-0.825,1.434-1.604,1.75
	c-1.482,0.72-3.157,0.878-4.784,0.904c-4.154-0.077-8.293-0.459-12.371-1.196c-3.169-0.557-6.582-1.048-9.657,0.117
	c-2.235,0.865-4.229,2.184-6.156,3.589c-0.745,0.633-1.805,0.625-2.568,1.225c-1.002,0.729-2.056,1.419-2.801,2.421
	c-0.582,0.702-0.881,1.587-1.283,2.393c-0.42,0.882-0.646,1.812-0.817,2.772c-0.222,1.353-0.714,2.623-0.962,3.968
	c-0.146,0.968-0.23,1.975-0.496,2.916c-0.163,0.687-0.441,1.357-0.612,2.044c-0.36,1.232-1.029,2.324-1.372,3.558
	c-0.3,1.02-1.042,1.848-1.196,2.918c-0.223,0.942-0.924,1.697-1.284,2.597c-0.574,1.139-0.995,2.374-1.809,3.384
	c-1.25,1.791-2.611,3.688-2.859,5.924c-0.257,1.087-0.657,2.115-0.7,3.238c-0.205,0.754,0.195,1.502,0.7,2.042
	c0.188,0.197,0.424,0.577,0.759,0.32c0.479-0.129,0.79-0.525,1.167-0.817c1.002-0.649,2.088-1.216,2.859-2.159
	c0.667-0.898,1.596-1.562,2.392-2.333c0.745-0.686,1.256-1.611,2.13-2.158c0.813-0.583,1.623-1.195,2.188-2.044
	c-0.188,0.978-0.583,1.922-0.788,2.889c-0.086,1.302-0.258,2.57-0.292,3.881c-0.248,0.628-1.034,0.995-1.284,1.079
	c-0.364,0.178-1,0.229-0.904,0.584c0.222,0.925,0.771,1.741,0.934,2.684c0.154,0.651,0.366,1.294,0.7,1.867
	c0.977-0.385,1.521-1.392,2.129-2.188c0.511-1.044,1.019-2.304,1.634-3.122c0.651-0.942,1.166-2.032,1.226-3.18
	c0.094-1.516,0.424-3.023,0.613-4.521c0.394-1.808,1.035-3.593,2.217-5.048c1.293-1.688,3.154-2.771,4.901-3.91
	c0.917-0.59,1.764-1.262,2.655-1.896c0.48,1.027,0.589,2.184,0.7,3.297c0.111,2.261-0.37,4.516-0.087,6.769
	c0.197,0.496,0.565,0.878,0.934,1.254c1.404,1.319,2.592,2.842,3.851,4.289c0.702,0.822,1.442,1.652,1.896,2.654
	c0.205,0.429,0.34,0.915,0.554,1.343c0.471,0.787,1.038,1.504,1.517,2.274c0.908-0.153,2.039-0.599,2.801,0.146
	c0.428,0.231,0.462,0.776,0.496,1.196c-0.094,0.317-0.325,0.715-0.292,0.934c1.825,0.429,3.748,0.295,5.572-0.117
	c-0.078-1.113-1.03-1.861-1.429-2.509c-0.6-0.865-1.624-1.259-2.334-2.013c-0.891-0.934-1.802-1.888-2.684-2.83
	c-0.694-0.744-1.229-1.563-1.896-2.334c-1.037-1.062-1.868-2.333-2.305-3.764c-0.274-1.242-0.577-2.517-0.525-3.793
	c-0.034-1.541,0.458-3.034,0.613-4.551c0.18-1.567,0.147-3.239,1.021-4.61c0.18-0.188,0.287-0.639,0.613-0.612
	c1.02,0.078,2.02,0.264,3.005,0.555c1.987,0.583,4.004,1.164,6.068,1.43c3.495,0.539,7.05,0.096,10.562-0.06
	c0.454-0.008,0.888,0.013,1.342,0.03c0.257,0.779,0.567,1.542,0.876,2.305c0.308,0.994,0.444,2.044,0.642,3.062
	c0.292,1.594,0.845,3.129,0.904,4.757c-0.026,0.719,0.238,1.419,0.058,2.13c-0.214,0.607-0.586,1.16-1.108,1.546
	c-1.275,1.027-2.325,2.286-3.618,3.297c-0.248,0.292-0.616,0.101-0.934,0.058c-0.068-0.275-0.378-0.416-0.583-0.611
	c-0.502-0.126-1.058-0.143-1.43,0.292c-0.65,0.701-1.23,1.421-1.983,2.012c-0.369,0.369-0.802,0.744-0.905,1.284
	c0.748,0.289,1.503,0.478,2.276,0.671c-0.006,0.013-0.023,0.017-0.029,0.029c0.042-0.003,0.074-0.024,0.117-0.029
	c0.022,0.005,0.066,0.023,0.088,0.029c0.004-0.008-0.004-0.021,0-0.029c1.062-0.125,2.038-0.572,3.122-0.467
	c0.445,0.026,0.867,0.295,1.313,0.321c0.693-0.077,1.321-0.499,1.895-0.875c0.678-0.438,1.112-1.132,1.635-1.723
	c0.677-0.771,1.369-1.492,2.072-2.245c0.42-0.506,1.064-0.782,1.458-1.313c0.942-1.071,0.828-2.582,1.051-3.91
	c-0.094-2.825,0.514-5.624,1.079-8.373c1.26,1.61,2.429,3.293,3.559,4.99c0.583,0.934,1.249,1.843,1.635,2.888
	c0.154,0.53,0.659,0.87,0.934,1.342c0.402,0.711,0.927,1.33,1.458,1.954c1.107,1.342,2.96,2.938,5.31,7.179
	c0.488,0.145,0.834,0.515,1.167,0.874c-0.119,0.385-0.344,0.844-0.233,1.255c0.136,0.292,0.183,0.474,0.264,0.672
	c1.481,0.214,3.024,0.127,4.463-0.292c0.31-0.139,0.831-0.281,0.788-0.701c-0.359-0.643-0.842-1.177-1.312-1.75
	c-0.012,0.008-0.047,0.021-0.058,0.029c-0.594-1.023-1.863-1.345-2.481-2.334c-0.685-1.028-1.382-2.033-2.187-2.978
	c-1.029-1.438-1.887-3.01-2.598-4.638c-0.753-1.739-1.911-3.274-2.597-5.048c-0.386-0.984-0.837-1.897-1.138-2.916
	c-0.677-1.928-1.189-3.904-1.926-5.807c-0.077-0.231-0.204-0.452-0.204-0.701c0.069-0.924,0.509-1.805,0.671-2.713
	c0.172-0.787,0.107-1.565,0.176-2.362c0.076-1.054,0.59-2.021,0.934-3.005c0.934-2.544,2.447-4.812,3.646-7.235
	c0.831-1.687,1.471-3.587,3.062-4.726c0.994,0.874,2.151,1.472,3.385,1.925c1.312,0.882,2.696,1.697,4.084,2.451
	c0.669,0.317,0.726,1.108,1.197,1.604c0.23,0.257,0.494,0.519,0.846,0.613c0.702,0.377,1.502,0.139,2.247,0.087
	c0.599-0.146,1.146-0.598,1.43-1.138c0.3-0.583,0.71-1.075,0.934-1.692c0.188-0.651-0.14-1.285-0.38-1.867
	c-0.677-2.099-2.381-3.594-3.297-5.572c-0.352-0.531-0.233-1.209-0.233-1.809c0.082-1.263-0.057-2.587-0.671-3.705
	c1.865-1.563,9.707-8.147,13.099-11.058C100.089,0.464,99.912,0.029,99.746,0z M17.181,44.171c0.094-0.959,0.487-1.849,0.642-2.801
	c0.24-1.327,0.558-2.656,0.875-3.967c0.42,1.311,0.698,2.685,0.613,4.055C18.874,42.546,18.097,43.47,17.181,44.171z"/>
</svg>
