<svg xmlns="http://www.w3.org/2000/svg" xmlns:xlink="http://www.w3.org/1999/xlink" version="1.1" id="Layer_1" x="0px" y="0px" viewBox="5.0 -10.0 100.0 135.0" enable-background="new 0 0 100 100" xml:space="preserve" height="100px" width="100px">
<g>
	<path d="M90.41,32.981c-0.087-15.57-12.78-28.21-28.37-28.21H37.904c-10.963,0-20.472,6.263-25.193,15.388V6.477   c0-1.027-0.833-1.86-1.86-1.86s-1.86,0.833-1.86,1.86v33.038L5.826,77.509c-0.134,1.612,0.788,3.125,2.281,3.745l31.484,13.078   c0.452,0.189,0.938,0.285,1.427,0.285h17.907c0.49,0,0.976-0.096,1.428-0.285l31.484-13.078c1.492-0.62,2.415-2.133,2.28-3.745   L90.41,32.981z M57.076,54.096c-0.501,0.347-0.799,0.918-0.799,1.528v31.551H43.667V55.624c0-0.61-0.299-1.181-0.799-1.528   c-0.495-0.345-12.155-8.302-26.914-8.528l0.2-2.401c4.056-3.05,16.378-6.303,33.818-6.303c17.439,0,29.763,3.253,33.818,6.304   l0.2,2.4C69.231,45.794,57.571,53.751,57.076,54.096z M16.976,33.141c0-11.54,9.389-20.928,20.928-20.928h24.135   c11.541,0,20.928,9.389,20.928,20.928c0,0.103,0.004,0.206,0.013,0.309l0.438,5.259c-7.191-3.671-20.368-5.567-33.447-5.567   c-13.078,0-26.255,1.895-33.447,5.566l0.438-5.259C16.971,33.347,16.976,33.244,16.976,33.141z M13.467,75.423l2.178-26.146   c11.623,0.103,21.492,5.628,24.301,7.362v29.782L13.467,75.423z M59.997,86.421V56.637c2.803-1.734,12.645-7.257,24.301-7.36   l2.178,26.146L59.997,86.421z"/>
	<path d="M69.08,31.593c1.028,0,1.86-0.833,1.86-1.86v-5.427c0-1.027-0.832-1.86-1.86-1.86s-1.86,0.833-1.86,1.86v5.427   C67.219,30.76,68.051,31.593,69.08,31.593z"/>
	<path d="M75.746,33.453c1.028,0,1.86-0.833,1.86-1.86v-5.427c0-1.027-0.832-1.86-1.86-1.86s-1.86,0.833-1.86,1.86v5.427   C73.885,32.62,74.717,33.453,75.746,33.453z"/>
</g>
<text x="0.0" y="117.5" font-size="5.0" font-weight="bold" font-family="Helvetica Neue, Helvetica, Arial-Unicode, Arial, Sans-serif" fill="#000000">Created by ARudmann</text><text x="0.0" y="122.5" font-size="5.0" font-weight="bold" font-family="Helvetica Neue, Helvetica, Arial-Unicode, Arial, Sans-serif" fill="#000000">from the Noun Project</text></svg>