<svg xmlns="http://www.w3.org/2000/svg" xmlns:xlink="http://www.w3.org/1999/xlink" version="1.1" id="Your_Icon" x="0px" y="0px" width="100px" height="100px" viewBox="5.0 -10.0 100.0 135.0" enable-background="new 0 0 100 100" xml:space="preserve">
<path d="M21,30"/>
<path d="M60.812,86H42.16C56.388,100,60.812,86,60.812,86z"/>
<path d="M47,72.612c1.606,0,3-1.922,3-4.295V58.295C50,55.922,48.606,54,47,54s-3,1.922-3,4.295v10.022  C44,70.69,45.394,72.612,47,72.612z M47.271,61.439c0.963,0,1.745,0.781,1.745,1.745c0,0.965-0.782,1.745-1.745,1.745  s-1.745-0.78-1.745-1.745C45.526,62.221,46.308,61.439,47.271,61.439z"/>
<path d="M58.486,65.194c-3.295-5.93-1.162-27.934-1.162-27.934L55,36.228V7h-1.152L40,16.608v13.004l-1.227-0.48  c0,0-12.86,39.868,2.263,55.868h20.089C61.83,82,63.15,73.591,58.486,65.194z M41,17.22l13-8.798v27.297l-13-5.599V17.22z   M52,39.716l-0.292,0.668L52,41.405v0.637l-0.292,0.669L52,43.731v0.637l-0.292,0.669L52,46.058v0.638l-0.292,0.669L52,48.385v0.638  l-0.292,0.669L52,50.711v0.638l-0.292,0.669L52,53.038v0.637l-0.292,0.67L52,55.364v0.638l-0.292,0.669L52,57.691v0.637  l-0.292,0.669L52,60.018v0.638l-0.292,0.669L52,62.345v0.637l-0.292,0.669L52,64.671v0.638l-0.292,0.669L52,66.997v0.638  l-0.292,0.669L52,69.324v0.638l-0.292,0.669L52,71.65v0.638l-0.292,0.669L52,73.978v0.637l-0.292,0.67L52,76.304v0.638l-0.292,0.669  L52,78.631v0.637l-0.292,0.669L52,80.957V81H42V34.919l10,4.054V39.716z"/>
<rect fill="none" width="100" height="100"/>
<g>
</g>
<text x="0.0" y="117.5" font-size="5.0" font-weight="bold" font-family="Helvetica Neue, Helvetica, Arial-Unicode, Arial, Sans-serif" fill="#000000">Created by Jordan Rude</text><text x="0.0" y="122.5" font-size="5.0" font-weight="bold" font-family="Helvetica Neue, Helvetica, Arial-Unicode, Arial, Sans-serif" fill="#000000">from the Noun Project</text></svg>