<svg xmlns="http://www.w3.org/2000/svg" xmlns:xlink="http://www.w3.org/1999/xlink" version="1.1" id="Calque_1" x="0px" y="0px" width="100px" height="100px" viewBox="5.0 -10.0 100.0 135.0" enable-background="new 0 0 100 100" xml:space="preserve">
<g>
	<g>
		<path d="M83.647,25.861l0.712-0.711L68.713,9.505l-0.711,0.711l-0.711-0.711c-0.392-0.392-0.907-0.587-1.423-0.587    s-1.031,0.196-1.423,0.587l-7.822,7.822c-0.783,0.782-0.895,2.156-0.248,3.055l0.611,0.85l-1.074,1.074    c0,0,0.711,3.556-4.979,9.245L0,84.459c0.027,0.026,0.058,0.048,0.084,0.074c4.227,4.227,9.519,6.549,14.844,6.549    c2.694,0,5.397-0.595,7.976-1.837c-2.216-4.181-0.93-10.139,2.591-13.659l0-0.005l35.396-34.074    c1.264-1.264,3.02-1.615,4.58-1.615c1.951,0,3.598,0.548,3.598,0.548l1.009-1.009l6.104,8.485    c1.787,2.839,2.955,5.956,3.498,9.158c7.075-3.536,13.714-8.246,19.613-14.145c0.238-0.238,0.473-0.476,0.707-0.717L83.647,25.861    z M58.037,18.742l7.822-7.823c0.001,0,0.004-0.001,0.009-0.001l0.009,0.001l0.711,0.711l-8.169,8.168l-0.421-0.584    C57.926,19.113,57.948,18.831,58.037,18.742z M24.108,74.141l-0.7,0.679l0.007,0.067c-3.199,3.687-4.386,8.944-3.1,13.273    c-1.738,0.612-3.543,0.922-5.387,0.922c-4.263,0-8.489-1.659-12.071-4.708l20.541-21.337l6.006,6.005L24.108,74.141z     M30.845,67.655l-6.059-6.06l0.705-0.732l6.087,6.087L30.845,67.655z M68.887,37.777l0.008,0.01l-0.432,0.431    c-0.769-0.163-1.825-0.326-2.992-0.326c-2.481,0-4.555,0.761-5.967,2.174L33.019,65.563l-6.14-6.141l25.469-26.457    c4.552-4.551,5.456-8.073,5.574-9.84l0.248-0.248l0.006,0.009l10.537-10.537L81.514,25.15L68.887,37.777z M77.874,46.852    L77.842,46.8l-0.037-0.05l-6.295-8.75l10.724-10.723l9.948,9.948c-4.17,4.061-8.785,7.613-13.754,10.583    C78.244,47.488,78.07,47.165,77.874,46.852z M81.066,54.096c-0.427-1.558-1.008-3.063-1.706-4.518    c5.146-3.065,9.924-6.737,14.235-10.94l3.576,3.576C92.35,46.908,86.945,50.895,81.066,54.096z M13.241,78.107    c-0.644,0-1.287,0.245-1.778,0.736c-0.981,0.981-0.982,2.574,0,3.556c0.491,0.491,1.134,0.737,1.778,0.737    s1.287-0.246,1.778-0.737c0.981-0.981,0.982-2.573,0-3.556C14.528,78.353,13.885,78.107,13.241,78.107z M13.604,80.986    c-0.125,0.124-0.266,0.15-0.363,0.15c-0.097,0-0.239-0.026-0.364-0.152c-0.124-0.124-0.15-0.266-0.15-0.362    c0-0.098,0.026-0.239,0.151-0.364c0.124-0.124,0.266-0.15,0.363-0.15s0.239,0.026,0.363,0.15    C13.805,80.458,13.805,80.785,13.604,80.986z"/>
	</g>
</g>
<text x="0.0" y="117.5" font-size="5.0" font-weight="bold" font-family="Helvetica Neue, Helvetica, Arial-Unicode, Arial, Sans-serif" fill="#000000">Created by Jake Dunham</text><text x="0.0" y="122.5" font-size="5.0" font-weight="bold" font-family="Helvetica Neue, Helvetica, Arial-Unicode, Arial, Sans-serif" fill="#000000">from the Noun Project</text></svg>