<svg xmlns="http://www.w3.org/2000/svg" xmlns:xlink="http://www.w3.org/1999/xlink" version="1.1" id="Layer_1" x="0px" y="0px" width="100px" height="100px" viewBox="5.0 -10.0 100.0 135.0" enable-background="new 0 0 100 100" xml:space="preserve">
<g id="Captions">
</g>
<path fill="#000000" d="M86.795,2.761c-1.461-0.266-27.186-10.154-29.77,18.901c0,0-0.032,5.781-4.487,9.819L4.393,82.57  c0,0-6.168,9.46,0.381,13.393c0,0,5.559,5.424,12.397-2.206l48.571-50.89c0,0,2.22-2.131,11.393-0.942  c0,0,15.82,1.611,21.106-16.902c0,0,1.368-6.433-3.75-3.809l-10.906,6.905c0,0-1.407,1.591-3.538-0.205c0,0-8.009-3.993-8.52-10.991  c0,0-0.812-2.98,3.082-4.73L86.146,5.47C86.146,5.47,89.1,3.195,86.795,2.761z M15.535,88.35c0.069,2.586-1.971,4.731-4.57,4.801  c-2.586,0.076-4.762-1.947-4.83-4.534c-0.077-2.577,1.963-4.729,4.563-4.808C13.299,83.74,15.459,85.771,15.535,88.35z   M49.146,51.857l-26.72,28.787c-1.193,1.271-3.194,1.354-4.48,0.176c-1.292-1.178-1.374-3.18-0.182-4.455l26.711-28.79  c1.195-1.277,3.203-1.353,4.488-0.174C50.256,48.586,50.331,50.58,49.146,51.857z"/>
<text x="0.0" y="117.5" font-size="5.0" font-weight="bold" font-family="Helvetica Neue, Helvetica, Arial-Unicode, Arial, Sans-serif" fill="#000000">Created by Cris Dobbins</text><text x="0.0" y="122.5" font-size="5.0" font-weight="bold" font-family="Helvetica Neue, Helvetica, Arial-Unicode, Arial, Sans-serif" fill="#000000">from the Noun Project</text></svg>