<svg xmlns:dc="http://purl.org/dc/elements/1.1/" xmlns:cc="http://creativecommons.org/ns#" xmlns:rdf="http://www.w3.org/1999/02/22-rdf-syntax-ns#" xmlns:svg="http://www.w3.org/2000/svg" xmlns="http://www.w3.org/2000/svg" xmlns:sodipodi="http://sodipodi.sourceforge.net/DTD/sodipodi-0.dtd" xmlns:inkscape="http://www.inkscape.org/namespaces/inkscape" width="100" height="100" viewBox="0 0 80 80" version="1.1" id="svg2" inkscape:version="0.48.2 r9819" sodipodi:docname="ear protection.svg">
  <metadata id="metadata10">
    <rdf:RDF>
      <cc:Work rdf:about="">
        <dc:format>image/svg+xml</dc:format>
        <dc:type rdf:resource="http://purl.org/dc/dcmitype/StillImage"/>
        <dc:title/>
      </cc:Work>
    </rdf:RDF>
  </metadata>
  <defs id="defs8"/>
  <sodipodi:namedview pagecolor="#ffffff" bordercolor="#666666" borderopacity="1" objecttolerance="10" gridtolerance="10" guidetolerance="10" inkscape:pageopacity="0" inkscape:pageshadow="2" inkscape:window-width="1366" inkscape:window-height="706" id="namedview6" showgrid="false" inkscape:zoom="5.17" inkscape:cx="50" inkscape:cy="50" inkscape:window-x="-8" inkscape:window-y="-8" inkscape:window-maximized="1" inkscape:current-layer="svg2"/>
  <path style="fill:#000000;stroke:none;stroke-width:0.00900222000000000" d="m 33.152302,5.3079071 c 11.88205,-3.03651 25.16674,2.6127498 31.45058,13.0975399 3.69505,5.82469 8.05629,11.17422 12.56399,16.37683 2.57495,3.41905 2.45968,7.93681 1.35372,11.87349 -0.99339,2.36682 1.32882,3.01042 -0.28518,5.33884 -0.048,3.71912 -1.75048,6.75278 -2.07312,10.31666 0.21334,1.81004 -0.99697,6.61978 -2.02089,2.50455 0.0891,-2.89973 0.87212,-7.3922 -0.46711,-9.24913 -0.11495,4.09011 -0.50095,8.62826 -3.57133,11.66748 -3.18093,3.51945 -8.20655,2.7088 -12.34939,1.95828 -3.62273,-0.32091 -6.24654,-3.25011 -4.79237,-6.97488 1.11268,-8.69197 2.83426,-17.2995 4.99176,-25.78929 1.0071,-4.7196 6.11162,-2.05074 9.19142,-1.47817 4.26251,1.75639 4.36709,7.3471 5.58408,11.22667 0.13858,1.60256 0.83281,6.73389 2.451,4.31146 1.5496,-2.48186 2.37406,-6.3803 2.14553,-9.80987 -0.54985,-5.18913 -5.33417,-8.09357 -8.13861,-12.03551 -3.89074,-4.42342 -6.73786,-9.674 -10.82331,-13.92116 -7.93833,-7.9926401 -21.13019,-10.1240899 -31.0313,-4.61142 -5.43205,2.67848 -9.06058,7.65415 -12.51445,12.42944 -3.24938,4.43258 -7.1913505,8.29187 -10.7346807,12.45945 -2.84913,3.83931 -1.82395,8.79458 -0.78409,13.06807 1.75453,0.17547 0.37014,4.56705 2.2493502,1.78529 2.70544,-0.73912 1.68105,-5.09028 3.09917,-7.30665 0.12984,-9.28844 14.6807805,-11.59941 14.6255905,-5.30967 1.27578,7.02279 2.56191,14.05663 3.10587,21.17945 0.22771,3.23128 1.86234,8.02452 -2.18523,9.55729 -3.27397,1.40355 -6.87588,1.6496 -10.42183,1.29116 -5.1528805,-0.75544 -7.6219405,-6.16491 -7.6689805,-10.87274 0.15736,-1.23571 -0.11017,-5.85693 -0.9494902,-3.40877 0.7923602,2.77203 -0.93064,2.75936 -0.0408,5.64814 0.0996,1.23424 1.4201502,6.48585 -0.8251,4.55622 -0.53953,-2.77566 -0.16894,-5.80391 -1.43025,-8.37196 0.15826,-3.07304 -2.34515997,-7.9665 -1.09351,-9.34372 -0.98392997,-4.39699 -1.78702997,-9.4513 1.23177,-13.29607 4.9659302,-5.58934 9.5041107,-11.5411 13.6532607,-17.76157 4.01858,-5.49727 9.92797,-9.3976601 16.50394,-11.1057299 z" id="path4" inkscape:connector-curvature="0" sodipodi:nodetypes="ccccccccccccccccccccccccccccccccccccc"/>
</svg>