<svg xmlns="http://www.w3.org/2000/svg" xmlns:xlink="http://www.w3.org/1999/xlink" version="1.1" id="Ebene_1" x="0px" y="0px" viewBox="5.0 -10.0 100.0 135.0" enable-background="new 0 0 100 100" xml:space="preserve" height="100px" width="100px">
<g id="Captions">
</g>
<path fill="#000000" d="M96.8,36.4c1.3,0,2.3-1,2.3-2.3v-5.5c0-1.3-1-2.3-2.3-2.3H83.7v-3.9c0-3.4-2.7-6.1-6.1-6.1h-3.8V3.2  c0-1.3-1-2.3-2.3-2.3h-5.5c-1.3,0-2.3,1-2.3,2.3v13.1H55V3.2c0-1.3-1-2.3-2.3-2.3h-5.5c-1.3,0-2.3,1-2.3,2.3v13.1h-8.5V3.2  c0-1.3-1-2.3-2.3-2.3h-5.5c-1.3,0-2.3,1-2.3,2.3v13.1h-3.9c-3.4,0-6.1,2.7-6.1,6.1v3.9H3.2c-1.3,0-2.3,1-2.3,2.3v5.5  c0,1.3,1,2.3,2.3,2.3h13.1v8.5H3.2c-1.3,0-2.3,1-2.3,2.3v5.5c0,1.3,1,2.3,2.3,2.3h13.1v8.6H3.2c-1.3,0-2.3,1-2.3,2.3v5.5  c0,1.3,1,2.3,2.3,2.3h13.1v3.9c0,3.4,2.7,6.1,6.1,6.1h3.9v13.1c0,1.3,1,2.3,2.3,2.3h5.5c1.3,0,2.3-1,2.3-2.3V83.7h8.5v13.1  c0,1.3,1,2.3,2.3,2.3h5.5c1.3,0,2.3-1,2.3-2.3V83.7h8.6v13.1c0,1.3,1,2.3,2.3,2.3h5.5c1.3,0,2.3-1,2.3-2.3V83.7h3.8  c3.4,0,6.1-2.7,6.1-6.1v-3.9h13.1c1.3,0,2.3-1,2.3-2.3v-5.5c0-1.3-1-2.3-2.3-2.3H83.7V55h13.1c1.3,0,2.3-1,2.3-2.3v-5.5  c0-1.3-1-2.3-2.3-2.3H83.7v-8.5H96.8z M73.7,73.7H55.6v-4.8c0-0.7-0.3-1.4-0.8-1.9L44.1,56.2v-3.8c2.2-1.2,3.5-3.7,2.8-6.4  c-0.5-2-2.1-3.6-4.2-4.1c-3.7-0.8-7,2-7,5.5c0,2.2,1.2,4,3,5v4.9c0,0.7,0.3,1.4,0.8,1.9L50.2,70v3.7H26.3V26.3H42v4.8  c0,0.7,0.3,1.4,0.8,1.9l10.7,10.7v3.8c-2.2,1.2-3.5,3.7-2.8,6.4c0.5,2,2.1,3.6,4.2,4.1c3.7,0.8,7-2,7-5.5c0-2.2-1.2-4-3-5v-4.9  c0-0.7-0.3-1.4-0.8-1.9L47.4,29.9v-3.6h26.2V73.7z"/>
<text x="0.0" y="117.5" font-size="5.0" font-weight="bold" font-family="Helvetica Neue, Helvetica, Arial-Unicode, Arial, Sans-serif" fill="#000000">Created by David Waschb&#252;sch</text><text x="0.0" y="122.5" font-size="5.0" font-weight="bold" font-family="Helvetica Neue, Helvetica, Arial-Unicode, Arial, Sans-serif" fill="#000000">from the Noun Project</text></svg>