<svg xmlns="http://www.w3.org/2000/svg" xmlns:xlink="http://www.w3.org/1999/xlink" xmlns:a="http://ns.adobe.com/AdobeSVGViewerExtensions/3.0/" version="1.1" x="0px" y="0px" width="100px" height="100px" viewBox="4.249 -11.198 100.0 135.0" enable-background="new -0.751 -1.198 100 100" xml:space="preserve">
<defs>
</defs>
<path d="M98.626,66c-0.24-1.867-1.099-3.658-2.355-4.915l-42.809-42.81c-2.388-2.387-5.313-3.702-8.238-3.702  c-1.742,0-3.393,0.454-4.905,1.349c-0.979,0.579-2.676,1.956-5.056,4.101l-0.262-0.262c0.474-1.499,0.117-3.207-1.069-4.394  l-4.986-4.987c-1.053-1.052-2.906-1.815-4.408-1.815c-1.315,0-2.126,0.535-2.577,0.985l-0.367,0.368L11.123,2.543  c-1.361-1.172-4.727-2.182-6.6-2.182c-0.226,0-0.441,0.013-0.646,0.039C3.49,0.169,3.022,0,2.488,0c-0.713,0-1.37,0.302-1.85,0.85  c-0.47,0.536-0.692,1.219-0.628,1.922c0.039,0.418,0.172,0.79,0.345,1.107C0.235,4.768,0.352,5.875,0.704,7.214  c0.176,0.667,0.807,2.851,1.797,3.977l7.455,10.365l-0.461,0.46c-1.876,1.878-0.761,5.39,0.832,6.983l4.986,4.987  c1.19,1.189,3.036,1.557,4.566,0.98l0.193,0.15c-3.423,3.774-3.989,4.897-4.19,5.296c-2.226,4.413-1.329,9.434,2.34,13.104  l42.809,42.809c1.454,1.454,3.715,2.357,5.899,2.357c1.847,0,3.511-0.647,4.688-1.823l25.287-25.288  C98.297,70.179,98.909,68.201,98.626,66z M24.158,33.27l-2.824-2.229l9.656-9.656l2.558,2.52C30.4,26.889,26.968,30.31,24.158,33.27  z M5.678,8.757L5.506,8.552C5.037,7.961,4.29,5.597,4.299,4.615l0.253-0.253c1.234,0.013,3.475,0.824,3.905,1.161l12.074,8.536  l-6.422,6.422L5.678,8.757z M18.608,31.127c-0.25,0.25-0.367,0.13-0.466,0.031l-4.986-4.986c-0.318-0.318-0.624-1.112-0.646-1.513  l1.477-1.476l8.312-8.31l2.303-2.306c0.497,0.028,1.244,0.371,1.516,0.642l4.985,4.986c0.137,0.137,0.137,0.36,0,0.497l-0.831,0.831  L19.439,30.297L18.608,31.127z M94.078,68.742L68.791,94.03c-0.539,0.539-1.309,0.652-1.859,0.652c-1.128,0-2.361-0.477-3.071-1.186  L21.051,50.688c-2.48-2.481-3.063-5.569-1.598-8.474c0.155-0.307,0.973-1.643,5-5.949l12.122-12.024  c4.079-3.764,5.455-4.683,5.78-4.875c2.509-1.486,5.753-0.786,8.278,1.739l42.809,42.809c0.624,0.625,1.091,1.619,1.216,2.597  C94.729,67.056,94.747,68.073,94.078,68.742z"/>
<path d="M50.677,28.541c-1.266-1.266-3.473-1.266-4.738,0L28.486,45.993c-1.306,1.306-1.306,3.431,0,4.738L61.73,83.974  c0.633,0.633,1.474,0.981,2.369,0.981c0.895,0,1.735-0.349,2.368-0.981L83.92,66.521c1.305-1.307,1.305-3.431,0-4.737L50.677,28.541  z M65.053,82.56c-0.511,0.512-1.4,0.51-1.909,0L29.901,49.317c-0.527-0.526-0.527-1.383,0-1.91l17.454-17.453  c0.254-0.255,0.594-0.396,0.954-0.396c0.361,0,0.7,0.141,0.955,0.396l16.011,16.011c-2.463,3.471-11.783,18.787,3.215,33.159  L65.053,82.56z M82.506,65.107L69.901,77.712c-13.745-13.136-5.732-26.756-3.204-30.324l15.81,15.81  C83.032,63.724,83.032,64.581,82.506,65.107z"/>
<text x="-0.751" y="116.302" font-size="5.0" font-weight="bold" font-family="Helvetica Neue, Helvetica, Arial-Unicode, Arial, Sans-serif" fill="#000000">Created by Cassie McKown</text><text x="-0.751" y="121.302" font-size="5.0" font-weight="bold" font-family="Helvetica Neue, Helvetica, Arial-Unicode, Arial, Sans-serif" fill="#000000">from the Noun Project</text></svg>