<svg xmlns="http://www.w3.org/2000/svg" xmlns:xlink="http://www.w3.org/1999/xlink" version="1.1" id="Layer_1" x="0px" y="0px" width="100px" height="100px" viewBox="5.0 -10.0 100.0 135.0" enable-background="new 0 0 100 100" xml:space="preserve">
<path d="M26.609,32.237c-0.39-0.365-21.139-0.989-21.139-0.989s-2.303,0.165,0.761,4.787c-4.16,5.799-3.501,15.377-4.277,15.933  c-3.233,2.962-1.479,3.559-1.479,3.559s4.791,0.037,9.419,0.037c4.184,0,8.234-0.03,8.492-0.143  c0.542-0.236,9.041-9.593,9.175-10.239C27.695,44.537,27,32.602,26.609,32.237z M17.82,53.48c-0.575,0.042-1.073-0.389-1.115-0.962  c-0.042-0.574,0.389-1.073,0.962-1.115c0.573-0.043,1.072,0.389,1.115,0.962C18.824,52.939,18.393,53.438,17.82,53.48z   M19.847,43.388c-0.417,1.121-4.301,7.581-6.523,9.469c-0.735,0.624-1.511,0.835-2.218,0.835c-1.43,0-2.582-0.86-2.553-0.893  c0.041-0.049-1.149-0.188,1.137-5.533c2.286-5.343,3.571-11.34,3.46-11.604c0,0,2.12-0.062,3.921-0.062  c1.271,0,2.384,0.031,2.485,0.136C19.803,35.991,20.264,42.268,19.847,43.388z M23.788,45.743c-0.573,0.042-1.073-0.388-1.115-0.962  c-0.042-0.574,0.389-1.073,0.962-1.115c0.575-0.042,1.073,0.389,1.115,0.962C24.793,45.202,24.363,45.702,23.788,45.743z   M24.163,36.624c-0.574,0.042-1.073-0.389-1.115-0.962c-0.042-0.574,0.388-1.073,0.963-1.115c0.573-0.042,1.073,0.389,1.115,0.962  C25.167,36.083,24.736,36.582,24.163,36.624z"/>
<path d="M22.387,57.159c0.427,0.184,0.758,0.384,1.079,0.587c0.256-0.346,0.512-0.689,0.891-1.058  c0.403,0.173,0.721,0.36,1.025,0.552c0.259-0.351,0.518-0.7,0.902-1.072c0.488,0.208,0.853,0.441,1.217,0.673  c0.246-0.331,0.495-0.661,0.858-1.013c0.5,0.214,0.87,0.452,1.244,0.69c0.003,0.034,0.012,0.068,0.016,0.104l0.006-0.002  c-0.009-0.039-0.015-0.079-0.024-0.118c0.263-0.355,0.523-0.711,0.914-1.089c0.417,0.179,0.743,0.374,1.057,0.572  c0.256-0.346,0.512-0.69,0.892-1.059c0.297,0.127,0.546,0.263,0.779,0.401c0.167-0.209,0.348-0.421,0.575-0.643  c0.491,0.21,0.856,0.443,1.222,0.676c0.22-0.293,0.452-0.589,0.774-0.9c0.402,0.173,0.721,0.361,1.025,0.552  c0.259-0.35,0.518-0.699,0.902-1.072c0.488,0.209,0.853,0.441,1.217,0.674c0.246-0.331,0.495-0.662,0.858-1.014  c0.5,0.215,0.87,0.453,1.244,0.69c0.005,0.049,0.016,0.095,0.022,0.143l0.008-0.002c-0.011-0.052-0.02-0.105-0.033-0.156  c0.264-0.356,0.524-0.711,0.915-1.089c0.417,0.178,0.742,0.373,1.056,0.571c0.256-0.346,0.512-0.69,0.892-1.059  c0.399,0.172,0.716,0.357,1.017,0.547c0.152-0.188,0.32-0.38,0.524-0.578c0.49,0.21,0.855,0.443,1.222,0.677  c0.219-0.293,0.453-0.589,0.774-0.9c0.403,0.172,0.72,0.36,1.024,0.552c0.26-0.351,0.518-0.7,0.903-1.073  c0.488,0.21,0.852,0.442,1.217,0.674c0.245-0.33,0.495-0.661,0.857-1.013c0.469,0.2,0.822,0.422,1.172,0.645l0.106-0.021  c0.252-0.339,0.505-0.678,0.877-1.04c0.418,0.18,0.743,0.375,1.057,0.573c0.257-0.347,0.513-0.691,0.892-1.06  c0.478,0.205,0.835,0.43,1.191,0.657c-0.008-0.035-0.013-0.071-0.022-0.106c0.264-0.355,0.524-0.711,0.915-1.089  c0.49,0.21,0.855,0.444,1.222,0.676c0.22-0.293,0.452-0.589,0.774-0.901c0.403,0.172,0.721,0.361,1.024,0.552  c0.26-0.35,0.518-0.7,0.902-1.072c0.488,0.208,0.852,0.441,1.217,0.672c0.245-0.33,0.495-0.661,0.857-1.013  c0.501,0.214,0.87,0.453,1.244,0.69c0.006,0.046,0.016,0.09,0.021,0.135l0.008-0.001c-0.011-0.05-0.02-0.101-0.032-0.15  c0.265-0.355,0.525-0.71,0.916-1.089c0.416,0.179,0.742,0.375,1.056,0.573c0.256-0.345,0.513-0.69,0.893-1.059  c0.296,0.126,0.545,0.263,0.778,0.402c0.165-0.209,0.347-0.422,0.575-0.643c0.49,0.21,0.855,0.443,1.222,0.676  c0.219-0.293,0.453-0.589,0.773-0.9c0.403,0.172,0.722,0.361,1.024,0.552c0.261-0.35,0.519-0.7,0.903-1.073  c0.488,0.209,0.852,0.441,1.217,0.674c0.245-0.331,0.495-0.662,0.857-1.013c0.501,0.213,0.87,0.453,1.244,0.69  c0.007,0.058,0.019,0.115,0.027,0.173l0.01-0.002c-0.014-0.062-0.023-0.126-0.039-0.188c0.264-0.355,0.523-0.71,0.914-1.089  c0.418,0.179,0.743,0.375,1.057,0.572c0.257-0.345,0.513-0.69,0.892-1.058c0.399,0.171,0.716,0.358,1.018,0.547  c0.151-0.189,0.32-0.38,0.523-0.579c0.49,0.211,0.855,0.443,1.222,0.676c0.22-0.293,0.453-0.588,0.773-0.901  c0.403,0.173,0.722,0.362,1.025,0.552c0.26-0.349,0.519-0.699,0.902-1.072c0.488,0.209,0.853,0.441,1.217,0.674  c0.245-0.331,0.495-0.662,0.858-1.014c0.485,0.208,0.848,0.438,1.21,0.669l0.04-0.007c0.261-0.352,0.52-0.703,0.905-1.077  c0.418,0.179,0.743,0.374,1.057,0.572c0.257-0.345,0.513-0.69,0.893-1.059c0.32,0.138,0.587,0.286,0.836,0.437  c0.203-0.268,0.423-0.539,0.716-0.823c0.488,0.209,0.853,0.442,1.217,0.674c0.246-0.33,0.495-0.661,0.858-1.013  c0.5,0.214,0.87,0.453,1.244,0.69c0.004,0.04,0.013,0.08,0.019,0.119l0.007-0.001c-0.011-0.044-0.017-0.09-0.028-0.134  c0.264-0.355,0.523-0.71,0.914-1.089c0.417,0.179,0.743,0.375,1.057,0.572c0.256-0.346,0.513-0.691,0.893-1.059  c0.362,0.156,0.656,0.324,0.934,0.495l-0.371-6.905l-71.543-2.271c0.115,0.986,0.246,2.521,0.408,4.952  c0.004,0.061,0.402,6.114,0.265,6.773c-0.219,1.056-9.01,10.5-9.594,10.756c-0.106,0.046-0.222,0.095-1.27,0.133l2.805,2.2  l1.323-0.253C21.777,57.838,22.027,57.509,22.387,57.159z M95.196,37.812c0.798-0.059,1.492,0.541,1.551,1.339  c0.059,0.798-0.541,1.492-1.339,1.551c-0.798,0.059-1.493-0.541-1.552-1.339C93.798,38.565,94.397,37.871,95.196,37.812z"/>
<text x="0.0" y="117.5" font-size="5.0" font-weight="bold" font-family="Helvetica Neue, Helvetica, Arial-Unicode, Arial, Sans-serif" fill="#000000">Created by Daniel Garrett Hickey</text><text x="0.0" y="122.5" font-size="5.0" font-weight="bold" font-family="Helvetica Neue, Helvetica, Arial-Unicode, Arial, Sans-serif" fill="#000000">from the Noun Project</text></svg>