<svg xmlns="http://www.w3.org/2000/svg" xmlns:xlink="http://www.w3.org/1999/xlink" version="1.1" id="Layer_1" x="0px" y="0px" viewBox="5.0 -10.0 100.0 135.0" enable-background="new 0 0 100 100" xml:space="preserve" height="100px" width="100px">
<polygon points="61.74,73.38 61.74,73.4 61.7,73.38 "/>
<path d="M61.7,73.38l0.04,0.02v-0.02H61.7z"/>
<polygon points="62.91,64.75 62.74,64.75 62.74,64.68 "/>
<polygon points="61.74,73.38 61.74,73.4 61.7,73.38 "/>
<polygon points="61.74,73.38 61.74,73.4 61.7,73.38 "/>
<path d="M63.53,73.27v0.11h-0.08C63.48,73.34,63.51,73.31,63.53,73.27z"/>
<path d="M61.7,73.38l0.04,0.02v-0.02H61.7z"/>
<path d="M79.12,92.32c-1.5,0-2.77,0.99-3.2,2.35H65.53v-1.44c0-0.56-0.45-1-1-1h-1.79v-0.32c0.37-0.02,0.71-0.24,0.87-0.6  c0.22-0.5-0.01-1.09-0.52-1.31l-0.35-0.15v-3.42c0.37-0.02,0.71-0.25,0.87-0.6c0.22-0.51-0.01-1.1-0.52-1.32l-0.35-0.15v-2.91  c0.37-0.02,0.71-0.24,0.87-0.6c0.22-0.5-0.01-1.09-0.52-1.31l-0.35-0.15v-4.01h1.79c0.55,0,1-0.45,1-1v-8.63c0-0.55-0.45-1-1-1  h-1.79v-2.97c0.37-0.02,0.71-0.25,0.87-0.6c0.22-0.51-0.01-1.1-0.52-1.32l-0.35-0.15v-3.9c0.37-0.02,0.71-0.25,0.87-0.6  c0.22-0.51-0.01-1.1-0.52-1.32l-0.35-0.15v-3.42c0.37-0.02,0.71-0.24,0.87-0.6c0.22-0.51-0.01-1.1-0.52-1.32l-0.35-0.15v-9.57  l2.89-2.94c0.18-0.19,0.28-0.44,0.28-0.7v-1.59c0-0.55-0.44-1-1-1H54.48c-0.55,0-1,0.45-1,1v1.59c0,0.26,0.1,0.51,0.29,0.7  l2.89,2.94v1.52c-0.36,0.02-0.7,0.23-0.86,0.58c-0.24,0.5-0.02,1.09,0.48,1.33l0.38,0.18v3.4c-0.37,0.02-0.72,0.23-0.87,0.6  c-0.23,0.5,0,1.09,0.51,1.32l0.36,0.16v3.41c-0.38,0.02-0.72,0.23-0.87,0.59c-0.23,0.51,0,1.1,0.51,1.32l0.36,0.16v3.9  c-0.37,0.02-0.72,0.23-0.87,0.6c-0.23,0.5,0,1.09,0.51,1.32l0.36,0.16v2.89c-0.37,0.01-0.71,0.23-0.87,0.6  c-0.23,0.51,0,1.1,0.51,1.32l0.36,0.16v0.55h-1.38c-0.5,0-0.92,0.37-0.99,0.86H35.91c-1.66,0-3-1.35-3-3V17.88c0-1.66,1.34-3,3-3  h17.37v2.25c0,0.55,0.45,1,1,1h10.88c0.55,0,1-0.45,1-1v-5.5c0-0.55-0.45-1-1-1h-4.19C58.45,5.8,49.92,0.88,38.31,0.88  c-13.98,0-20.78,13.52-20.78,41.32c0,30.11,9.99,36.43,18.38,36.43c5.49,0,8.18-1.12,10.77-2.2c2.1-0.87,4.1-1.7,7.63-1.83  c0.1,0.45,0.5,0.78,0.97,0.78h1.38v1.45c-0.38,0.02-0.72,0.23-0.87,0.59c-0.23,0.51,0,1.1,0.51,1.32l0.36,0.16v2.9  c-0.37,0.02-0.72,0.23-0.87,0.6c-0.23,0.5,0,1.09,0.51,1.31l0.36,0.16v3.42c-0.38,0.02-0.72,0.23-0.87,0.59  c-0.23,0.51,0,1.1,0.51,1.32l0.36,0.16v2.87h-1.38c-0.55,0-1,0.44-1,1v1.44H43.47c-0.43-1.36-1.7-2.35-3.19-2.35  c-1.85,0-3.35,1.51-3.35,3.35c0,1.85,1.5,3.35,3.35,3.35c1.5,0,2.77-0.99,3.19-2.35h10.81v1.45c0,0.55,0.45,1,1,1h9.25  c0.55,0,1-0.45,1-1v-1.45h10.39c0.42,1.36,1.7,2.35,3.2,2.35c1.84,0,3.35-1.5,3.35-3.35C82.47,93.83,80.96,92.32,79.12,92.32z   M64.16,12.63v3.5h-8.88v-3.5H64.16z M54.28,72.6c-3.92,0.14-6.18,1.07-8.36,1.98c-2.42,1.01-4.92,2.05-10.01,2.05  c-10.87,0-16.38-11.58-16.38-34.43c0-39.32,14.14-39.32,18.78-39.32c11.06,0,17.82,4.31,20.31,7.75h-4.34c-0.55,0-1,0.45-1,1v1.25  H35.91c-2.76,0-5,2.24-5,5v44.73c0,2.76,2.24,5,5,5h18.37V72.6z M55.48,34.63v-0.18h8.43v0.18l-2.89,2.95  c-0.18,0.18-0.28,0.43-0.28,0.7v9.09l-2.08-0.92v-3.23l0.1,0.05c0.13,0.07,0.28,0.1,0.42,0.1c0.38,0,0.74-0.21,0.91-0.57  c0.23-0.5,0.02-1.1-0.48-1.33l-0.95-0.45v-2.74c0-0.27-0.11-0.52-0.29-0.7L55.48,34.63z M58.66,57.91v-3.78l2.08,0.91v3.79  L58.66,57.91z M60.74,61.01v2.79l-2.08-0.91V60.1L60.74,61.01z M58.66,51.94v-3.3l2.08,0.91v3.31L58.66,51.94z M56.28,73.38v-6.63  h7.25v6.63h-1.79v0.02l-0.04-0.02H56.28z M58.66,88.05v-3.3l2.08,0.91v3.31L58.66,88.05z M60.74,91.15v1.08h-2.08v-1.99L60.74,91.15  z M58.66,82.56v-2.78l2.08,0.91v2.79L58.66,82.56z M58.66,77.59v-2.21h2.08v3.13L58.66,77.59z M63.53,97.12h-7.25v-2.89h7.25V97.12z  "/>
<text x="0.0" y="117.5" font-size="5.0" font-weight="bold" font-family="Helvetica Neue, Helvetica, Arial-Unicode, Arial, Sans-serif" fill="#000000">Created by Ed Harrison</text><text x="0.0" y="122.5" font-size="5.0" font-weight="bold" font-family="Helvetica Neue, Helvetica, Arial-Unicode, Arial, Sans-serif" fill="#000000">from the Noun Project</text></svg>