<svg xmlns="http://www.w3.org/2000/svg" xmlns:xlink="http://www.w3.org/1999/xlink" version="1.1" id="Layer_1" x="0px" y="0px" width="100px" height="100px" viewBox="5.0 -10.0 100.0 135.0" enable-background="new 0 0 100 100" xml:space="preserve">
<path d="M33.879,36.02H15.89c-1.338,0-8.21,6.873-8.21,8.21v20.305c0,1.338,1.084,2.422,2.422,2.422h29.565  c1.337,0,2.422-1.084,2.422-2.422V44.23C42.089,42.893,35.218,36.02,33.879,36.02z"/>
<path d="M51.443,58.111l1.483-0.499c0.693,0,1.256-0.416,1.256-0.929v-8.982c0-0.514-0.562-0.929-1.256-0.929l-1.483-0.5V58.111z"/>
<path d="M98.414,63.283v3.034c0,0.231-0.188,0.419-0.419,0.419s-0.418-0.188-0.418-0.419v-3.034h-2.093v5.546  c0,0.463-0.375,0.837-0.837,0.837s-0.838-0.374-0.838-0.837v-5.546h-2.092v3.034c0,0.231-0.188,0.419-0.419,0.419  s-0.419-0.188-0.419-0.419v-3.034h-2.093v5.546c0,0.463-0.375,0.837-0.837,0.837s-0.837-0.374-0.837-0.837v-5.546h-2.093v3.034  c0,0.231-0.188,0.419-0.418,0.419c-0.231,0-0.419-0.188-0.419-0.419v-3.034h-2.093v5.546c0,0.463-0.375,0.837-0.837,0.837  s-0.837-0.374-0.837-0.837v-5.546h-2.093v3.034c0,0.231-0.188,0.419-0.419,0.419s-0.418-0.188-0.418-0.419v-3.034h-2.093v5.546  c0,0.463-0.375,0.837-0.837,0.837s-0.838-0.374-0.838-0.837v-5.546h-2.093v3.034c0,0.231-0.187,0.419-0.418,0.419  s-0.419-0.188-0.419-0.419v-3.034h-2.093v5.546c0,0.463-0.375,0.837-0.837,0.837s-0.837-0.374-0.837-0.837v-5.546h-2.093v3.034  c0,0.231-0.188,0.419-0.418,0.419c-0.231,0-0.419-0.188-0.419-0.419v-3.034h-2.093v5.546c0,0.463-0.375,0.837-0.837,0.837  s-0.837-0.374-0.837-0.837v-5.546h-2.093v3.034c0,0.231-0.188,0.419-0.419,0.419s-0.418-0.188-0.418-0.419v-3.034h-2.093v5.546  c0,0.463-0.376,0.837-0.837,0.837c-0.462,0-0.838-0.374-0.838-0.837v-5.546h-2.187v7.074c0,1.231-0.433,2.361-1.152,3.251h49.588  V63.283H98.414z"/>
<path d="M37.895,29.115H11.875C9.939,29.115,0,39.055,0,40.99v29.368c0,1.936,1.569,3.504,3.503,3.504h42.762  c1.935,0,3.504-1.568,3.504-3.504V40.99C49.77,39.055,39.83,29.115,37.895,29.115z M42.926,64.535c0,1.798-1.462,3.259-3.259,3.259  H10.102c-1.797,0-3.259-1.461-3.259-3.259V44.23c0-1.117,2.092-3.443,3.848-5.199c1.756-1.756,4.083-3.849,5.199-3.849h17.99  c1.116,0,3.443,2.092,5.199,3.849c1.755,1.756,3.848,4.082,3.848,5.199V64.535z"/>
<text x="0.0" y="117.5" font-size="5.0" font-weight="bold" font-family="Helvetica Neue, Helvetica, Arial-Unicode, Arial, Sans-serif" fill="#000000">Created by Daniel Garrett Hickey</text><text x="0.0" y="122.5" font-size="5.0" font-weight="bold" font-family="Helvetica Neue, Helvetica, Arial-Unicode, Arial, Sans-serif" fill="#000000">from the Noun Project</text></svg>