<svg xmlns="http://www.w3.org/2000/svg" xmlns:xlink="http://www.w3.org/1999/xlink" version="1.1" id="Your_Icon" x="0px" y="0px" width="100px" height="100px" viewBox="0 0 100 100" enable-background="new 0 0 100 100" xml:space="preserve">
<path d="M103,0.327L100.679-2L27.962,70.717c-0.653-0.564-1.33-1.083-2.03-1.562l6.393-11.064l-2.849-1.645l-6.387,11.065  c-0.771-0.371-1.561-0.701-2.362-0.982l5.959-22.246l-3.17-0.849l-5.965,22.248c-0.837-0.16-1.686-0.267-2.535-0.329v-12.78h-3.289  v12.78c-0.849,0.062-1.691,0.169-2.535,0.329L3.233,43.435l-3.176,0.849l5.959,22.246c-0.801,0.278-1.591,0.608-2.362,0.982  l-6.387-11.065l-2.849,1.645l6.393,11.067c-0.701,0.473-1.377,0.994-2.03,1.559l-16.289-16.291l-2.327,2.323L-3.54,73.041  c-0.564,0.652-1.086,1.326-1.562,2.026l-11.064-6.39l-1.645,2.847l11.065,6.387c-0.374,0.771-0.707,1.562-0.985,2.362l-22.243-5.96  l-0.849,3.176l22.248,5.96c-0.16,0.837-0.267,1.687-0.332,2.535h-12.78v3.288h12.78c0.065,0.85,0.172,1.698,0.332,2.535  l-22.248,5.966l0.849,3.17l22.243-5.96c0.279,0.801,0.611,1.591,0.985,2.362l-11.065,6.388l1.645,2.849l11.064-6.387  c0.475,0.694,0.998,1.371,1.562,2.024l-15.072,15.071l2.321,2.327l15.078-15.078c0.647,0.567,1.324,1.087,2.024,1.562l-6.393,11.064  l2.849,1.645l6.387-11.062c0.771,0.371,1.561,0.703,2.362,0.982l-5.959,22.242l3.176,0.852l5.959-22.248  c0.837,0.157,1.686,0.264,2.535,0.329v12.78h3.289v-12.78c0.849-0.065,1.698-0.172,2.535-0.332l5.959,22.254l3.176-0.854  l-5.959-22.242c0.801-0.279,1.591-0.611,2.362-0.985l6.387,11.064l2.849-1.642l-6.393-11.067c0.701-0.475,1.377-0.994,2.03-1.562  l16.289,16.295l2.327-2.327L30.283,102.22c0.564-0.653,1.086-1.33,1.562-2.024l11.064,6.387l1.645-2.846l-11.065-6.391  c0.374-0.771,0.707-1.562,0.985-2.359l22.243,5.957l0.854-3.173l-22.248-5.963c0.154-0.837,0.261-1.686,0.326-2.535h12.78v-3.288  h-12.78c-0.065-0.849-0.172-1.695-0.333-2.535l22.249-5.963l-0.849-3.173l-22.243,5.96c-0.285-0.801-0.611-1.588-0.985-2.362  l11.065-6.387l-1.645-2.847l-11.064,6.39c-0.475-0.697-0.998-1.374-1.562-2.026L103,0.327z"/>
</svg>