<svg xmlns="http://www.w3.org/2000/svg" xmlns:xlink="http://www.w3.org/1999/xlink" version="1.1" x="0px" y="0px" width="100px" height="78.214px" viewBox="0 0 100 78.214" enable-background="new 0 0 100 78.214" xml:space="preserve">
<g id="_x30_">
</g>
<g id="Layer_2">
	<g>
		<g>
			<g id="XMLID_3_">
				<g>
					<g>
						<g>
							<path fill="#000000" d="M98.472,12.676l0.926,1.361c-0.843,1.284-2.297,1.649-2.544,1.703l-0.925-1.361         C96.071,14.17,96.955,12.968,98.472,12.676z"/>
						</g>
					</g>
					<g>
						<g>
							<path fill="#000000" d="M84.444,5.929c-0.148,0.204-1.071,1.377-2.596,1.622l-0.881-1.391         c0.883-1.257,2.349-1.574,2.599-1.62L84.444,5.929z"/>
						</g>
					</g>
					<g>
						<g>
							<path fill="#000000" d="M89.208,3.208l-0.286-0.417c0.382-0.184,0.704-0.414,0.959-0.631l0.278,0.403L89.208,3.208z"/>
						</g>
					</g>
					<g>
						<g>
							<path fill="#000000" d="M83.829,6.644l0.041,0.057c-0.254,0.218-0.575,0.447-0.959,0.632L82.88,7.289L83.829,6.644z"/>
						</g>
					</g>
					<g>
						<g>
							<path fill="#000000" d="M91.75,16.873l0.924,1.362c-0.84,1.284-2.294,1.648-2.542,1.702l-0.926-1.361         C89.351,18.369,90.235,17.166,91.75,16.873z"/>
						</g>
					</g>
					<g>
						<g>
							<path fill="#000000" d="M92.792,18.264c-0.938,1.47-2.66,1.789-2.678,1.793l-0.037,0.007l-1.008-1.486l0.021-0.031         c0.004-0.007,0.231-0.362,0.667-0.758l0.043,0.054l0.928-0.674l-0.031-0.042c0.313-0.165,0.672-0.3,1.071-0.373l0.037-0.007         l1.008,1.486L92.792,18.264z M90.132,19.937c0.248-0.054,1.702-0.418,2.542-1.702l-0.924-1.362         c-1.515,0.292-2.399,1.496-2.544,1.703L90.132,19.937z"/>
						</g>
					</g>
					<g>
						<g>
							<path fill="#000000" d="M97.114,12.52l0.303,0.409c-0.376,0.196-0.691,0.435-0.938,0.661l-0.291-0.394L97.114,12.52z"/>
						</g>
					</g>
					<g>
						<g>
							<path fill="#000000" d="M89.575,0c-0.248,0.046-1.713,0.363-2.596,1.62l0.881,1.39c1.521-0.245,2.445-1.417,2.596-1.622         L89.575,0z M88.893,2.749l0.029,0.043c-0.32,0.154-0.679,0.276-1.083,0.336l-0.037,0.006l-0.959-1.518l0.02-0.031         c0.988-1.438,2.715-1.703,2.732-1.705l0.039-0.005l0.959,1.517l-0.021,0.03c-0.004,0.007-0.244,0.354-0.69,0.737l-0.04-0.058         L88.893,2.749z"/>
						</g>
					</g>
					<g>
						<g>
							<path fill="#000000" d="M90.696,17.126c-0.379,0.197-0.691,0.437-0.939,0.663l-0.291-0.396l0.928-0.676L90.696,17.126z"/>
						</g>
					</g>
					<g>
						<g>
							<path fill="#000000" d="M83.87,6.701l0.277,0.403L83.198,7.75l-0.287-0.417C83.295,7.148,83.616,6.919,83.87,6.701z"/>
						</g>
					</g>
					<g>
						<g>
							<path fill="#000000" d="M82.911,7.333c-0.32,0.154-0.68,0.276-1.081,0.337l-0.038,0.006l-0.958-1.519l0.02-0.031         c0.986-1.438,2.715-1.702,2.733-1.705l0.037-0.005l0.961,1.517l-0.021,0.03c-0.006,0.007-0.246,0.355-0.693,0.737         l-0.041-0.057L82.88,7.289L82.911,7.333z M83.566,4.541c-0.25,0.046-1.716,0.363-2.599,1.62l0.881,1.391         c1.524-0.245,2.447-1.418,2.596-1.622L83.566,4.541z"/>
						</g>
					</g>
					<g>
						<g>
							<path fill="#000000" d="M88.893,2.749l0.948-0.646l0.04,0.058c-0.255,0.217-0.577,0.448-0.959,0.631L88.893,2.749z"/>
						</g>
					</g>
					<g>
						<g>
							<path fill="#000000" d="M99.397,14.037l-0.926-1.361c-1.517,0.292-2.4,1.495-2.543,1.703l0.925,1.361         C97.101,15.686,98.555,15.321,99.397,14.037z M98.523,12.55l1.008,1.484l-0.02,0.032c-0.938,1.471-2.658,1.79-2.674,1.792         l-0.037,0.007L95.79,14.38l0.021-0.031c0.004-0.008,0.232-0.362,0.668-0.76l0.041,0.056l0.926-0.675l-0.029-0.042         c0.313-0.165,0.672-0.299,1.07-0.373L98.523,12.55z"/>
						</g>
					</g>
					<g>
						<g>
							<path fill="#000000" d="M89.575,0l0.881,1.389c-0.15,0.204-1.074,1.377-2.596,1.622l-0.881-1.39         C87.862,0.363,89.327,0.046,89.575,0z"/>
						</g>
					</g>
					<g>
						<g>
							<path fill="#000000" d="M97.446,12.97l-0.926,0.675l-0.041-0.056c0.246-0.227,0.562-0.465,0.938-0.661L97.446,12.97z"/>
						</g>
					</g>
					<g>
						<g>
							<path fill="#000000" d="M89.757,17.789c0.248-0.227,0.561-0.466,0.939-0.663l0.031,0.042L89.8,17.843L89.757,17.789z"/>
						</g>
					</g>
				</g>
			</g>
		</g>
	</g>
	<g>
		<g>
			<g>
				<path fill="#000000" d="M43.68,36.572c0,0-6.376-8.581-14.877,0l-2.755,2.519c0,0-2.014,3.282-9.492,3.675      C9.078,43.16,2.136,46.412,0.384,53.733c0,0-2.028,6.377,3.228,13.52c0,0,4.312,6.789,9.212,9.211c0,0,5.135,2.834,11.334,1.003      c0,0,5.215-1.072,8.818-7.979c0,0,3.227-6.78,5.174-7.961c0,0,2.965-1.99,4.959-2.834c1.747-0.739,7.439-3.749,7.558-8.03      c0,0,0.138-3.188-1.317-5.904l30.484-22.39c0,0,0.694-0.148,0.915-0.605c0,0,2.494-1.683,3.29-1.83      c0.797-0.148,2.239-0.276,3.272-0.778c0,0,10.214-6.436,12.654-8.088c0,0,0.167-0.207-0.216-0.767      c-0.385-0.561-1.438-3.149-1.408-4.212c0.031-1.063,0.088-1.683-2.008-2.597c0,0-2.241-1.86-2.775-2.746      c0,0-0.33-0.85-1.135-0.192L81.868,8.744c0,0-2.36,2.362-2.922,3.366c0,0-0.68,1.416-2.657,3.128c0,0-0.604,0.258-0.806,0.679      L43.68,36.572z"/>
			</g>
		</g>
	</g>
	<g>
		<g>
			<g>
				
					<rect x="73.769" y="19.084" transform="matrix(0.5588 0.8293 -0.8293 0.5588 50.1425 -55.958)" fill="#000000" width="7.778" height="0.118"/>
			</g>
		</g>
	</g>
	<g>
		<g>
			<g>
				
					<rect x="74.569" y="18.441" transform="matrix(0.5641 0.8257 -0.8257 0.5641 49.5023 -56.7699)" fill="#000000" width="7.901" height="0.119"/>
			</g>
		</g>
	</g>
	<g>
		<g>
			<g>
				<circle fill="#000000" cx="88.717" cy="15.032" r="0.708"/>
			</g>
		</g>
	</g>
	<g>
		<g>
			<g>
				<circle fill="#000000" cx="85.412" cy="10.042" r="0.708"/>
			</g>
		</g>
	</g>
	<g>
		<g>
			<g>
				<circle fill="#000000" cx="91.73" cy="5.113" r="0.708"/>
			</g>
		</g>
	</g>
	<g>
		<g>
			<g>
				<circle fill="#000000" cx="95.447" cy="10.515" r="0.708"/>
			</g>
		</g>
	</g>
	<g>
		<g id="XMLID_1_">
			<g>
				<g>
					<g>
						<path fill="#000000" d="M39.292,50.25c0,0.104-0.002,0.208-0.008,0.31l-8.339,6.097c-1.03-0.274-1.964-0.791-2.731-1.485        l10.57-7.472C39.112,48.485,39.292,49.346,39.292,50.25z"/>
					</g>
				</g>
				<g>
					<g>
						<path fill="#000000" d="M30.945,56.656l8.339-6.097c-0.162,3.52-3.063,6.322-6.623,6.322        C32.065,56.881,31.492,56.802,30.945,56.656z"/>
					</g>
				</g>
				<g>
					<g>
						<path fill="#000000" d="M38.784,47.699l-10.57,7.472c-0.631-0.569-1.152-1.262-1.527-2.035l10.783-7.449        C38.021,46.267,38.47,46.948,38.784,47.699z"/>
					</g>
				</g>
				<g>
					<g>
						<path fill="#000000" d="M37.47,45.686l-10.783,7.449c-0.412-0.851-0.645-1.802-0.656-2.807l9.259-6.169        C36.116,44.517,36.857,45.041,37.47,45.686z"/>
					</g>
				</g>
				<g>
					<g>
						<path fill="#000000" d="M35.289,44.16l-9.259,6.169c0-0.027-0.002-0.054-0.002-0.079c0-3.663,2.969-6.633,6.633-6.633        C33.593,43.617,34.481,43.812,35.289,44.16z"/>
					</g>
				</g>
			</g>
			<g>
				<g>
					<g>
						
							<rect x="18.247" y="46.254" transform="matrix(0.5579 0.8299 -0.8299 0.5579 54.12 9.2011)" fill="#000000" width="0.355" height="18.283"/>
					</g>
				</g>
				<g>
					<g>
						
							<rect x="30.423" y="41.681" transform="matrix(0.5571 0.8305 -0.8305 0.5571 52.813 -4.5362)" fill="#000000" width="0.472" height="11.126"/>
					</g>
				</g>
				<g>
					<g>
						
							<rect x="60.364" y="-3.006" transform="matrix(0.5566 0.8308 -0.8308 0.5566 49.5559 -38.1758)" fill="#000000" width="0.356" height="60.686"/>
					</g>
				</g>
				<g>
					<g>
						
							<rect x="31.841" y="42.858" transform="matrix(0.5699 0.8217 -0.8217 0.5699 54.4009 -5.1055)" fill="#000000" width="0.473" height="13.104"/>
					</g>
				</g>
				<g>
					<g>
						<polygon fill="#000000" points="37.569,45.832 37.37,45.541 77.549,17.784 91.997,5.376 92.228,5.646 77.76,18.071       "/>
					</g>
				</g>
				<g>
					<g>
						
							<rect x="19.41" y="49.412" transform="matrix(0.5668 0.8239 -0.8239 0.5668 56.3026 9.0072)" fill="#000000" width="0.353" height="17.254"/>
					</g>
				</g>
				<g>
					<g>
						
							<rect x="33.264" y="44.963" transform="matrix(0.5755 0.8178 -0.8178 0.5755 56.2805 -5.5638)" fill="#000000" width="0.472" height="12.941"/>
					</g>
				</g>
				<g>
					<g>
						<polygon fill="#000000" points="38.886,47.845 38.683,47.554 78.423,19.46 78.429,19.457 95.185,9.816 95.359,10.124         78.612,19.759       "/>
					</g>
				</g>
				<g>
					<g>
						
							<rect x="21.081" y="51.568" transform="matrix(0.5736 0.8191 -0.8191 0.5736 58.2827 8.2069)" fill="#000000" width="0.354" height="17.043"/>
					</g>
				</g>
				<g>
					<g>
						
							<rect x="23.36" y="52.893" transform="matrix(0.5934 0.8049 -0.8049 0.5934 59.534 6.2932)" fill="#000000" width="0.355" height="18.358"/>
					</g>
				</g>
				<g>
					<g>
						
							<rect x="34.878" y="48.444" transform="matrix(0.5917 0.8061 -0.8061 0.5917 57.5528 -6.4207)" fill="#000000" width="0.474" height="10.329"/>
					</g>
				</g>
				<g>
					<g>
						<polygon fill="#000000" points="39.389,50.702 39.179,50.417 79.63,20.842 88.269,14.397 88.479,14.681 79.841,21.127               "/>
					</g>
				</g>
			</g>
		</g>
	</g>
	<path fill="#000000" d="M18.645,68.606c-0.152,0-0.303-0.069-0.401-0.201l-7.5-10.067c-0.165-0.222-0.119-0.535,0.103-0.7   c0.22-0.164,0.533-0.12,0.7,0.103l7.5,10.067c0.165,0.222,0.119,0.535-0.103,0.7C18.854,68.574,18.749,68.606,18.645,68.606z"/>
</g>
</svg>