<svg xmlns="http://www.w3.org/2000/svg" xmlns:xlink="http://www.w3.org/1999/xlink" version="1.1" id="Layer_1" x="0px" y="0px" width="100px" height="53.29px" viewBox="5.0 -5.329 100.0 71.9415" enable-background="new 0 0 100 53.29" xml:space="preserve">
<path d="M17.443,36.427c2.282-0.827,3.865-2.631,3.865-4.725c0-2.876-2.986-5.207-6.669-5.207s-6.668,2.331-6.668,5.207  c0,2.094,1.583,3.897,3.865,4.725c0.142,0.714,0.232,2.104-0.803,3.313c-1.465,1.713-2.705,3.182-1.803,4.527h3.832h1.578h1.578  h3.832c0.902-1.346-0.338-2.814-1.803-4.527C17.211,38.531,17.301,37.141,17.443,36.427z"/>
<path d="M73.272,17.186c4.319-7.966,23.215-5.676,21.158-4.995c-13.305,4.406-7.791,6.983-1.466,16.011  c5.105,7.285-1.002,16.065-1.002,16.065H67.287v-2.052l8.182-1.491c0,0,5.658-0.568,7.032-1.55c0,0,1.57-2.159,0.785-4.712  S72.88,17.971,72.88,17.971L73.272,17.186z"/>
<polygon points="54.708,21.588 52.849,19.477 54.444,18.071 52.368,15.714 47.947,19.606 50.023,21.964 51.495,20.669   53.393,22.825 "/>
<path d="M67.812,45.166c-2.067-0.733-4.581-2.002-7.482-4.166c-2.687-2.004-4.601-3.601-6.09-4.867v-2.154h1.25v1.651h2.188v2.892  h2.032V28.36h-2.032v2.892h-2.188v1.651h-1.25v-3.364l26.472-23.49l-1.274-1.048L48.801,32.185  c-0.164-0.142-0.336-0.276-0.515-0.403l18.237-16.304l-1.912-1.573l-18.745,16.76c-0.625-0.162-1.284-0.25-1.967-0.25  c-1.94,0-3.698,0.699-4.975,1.832C36.261,33.281,34.522,35.74,27.47,41c-2.902,2.164-5.416,3.433-7.482,4.166H5v3.123h83.014v-3.123  H67.812z M53.301,30.371v4.962c-1.188-1.014-2.092-1.772-2.964-2.331L53.301,30.371z"/>
<text x="0.0" y="62.61575" font-size="2.6645" font-weight="bold" font-family="Helvetica Neue, Helvetica, Arial-Unicode, Arial, Sans-serif" fill="#000000">Created by jon trillana</text><text x="0.0" y="65.28025" font-size="2.6645" font-weight="bold" font-family="Helvetica Neue, Helvetica, Arial-Unicode, Arial, Sans-serif" fill="#000000">from the Noun Project</text></svg>