<svg xmlns="http://www.w3.org/2000/svg" xmlns:xlink="http://www.w3.org/1999/xlink" version="1.1" id="Calque_1" x="0px" y="0px" width="100px" height="100px" viewBox="5.0 -10.0 100.0 135.0" enable-background="new 0 0 100 100" xml:space="preserve">
<path d="M88.961,13.337l-1.696-1.696c-0.217-0.218-0.555-0.256-0.815-0.097l-9.195,5.624c-0.152,0.093-0.261,0.243-0.3,0.417  l-0.693,3.008L46.589,50.266l-0.122-0.121c-0.779-0.78-2.054-0.78-2.836,0.002l-0.9,0.901l-0.171-0.171  c-1.324-1.324-3.63-1.324-4.954,0L11.947,76.535c-0.662,0.661-1.027,1.542-1.027,2.478s0.365,1.816,1.027,2.478l7.164,7.166  c0.662,0.662,1.542,1.026,2.479,1.026c0.936,0,1.815-0.364,2.477-1.026l25.659-25.659c1.365-1.365,1.365-3.588-0.001-4.955  l-0.169-0.169l0.902-0.901c0.782-0.782,0.782-2.055,0-2.837l-0.12-0.12l29.673-29.672l3.007-0.694c0.173-0.04,0.323-0.147,0.416-0.3  l5.624-9.197C89.217,13.891,89.178,13.554,88.961,13.337z M38.258,57.845L26.646,69.453c-0.258,0.259-0.258,0.679,0,0.938  c0.261,0.258,0.679,0.26,0.938,0l11.61-11.608c0.702-0.702,1.925-0.7,2.625,0c0.724,0.724,0.724,1.902,0,2.626l-0.404,0.403  c-0.258,0.259-0.258,0.679,0,0.938c0.131,0.13,0.3,0.194,0.47,0.194s0.339-0.064,0.469-0.194l0.403-0.403  c0.351-0.352,0.817-0.545,1.313-0.545h0.001c0.495,0,0.962,0.193,1.312,0.545c0.352,0.351,0.546,0.817,0.546,1.313  c0,0.495-0.193,0.962-0.546,1.313L26.511,83.844c-0.351,0.352-0.817,0.545-1.313,0.545h-0.001c-0.495-0.001-0.961-0.193-1.312-0.545  c-0.351-0.351-0.544-0.816-0.544-1.313s0.193-0.962,0.544-1.313l7.041-7.041c0.259-0.259,0.259-0.679,0-0.938  c-0.261-0.26-0.677-0.26-0.938,0l-7.042,7.041c-0.724,0.723-1.902,0.723-2.626,0c-0.724-0.725-0.724-1.902,0-2.626l2.712-2.712  l1.026-1.026c0.259-0.259,0.259-0.679,0-0.938c-0.261-0.26-0.679-0.26-0.938,0l-1.026,1.026l-2.713,2.712  c-0.701,0.701-1.923,0.701-2.624,0c-0.352-0.351-0.546-0.817-0.546-1.314c0-0.496,0.193-0.962,0.544-1.313l18.872-18.872  c0.352-0.352,0.818-0.545,1.314-0.545s0.963,0.194,1.314,0.545C38.981,55.943,38.981,57.121,38.258,57.845z M23.129,87.719  c-0.823,0.822-2.26,0.821-3.08,0l-7.164-7.166c-0.412-0.411-0.639-0.958-0.639-1.54s0.227-1.129,0.639-1.54l2.009-2.009  c0.017,0.828,0.341,1.605,0.928,2.191c0.601,0.601,1.399,0.932,2.249,0.932h0.001c0.144,0,0.283-0.022,0.423-0.041  c-0.126,0.949,0.162,1.944,0.889,2.673c0.622,0.62,1.437,0.93,2.252,0.93c0.142,0,0.281-0.021,0.422-0.04  c-0.019,0.14-0.041,0.279-0.041,0.423c0,0.851,0.33,1.649,0.932,2.249c0.586,0.589,1.364,0.913,2.193,0.928L23.129,87.719z   M48.788,62.06l-1.54,1.54c-0.016-0.827-0.339-1.604-0.927-2.191c-0.601-0.602-1.399-0.933-2.25-0.933H44.07  c-0.144,0-0.282,0.022-0.424,0.041c0.127-0.949-0.161-1.943-0.889-2.672c-0.704-0.706-1.715-0.985-2.676-0.862  c0.137-0.958-0.152-1.966-0.887-2.701c-0.588-0.587-1.363-0.911-2.192-0.927l1.54-1.54c0.411-0.411,0.959-0.638,1.539-0.638  c0.582,0,1.129,0.227,1.54,0.638l7.165,7.165C49.636,59.829,49.637,61.211,48.788,62.06z M49.521,56.034l-0.902,0.901l-4.95-4.95  l0.9-0.901c0.264-0.265,0.697-0.266,0.962-0.002l3.99,3.99c0.128,0.128,0.199,0.299,0.199,0.481  C49.72,55.735,49.648,55.906,49.521,56.034z M82.447,22.42l-2.92,0.674c-0.121,0.027-0.231,0.089-0.319,0.177L49.4,53.077  l-1.874-1.874l29.806-29.808c0.089-0.088,0.15-0.199,0.178-0.32l0.672-2.922l8.514-5.206l0.959,0.958L82.447,22.42z"/>
<path d="M34.965,69.863c0.171,0,0.34-0.065,0.47-0.194l3.438-3.438c0.259-0.259,0.259-0.679,0-0.938  c-0.261-0.26-0.678-0.258-0.938,0l-3.438,3.438c-0.259,0.259-0.259,0.679,0,0.938C34.627,69.799,34.796,69.863,34.965,69.863z"/>
<path d="M32.854,71.976c0.17,0,0.34-0.07,0.471-0.19c0.119-0.13,0.189-0.3,0.189-0.47c0-0.18-0.07-0.35-0.189-0.47  c-0.262-0.25-0.7-0.25-0.941,0c-0.119,0.12-0.189,0.29-0.189,0.47c0,0.17,0.061,0.34,0.189,0.47  C32.514,71.905,32.674,71.976,32.854,71.976z"/>
<text x="0.0" y="117.5" font-size="5.0" font-weight="bold" font-family="Helvetica Neue, Helvetica, Arial-Unicode, Arial, Sans-serif" fill="#000000">Created by Gregory Sujkowski</text><text x="0.0" y="122.5" font-size="5.0" font-weight="bold" font-family="Helvetica Neue, Helvetica, Arial-Unicode, Arial, Sans-serif" fill="#000000">from the Noun Project</text></svg>