<svg xmlns="http://www.w3.org/2000/svg" xmlns:xlink="http://www.w3.org/1999/xlink" version="1.1" id="Layer_1" x="0px" y="0px" width="81.49px" height="100px" viewBox="4.0745 -10.0 81.49 135.0" enable-background="new 0 0 81.49 100" xml:space="preserve">
<rect x="9.804" y="54.857" width="15.289" height="3.397"/>
<path d="M32.855,5h2.862h2.862c0.563,0.459,0.65,2.238,0.65,2.238h-0.434h-6.158h-0.434C32.205,7.238,32.292,5.459,32.855,5z"/>
<rect x="32.205" y="7.707" width="7.025" height="8.47"/>
<polygon points="36.815,26.388 36.815,24.689 33.228,24.689 33.228,33.938 36.815,33.938 36.815,32.24 54.747,32.24 54.747,26.388   "/>
<rect x="21.714" y="33.661" width="6.606" height="4.152"/>
<rect x="23.602" y="38.274" width="2.832" height="2.076"/>
<path d="M9.437,62.037v-2.286H6.04v2.286h0.85v6.02l0,0.019c0.008,0.118,0.202,2.815,1.509,3.896v1.748H5.568  c-0.313,0-0.566,0.254-0.566,0.566s0.253,0.566,0.566,0.566h2.831h0.566v-1.133v-2.033l-0.119-0.084  c-0.484-0.346-0.877-1.062-1.139-2.073c-0.192-0.744-0.247-1.399-0.253-1.482v-6.009H9.437z"/>
<path d="M60.511,28.9v10.785h15.978V28.9H60.511z M68.9,36.09h-6.924v-5.858H68.9V36.09z M75.158,35.05h-4.66v-2.979h4.66V35.05z"/>
<path d="M20.248,30.398l-1.619-1.619l-0.009,0.009v-0.229c0-0.348-0.161-0.629-0.358-0.629s-0.358,0.282-0.358,0.629v4.246h-1.766  c-0.172,0-0.312,0.14-0.312,0.312s0.139,0.312,0.312,0.312h1.766c0.005,0.34,0.163,0.613,0.358,0.613  c0.198,0,0.358-0.282,0.358-0.629v-0.23l0.009,0.009l1.619-1.619h0.965v-1.174H20.248z M20.093,31.152l-1.473,1.473v-3.279  l1.473,1.473V31.152z"/>
<path d="M39.458,19.216v-2.454H21.714v0.818v1.636v6.858v7.172h10.948v-7.172h-2.508c0.22,0.126,0.368,0.363,0.368,0.635  c0,0.404-0.328,0.732-0.732,0.732c-0.145,0-0.279-0.042-0.393-0.115l-2.446,2.447c0.089,0.178,0.14,0.378,0.14,0.591  c0,0.735-0.596,1.332-1.331,1.332c-0.736,0-1.332-0.596-1.332-1.332s0.596-1.332,1.332-1.332c0.35,0,0.668,0.137,0.906,0.358  l2.436-2.436c-0.027-0.077-0.043-0.16-0.043-0.247c0-0.272,0.148-0.508,0.369-0.635h-1.106v-6.858H39.458z"/>
<g>
	<path d="M18.848,62.171c0.468-0.793,0.248-1.804-0.479-2.338l-0.847,1.436l0.82,1.451C18.542,62.578,18.715,62.395,18.848,62.171z"/>
	<path d="M15.544,61.43c0.051,0.55,0.356,1.068,0.867,1.37c0.511,0.301,1.112,0.316,1.618,0.096l-0.819-1.45L15.544,61.43z"/>
	<path d="M15.783,60.363c-0.132,0.224-0.209,0.465-0.235,0.708l1.666,0.016l0.847-1.436C17.242,59.272,16.25,59.57,15.783,60.363z"/>
	<path d="M67.301,40.28v0.74H56.78l-0.334-4.515h-1.429v-3.511H42.855v3.511H40.59v18.762h-4.72v3.587H17.895   c0.234,0.056,0.463,0.146,0.681,0.275c1.179,0.695,1.572,2.22,0.877,3.397c-0.695,1.179-2.22,1.572-3.398,0.877   c-1.178-0.695-1.572-2.22-0.876-3.398c0.356-0.604,0.931-1.001,1.565-1.151h-6.92v6.606l14.911,6.283v15.801h-9.438v5.898v0.142   v1.274h6.668v-1.274h31.587V95h6.668v-1.415v-6.04l-3.333-45.068h10.414h2.797v-1.457v-0.74H67.301z M35.871,87.545h-6.229V73.812   l6.229,2.624V87.545z"/>
</g>
<circle cx="19.196" cy="62.22" r="0.317"/>
<text x="0.0" y="117.5" font-size="5.0" font-weight="bold" font-family="Helvetica Neue, Helvetica, Arial-Unicode, Arial, Sans-serif" fill="#000000">Created by jon trillana</text><text x="0.0" y="122.5" font-size="5.0" font-weight="bold" font-family="Helvetica Neue, Helvetica, Arial-Unicode, Arial, Sans-serif" fill="#000000">from the Noun Project</text></svg>