<svg xmlns="http://www.w3.org/2000/svg" xmlns:xlink="http://www.w3.org/1999/xlink" version="1.1" id="Layer_1" x="0px" y="0px" width="100px" height="100px" viewBox="5.0 -10.0 100.0 135.0" enable-background="new 0 0 100 100" xml:space="preserve">
<g>
	<path d="M93.707,92.293l-86-86C7.42,6.006,6.991,5.921,6.617,6.076C6.244,6.231,6,6.596,6,7v86c0,0.553,0.448,1,1,1h86   c0.404,0,0.77-0.243,0.924-0.617C94.079,93.009,93.993,92.579,93.707,92.293z M8,92V9.414l7.198,7.198l-2.429,2.431l1.415,1.414   l2.429-2.43l3.653,3.653l-2.429,2.428l1.414,1.414l2.429-2.428l3.654,3.654l-4.964,4.963l1.414,1.414l4.964-4.963l3.652,3.652   l-2.429,2.431l1.415,1.414l2.429-2.43l3.653,3.653l-2.43,2.43l1.414,1.414l2.43-2.43l3.654,3.654l-4.964,4.962l1.414,1.414   l4.964-4.962l3.653,3.653l-2.429,2.43l1.414,1.414l2.429-2.43l3.654,3.654l-2.431,2.429l1.414,1.414l2.431-2.429l3.653,3.653   l-4.963,4.963l1.414,1.414l4.963-4.963l3.653,3.653l-2.43,2.429l1.414,1.414l2.43-2.429l3.653,3.653l-2.43,2.43l1.414,1.414   l2.43-2.43l3.653,3.653l-4.964,4.964l1.414,1.414l4.964-4.964l3.654,3.654l-2.43,2.429l1.414,1.414l2.43-2.429l3.652,3.652   l-2.429,2.431l1.414,1.414l2.429-2.431L90.586,92H8z"/>
	<path d="M19.367,38.656c-0.283-0.294-0.716-0.387-1.095-0.235s-0.626,0.52-0.626,0.928V82.25c0,0.553,0.448,1,1,1h41.211   c0.4,0,0.763-0.239,0.92-0.608c0.157-0.368,0.079-0.795-0.199-1.084L19.367,38.656z M19.646,81.25V41.833L57.51,81.25H19.646z"/>
</g>
<text x="0.0" y="117.5" font-size="5.0" font-weight="bold" font-family="Helvetica Neue, Helvetica, Arial-Unicode, Arial, Sans-serif" fill="#000000">Created by Stefania Servidio</text><text x="0.0" y="122.5" font-size="5.0" font-weight="bold" font-family="Helvetica Neue, Helvetica, Arial-Unicode, Arial, Sans-serif" fill="#000000">from the Noun Project</text></svg>