<svg xmlns="http://www.w3.org/2000/svg" xmlns:xlink="http://www.w3.org/1999/xlink" version="1.1" id="Layer_1" x="0px" y="0px" width="100px" height="71.226px" viewBox="5.0 -7.1226 100.0 96.1551" enable-background="new 0 0 100 71.226" xml:space="preserve">
<rect x="23.554" width="1.524" height="8.33"/>
<rect x="37.152" width="1.524" height="8.33"/>
<rect y="32.281" width="5.832" height="8.539"/>
<rect x="0.833" y="29.814" width="4.166" height="1.875"/>
<polygon points="4.27,68.901 4.27,41.86 4.27,41.451 1.562,41.451 1.562,41.86 1.562,68.901 0.833,68.901 0.833,69.311   0.833,70.816 0.833,71.226 1.562,71.226 4.27,71.226 4.999,71.226 4.999,70.816 4.999,69.311 4.999,68.901 "/>
<polygon points="95.276,23.117 57.227,23.117 57.227,18.219 100,18.219 "/>
<rect x="45.542" y="48.688" width="39.154" height="3.957"/>
<rect x="39.502" y="53.523" width="51.649" height="4.374"/>
<rect x="57.129" y="16.787" width="42.871" height="0.831"/>
<path d="M85.711,23.904H55.747v-1.512c0,0-2.193-9.29-6.104-16.505c-2.803-5.17-10.14-4.846-10.14-4.846v16.036v9.766H22.841v-9.766  V1.041c0,0-7.338-0.324-10.14,4.846c-3.911,7.215-6.105,16.505-6.105,16.505v20.51h16.245v-1.481h16.661v1.481h11.494v4.971H62.62  v-6.248h3.749v1.162h5.776v-1.021h1.152v3.291h-1.152v-1.021h-5.776v3.836h19.343v4.771h9.229v-4.771V23.904H85.711z M61.616,45.058  h-1.151v-3.291h1.151V45.058z"/>
<text x="0.0" y="83.69055" font-size="3.5613" font-weight="bold" font-family="Helvetica Neue, Helvetica, Arial-Unicode, Arial, Sans-serif" fill="#000000">Created by jon trillana</text><text x="0.0" y="87.25185" font-size="3.5613" font-weight="bold" font-family="Helvetica Neue, Helvetica, Arial-Unicode, Arial, Sans-serif" fill="#000000">from the Noun Project</text></svg>