<svg xmlns="http://www.w3.org/2000/svg" xmlns:xlink="http://www.w3.org/1999/xlink" version="1.1" id="Your_Icon" x="0px" y="0px" width="100px" height="100px" viewBox="5.0 -10.0 100.0 135.0" enable-background="new 0 0 100 100" xml:space="preserve">
<g>
	<g>
		<g>
		</g>
	</g>
	<g>
	</g>
</g>
<path d="M94.899,29.737c-0.232-2.284-1.201-4.883-2.729-7.318c-0.177-0.281-0.358-0.555-0.545-0.823  c-0.021-0.062-0.048-0.124-0.085-0.182c-0.056-0.091-0.13-0.166-0.21-0.228c-0.521-0.718-1.074-1.39-1.649-1.997  c-0.002-0.003-0.004-0.006-0.006-0.009c-0.072-0.116-0.168-0.207-0.275-0.275c-0.696-0.7-1.419-1.311-2.152-1.812  c-0.082-0.078-0.172-0.139-0.272-0.182c-0.067-0.043-0.136-0.094-0.203-0.136c-2.144-1.32-4.122-1.548-5.569-0.64l-41.991,26.33  c-0.007,0.004-0.014,0.009-0.021,0.014c-2.483,1.656-5.688,1.877-8.374,0.581c-0.26-0.174-0.52-0.342-0.78-0.502  c-4.247-2.616-8.104-3.104-10.862-1.376L8.511,47.867c-2.758,1.73-4,5.415-3.493,10.378c0.483,4.74,2.507,10.156,5.698,15.246  c5.311,8.469,12.701,14.16,18.391,14.16l0,0c1.393,0,2.643-0.341,3.714-1.014l10.665-6.686c2.758-1.729,4-5.416,3.494-10.378  c-0.031-0.301-0.068-0.603-0.111-0.908c0.001-2.985,1.596-5.778,4.171-7.293c0.031-0.017,0.06-0.037,0.087-0.059L93.05,35.027  C94.498,34.12,95.155,32.241,94.899,29.737z M29.106,85.878c-5.023,0-11.968-5.48-16.888-13.329  c-3.05-4.863-4.98-10.007-5.437-14.483c-0.434-4.256,0.515-7.344,2.67-8.696c0.786-0.492,1.719-0.742,2.773-0.742  c3.98,0,9.165,3.451,13.595,8.785c-0.731,0.138-1.438,0.408-2.076,0.81c-2.811,1.762-3.664,5.482-1.902,8.293  c0.854,1.361,2.188,2.31,3.754,2.668c0.45,0.104,0.904,0.155,1.355,0.155c1.118,0,2.215-0.313,3.186-0.922  c0.64-0.4,1.19-0.921,1.635-1.521c1.505,3.291,2.475,6.568,2.778,9.547c0.434,4.255-0.515,7.344-2.671,8.694  C31.094,85.63,30.161,85.878,29.106,85.878L29.106,85.878z M27.155,59.097c0.68,0.911,1.335,1.866,1.958,2.859  c0.624,0.995,1.189,2.007,1.717,3.019c-0.338,0.792-0.899,1.479-1.635,1.939c-0.961,0.602-2.098,0.793-3.203,0.54  c-1.104-0.254-2.045-0.921-2.647-1.881c-1.243-1.982-0.641-4.606,1.341-5.85C25.425,59.26,26.29,59.053,27.155,59.097z   M42.544,78.448l-6.764,4.241c0.6-1.763,0.788-3.934,0.534-6.427c-0.373-3.658-1.666-7.717-3.7-11.718  c-0.007-0.017-0.015-0.03-0.023-0.045c-0.598-1.171-1.255-2.336-1.975-3.487c-0.719-1.145-1.479-2.235-2.265-3.271  c-0.021-0.032-0.045-0.064-0.072-0.094c-4.631-6.079-10.241-10.145-14.932-10.72l6.77-4.245c2.155-1.352,5.348-0.861,8.99,1.383  c3.831,2.36,7.62,6.339,10.67,11.204c3.05,4.863,4.981,10.009,5.437,14.484C45.649,74.011,44.7,77.098,42.544,78.448z   M50.117,59.855c-0.017,0.01-0.033,0.021-0.05,0.032c-1.842,1.105-3.258,2.754-4.1,4.668c-0.981-3.359-2.576-6.864-4.686-10.229  c-2.112-3.368-4.576-6.333-7.175-8.68c0.127,0.004,0.254,0.021,0.382,0.021c1.99,0,3.972-0.576,5.676-1.709l41.98-26.323  c0.652-0.408,1.62-0.347,2.733,0.143L54.81,36.632c-0.413,0.259-0.54,0.807-0.279,1.222c0.168,0.269,0.457,0.416,0.752,0.416  c0.161,0,0.324-0.044,0.47-0.136l30.84-19.336c0.296,0.219,0.588,0.461,0.879,0.719L57.103,38.557  c-0.413,0.26-0.538,0.807-0.278,1.221c0.168,0.269,0.456,0.416,0.752,0.416c0.16,0,0.323-0.044,0.469-0.135l30.71-19.255  c0.244,0.275,0.485,0.561,0.72,0.86L58.969,40.791c-0.414,0.26-0.54,0.807-0.28,1.222c0.169,0.269,0.457,0.416,0.752,0.416  c0.161,0,0.323-0.043,0.47-0.135L90.503,23.11c0.055,0.084,0.112,0.165,0.166,0.25c2.936,4.682,3.115,9.115,1.439,10.166  L50.117,59.855z"/>
<path d="M51.794,40.089c-0.532,0-1.053,0.15-1.506,0.434l-3.444,2.159c-0.643,0.403-1.09,1.033-1.26,1.772  c-0.169,0.74-0.041,1.501,0.362,2.144c0.523,0.834,1.424,1.332,2.409,1.332c0.533,0,1.054-0.15,1.508-0.434l3.444-2.16  c1.326-0.832,1.729-2.589,0.896-3.916C53.681,40.587,52.78,40.089,51.794,40.089z M52.364,43.835l-3.444,2.159  c-0.17,0.107-0.365,0.164-0.565,0.164c-0.371,0-0.71-0.187-0.907-0.5c-0.151-0.242-0.2-0.528-0.136-0.806  c0.064-0.278,0.231-0.515,0.474-0.667l3.445-2.159c0.169-0.107,0.365-0.164,0.562-0.164c0.371,0,0.71,0.187,0.908,0.5  C53.014,42.862,52.862,43.522,52.364,43.835z"/>
<text x="0.0" y="117.5" font-size="5.0" font-weight="bold" font-family="Helvetica Neue, Helvetica, Arial-Unicode, Arial, Sans-serif" fill="#000000">Created by caba kosmotesto</text><text x="0.0" y="122.5" font-size="5.0" font-weight="bold" font-family="Helvetica Neue, Helvetica, Arial-Unicode, Arial, Sans-serif" fill="#000000">from the Noun Project</text></svg>