<svg xmlns="http://www.w3.org/2000/svg" xmlns:xlink="http://www.w3.org/1999/xlink" version="1.1" id="Layer_1" x="0px" y="0px" width="99.998px" height="94.77px" viewBox="-5.9471 -13.923 99.998 127.9395" enable-background="new -10.947 -4.446 99.998 94.77" xml:space="preserve">
<path d="M42.361,23.924L53.197,35.06L4.743,88.629c-2.107,2.259-5.872,2.259-8.13,0l-5.866-6.018c-2.258-2.106-2.258-5.868,0-8.124  L42.361,23.924z"/>
<path d="M87.812,35.359l-8.13,8.278c-1.653,1.656-4.214,1.656-6.018,0l-1.805-1.955c-1.355-1.205-1.961-3.463-1.204-4.516  c1.35-0.902,0.902-3.611-1.659-6.021c-3.607-3.762-8.275-3.911-10.079-1.956c-0.751,0.603-3.16,3.16-3.16,3.16L44.619,21.366  l1.81-1.807c0,0,0.448-0.451,1.351-1.504c3.463-3.462-0.151-7.374-0.151-7.374c-9.777-9.631-23.471-9.48-23.471-9.48l-0.151-3.463  c27.539-7.074,37.921,4.967,41.687,8.729c3.456,3.46,7.07,7.071,7.973,7.976c1.955,1.955,0,7.521,2.857,10.685  c1.355,1.353,3.16,1.956,4.516,1.956c1.508-1.353,3.911-0.902,5.115,0.451l1.659,1.807C89.465,30.998,89.465,33.555,87.812,35.359z"/>
<text x="-10.947" y="106.90875" font-size="4.7385" font-weight="bold" font-family="Helvetica Neue, Helvetica, Arial-Unicode, Arial, Sans-serif" fill="#000000">Created by John Caserta</text><text x="-10.947" y="111.64725" font-size="4.7385" font-weight="bold" font-family="Helvetica Neue, Helvetica, Arial-Unicode, Arial, Sans-serif" fill="#000000">from the Noun Project</text></svg>