<svg xmlns="http://www.w3.org/2000/svg" xmlns:xlink="http://www.w3.org/1999/xlink" xmlns:a="http://ns.adobe.com/AdobeSVGViewerExtensions/3.0/" version="1.1" x="0px" y="0px" width="100px" height="100px" viewBox="3.684 -12.113 100.0 135.0" enable-background="new -1.316 -2.113 100 100" xml:space="preserve">
<defs>
</defs>
<path d="M83.655,57.523L28.679,2.545C27.014,0.88,24.626,0,21.775,0c-4.561,0-9.553,2.27-13.356,6.073L5.956,8.536  C2.915,11.577,0.878,15.3,0.223,19.02c-0.672,3.81,0.194,7.247,2.376,9.429l54.737,54.738l0.337,0.338L96.93,96.396L83.655,57.523z   M87.849,82.181c-1.292-0.021-2.733,0.331-3.979,1.575c-1.132,1.132-1.528,2.43-1.58,3.63l-21.94-7.195  c1.627-3.947,4.436-11.979,3.036-17.577c6.409,1.068,13.293-1.091,16.922-2.518L87.849,82.181z M14.686,34.878l-5.105-5.104  c-0.642-0.644-0.632-2.309,0.024-4.244c0.888-2.617,2.781-5.462,5.332-8.012l2.463-2.464c5.124-5.123,10.525-6.546,12.339-5.791  l5.528,5.528c-3.554,0.841-7.662,3.222-11.285,6.844l-2.464,2.464c-2.993,2.993-5.264,6.325-6.395,9.382  C14.947,33.959,14.805,34.423,14.686,34.878z M26.811,24.464c5.122-5.121,10.487-6.58,12.28-5.85l39.854,39.854  c-3.779,1.406-10.432,3.3-16.226,1.972L26.777,24.497L26.811,24.464z M4.162,19.714c0.515-2.918,2.156-5.884,4.622-8.35l2.463-2.463  C14.271,5.878,18.305,4,21.775,4c1.742,0,3.189,0.488,4.075,1.374l0.029,0.029c-3.568,0.828-7.685,3.2-11.308,6.822l-2.463,2.464  c-2.976,2.976-5.21,6.369-6.291,9.555c-0.159,0.468-0.288,0.925-0.394,1.371C4.18,24.369,3.72,22.219,4.162,19.714z M18.747,38.939  c-0.62-0.621-0.57-2.18,0.128-4.07c0.935-2.527,2.878-5.348,5.472-7.941l1.017-1.017l35.389,35.391l0.191,0.393  c2.232,4.58-0.512,12.887-2.236,17.206L18.747,38.939z"/>
<text x="-1.316" y="115.387" font-size="5.0" font-weight="bold" font-family="Helvetica Neue, Helvetica, Arial-Unicode, Arial, Sans-serif" fill="#000000">Created by Cassie McKown</text><text x="-1.316" y="120.387" font-size="5.0" font-weight="bold" font-family="Helvetica Neue, Helvetica, Arial-Unicode, Arial, Sans-serif" fill="#000000">from the Noun Project</text></svg>