<svg xmlns="http://www.w3.org/2000/svg" xmlns:xlink="http://www.w3.org/1999/xlink" version="1.1" id="Layer_1" x="0px" y="0px" width="90px" height="90px" viewBox="4.5 -9.0 90.0 121.5" enable-background="new 0 0 90 90" xml:space="preserve">
<path stroke="#000000" stroke-width="0.3781" stroke-miterlimit="10" d="M88.855,8.339c-0.09-0.086-0.177-0.174-0.265-0.261  c1.04,1.745-0.817,3.864-1.32,4.354c-1.762,1.712-1.123-0.816-5.811,2.573c-1.795,1.298-4.397,6.313-5.694,7.607  c-2.364,2.358-8.705,3.746-9.772,6.977c-1.452,4.396-3.358,7.182-3.358,7.182l-3.646-3.535c1.817,1.841,3.733,3.74,3.733,3.74  s2.872-4.251,3.949-6.593c1.421-3.093,7.408-4.62,9.771-6.977c1.297-1.295,3.9-6.31,5.695-7.609c4.687-3.388,4.05-0.86,5.81-2.573  C88.504,12.683,90.721,10.157,88.855,8.339z"/>
<path stroke="#000000" stroke-width="0.3781" stroke-miterlimit="10" d="M75.176,22.023c1.298-1.294,3.899-6.309,5.694-7.607  c4.688-3.39,4.052-0.861,5.812-2.574c0.554-0.541,2.771-3.067,0.906-4.885c-3.236-3.153-5.256-6.551-10.565-1.006L54.236,28.739  c-0.222,0.068,7.81,7.444,7.81,7.444s2.432-3.918,3.358-7.182C66.333,25.727,72.813,24.381,75.176,22.023z M58.857,29.941  c-0.518-0.518-0.435-1.44,0.186-2.059c0.617-0.62,1.541-0.702,2.06-0.184c0.517,0.517,0.434,1.44-0.185,2.059  C60.298,30.377,59.377,30.459,58.857,29.941z M69.796,19.003c-0.517-0.518-0.436-1.44,0.184-2.06c0.621-0.62,1.541-0.702,2.06-0.183  c0.518,0.517,0.437,1.439-0.184,2.059C71.235,19.439,70.313,19.521,69.796,19.003z M80.199,8.601  c-0.518-0.518-0.436-1.44,0.184-2.06c0.619-0.619,1.541-0.702,2.06-0.184c0.518,0.518,0.437,1.44-0.185,2.059  C81.64,9.036,80.718,9.119,80.199,8.601z"/>
<polygon stroke="#000000" stroke-width="0.8322" stroke-miterlimit="10" points="61.351,36.2 59.31,38.241 60.175,39.105   62.252,37.102 "/>
<polygon fill="#000000" stroke="#000000" stroke-width="0.8322" stroke-miterlimit="10" points="54.111,29.208 52.175,31.107   59.31,38.241 61.351,36.2 "/>
<path fill="none" stroke="#000000" stroke-width="0.8322" stroke-miterlimit="10" d="M64.258,43.189l-4.083-4.083l-8-7.998  l-0.034,0.036l7.002,7.003l4.081,4.082c0,0-9.512,11.044-23.854,22.149C27.831,73.311,10,78.194,3.471,79.761l-1.476,1.527  c0,0,24.065-4.847,38.406-15.952C54.742,54.232,64.258,43.189,64.258,43.189z"/>
<line fill="none" stroke="#000000" stroke-width="0.8322" stroke-miterlimit="10" x1="52.175" y1="31.107" x2="1.995" y2="81.288"/>
<text x="0.0" y="105.75" font-size="4.5" font-weight="bold" font-family="Helvetica Neue, Helvetica, Arial-Unicode, Arial, Sans-serif" fill="#000000">Created by Trace Lexington Byrd</text><text x="0.0" y="110.25" font-size="4.5" font-weight="bold" font-family="Helvetica Neue, Helvetica, Arial-Unicode, Arial, Sans-serif" fill="#000000">from the Noun Project</text></svg>