<svg xmlns="http://www.w3.org/2000/svg" xmlns:xlink="http://www.w3.org/1999/xlink" version="1.1" id="drill" x="0px" y="0px" viewBox="1.6 -3.2 32.0 43.2" enable-background="new 0 0 32 32" xml:space="preserve" height="100px" width="100px">
<path d="M26,7.4430542V7c0-1.6542358-1.3457642-3-3-3H12c-0.5522461,0-1,0.4476929-1,1H9C8.4477539,5,8,5.4476929,8,6v2H7  c0-0.1279297-0.0488281-0.2558594-0.1464844-0.3535156c-0.1953125-0.1953125-0.5117188-0.1953125-0.7070312,0L5.7929688,8H5  c0-0.1279297-0.0488281-0.2558594-0.1464844-0.3535156c-0.1953125-0.1953125-0.5117188-0.1953125-0.7070312,0L3.7929688,8H2.5  C2.2249756,8,2,8.2249756,2,8.5C2,8.7749634,2.2249756,9,2.5,9H3c0,0.1279297,0.0488281,0.2558594,0.1464844,0.3535156  S3.3720703,9.5,3.5,9.5s0.2558594-0.0488281,0.3535156-0.1464844L4.2070312,9H5  c0,0.1279297,0.0488281,0.2558594,0.1464844,0.3535156S5.3720703,9.5,5.5,9.5s0.2558594-0.0488281,0.3535156-0.1464844L6.2070312,9  H8v2c0,0.5522461,0.4477539,1,1,1h2c0,0.9695435,0.7009277,2,2,2h6v1c0,0.5522461,0.4477539,1,1,1v1c0,0.5522461,0.4477539,1,1,1h1  v0.0001221c0,1.7266846,0.3040771,2.8862915,0.62146,3.6265259c-0.6820068,0.4474487-1.0126343,0.8994141-0.8692017,1.5123901  c0.0469971,0.2008667,0.2755737,0.8566895,1.2434082,0.8609009H26V24c0,1.6611328-1.2412109,4-4,4  c-2.8271484,0-4.5146484-1.6572266-6.2998047-3.4121094C13.9052734,22.8242188,12.0488281,21,9,21  c-5.5917969,0-6.9765625,6.3339844-6.9892578,6.3984375c-0.0566406,0.2695312,0.1171875,0.5351562,0.3876953,0.5908203  c0.265625,0.0605469,0.5341797-0.1162109,0.5908203-0.3876953C3.0009766,27.5458984,4.2119141,22,9,22  c2.6396484,0,4.2714844,1.6035156,5.9990234,3.3007812C16.8496094,27.1191406,18.7636719,29,22,29c3.1298828,0,5-2.5419922,5-5  v-0.000061L27.999939,24c0.5997925,0,1.3921509-0.3283081,1.7614136-1.8924561  C30.5101929,18.9353027,29.5351562,10.0100708,26,7.4430542z M9,11V6h2v1h-0.5C10.2249756,7,10,7.2249756,10,7.5  C10,7.7749634,10.2249756,8,10.5,8H11v1h-0.5C10.2249756,9,10,9.2249756,10,9.5c0,0.2749634,0.2249756,0.5,0.5,0.5H11v1H9z M21,17  v-2h-1v-1h2v3H21z M28,23c0,0-4.6548462-0.000061-5,0c-0.9891968-0.0043335,1-0.999939,1-0.999939S23,21,23,18.0001221V17v-3  c0-0.5523071-0.4476929-1-1-1h-9c-1,0-1-1-1-1V5h11c1.1046143,0,2,0.8954468,2,2v1C29,10,30,23,28,23z"/>
<path d="M22.5,7.9997559h-9c-0.2750244,0-0.5,0.2250366-0.5,0.5c0,0.2750244,0.2249756,0.5,0.5,0.5h9  c0.2750244,0,0.5-0.2249756,0.5-0.5C23,8.2247925,22.7750244,7.9997559,22.5,7.9997559z"/>
<text x="0.0" y="37.6" font-size="1.6" font-weight="bold" font-family="Helvetica Neue, Helvetica, Arial-Unicode, Arial, Sans-serif" fill="#000000">Created by Musket</text><text x="0.0" y="39.2" font-size="1.6" font-weight="bold" font-family="Helvetica Neue, Helvetica, Arial-Unicode, Arial, Sans-serif" fill="#000000">from the Noun Project</text></svg>