<svg xmlns="http://www.w3.org/2000/svg" xmlns:xlink="http://www.w3.org/1999/xlink" version="1.1" x="0px" y="0px" width="100px" height="100px" viewBox="5.0 -10.0 100.0 135.0" enable-background="new 0 0 100 100" xml:space="preserve">
<g id="Background">
</g>
<g id="Pictograms">
	<path d="M58.681,16.633c-0.13-0.1-0.26-0.19-0.4-0.28v-5.98c0-0.44-0.28-0.82-0.7-0.95l-0.3-0.09v-4.24c0-0.44-0.28-0.82-0.7-0.95   l-12.57-3.92c-0.3-0.1-0.63-0.04-0.89,0.15c-0.25,0.18-0.4,0.48-0.4,0.8v8.05l-0.31,0.1c-0.41,0.13-0.69,0.52-0.69,0.95v6.08   c-0.14,0.08-0.28,0.18-0.41,0.28c-2.21,1.67-3.33,4.48-3.33,8.36v62.53c0,6.62,5.39,12.01,12.02,12.01s12.02-5.39,12.02-12.01   v-62.53C62.021,21.113,60.891,18.303,58.681,16.633z M44.721,2.533l10.56,3.3v2.86l-5.22-1.65c-0.2-0.06-0.41-0.06-0.61,0.01   l-4.73,1.53V2.533z M43.721,11.003l2.21-0.71h0.05l2.95-0.98h0.02l0.81-0.26l0.87,0.27h0.02l0.02,0.01l3.23,1.02l2.38,0.75v69.85   c-1.54,1.03-3.85,1.62-6.44,1.62c-2.26,0-4.54-0.47-6.12-1.23V11.003z M60.021,87.523c0,5.52-4.5,10.01-10.02,10.01   c-5.53,0-10.02-4.49-10.02-10.01v-62.53c0-2.66,0.59-4.68,1.74-6.02v62.97c0,0.36,0.19,0.69,0.49,0.87   c1.89,1.1,4.74,1.76,7.63,1.76c3.3,0,6.16-0.83,8.06-2.33c0.24-0.19,0.38-0.48,0.38-0.78v-62.48c1.15,1.33,1.74,3.35,1.74,6.01   V87.523z"/>
	<path d="M46.601,47.823c0,0.04,0.01,0.07,0.02,0.1c0.01,0.03,0.02,0.06,0.04,0.09C46.631,47.953,46.611,47.893,46.601,47.823z"/>
	<path d="M53.611,67.243v-53.92c0-0.55-0.44-1-1-1h-5.03c-0.55,0-1,0.45-1,1v14.14c0,0.04,0,0.08,0.01,0.12   c-0.04,0.27,0.03,0.55,0.21,0.77l1.09,1.37l-1.09,1.36c-0.1,0.12-0.16,0.25-0.19,0.39c-0.01,0.01-0.01,0.03-0.01,0.05   c-0.06,0.28,0.01,0.58,0.2,0.81l1.09,1.37l-1.09,1.36c-0.05,0.05-0.08,0.11-0.11,0.17c-0.03,0.06-0.06,0.12-0.07,0.18   c-0.01,0.02-0.01,0.03-0.01,0.04c-0.01,0.01-0.01,0.03-0.01,0.05c-0.06,0.28,0.01,0.58,0.2,0.81l0.09,0.11l1,1.26l-1,1.26   c-0.02,0.02-0.04,0.04-0.05,0.06c-0.01,0.01-0.03,0.02-0.04,0.05c-0.02,0.03-0.04,0.05-0.06,0.08c-0.02,0.02-0.03,0.04-0.04,0.06   v0.01c-0.02,0.03-0.03,0.07-0.05,0.1c-0.05,0.11-0.07,0.24-0.07,0.37c0,0.06,0.01,0.13,0.02,0.19c0.01,0.08,0.04,0.15,0.07,0.22   c0.03,0.08,0.07,0.15,0.13,0.22l1.09,1.36l-1.09,1.37c-0.17,0.2-0.24,0.46-0.21,0.71c0,0.04,0,0.06,0.01,0.1   c0.01,0.08,0.04,0.15,0.07,0.22c0.03,0.08,0.07,0.15,0.13,0.22l1.09,1.36l-1.09,1.37c-0.06,0.07-0.1,0.14-0.14,0.22   c0,0.01-0.01,0.01-0.01,0.02c-0.01,0.04-0.03,0.1-0.04,0.14c-0.01,0.01-0.01,0.03-0.01,0.04c-0.01,0.06-0.02,0.13-0.02,0.19v0.01   c0,0.07,0.01,0.12,0.02,0.19c0.01,0.07,0.03,0.13,0.06,0.19v0.01c0.01,0.03,0.02,0.05,0.04,0.08c0.03,0.06,0.06,0.11,0.1,0.16   l1.09,1.36l-1.09,1.37c-0.29,0.36-0.3,0.88,0,1.25l1.09,1.36l-1.09,1.37c-0.29,0.36-0.3,0.88,0,1.25l1.09,1.36l-1.09,1.37   c-0.29,0.36-0.3,0.88,0,1.25l1.09,1.36l-1.09,1.37c-0.29,0.36-0.3,0.88,0,1.25l1.09,1.36l-1.09,1.37   c-0.03,0.04-0.06,0.08-0.08,0.12h-0.01c-0.07,0.04-0.15,0.08-0.22,0.13c-0.29,0.18-0.47,0.5-0.47,0.85v11   c0,0.34,0.18,0.67,0.47,0.85c1.01,0.62,2.14,0.94,3.36,0.94c2.01,0,3.57-0.89,3.63-0.93c0.31-0.18,0.5-0.51,0.5-0.86v-11   C53.981,67.703,53.841,67.423,53.611,67.243z M51.611,66.443c-0.5-0.13-1.08-0.21-1.7-0.22l0.04-0.05c0.3-0.37,0.3-0.89,0-1.25   l-1.09-1.36l1.09-1.37c0.3-0.37,0.3-0.89,0-1.25l-1.09-1.36l1.09-1.37c0.3-0.37,0.3-0.89,0-1.25l-1.09-1.36l1.09-1.37   c0.3-0.37,0.3-0.89,0-1.25l-1.09-1.36l1.09-1.37c0.3-0.37,0.3-0.89,0-1.25l-1.09-1.36l1.09-1.37c0.3-0.37,0.3-0.89,0-1.25   l-1.09-1.36l1.09-1.37c0.3-0.37,0.3-0.89,0-1.25l-1.09-1.37l1.09-1.37c0.3-0.36,0.3-0.88,0-1.25l-1.09-1.36l1.09-1.37   c0.3-0.36,0.3-0.88,0-1.25l-1.09-1.36l1.09-1.37c0.3-0.36,0.3-0.88,0-1.25l-1.37-1.71v-13.06h3.03V66.443z"/>
	<path d="M46.661,48.013c-0.02-0.03-0.03-0.06-0.04-0.09c-0.01-0.03-0.02-0.06-0.02-0.1C46.611,47.893,46.631,47.953,46.661,48.013z   "/>
</g>
<g id="Guides">
</g>
<text x="0.0" y="117.5" font-size="5.0" font-weight="bold" font-family="Helvetica Neue, Helvetica, Arial-Unicode, Arial, Sans-serif" fill="#000000">Created by Ed Harrison</text><text x="0.0" y="122.5" font-size="5.0" font-weight="bold" font-family="Helvetica Neue, Helvetica, Arial-Unicode, Arial, Sans-serif" fill="#000000">from the Noun Project</text></svg>